<?xml version="1.0" encoding="UTF-8"?>
<svg id="Layer_2" data-name="Layer 2" xmlns="http://www.w3.org/2000/svg" xmlns:xlink="http://www.w3.org/1999/xlink" viewBox="0 0 388 332.74">
  <defs>
    <style>
      .cls-1 {
        fill: url(#radial-gradient-10);
      }

      .cls-2 {
        fill: #20557d;
      }

      .cls-3 {
        fill: url(#linear-gradient-61);
      }

      .cls-4 {
        fill: url(#linear-gradient-15);
      }

      .cls-5 {
        fill: url(#linear-gradient-13);
      }

      .cls-6 {
        fill: url(#linear-gradient-28);
      }

      .cls-7 {
        fill: url(#linear-gradient-65);
      }

      .cls-8 {
        fill: url(#linear-gradient-69);
      }

      .cls-9 {
        fill: url(#linear-gradient-53);
      }

      .cls-10 {
        fill: url(#linear-gradient-42);
      }

      .cls-11 {
        fill: url(#linear-gradient-46);
      }

      .cls-12 {
        fill: #898989;
      }

      .cls-13 {
        fill: #0d8db5;
      }

      .cls-14 {
        fill: #8b8b8b;
      }

      .cls-15 {
        fill: url(#linear-gradient-70);
      }

      .cls-16 {
        fill: #2e4150;
      }

      .cls-17 {
        fill: url(#linear-gradient-60);
      }

      .cls-18 {
        fill: #838383;
      }

      .cls-19 {
        fill: url(#linear-gradient-2);
      }

      .cls-20 {
        fill: #466c84;
      }

      .cls-21 {
        fill: url(#linear-gradient-64);
      }

      .cls-22 {
        fill: url(#linear-gradient-56);
      }

      .cls-23 {
        fill: url(#radial-gradient-9);
      }

      .cls-24 {
        fill: url(#linear-gradient-43);
      }

      .cls-25 {
        fill: url(#linear-gradient-25);
      }

      .cls-26 {
        fill: #a7a7a7;
      }

      .cls-27 {
        fill: url(#linear-gradient-10);
      }

      .cls-28 {
        fill: url(#linear-gradient-12);
      }

      .cls-29 {
        fill: url(#linear-gradient-40);
      }

      .cls-30 {
        fill: url(#linear-gradient-27);
      }

      .cls-31 {
        fill: url(#linear-gradient-68);
      }

      .cls-32 {
        fill: #2a4a62;
      }

      .cls-33 {
        fill: #5faaa5;
      }

      .cls-34 {
        fill: url(#linear-gradient-37);
      }

      .cls-35 {
        fill: #8f8f8f;
      }

      .cls-36 {
        fill: #0f4e00;
      }

      .cls-37 {
        fill: url(#linear-gradient-75);
      }

      .cls-38 {
        fill: url(#linear-gradient-55);
      }

      .cls-39 {
        fill: #fff;
      }

      .cls-40 {
        fill: url(#linear-gradient-39);
      }

      .cls-41 {
        fill: #39576a;
      }

      .cls-42 {
        fill: url(#linear-gradient-52);
      }

      .cls-43 {
        fill: url(#linear-gradient-58);
      }

      .cls-44 {
        fill: url(#linear-gradient-47);
      }

      .cls-45 {
        fill: url(#linear-gradient-26);
      }

      .cls-46 {
        fill: url(#linear-gradient-74);
      }

      .cls-47 {
        fill: #086e96;
      }

      .cls-48 {
        fill: url(#linear-gradient-72);
      }

      .cls-49 {
        fill: url(#linear-gradient-4);
      }

      .cls-50 {
        fill: #314b5c;
      }

      .cls-51 {
        fill: url(#radial-gradient-5);
      }

      .cls-52 {
        fill: url(#linear-gradient-35);
      }

      .cls-53 {
        fill: url(#linear-gradient-30);
      }

      .cls-54 {
        fill: #527e99;
      }

      .cls-55 {
        fill: url(#linear-gradient-76);
      }

      .cls-56 {
        fill: #95adbc;
      }

      .cls-57 {
        fill: url(#radial-gradient);
      }

      .cls-58 {
        fill: url(#radial-gradient-3);
      }

      .cls-59 {
        fill: url(#linear-gradient-73);
      }

      .cls-60 {
        fill: url(#linear-gradient-71);
      }

      .cls-61 {
        fill: #e0e0e0;
      }

      .cls-62 {
        fill: #8e8e8e;
      }

      .cls-63 {
        fill: url(#linear-gradient-44);
      }

      .cls-64 {
        fill: #074c61;
      }

      .cls-65 {
        fill: url(#linear-gradient-49);
      }

      .cls-66 {
        fill: url(#linear-gradient-3);
      }

      .cls-67 {
        fill: url(#linear-gradient-34);
      }

      .cls-68 {
        fill: #8a8a8a;
      }

      .cls-69 {
        fill: url(#linear-gradient-5);
      }

      .cls-70 {
        fill: url(#linear-gradient-38);
      }

      .cls-71 {
        fill: url(#linear-gradient-22);
      }

      .cls-72 {
        fill: url(#linear-gradient-24);
      }

      .cls-73 {
        fill: url(#linear-gradient-54);
      }

      .cls-74 {
        fill: url(#linear-gradient-33);
      }

      .cls-75 {
        fill: #187d00;
      }

      .cls-76 {
        fill: url(#linear-gradient-79);
      }

      .cls-77 {
        fill: url(#linear-gradient-78);
      }

      .cls-78 {
        fill: url(#linear-gradient-51);
      }

      .cls-79 {
        fill: url(#linear-gradient-8);
      }

      .cls-80 {
        fill: url(#linear-gradient-66);
      }

      .cls-81 {
        fill: url(#linear-gradient-57);
      }

      .cls-82 {
        fill: url(#linear-gradient-77);
      }

      .cls-83 {
        fill: silver;
      }

      .cls-84 {
        fill: url(#radial-gradient-8);
      }

      .cls-85 {
        fill: url(#radial-gradient-2);
      }

      .cls-86 {
        fill: url(#linear-gradient-14);
      }

      .cls-87 {
        fill: url(#linear-gradient-62);
      }

      .cls-88 {
        fill: #f25536;
      }

      .cls-89 {
        fill: url(#linear-gradient-29);
      }

      .cls-90 {
        fill: url(#linear-gradient-20);
      }

      .cls-91 {
        fill: url(#radial-gradient-4);
      }

      .cls-92 {
        fill: url(#linear-gradient-67);
      }

      .cls-93 {
        fill: url(#linear-gradient-17);
      }

      .cls-94 {
        fill: url(#linear-gradient-50);
      }

      .cls-95 {
        fill: url(#linear-gradient-7);
      }

      .cls-96 {
        fill: url(#linear-gradient-9);
      }

      .cls-97 {
        fill: #999;
      }

      .cls-98 {
        fill: url(#linear-gradient-59);
      }

      .cls-99 {
        fill: url(#linear-gradient-11);
      }

      .cls-100 {
        fill: url(#linear-gradient-19);
      }

      .cls-101 {
        fill: url(#linear-gradient-80);
      }

      .cls-102 {
        fill: #858585;
      }

      .cls-103 {
        fill: #0b7a9c;
      }

      .cls-104 {
        fill: url(#linear-gradient-6);
      }

      .cls-105 {
        fill: #5b8cab;
      }

      .cls-106 {
        fill: #414d56;
      }

      .cls-107 {
        fill: #f2e2ce;
      }

      .cls-108 {
        fill: #a0e0de;
      }

      .cls-109 {
        fill: #d8e4ef;
      }

      .cls-110 {
        fill: url(#linear-gradient-36);
      }

      .cls-111 {
        fill: url(#linear-gradient-21);
      }

      .cls-112 {
        fill: url(#linear-gradient-45);
      }

      .cls-113 {
        fill: #949494;
      }

      .cls-114 {
        fill: gray;
      }

      .cls-115 {
        fill: url(#radial-gradient-6);
      }

      .cls-116 {
        fill: #298b94;
      }

      .cls-117 {
        fill: url(#linear-gradient-48);
      }

      .cls-118 {
        fill: url(#linear-gradient-32);
      }

      .cls-119 {
        fill: url(#linear-gradient-41);
      }

      .cls-120 {
        fill: url(#radial-gradient-7);
      }

      .cls-121 {
        fill: url(#linear-gradient-16);
      }

      .cls-122 {
        fill: #4e7993;
      }

      .cls-123 {
        fill: #167000;
      }

      .cls-124 {
        fill: url(#linear-gradient);
      }

      .cls-125 {
        fill: url(#linear-gradient-23);
      }

      .cls-126 {
        fill: url(#linear-gradient-31);
      }

      .cls-127 {
        fill: #9d9d9d;
      }

      .cls-128 {
        fill: url(#linear-gradient-63);
      }

      .cls-129 {
        fill: #0a6d8c;
      }

      .cls-130 {
        fill: url(#linear-gradient-18);
      }

      .cls-131 {
        fill: #008e9b;
      }

      .cls-132 {
        fill: #e3f1ff;
      }
    </style>
    <linearGradient id="linear-gradient" x1="-1820.19" y1="1934.63" x2="-1807.6" y2="1934.63" gradientTransform="translate(2013 2168.27) scale(1 -1)" gradientUnits="userSpaceOnUse">
      <stop offset="0" stop-color="#58ade8"/>
      <stop offset=".67" stop-color="#4fa1e1"/>
      <stop offset="1" stop-color="#1e61b9"/>
    </linearGradient>
    <radialGradient id="radial-gradient" cx="-1956.71" cy="2031.55" fx="-1956.71" fy="2031.55" r="98.11" gradientTransform="translate(1897.84 2001.46) scale(.89 -.89)" gradientUnits="userSpaceOnUse">
      <stop offset="0" stop-color="#4a9be0"/>
      <stop offset=".52" stop-color="#4a9be0"/>
      <stop offset="1" stop-color="#3a6dc2"/>
    </radialGradient>
    <radialGradient id="radial-gradient-2" cx="-1957.03" cy="2031.4" fx="-1957.03" fy="2031.4" r="98.08" xlink:href="#radial-gradient"/>
    <radialGradient id="radial-gradient-3" cx="-1957.1" cy="2031.98" fx="-1957.1" fy="2031.98" r="98.21" xlink:href="#radial-gradient"/>
    <radialGradient id="radial-gradient-4" cx="-1956.97" cy="2031.98" fx="-1956.97" fy="2031.98" r="98.24" xlink:href="#radial-gradient"/>
    <radialGradient id="radial-gradient-5" cx="-1956.85" cy="2031.39" fx="-1956.85" fy="2031.39" r="98.2" xlink:href="#radial-gradient"/>
    <radialGradient id="radial-gradient-6" cx="-1956.04" cy="2031.09" fx="-1956.04" fy="2031.09" r="98.24" xlink:href="#radial-gradient"/>
    <radialGradient id="radial-gradient-7" cx="-1956.56" cy="2031.34" fx="-1956.56" fy="2031.34" r="98.24" xlink:href="#radial-gradient"/>
    <radialGradient id="radial-gradient-8" cx="-1957.65" cy="2031.09" fx="-1957.65" fy="2031.09" r="97.18" xlink:href="#radial-gradient"/>
    <linearGradient id="linear-gradient-2" x1="-1798.07" y1="1997.53" x2="-1833.06" y2="2000.54" gradientTransform="translate(2013 2168.27) scale(1 -1)" gradientUnits="userSpaceOnUse">
      <stop offset="0" stop-color="#5da8e4"/>
      <stop offset="0" stop-color="#5ea8e4"/>
      <stop offset=".26" stop-color="#7bb9f0"/>
      <stop offset=".52" stop-color="#90c4f8"/>
      <stop offset=".76" stop-color="#9ccbfd"/>
      <stop offset="1" stop-color="#a1ceff"/>
    </linearGradient>
    <linearGradient id="linear-gradient-3" x1="-1803.43" y1="1966.59" x2="-1820.39" y2="1966.59" gradientTransform="translate(2013 2168.27) scale(1 -1)" gradientUnits="userSpaceOnUse">
      <stop offset="0" stop-color="#1e61b9"/>
      <stop offset=".52" stop-color="#4fa1e1"/>
      <stop offset="1" stop-color="#58ade8"/>
    </linearGradient>
    <linearGradient id="linear-gradient-4" x1="-1805.39" y1="1948.64" x2="-1955.29" y2="1948.64" gradientTransform="translate(2013 2168.27) scale(1 -1)" gradientUnits="userSpaceOnUse">
      <stop offset="0" stop-color="#2c78dd"/>
      <stop offset=".11" stop-color="#2c78dd"/>
      <stop offset=".16" stop-color="#85c8ff"/>
      <stop offset=".25" stop-color="#8cc6ff"/>
      <stop offset=".26" stop-color="#60a3f1"/>
      <stop offset=".4" stop-color="#7dbafb"/>
      <stop offset=".41" stop-color="#60a3f1"/>
      <stop offset=".58" stop-color="#8cc6ff"/>
      <stop offset=".59" stop-color="#599ced"/>
      <stop offset=".65" stop-color="#5da5fb"/>
      <stop offset=".73" stop-color="#4489e2"/>
      <stop offset="1" stop-color="#0c73c4"/>
    </linearGradient>
    <linearGradient id="linear-gradient-5" x1="-1805.13" y1="1959" x2="-1955.6" y2="1959" xlink:href="#linear-gradient-4"/>
    <linearGradient id="linear-gradient-6" x1="-1804.91" y1="1970.16" x2="-1955.67" y2="1970.16" xlink:href="#linear-gradient-4"/>
    <linearGradient id="linear-gradient-7" x1="-1804.92" y1="1956.71" x2="-1955.67" y2="1956.71" xlink:href="#linear-gradient-4"/>
    <linearGradient id="linear-gradient-8" x1="-1805.06" y1="1950.43" x2="-1955.33" y2="1950.43" xlink:href="#linear-gradient-4"/>
    <linearGradient id="linear-gradient-9" x1="-1804.93" y1="1951.59" x2="-1955.66" y2="1951.59" xlink:href="#linear-gradient-4"/>
    <linearGradient id="linear-gradient-10" x1="-1804.9" y1="1983.3" x2="-1955.67" y2="1983.3" xlink:href="#linear-gradient-4"/>
    <radialGradient id="radial-gradient-9" cx="-1909.46" cy="2113.5" fx="-1909.46" fy="2113.5" r="181.68" gradientTransform="translate(1897.84 2001.46) scale(.89 -.89)" gradientUnits="userSpaceOnUse">
      <stop offset="0" stop-color="#fff"/>
      <stop offset="1" stop-color="#7ba9db"/>
    </radialGradient>
    <linearGradient id="linear-gradient-11" x1="-1795.32" y1="2029.59" x2="-1830.31" y2="2032.59" xlink:href="#linear-gradient-2"/>
    <linearGradient id="linear-gradient-12" y1="1998.54" x2="-1822.67" y2="1998.54" xlink:href="#linear-gradient-3"/>
    <linearGradient id="linear-gradient-13" x1="-1804.92" y1="1988.66" x2="-1955.67" y2="1988.66" xlink:href="#linear-gradient-4"/>
    <linearGradient id="linear-gradient-14" x1="-1804.94" y1="2015.25" x2="-1955.67" y2="2015.25" xlink:href="#linear-gradient-4"/>
    <linearGradient id="linear-gradient-15" x1="-1804.92" y1="1990.96" x2="-1955.67" y2="1990.96" xlink:href="#linear-gradient-4"/>
    <linearGradient id="linear-gradient-16" x1="-1804.92" y1="1982.38" x2="-1955.67" y2="1982.38" xlink:href="#linear-gradient-4"/>
    <linearGradient id="linear-gradient-17" x1="-1804.92" y1="1983.54" x2="-1955.67" y2="1983.54" xlink:href="#linear-gradient-4"/>
    <linearGradient id="linear-gradient-18" x1="-1804.92" y1="1980.6" x2="-1955.67" y2="1980.6" xlink:href="#linear-gradient-4"/>
    <linearGradient id="linear-gradient-19" x1="-1804.94" y1="2002.12" x2="-1955.66" y2="2002.12" xlink:href="#linear-gradient-4"/>
    <radialGradient id="radial-gradient-10" cx="-1909.46" fx="-1909.46" xlink:href="#radial-gradient-9"/>
    <linearGradient id="linear-gradient-20" x1="-1876.67" y1="2060.35" x2="-1702.68" y2="2060.35" gradientTransform="translate(2013 2168.27) scale(1 -1)" gradientUnits="userSpaceOnUse">
      <stop offset="0" stop-color="#3563af"/>
      <stop offset=".76" stop-color="#37a6e1"/>
      <stop offset="1" stop-color="#6ab5e1"/>
    </linearGradient>
    <linearGradient id="linear-gradient-21" y1="2080.58" y2="2080.58" xlink:href="#linear-gradient-20"/>
    <linearGradient id="linear-gradient-22" y1="2066.13" x2="-1702.67" y2="2066.13" xlink:href="#linear-gradient-20"/>
    <linearGradient id="linear-gradient-23" x1="-1876.68" y1="2045.91" x2="-1702.66" y2="2045.91" xlink:href="#linear-gradient-20"/>
    <linearGradient id="linear-gradient-24" y1="2089.23" x2="-1702.67" y2="2089.23" xlink:href="#linear-gradient-20"/>
    <linearGradient id="linear-gradient-25" y1="2074.79" x2="-1702.66" y2="2074.79" xlink:href="#linear-gradient-20"/>
    <linearGradient id="linear-gradient-26" y1="2095.02" x2="-1702.66" y2="2095.02" xlink:href="#linear-gradient-20"/>
    <linearGradient id="linear-gradient-27" y1="2051.7" x2="-1702.67" y2="2051.7" xlink:href="#linear-gradient-20"/>
    <linearGradient id="linear-gradient-28" x1="-1898.94" y1="2092.16" x2="-1879.33" y2="2092.16" gradientTransform="translate(2013 2168.27) scale(1 -1)" gradientUnits="userSpaceOnUse">
      <stop offset="0" stop-color="#fff"/>
      <stop offset="1" stop-color="#859bab"/>
    </linearGradient>
    <linearGradient id="linear-gradient-29" x1="-1873.82" y1="2077.67" x2="-1854.21" y2="2077.67" xlink:href="#linear-gradient-28"/>
    <linearGradient id="linear-gradient-30" x1="-1848.69" y1="2063.2" x2="-1829.08" y2="2063.2" xlink:href="#linear-gradient-28"/>
    <linearGradient id="linear-gradient-31" x1="-1823.57" y1="2048.74" x2="-1803.96" y2="2048.74" xlink:href="#linear-gradient-28"/>
    <linearGradient id="linear-gradient-32" x1="-1729.53" y1="2048.81" x2="-1895.8" y2="2048.81" xlink:href="#linear-gradient-28"/>
    <linearGradient id="linear-gradient-33" x1="-1729.54" y1="2063.25" x2="-1895.79" y2="2063.25" xlink:href="#linear-gradient-28"/>
    <linearGradient id="linear-gradient-34" x1="-1729.53" y1="2077.68" x2="-1895.79" y2="2077.68" xlink:href="#linear-gradient-28"/>
    <linearGradient id="linear-gradient-35" x1="-1729.54" y1="2092.12" x2="-1895.79" y2="2092.12" xlink:href="#linear-gradient-28"/>
    <linearGradient id="linear-gradient-36" y1="2080.68" x2="-1702.67" y2="2080.68" xlink:href="#linear-gradient-20"/>
    <linearGradient id="linear-gradient-37" y1="2059.8" x2="-1702.67" y2="2059.8" xlink:href="#linear-gradient-20"/>
    <linearGradient id="linear-gradient-38" y1="2050.87" x2="-1702.67" y2="2050.87" xlink:href="#linear-gradient-20"/>
    <linearGradient id="linear-gradient-39" y1="2065.77" x2="-1702.67" y2="2065.77" xlink:href="#linear-gradient-20"/>
    <linearGradient id="linear-gradient-40" y1="2044.9" x2="-1702.67" y2="2044.9" xlink:href="#linear-gradient-20"/>
    <linearGradient id="linear-gradient-41" x1="-1876.68" y1="2074.7" x2="-1702.67" y2="2074.7" xlink:href="#linear-gradient-20"/>
    <linearGradient id="linear-gradient-42" x1="-1772.43" y1="2062.64" x2="-1752.09" y2="2062.64" xlink:href="#linear-gradient-28"/>
    <linearGradient id="linear-gradient-43" x1="-1746.8" y1="2077.5" x2="-1726.46" y2="2077.5" xlink:href="#linear-gradient-28"/>
    <linearGradient id="linear-gradient-44" x1="-1729.54" y1="2077.69" x2="-1895.79" y2="2077.69" xlink:href="#linear-gradient-28"/>
    <linearGradient id="linear-gradient-45" x1="-1729.54" y1="2062.79" x2="-1895.79" y2="2062.79" xlink:href="#linear-gradient-28"/>
    <linearGradient id="linear-gradient-46" x1="-1798.04" y1="2047.77" x2="-1777.71" y2="2047.77" xlink:href="#linear-gradient-28"/>
    <linearGradient id="linear-gradient-47" x1="-1729.54" y1="2047.88" x2="-1895.79" y2="2047.88" xlink:href="#linear-gradient-28"/>
    <linearGradient id="linear-gradient-48" x1="-1690.35" y1="1955.49" x2="-1683.08" y2="1955.49" xlink:href="#linear-gradient"/>
    <linearGradient id="linear-gradient-49" x1="-1700.84" y1="1949.4" x2="-1693.56" y2="1949.4" xlink:href="#linear-gradient"/>
    <linearGradient id="linear-gradient-50" x1="-1876.32" y1="1949.8" x2="-1704.17" y2="1949.8" gradientTransform="translate(2013 2168.27) scale(1 -1)" gradientUnits="userSpaceOnUse">
      <stop offset="0" stop-color="#6ab5e1"/>
      <stop offset="1" stop-color="#4573b0"/>
    </linearGradient>
    <linearGradient id="linear-gradient-51" x1="-1740.36" y1="1926.43" x2="-1733.12" y2="1926.43" xlink:href="#linear-gradient"/>
    <linearGradient id="linear-gradient-52" x1="-1750.79" y1="1920.33" x2="-1743.61" y2="1920.33" xlink:href="#linear-gradient"/>
    <linearGradient id="linear-gradient-53" x1="-1715.14" y1="1940.99" x2="-1707.89" y2="1940.99" xlink:href="#linear-gradient"/>
    <linearGradient id="linear-gradient-54" x1="-1725.62" y1="1934.9" x2="-1718.38" y2="1934.9" xlink:href="#linear-gradient"/>
    <linearGradient id="linear-gradient-55" x1="-1800.21" y1="1961.89" x2="-1754.87" y2="1961.89" gradientTransform="translate(2013 2168.27) scale(1 -1)" gradientUnits="userSpaceOnUse">
      <stop offset="0" stop-color="#5da8e4"/>
      <stop offset="1" stop-color="#a1ceff"/>
    </linearGradient>
    <linearGradient id="linear-gradient-56" x1="-1688.54" y1="2011.5" x2="-1742.88" y2="2011.5" xlink:href="#linear-gradient-3"/>
    <linearGradient id="linear-gradient-57" x1="-1688.57" y1="2004.19" x2="-1743.24" y2="2004.19" xlink:href="#linear-gradient-3"/>
    <linearGradient id="linear-gradient-58" x1="-1688.48" y1="2014.43" x2="-1742.9" y2="2014.43" xlink:href="#linear-gradient-3"/>
    <linearGradient id="linear-gradient-59" x1="-1688.94" y1="1996.88" x2="-1743.25" y2="1996.88" xlink:href="#linear-gradient-3"/>
    <linearGradient id="linear-gradient-60" x1="-1688.75" y1="2007.12" x2="-1742.86" y2="2007.12" xlink:href="#linear-gradient-3"/>
    <linearGradient id="linear-gradient-61" x1="-1688.94" y1="1992.49" x2="-1743.36" y2="1992.49" xlink:href="#linear-gradient-3"/>
    <linearGradient id="linear-gradient-62" x1="-1688.62" y1="1989.56" x2="-1743.45" y2="1989.56" xlink:href="#linear-gradient-3"/>
    <linearGradient id="linear-gradient-63" x1="-1688.78" y1="1999.8" x2="-1743.21" y2="1999.8" xlink:href="#linear-gradient-3"/>
    <linearGradient id="linear-gradient-64" x1="-1688.82" y1="1960.85" x2="-1743.38" y2="1960.85" xlink:href="#linear-gradient-3"/>
    <linearGradient id="linear-gradient-65" x1="-1688.33" y1="1957.8" x2="-1743.48" y2="1957.8" xlink:href="#linear-gradient-3"/>
    <linearGradient id="linear-gradient-66" x1="-1688.57" y1="1976.07" x2="-1743.14" y2="1976.07" xlink:href="#linear-gradient-3"/>
    <linearGradient id="linear-gradient-67" x1="-1688.34" y1="1980.63" x2="-1743.73" y2="1980.63" xlink:href="#linear-gradient-3"/>
    <linearGradient id="linear-gradient-68" x1="-1688.47" y1="1983.68" x2="-1742.75" y2="1983.68" xlink:href="#linear-gradient-3"/>
    <linearGradient id="linear-gradient-69" x1="-1688.48" y1="1973.02" x2="-1743.34" y2="1973.02" xlink:href="#linear-gradient-3"/>
    <linearGradient id="linear-gradient-70" x1="-1688.69" y1="1968.46" x2="-1743.27" y2="1968.46" xlink:href="#linear-gradient-3"/>
    <linearGradient id="linear-gradient-71" x1="-1688.67" y1="1965.41" x2="-1743.34" y2="1965.41" xlink:href="#linear-gradient-3"/>
    <linearGradient id="linear-gradient-72" x1="-1701.83" y1="1982.2" x2="-1692.11" y2="1982.2" xlink:href="#linear-gradient-28"/>
    <linearGradient id="linear-gradient-73" x1="-1728.29" y1="1966.86" x2="-1718.3" y2="1966.86" xlink:href="#linear-gradient-28"/>
    <linearGradient id="linear-gradient-74" x1="-1715.19" y1="1974.5" x2="-1705.2" y2="1974.5" xlink:href="#linear-gradient-28"/>
    <linearGradient id="linear-gradient-75" x1="-1741.28" y1="1959.39" x2="-1731.38" y2="1959.39" xlink:href="#linear-gradient-28"/>
    <linearGradient id="linear-gradient-76" x1="-1702.54" y1="2012.8" x2="-1693.27" y2="2012.8" xlink:href="#linear-gradient-28"/>
    <linearGradient id="linear-gradient-77" x1="-1715.39" y1="2005.53" x2="-1705.88" y2="2005.53" xlink:href="#linear-gradient-28"/>
    <linearGradient id="linear-gradient-78" x1="-1727.75" y1="1998.41" x2="-1718.45" y2="1998.41" xlink:href="#linear-gradient-28"/>
    <linearGradient id="linear-gradient-79" x1="-1740.34" y1="1991.03" x2="-1731.04" y2="1991.03" xlink:href="#linear-gradient-28"/>
    <linearGradient id="linear-gradient-80" x1="-1799.8" y1="1993.5" y2="1993.5" xlink:href="#linear-gradient-55"/>
  </defs>
  <g id="Layer_1-2" data-name="Layer 1">
    <g id="hospital">
      <path class="cls-41" d="M194.64,326.68l-.02,6.06L0,220.26l.02-6.06,194.62,112.47Z"/>
      <path class="cls-54" d="M388,214.2l-.02,6.06-193.36,112.47.02-6.06,193.36-112.47Z"/>
      <path class="cls-105" d="M388,214.2l-193.36,112.47L.02,214.2l193.36-112.47,194.62,112.47Z"/>
      <path class="cls-122" d="M312.46,182.08l-17.89,10.41,43.96,25.4,17.89-10.41-43.96-25.4ZM337.29,216.19l-39.8-23,16.19-9.42,39.8,23-16.19,9.42Z"/>
      <path class="cls-20" d="M313.69,183.77v2.19s-16.2,9.42-16.2,9.42v-2.19l16.2-9.42Z"/>
      <path class="cls-50" d="M353.49,206.78v2.18s-39.81-22.99-39.81-22.99v-2.19s39.81,23,39.81,23Z"/>
      <path class="cls-75" d="M353.49,206.78l-16.2,9.42-39.8-23,16.2-9.42,39.8,23Z"/>
      <path class="cls-123" d="M353.49,206.78v2.18s-16.2,9.42-16.2,9.42v-2.18l16.2-9.42Z"/>
      <path class="cls-36" d="M337.29,216.19v2.18l-39.8-22.99v-2.19l39.8,23Z"/>
      <path class="cls-50" d="M338.52,217.88v2.19s-43.96-25.4-43.96-25.4v-2.18l43.96,25.39Z"/>
      <path class="cls-20" d="M356.41,207.48v2.18s-17.9,10.41-17.9,10.41v-2.19s17.9-10.4,17.9-10.4Z"/>
      <path class="cls-131" d="M305.95,153.41l-118.61,68.48v32.45l118.62-68.94.09-32.59-.09.05v.55h0ZM206.3,241.66l-14.46,8.42.08-27.96,14.46-8.42-.08,27.96Z"/>
      <path class="cls-131" d="M185.1,223.12c-.38.21-.76.4-1.14.6-.21.11-.43.21-.64.32-25.5,12.78-62.85,13.81-89.73,2.46,0,0-.02,0-.02,0-.86-.37-1.71-.75-2.56-1.14-.14-.06-.28-.13-.42-.2-.74-.35-1.47-.71-2.2-1.09-.2-.1-.39-.2-.58-.29-.89-.46-1.77-.95-2.62-1.44-12.76-7.37-19.77-16.83-21.06-26.5.13,1.21.34,2.43.65,3.63l-.09,31.3c.28,1.06.62,2.12,1.04,3.18l.09-31.29c2.46,6.22,7.29,12.18,14.67,17.34v31.33c1.25.87,2.58,1.72,3.97,2.55v-31.32c.24.14.58.29.82.43,8.12,4.69,17.59,8.03,27.75,10.03v31.33c.76.15,1.52.29,2.27.43.05,0,.12.03.17.04.97.17,1.95.32,2.94.46v-31.33c10.68,1.57,22.01,1.72,32.76.45v31.31c.26-.03-.26-.06,0-.09,1.26-.16,3.12-.34,4.36-.54.3-.05.64-.1.95-.14v-31.32c10.58-1.77,20.6-4.95,29.12-9.58v31.26c.59-.32,1.16-.62,1.73-.96v-32.45c-.74.43-1.49.84-2.24,1.24h0Z"/>
      <path class="cls-124" d="M205.4,215.02l-12.51,7.28-.08,26.43,12.52-7.28.07-26.43Z"/>
      <path class="cls-57" d="M172.9,231.82v28.61c2.86-.97,5.59-2.09,8.24-3.31.51-.23,1.28-.47,1.77-.71.38-.19.54-.38.92-.57v-28.57c-3.44,1.75-7.11,3.28-10.94,4.57h0Z"/>
      <path class="cls-85" d="M110.86,263.55c.11.03.2.04.31.06v-28.63c-4.1-.89-8.01-2-11.83-3.34l-.08,28.63c.73.26,1.47.5,2.21.74.33.11.66.21.99.32.91.29,1.83.54,2.75.8.63.18,1.27.34,1.91.51.61.16,1.21.31,1.82.46.63.15,1.28.29,1.92.43h0Z"/>
      <path class="cls-58" d="M133.51,237.11c-4.32-.1-8.64-.42-12.89-.96v28.63c.38.04.74.11,1.12.15.41.05.82.1,1.24.14.93.1,1.85.19,2.78.27.26.03.52.05.78.07.29.03.59.04.88.06.92.06,1.83.13,2.75.17h.04c.47.03.95.04,1.43.05.61.03,1.27.04,1.89.05v-28.63h-.02Z"/>
      <path class="cls-91" d="M135.89,237.15v28.63h2.34c.47,0,.94-.02,1.41-.03.68-.02,1.36-.05,2.03-.07h.2c.63-.03,1.27-.06,1.9-.1.7-.04,1.38-.09,2.07-.14.55-.04,1.11-.09,1.66-.13.44-.04.93-.08,1.36-.13v-28.63c-4.26.43-8.65.63-12.98.62v-.02Z"/>
      <path class="cls-51" d="M158.64,235.67v28.62c4.15-.78,8.2-1.78,12.09-3v-28.6c-3.9,1.22-7.95,2.21-12.09,2.99h0Z"/>
      <path class="cls-115" d="M71.52,242.41l.08-28.63c-1.87-2.31-3.44-4.71-4.55-7.15v28.6c.12.25.22.5.35.75.12.27.26.54.39.8.2.37.41.74.62,1.12.14.26.29.51.45.77.23.38.49.76.74,1.14.16.23.3.47.47.7,0,0,0,.02.02.02.29.4.59.79.89,1.2.14.19.28.38.43.56.04.05.07.09.11.13h0Z"/>
      <path class="cls-120" d="M97.18,259.55l.08-28.62c-3.76-1.42-7.34-3.06-10.69-4.93l-.08,28.62c.51.28,1.01.56,1.52.83.18.09.35.19.52.28.16.08.32.16.48.24.12.06.26.13.39.2.64.32,1.29.64,1.94.95.2.09.39.18.58.27.23.11.47.21.7.31.63.29,1.28.56,1.94.83.08.04.17.07.25.11.29.12.58.23.87.35.08.04.15.06.23.09.41.16.83.32,1.25.47h0Z"/>
      <path class="cls-84" d="M72.68,215.07v28.62c.07.08-.07.16,0,.23.22.25.58.49.81.73.32.35.65.7.99,1.04.25.25.51.49.77.74.35.33.7.66,1.06.98.28.25.56.49.86.74.37.31.75.63,1.13.95.3.24.62.49.93.73.19.14.38.29.58.43v-28.62c-2.78-2.08-5.11-4.27-7.12-6.56h0Z"/>
      <path class="cls-19" d="M187.33,189.87v32.01l118.61-68.48v-31.99l-118.61,68.45h0ZM191.91,190.12l14.47-8.42-.08,27.96-14.46,8.42.08-27.96h0Z"/>
      <path class="cls-66" d="M192.81,216.75l12.52-7.27.07-26.43-12.51,7.28-.08,26.42Z"/>
      <path class="cls-49" d="M124.16,227.22c6.1.6,12.26.75,18.42.45v-19.32c-6.15.3-12.32.16-18.42-.45v19.32Z"/>
      <path class="cls-69" d="M96.45,220.88l.05-19.32c-3.98-1.53-7.75-3.29-11.25-5.32-1.21-.7-2.4-1.42-3.5-2.15v19.32c1.11.73,2.24,1.46,3.45,2.15,3.5,2.03,7.28,3.79,11.25,5.32Z"/>
      <path class="cls-104" d="M78.15,191.48c-3.84-3.01-6.91-6.25-9.19-9.63l-.05,19.32c2.28,3.38,5.35,6.62,9.19,9.63l.05-19.31h0Z"/>
      <path class="cls-95" d="M170.97,203.43l-.05,19.32c5.55-1.75,10.78-3.95,15.53-6.61l.05-19.32c-4.75,2.66-9.99,4.86-15.54,6.61Z"/>
      <path class="cls-79" d="M165.95,204.87c-5.73,1.48-11.72,2.51-17.83,3.09v19.31c6.1-.57,12.04-1.61,17.77-3.09l.05-19.32Z"/>
      <path class="cls-96" d="M101.31,222.58c5.55,1.78,11.41,3.11,17.44,3.97l.05-19.32c-6.02-.87-11.95-2.2-17.5-3.98v19.32h0Z"/>
      <path class="cls-27" d="M63.96,187.53c.26,3.57,1.29,7.13,3.11,10.59l.05-19.32c-1.82-3.45-2.85-7.01-3.11-10.59l-.05,19.32Z"/>
      <path class="cls-23" d="M64.12,195.84c1.29,9.67,8.31,19.13,21.06,26.5.86.5,1.73.97,2.62,1.44.19.1.39.2.58.29.72.37,1.45.74,2.2,1.09.13.06.28.13.42.2.84.39,1.69.78,2.56,1.14,0,0,.02,0,.02,0,26.88,11.35,64.23,10.32,89.73-2.46.21-.11.43-.21.64-.32.38-.2.77-.39,1.14-.6.76-.4,1.51-.81,2.24-1.24v-5.69c-5.35,3.1-11.33,5.61-17.73,7.52l.06-20.43c6.37-1.91,12.33-4.41,17.67-7.49v-5.91c-.76.44-1.52.86-2.29,1.27-.31.17-.63.33-.95.5-.35.18-.71.36-1.06.53-26.33,13.08-65.13,13.7-92.07,1.19-.12-.06-.25-.12-.37-.17-.76-.36-1.5-.73-2.24-1.11-.18-.09-.37-.18-.54-.28-.89-.46-1.77-.95-2.62-1.44-13.31-7.69-20.39-17.66-21.22-27.75-.03,9.96-.05,19.92-.08,29.88,0,.69.03,1.37.08,2.06h0c.04.43.1.86.15,1.29v-.02ZM100.07,202.28c6.36,2.14,13.1,3.67,20.1,4.6v20.44c-6.99-.93-13.8-2.45-20.15-4.6l.05-20.43h0ZM167.26,224.39c-6.57,1.79-13.55,2.98-20.62,3.57v-20.43c7.07-.58,14.04-1.78,20.62-3.57v20.44h0ZM144.06,228.14c-7.1.44-14.29.26-21.33-.52v-20.44c7.04.78,14.22.95,21.33.52v20.44ZM80.79,192.85c1.4.97,2.89,1.92,4.47,2.83,3.87,2.24,8.07,4.17,12.51,5.79l-.06,20.43c-4.44-1.62-8.64-3.55-12.51-5.79-1.58-.91-3.01-1.86-4.41-2.83v-20.44h0ZM68.43,180.49c2.5,3.94,6.02,7.68,10.6,11.12v20.44c-4.59-3.44-8.16-7.19-10.67-11.12l.06-20.44ZM63.97,166.81c.15,4.13,1.36,8.27,3.59,12.24l-.05,20.44c-2.25-3.97-3.44-8.1-3.6-12.24l.05-20.44h0Z"/>
      <path class="cls-99" d="M187.33,189.87l118.62-68.45v-32.64l-118.62,68.99v32.11ZM191.92,158.13l14.46-8.42-.08,27.96-14.46,8.42.08-27.96Z"/>
      <path class="cls-28" d="M192.81,184.76l12.52-7.28.07-26.42-12.51,7.27-.08,26.43Z"/>
      <path class="cls-5" d="M170.97,171.45l-.05,19.32c5.55-1.75,10.78-3.95,15.53-6.61l.05-19.32c-4.75,2.66-9.99,4.86-15.54,6.61Z"/>
      <path class="cls-86" d="M63.96,155.54c.26,3.57,1.29,7.13,3.11,10.59l.05-19.31c-1.82-3.45-2.85-7.02-3.11-10.59l-.05,19.32h0Z"/>
      <path class="cls-4" d="M96.45,188.89l.05-19.32c-3.98-1.53-7.75-3.29-11.25-5.32-1.21-.7-2.37-1.42-3.48-2.15l-.05,19.32c1.11.73,2.27,1.46,3.48,2.15,3.5,2.03,7.28,3.79,11.25,5.32Z"/>
      <path class="cls-121" d="M148.07,195.29c6.1-.57,12.1-1.61,17.83-3.09l.05-19.32c-5.73,1.48-11.73,2.51-17.83,3.09l-.05,19.32Z"/>
      <path class="cls-93" d="M101.31,190.6c5.55,1.78,11.42,3.11,17.44,3.97l.05-19.32c-6.02-.87-11.89-2.2-17.44-3.98l-.05,19.32h0Z"/>
      <path class="cls-130" d="M142.61,195.67l.05-19.32c-6.15.3-12.36.16-18.46-.45l-.05,19.32c6.1.61,12.31.75,18.46.45Z"/>
      <path class="cls-100" d="M78.15,159.49c-3.84-3.01-6.91-6.25-9.19-9.63l-.05,19.32c2.28,3.37,5.35,6.62,9.19,9.63l.05-19.32Z"/>
      <path class="cls-1" d="M85.18,190.36c.86.5,1.74.97,2.62,1.44.18.09.37.18.54.28.74.37,1.48.75,2.24,1.11.12.06.25.12.37.17,26.93,12.51,65.73,11.89,92.07-1.19.36-.18.71-.35,1.06-.53.32-.16.63-.33.95-.5.78-.41,1.54-.83,2.29-1.27v-5.68c-5.35,3.1-11.34,5.61-17.73,7.52l.06-20.44c6.37-1.91,12.33-4.41,17.67-7.49v-6.03c-4.81,2.79-9.94,5.11-15.61,6.95-4.39,1.42-8.98,2.56-13.69,3.41-2.4.44-4.84.77-7.3,1.05-.27.04-.53.06-.8.1-.38.05-.76.1-1.14.13-.54.05-1.1.09-1.64.13-.3.03-.61.05-.91.07-.83.06-1.67.13-2.5.17-.5.03-1,.05-1.49.08-.5.03-1.01.06-1.51.07-.2,0-.4,0-.6,0-.55.02-1.1.03-1.65.04-.6,0-1.2.03-1.8.03-.85,0-1.68,0-2.53-.03h-.96c-8.47-.21-16.89-1.29-24.84-3.23-.2-.04-.39-.1-.59-.15-1-.25-1.99-.51-2.97-.79-.12-.04-.26-.06-.38-.1-.23-.07-.46-.14-.69-.21-.46-.13-.94-.28-1.39-.42-.8-.25-1.61-.51-2.39-.77-.36-.13-.71-.25-1.07-.38-.55-.2-1.11-.39-1.66-.6-.36-.13-.71-.27-1.07-.4-.16-.06-.32-.12-.48-.19-.31-.13-.62-.26-.94-.39-.49-.2-.97-.4-1.45-.61-.5-.21-.98-.44-1.47-.66-.42-.2-.85-.38-1.27-.58-.57-.27-1.12-.55-1.69-.84-.33-.16-.66-.32-.99-.49-.87-.46-1.75-.94-2.6-1.42-.88-.51-1.75-1.03-2.58-1.56-.33-.21-.63-.43-.96-.64-.49-.32-.98-.64-1.45-.97-.36-.25-.69-.52-1.03-.77-.41-.3-.82-.6-1.21-.9-.34-.27-.66-.54-.98-.81-.37-.3-.75-.6-1.1-.91-.32-.29-.62-.57-.93-.86-.33-.3-.67-.61-.99-.91-.29-.29-.57-.59-.86-.88-.3-.31-.61-.62-.89-.93-.27-.29-.51-.6-.77-.89-.28-.32-.55-.63-.81-.95-.24-.3-.46-.61-.69-.91-.24-.32-.5-.64-.73-.97-.21-.31-.41-.62-.61-.93-.21-.33-.44-.65-.64-.98-.19-.31-.36-.62-.53-.94-.19-.33-.38-.67-.55-1-.16-.31-.29-.63-.45-.95-.16-.34-.33-.68-.47-1.02-.13-.31-.24-.63-.37-.95-.13-.35-.28-.69-.39-1.04-.11-.31-.19-.63-.28-.95-.11-.35-.21-.7-.3-1.05-.08-.31-.13-.63-.21-.95-.07-.36-.16-.7-.21-1.06-.05-.31-.08-.62-.12-.94-.04-.36-.1-.72-.13-1.08-.03-.31-.03-.62-.04-.93-.02-.37-.04-.72-.04-1.09v-.1c-.04,10.86-.06,21.73-.09,32.59,0,.7.03,1.4.09,2.1.84,10.1,7.91,20.06,21.22,27.75l.04-.04ZM146.7,175.53c7.07-.58,14.02-1.77,20.59-3.57l-.06,20.43c-6.57,1.79-13.52,2.98-20.59,3.57l.06-20.43ZM122.78,175.2c7.04.78,14.22.96,21.32.52l-.06,20.44c-7.1.44-14.29.27-21.32-.52l.05-20.44h0ZM100.07,170.3c6.36,2.14,13.16,3.67,20.15,4.6l-.05,20.44c-6.99-.93-13.8-2.45-20.15-4.6l.05-20.44ZM80.79,160.87c1.4.97,2.89,1.92,4.47,2.83,3.87,2.24,8.07,4.17,12.51,5.79l-.06,20.43c-4.44-1.62-8.64-3.55-12.51-5.79-1.58-.91-3.07-1.86-4.47-2.83l.06-20.44h0ZM68.43,148.51c2.5,3.93,6.05,7.68,10.63,11.12l-.05,20.44c-4.59-3.44-8.13-7.19-10.64-11.12l.06-20.43h0ZM63.97,134.83c.15,4.13,1.36,8.27,3.6,12.24l-.06,20.43c-2.25-3.97-3.44-8.1-3.59-12.23l.05-20.44Z"/>
      <path class="cls-56" d="M204.6,183.26l-.07,25.51-11.9,6.92c0,.52.03,1.03.04,1.54l12.83-7.46.07-27.21c-.31.24-.63.47-.98.7Z"/>
      <path class="cls-56" d="M204.6,215.25l-.07,25.51-11.9,6.92c0,.52.03,1.03.04,1.54l12.83-7.46.07-27.21c-.31.24-.63.47-.98.7Z"/>
      <path class="cls-56" d="M144.07,196.06l.05-19.99c-6.89.43-13.87.26-20.7-.5l-.05,19.99c6.82.76,13.81.93,20.7.5ZM124.82,175.45c5.92.59,11.94.73,17.92.44l-.05,19.69c-5.97.3-11.99.15-17.92-.44l.05-19.69Z"/>
      <path class="cls-56" d="M97.09,187.84v1.1c-3.85-1.49-7.52-3.22-10.92-5.2-1.18-.69-2.3-1.38-3.37-2.11l.05-18.86c-.34-.19-.7-.41-1.07-.67l-.05,19.32c1.36.95,3.87,2.33,5.4,3.22,3.75,2.19,5.4,2.63,10.09,4.73v-1.46s-.09-.04-.13-.07h0Z"/>
      <path class="cls-56" d="M78.11,177.98c-3.56-2.86-6.42-5.93-8.56-9.12l.05-18.47c-.17-.25-.54-.5-.7-.76v19.54c2.19,3.48,5.61,6.88,9.46,9.97,0-.19-.25-.98-.25-1.17h0Z"/>
      <path class="cls-56" d="M67.52,147.56c-2.18-3.88-3.34-7.93-3.5-11.97l-.05,19.99c.15,4.04,1.31,8.09,3.49,11.97l.05-19.99h0ZM67.53,165.15c-1.77-3.37-3.02-6.28-3.27-9.78l-.2-18.4c.25,3.5,1.61,6.52,3.38,9.89l.09,18.29h0Z"/>
      <path class="cls-56" d="M204.6,151.18l-.07,25.51-11.9,6.92c0,.52.03,1.03.04,1.54l12.83-7.46.07-27.21c-.31.24-.63.47-.98.7Z"/>
      <path class="cls-56" d="M186.08,164.79s-.05.04-.08.05c-.1.14-.19.28-.29.42l-.05,18.88c-4.71,2.63-9.89,4.82-15.38,6.57,0,.19,0,.37.02.55,5.83-1.86,11.32-4.2,16.26-7.06v-19.49c-.15.03-.31.05-.46.08h0Z"/>
      <path class="cls-56" d="M165.74,172.64c-.08.02-.15,0-.22,0-.12.09-.24.16-.36.24h0l-.05,19.32c-5.59,1.45-11.44,2.45-17.39,3.03v.55c6.43-.63,12.73-1.75,18.73-3.38l.05-19.92c-.25.05-.5.11-.75.16Z"/>
      <path class="cls-56" d="M142.58,227.49c-5.93.3-11.92.15-17.81-.44l.05-19.41h-1.44v19.82c6.37.7,12.88.89,19.32.57-.04-.18-.09-.36-.12-.54Z"/>
      <path class="cls-56" d="M97.09,220.86c-3.85-1.49-7.52-3.22-10.92-5.2-1.18-.69-2.27-1.38-3.34-2.11v-18.86c-.34-.19-.7-.41-1.07-.67v19.32c1.36.95,3.84,2.33,5.38,3.22,3.75,2.19,5.4,2.63,10.09,4.73l-.13-.43Z"/>
      <path class="cls-56" d="M78.11,209.89c-3.56-2.86-6.42-5.93-8.56-9.12l.04-18.15c-.17-.25-.48-.52-.64-.78l-.05,19.24c2.19,3.48,5.61,6.88,9.46,9.97,0-.19-.25-.98-.25-1.17Z"/>
      <path class="cls-56" d="M67.52,179.47c-2.18-3.88-3.34-7.93-3.5-11.97l-.05,19.99c.15,4.04,1.31,8.09,3.49,11.97l.05-19.99h0ZM67.53,197.06c-1.77-3.37-3.02-6.29-3.27-9.78l-.2-18.4c.25,3.5,1.61,6.52,3.38,9.89l.09,18.3Z"/>
      <path class="cls-56" d="M185.71,197.17l-.05,18.88c-4.71,2.63-9.24,4.61-14.73,6.35v.33c5.83-1.86,10.68-3.78,15.61-6.63v-19.48c-.15.03-.73.41-.83.55Z"/>
      <path class="cls-56" d="M165.74,204.55c-.08.02-.15,0-.22,0-.12.09-.24.16-.36.24h0l-.05,19.32c-5.59,1.45-11.01,2.45-16.97,3.03v.55c6.43-.62,12.33-1.75,18.33-3.38v-19.92c-.25.05-.47.11-.71.16Z"/>
      <path class="cls-56" d="M118.75,226.48v-.2c-5.57-.86-11-2.1-16.15-3.76v-18.9s-.03,0-1.28-.43v19.32c5.54,1.78,11.42,3.1,17.43,3.97h0Z"/>
      <path class="cls-56" d="M118.75,194.57v-.2c-5.57-.85-11-2.1-16.15-3.76l.05-18.9-1.26-.43-.05,19.31c5.54,1.78,11.4,3.1,17.42,3.97h0Z"/>
      <path class="cls-16" d="M191.84,250.07l14.46-8.42.08-27.96-14.46,8.42-.08,27.96ZM192.89,222.31l12.52-7.28-.07,26.43-12.52,7.28.07-26.43Z"/>
      <path class="cls-106" d="M170.73,232.68c-.45.21-.37.1-.8.41v28.45c.4,0,.58.07.8,0,0,0,.22-28.61,0-28.87Z"/>
      <path class="cls-106" d="M182.91,227.7v28.54c.29.04.52,0,.92,0l.98-.95v-28.43c-.6.26-1.33.52-1.9.84Z"/>
      <path class="cls-106" d="M66.02,206.03s.09,29.19.24,29.19h.8v-27.83c-.19-.33-.86-1.02-1.03-1.37h0Z"/>
      <path class="cls-106" d="M71.6,214.31s.21,29.37.21,29.37c.6-.04.41-.03.87,0v-28.21c-.38-.37-.73-.77-1.08-1.18h0Z"/>
      <path class="cls-16" d="M156.47,233.61v31.32h0c.72-.12,1.44-.25,2.16-.38v-28.62c4.15-.78,12.09-2.99,12.09-2.99v28.6c.72-.23,1.45-.45,2.17-.7v-28.61c3.84-1.3,7.49-2.83,10.94-4.57v28.57c.6-.3,1.19-.62,1.78-.93v-31.27c-8.53,4.62-18.54,7.81-29.12,9.58h0Z"/>
      <path class="cls-16" d="M118.41,233.95v31.33h0c.06,0-.06.03,0,.04.05,0-.04,0,0,.02.62.09,1.6.16,2.21.24v-28.63c4.24.54,8.56.87,12.89.97v28.63c.17,0,2.26.04,2.37.04.07,0-.07,0,0,0v-28.63c4.32.02,8.7-.19,12.98-.62v28.63c.05,0-.05,0,0-.02.24-.03.58-.05.83-.07.21-.03.43-.04.63-.06.23-.03.62-.06.85-.09h0v-31.32c-10.76,1.28-22.08,1.13-32.76-.45h0Z"/>
      <path class="cls-106" d="M85.18,224.9v28.97c.25.15,1,.98,1,.98h.85v-28.41c-.04-.05-.09-.12-.12-.18-.61-.36-1.31-.81-1.73-1.37h0Z"/>
      <path class="cls-106" d="M98.98,231.52v29.04l.88-.05v-28.29c-.62-.24-.13-.6-.88-.7Z"/>
      <path class="cls-16" d="M85.27,222.98c-.25-.14-.58-.29-.82-.43v31.32c.25.15.48.3.73.45.32.19.68.35,1,.53v-28.62c3.34,1.87,6.9,3.51,10.67,4.93v28.62c.28.11,2.08.77,2.13.78v-28.63c3.83,1.34,7.81,2.45,11.91,3.34v28.63c.54.12,2.09.45,2.14.45h0v-31.34c-10.17-2-19.65-5.34-27.75-10.03h0Z"/>
      <path class="cls-16" d="M65.8,202.66l-.09,31.29c.05.14.1.29.16.42.04.11.09.21.13.33.07.17.16.34.24.52l.08-28.6c1.11,2.44,2.51,4.84,4.39,7.15v28.65c.34.43.72.85,1.09,1.27l.08-28.62c2.02,2.29,4.33,4.48,7.12,6.56v28.62c.33.25.66.5,1,.75.09.06.18.13.27.2.07.04.14.09.21.14v-31.33c-7.38-5.17-12.22-11.12-14.67-17.34h0Z"/>
      <path class="cls-106" d="M148.03,265.23l.82.72v-28.63l-.82.08v27.82Z"/>
      <path class="cls-106" d="M121.45,264.94l-.83.63v-28.63l.83.11v27.88Z"/>
      <path class="cls-16" d="M69.28,240.51h0s0-.02-.02-.02v.02h.02Z"/>
      <path class="cls-16" d="M64.12,195.84c-.05-.43-.12-.86-.15-1.29v1.29c0,1.69.16,3.37.51,5.04v28.54c.05.25.02.5.07.75.04.16.07.32.11.48,0,.05.03.08.04.12l.09-31.3c-.31-1.21-.52-2.42-.65-3.63h0Z"/>
      <path class="cls-109" d="M120.22,174.89c-6.99-.93-13.79-2.45-20.15-4.6l-.05,20.44c6.36,2.14,13.16,3.67,20.15,4.6v-.19l.05-19.99v-.25h0ZM101.36,171.29h.03c5.54,1.78,11.4,3.1,17.42,3.97v.22l-.05,18.9v.2c-6.01-.87-11.87-2.2-17.42-3.97h-.03l.05-19.32Z"/>
      <path class="cls-109" d="M206.38,181.7l-14.47,8.42-.08,27.96,14.46-8.42.08-27.96h0ZM205.33,209.47l-12.51,7.28.07-26.43,12.51-7.28-.07,26.43Z"/>
      <path class="cls-109" d="M169.67,203.27l-.06,20.43c6.38-1.92,12.38-4.43,17.73-7.52v-20.4c-5.33,3.08-11.3,5.58-17.67,7.49h0ZM170.92,222.74l.05-19.32c5.56-1.75,10.78-3.96,15.54-6.61l-.05,19.32c-4.75,2.66-9.99,4.86-15.53,6.61Z"/>
      <path class="cls-109" d="M146.64,227.96c7.07-.58,14.04-1.77,20.62-3.57v-20.44c-6.57,1.79-13.55,2.98-20.62,3.57v20.43h0ZM148.13,207.95c6.1-.57,12.1-1.61,17.83-3.09l-.05,19.32c-5.73,1.48-11.66,2.51-17.77,3.09v-19.31Z"/>
      <path class="cls-109" d="M122.72,207.19v20.44c7.04.78,14.22.95,21.33.52v-20.44c-7.1.44-14.29.26-21.33-.52ZM142.58,208.35v19.32c-6.15.3-12.32.16-18.42-.45v-19.32c6.1.6,12.26.75,18.42.45Z"/>
      <path class="cls-109" d="M120.17,206.88c-6.99-.93-13.74-2.45-20.1-4.6l-.05,20.43c6.36,2.14,13.16,3.67,20.15,4.6v-20.44h0ZM118.76,226.55c-6.02-.87-11.9-2.2-17.44-3.97v-19.32c5.55,1.78,11.48,3.11,17.5,3.98l-.05,19.32h0Z"/>
      <path class="cls-109" d="M97.71,221.9l.06-20.43c-4.44-1.62-8.64-3.55-12.51-5.79-1.58-.91-3.07-1.86-4.47-2.83v20.44c1.4.97,2.84,1.92,4.41,2.83,3.87,2.24,8.07,4.17,12.51,5.79h0ZM81.76,194.09c1.11.73,2.29,1.46,3.5,2.15,3.5,2.03,7.28,3.79,11.25,5.32l-.05,19.32c-3.98-1.53-7.75-3.29-11.25-5.32-1.21-.7-2.34-1.42-3.45-2.15v-19.32Z"/>
      <path class="cls-109" d="M79.04,212.05v-20.44c-4.59-3.44-8.11-7.19-10.6-11.12l-.06,20.44c2.5,3.94,6.07,7.68,10.67,11.12ZM68.9,201.16l.05-19.32c2.28,3.37,5.35,6.62,9.19,9.63l-.05,19.31c-3.84-3.01-6.91-6.25-9.19-9.63h0Z"/>
      <path class="cls-109" d="M67.57,179.04c-2.25-3.97-3.44-8.1-3.59-12.24l-.05,20.44c.15,4.13,1.36,8.27,3.6,12.24l.05-20.44h0ZM67.07,198.12c-1.82-3.45-2.85-7.02-3.11-10.59l.05-19.32c.26,3.57,1.29,7.13,3.11,10.59l-.05,19.32Z"/>
      <path class="cls-109" d="M206.38,149.72l-14.46,8.42-.08,27.96,14.46-8.42.08-27.97ZM205.33,177.48l-12.52,7.28.07-26.43,12.52-7.28-.07,26.43Z"/>
      <path class="cls-109" d="M169.67,171.29l-.06,20.44c6.38-1.92,12.38-4.43,17.73-7.52v-20.4c-5.33,3.08-11.31,5.58-17.67,7.49ZM170.92,190.76l.05-19.32c5.56-1.75,10.78-3.95,15.54-6.61l-.05,19.32c-4.75,2.66-9.99,4.86-15.53,6.61Z"/>
      <path class="cls-109" d="M167.29,171.96c-6.57,1.79-13.52,2.98-20.59,3.57l-.06,20.43c7.07-.58,14.02-1.77,20.59-3.57l.06-20.43ZM165.9,192.2c-5.72,1.48-11.72,2.51-17.83,3.09l.05-19.32c6.1-.57,12.1-1.61,17.83-3.09l-.05,19.32Z"/>
      <path class="cls-109" d="M144.05,196.15l.06-20.44c-7.1.44-14.29.26-21.32-.52l-.05,20.44c7.04.78,14.22.95,21.32.52h0ZM124.21,175.92c6.1.6,12.31.75,18.46.45l-.05,19.32c-6.15.3-12.36.16-18.46-.45l.05-19.32Z"/>
      <path class="cls-109" d="M97.71,189.92l.06-20.43c-4.44-1.62-8.64-3.55-12.51-5.79-1.58-.91-3.07-1.86-4.47-2.83l-.06,20.44c1.4.97,2.9,1.92,4.47,2.83,3.87,2.23,8.07,4.17,12.51,5.79h0ZM81.78,162.11c1.11.73,2.27,1.46,3.48,2.15,3.5,2.03,7.28,3.79,11.25,5.32l-.05,19.32c-3.98-1.53-7.75-3.29-11.25-5.32-1.21-.7-2.37-1.42-3.48-2.15l.05-19.32Z"/>
      <path class="cls-109" d="M79.01,180.07l.05-20.44c-4.59-3.44-8.13-7.19-10.63-11.12l-.06,20.43c2.5,3.93,6.05,7.68,10.64,11.12h0ZM68.9,169.18l.05-19.32c2.28,3.38,5.35,6.62,9.19,9.63l-.05,19.32c-3.84-3.01-6.91-6.25-9.19-9.63Z"/>
      <path class="cls-109" d="M67.57,147.06c-2.25-3.97-3.44-8.1-3.6-12.24l-.05,20.44c.15,4.13,1.36,8.27,3.59,12.23l.06-20.43ZM67.07,166.13c-1.82-3.45-2.85-7.01-3.11-10.59l.05-19.32c.26,3.57,1.29,7.13,3.11,10.59l-.05,19.31h0Z"/>
      <path class="cls-108" d="M297.38,83.66c-7.17-4.14-14.34-8.28-21.51-12.42-9.03-5.22-18.06-10.44-27.1-15.66-8.51-4.92-17.01-9.84-25.51-14.75-5.59-3.23-11.19-6.46-16.78-9.69-.95-.56-1.92-1.12-2.87-1.66-.2-.12-1.44.79-1.62.9-4.52,2.62-9.04,5.25-13.56,7.88-7.68,4.47-15.36,8.94-23.05,13.41-9.07,5.27-18.14,10.55-27.2,15.82-8.32,4.85-16.66,9.69-24.99,14.54v2.78l-9.78,5.69-9.52,5.53c-.87.51-1.74,1.02-2.61,1.52-1.75,1.02-3.5,2.04-5.26,3.06-5.42,3.19-17.47,11.4-19.5,23.58,1.88,12.73,14.83,22.73,26.23,27.84,8.85,3.97,18.46,6.37,28.05,7.65,10.16,1.35,20.51,1.36,30.67.04.48-.06.96-.14,1.44-.21.44-.09.85-.14,1.25-.2,8.71-1.33,17.33-3.61,25.36-7.24.59-.27,1.17-.54,1.75-.82.04-.02.06-.04.1-.05.55-.28,1.11-.55,1.66-.84.34-.18.68-.36,1.02-.54.53-.29,1.06-.57,1.58-.87.16-.09.33-.18.49-.28l.29-.16c.42-.24.85-.48,1.27-.72l.24-.14c.12-.07.25-.14.37-.21l2.5-1.46c.63-.37,1.27-.74,1.9-1.11,3.47-2.02,6.95-4.03,10.42-6.05l7.84-4.55,2.4,1.38v7.19c4.65-2.7,9.48-5.71,14.12-8.4,9.1-5.28,18.19-10.57,27.29-15.85,8.58-4.99,17.17-9.97,25.76-14.96,6.3-3.65,12.61-7.32,18.9-10.98,2.26-1.31,4.42-2.57,6.68-3.88-2.92-1.69-5.75-3.43-8.67-5.11v.02Z"/>
      <path class="cls-39" d="M147.12,116.99c-13.18-7.61-34.56-7.61-47.65,0-13.09,7.61-13.02,20,.16,27.63,13.17,7.61,34.54,7.61,47.64,0,13.09-7.61,13.02-20-.15-27.62h0ZM145.69,143.7c-12.23,7.11-32.18,7.11-44.49,0-12.31-7.11-12.37-18.68-.14-25.8,12.23-7.11,32.18-7.11,44.49,0,12.31,7.11,12.37,18.68.14,25.79h0Z"/>
      <path class="cls-39" d="M131.51,133.16l-12.24-7.08,11.25-6.54-2.74-1.58-26.54,15.43,2.74,1.58,12.56-7.3,12.24,7.07-12.56,7.31,2.75,1.58,26.54-15.43-2.75-1.59-11.25,6.55Z"/>
      <path class="cls-33" d="M213.29,110.21l-102.57-59.28-.09,32.59,102.58,59.28.09-32.59h0ZM134.65,89.84l-21.38-12.36.05-18.83,21.38,12.35-.05,18.83h0ZM159.65,104.29l-21.38-12.35.05-18.83,21.38,12.35-.05,18.83ZM184.67,118.74l-21.38-12.35.05-18.83,21.38,12.35-.05,18.83ZM209.67,133.2l-21.39-12.35.05-18.83,21.38,12.35-.05,18.83Z"/>
      <path class="cls-90" d="M183.26,99.96l-8.45-4.87-.04,17.04,8.44,4.87.05-17.04Z"/>
      <path class="cls-111" d="M148.22,79.72l-8.44-4.88-.05,17.05,8.44,4.87.04-17.04Z"/>
      <path class="cls-71" d="M173.24,94.17l-8.45-4.87-.04,17.04,8.44,4.88.04-17.05Z"/>
      <path class="cls-125" d="M208.26,114.41l-8.44-4.87-.05,17.04,8.44,4.88.05-17.05Z"/>
      <path class="cls-72" d="M133.24,71.06l-8.44-4.88-.05,17.04,8.45,4.88.05-17.04Z"/>
      <path class="cls-25" d="M158.24,85.51l-8.44-4.88-.05,17.05,8.44,4.87.04-17.04Z"/>
      <path class="cls-45" d="M123.22,65.27l-8.44-4.88-.05,17.05,8.44,4.87.05-17.04Z"/>
      <path class="cls-30" d="M198.25,108.63l-8.44-4.88-.05,17.04,8.44,4.88.05-17.04Z"/>
      <path class="cls-6" d="M133.67,87.12l-8.12-4.69.04-16.35c-.52-.31-1.04-.67-1.58-1.04l-.04,16.49-8.44-4.88.04-16.4s-.04-.03-.05-.04c-.24-.19-.46-.39-.7-.59-.12.03-.26.04-.4.04-.12,0-.21-.02-.31-.04l-.04,17.86,19.61,11.34v-1.7Z"/>
      <path class="cls-89" d="M158.79,101.6l-8.12-4.69.04-16.35c-.52-.31-1.04-.67-1.58-1.04l-.04,16.49-8.44-4.87.04-16.4s-.04-.03-.05-.04c-.24-.19-.46-.38-.7-.59-.12.03-.26.04-.4.04-.12,0-.21-.02-.31-.03l-.04,17.86,19.61,11.34v-1.71Z"/>
      <path class="cls-53" d="M183.92,116.09l-8.12-4.7.04-16.35c-.52-.31-1.04-.67-1.58-1.04l-.04,16.49-8.45-4.87.04-16.4s-.04-.03-.05-.04c-.24-.19-.46-.38-.69-.59-.12.03-.26.04-.4.04-.12,0-.21-.02-.31-.03l-.04,17.86,19.61,11.34v-1.71Z"/>
      <path class="cls-126" d="M209.04,130.57l-8.12-4.7.04-16.35c-.52-.31-1.04-.67-1.58-1.04l-.04,16.49-8.45-4.88.04-16.4s-.04-.03-.05-.04c-.24-.19-.46-.38-.69-.59-.12.03-.26.04-.4.04-.11,0-.21-.02-.31-.04l-.04,17.86,19.61,11.34v-1.7Z"/>
      <path class="cls-118" d="M188.3,120.84l21.39,12.35.05-18.83-21.38-12.35-.05,18.83ZM199.83,109.54l8.44,4.87-.04,17.05-8.44-4.87.04-17.05ZM189.8,103.74l8.44,4.88-.04,17.04-8.45-4.88.04-17.04Z"/>
      <path class="cls-74" d="M163.28,106.39l21.38,12.35.05-18.83-21.38-12.35-.05,18.83ZM174.81,95.09l8.45,4.87-.04,17.04-8.45-4.87.04-17.04ZM164.79,89.29l8.45,4.88-.04,17.04-8.44-4.88.04-17.04Z"/>
      <path class="cls-67" d="M138.28,91.94l21.38,12.35.05-18.83-21.38-12.35-.05,18.83ZM149.81,80.63l8.45,4.87-.04,17.05-8.44-4.87.04-17.05ZM139.79,74.83l8.44,4.87-.04,17.04-8.44-4.88.04-17.04h0Z"/>
      <path class="cls-52" d="M113.26,77.48l21.38,12.36.05-18.83-21.38-12.35-.05,18.83h0ZM124.79,66.18l8.44,4.88-.04,17.04-8.45-4.88.04-17.04ZM114.77,60.38l8.44,4.87-.05,17.04-8.44-4.87.05-17.04Z"/>
      <path class="cls-108" d="M213.2,142.8l76.58-44.54.09-32.59-76.58,44.54-.09,32.59ZM265.45,84.65l21.93-12.75-.06,20.82-21.93,12.75.06-20.82ZM239.81,99.57l21.93-12.75-.05,20.82-21.93,12.75.05-20.82ZM236.09,101.74l-.05,20.82-21.93,12.75.06-20.82,21.93-12.75h0Z"/>
      <path class="cls-110" d="M277.17,97.64l8.66-5.03.05-18.85-8.66,5.03-.05,18.85Z"/>
      <path class="cls-34" d="M241.24,118.53l8.66-5.03.05-18.84-8.66,5.03-.05,18.84Z"/>
      <path class="cls-70" d="M225.88,127.48l8.66-5.04.05-18.84-8.67,5.04-.04,18.84Z"/>
      <path class="cls-40" d="M251.52,112.55l8.66-5.03.05-18.84-8.66,5.03-.05,18.84Z"/>
      <path class="cls-29" d="M215.59,133.45l8.66-5.03.05-18.84-8.66,5.03-.05,18.84Z"/>
      <path class="cls-119" d="M266.89,103.62l8.67-5.04.05-18.84-8.67,5.03-.05,18.85Z"/>
      <path class="cls-10" d="M260.72,88.11s-.43.27-.41.25c-.17.12-.33.25-.49.38-.12.11-.26.18-.4.25l-.05,17.78-8.66,5.03.05-17.4c-.07.04-.13.07-.2.1-.45.2-.93.4-1.42.6l-.04,17.65-8.5,4.95v1.79l20.28-11.79.05-19.68c-.06.04-.12.06-.19.1h-.03Z"/>
      <path class="cls-24" d="M286.34,73.23s-.43.27-.41.25c-.17.12-.33.25-.49.38-.12.11-.26.18-.4.25l-.05,17.78-8.66,5.03.04-17.4c-.06.04-.13.07-.2.1-.45.2-.93.4-1.42.6l-.05,17.65-8.5,4.94v1.79l20.28-11.79.05-19.68c-.06.04-.12.06-.19.1h0Z"/>
      <path class="cls-63" d="M287.38,71.9l-21.93,12.75-.06,20.82,21.93-12.75.06-20.82ZM275.56,98.58l-8.66,5.03.05-18.84,8.66-5.03-.05,18.84ZM285.83,92.61l-8.66,5.03.05-18.84,8.66-5.03-.05,18.84Z"/>
      <path class="cls-112" d="M261.73,86.81l-21.93,12.75-.05,20.82,21.93-12.75.05-20.82ZM249.9,113.5l-8.66,5.03.05-18.84,8.66-5.03-.05,18.84ZM260.18,107.52l-8.66,5.03.05-18.84,8.66-5.03-.05,18.84Z"/>
      <path class="cls-11" d="M235.09,102.99s-.43.27-.41.25c-.17.13-.33.25-.49.38-.12.11-.26.19-.4.25l-.05,17.78-8.66,5.03.05-17.4c-.07.04-.13.07-.2.1-.45.2-.93.4-1.42.6l-.05,17.65-8.5,4.95v1.79l20.28-11.79.05-19.68c-.06.04-.12.06-.19.1h-.02Z"/>
      <path class="cls-44" d="M214.1,135.32l21.93-12.75.05-20.82-21.93,12.75-.06,20.82h0ZM234.59,103.59l-.05,18.84-8.66,5.03.05-18.84,8.66-5.03ZM224.31,109.57l-.05,18.84-8.66,5.03.05-18.84,8.66-5.03Z"/>
      <path class="cls-108" d="M110.72,50.93l102.57,59.28,76.58-44.54L187.3,7.04l-76.58,43.89Z"/>
      <path class="cls-2" d="M187.36,4.35v4.56s-71.94,41.84-71.94,41.84v-4.56S187.36,4.35,187.36,4.35Z"/>
      <path class="cls-2" d="M285.17,60.87v4.56S187.35,8.91,187.35,8.91v-4.56s97.82,56.52,97.82,56.52Z"/>
      <path class="cls-2" d="M212.74,107.05l-.02,4.56-104.79-60.55v-4.57s104.81,60.56,104.81,60.56Z"/>
      <path class="cls-13" d="M292.66,60.56v4.56s-79.94,46.49-79.94,46.49l.02-4.56,79.92-46.49Z"/>
      <path class="cls-47" d="M187.87,0l-79.92,46.49,104.8,60.56,79.92-46.49L187.87,0ZM115.43,46.18L187.36,4.35l97.81,56.53-71.93,41.84-97.81-56.52h0Z"/>
      <path class="cls-129" d="M204.45,37.59v5.09s-25.34,14.74-25.34,14.74l.02-5.1,25.32-14.73Z"/>
      <path class="cls-64" d="M179.13,52.31l-.02,5.1-25.49-14.74v-5.09s25.51,14.73,25.51,14.73Z"/>
      <path class="cls-103" d="M204.45,37.59l-25.32,14.73-25.5-14.73,25.33-14.74,25.49,14.74Z"/>
      <path class="cls-129" d="M243.07,60.97v5.1s-25.34,14.73-25.34,14.73l.02-5.09,25.33-14.74Z"/>
      <path class="cls-64" d="M217.74,75.71l-.02,5.09-25.5-14.73.02-5.1,25.49,14.74Z"/>
      <path class="cls-103" d="M243.07,60.97l-25.33,14.74-25.49-14.74,25.33-14.74,25.5,14.74Z"/>
      <path class="cls-13" d="M93.68,89.17c-5.69,3.29-22.37,13.55-26.18,24.37-1.32,3.75-1.6,7.35-1.1,10.76,2.04-12.18,14.08-20.4,19.5-23.58,1.75-1.03,3.5-2.04,5.26-3.06.87-.5,1.74-1.01,2.61-1.52l9.52-5.53,9.78-5.69v-7.19c-5.8,3.49-16.61,9.86-17.58,10.43-.43.25-1.05.6-1.82,1.04h0Z"/>
      <path class="cls-47" d="M210.8,134.37l-7.84,4.55c-3.47,2.02-6.95,4.03-10.42,6.05-.63.37-1.27.74-1.9,1.11l-2.5,1.46c-.12.07-.25.14-.37.21l-.24.14c-.42.24-.84.48-1.27.72l-.29.16c-.16.09-.33.19-.49.28-.52.29-1.05.58-1.58.87-.34.18-.68.37-1.02.54-.55.29-1.1.56-1.66.84-.04.02-.06.04-.1.05-.58.29-1.16.56-1.75.82-8.04,3.63-16.65,5.91-25.36,7.24-.42.06-.83.13-1.25.2-.48.07-.96.14-1.45.21-10.17,1.32-20.51,1.31-30.67-.04-9.6-1.28-19.2-3.68-28.05-7.65-11.4-5.11-24.34-15.11-26.23-27.84-.51-3.4-.22-7,1.1-10.76,3.81-10.82,20.49-21.07,26.18-24.37.94-.54,1.58-.9,1.82-1.04.96-.56,11.77-6.94,17.58-10.43-.06-.04-2.45-1.06-2.45-1.06,0,0-5.54,3.13-6.72,3.83-4.57,2.66-9.13,5.31-13.7,7.96-3.9,2.26-7.86,4.44-11.46,7.16-3.21,2.43-6.18,5.22-8.65,8.41-4.59,5.93-7.13,13.29-6.01,20.8,0,.05,0,.1.02.15.04.29.11.57.16.87.04.17.06.34.1.51,1.69,7.84,7.04,14.4,13.12,19.4,7.12,5.86,15.7,9.75,24.46,12.43,9.69,2.97,19.81,4.61,29.94,4.96,10.26.37,20.6-.57,30.61-2.85,4.73-1.07,9.39-2.45,13.9-4.22,4.58-1.79,8.88-4.06,13.13-6.53,7.88-4.6,15.79-9.17,23.68-13.75l-2.4-1.38h0Z"/>
      <path class="cls-2" d="M189.53,149.51c-4.24,2.47-8.54,4.74-13.13,6.53-4.51,1.77-9.18,3.15-13.9,4.22-10.02,2.28-20.35,3.21-30.61,2.85-10.13-.36-20.24-1.99-29.94-4.96-8.76-2.69-17.34-6.58-24.46-12.43-6.08-5-11.43-11.57-13.12-19.4-.04-.17-.06-.34-.1-.51-.05-.29-.12-.57-.16-.87,0-.05,0-.1-.02-.15,0-.04-.02-.06-.02-.1-.18,1.14-.07,2-.07,3.19v.08c0,.38,0,.75.03,1.13.06,1.48.27,2.92.58,4.31.12.58.28,1.14.44,1.7,2.03,6.8,6.77,12.55,12.23,17.14,7.17,6.03,16.12,10.11,25.05,12.83.29.1.58.18.87.27.36.11.73.21,1.11.32.18.04.36.1.53.15,14.19,3.95,29.26,5.12,43.97,3.6-.54.05-1.08.09-1.62.13.54-.05,1.09-.08,1.63-.13h0,.05,0c.38-.04.74-.1,1.11-.13-.38.04-.73.09-1.11.13,1.68-.18,3.34-.38,5-.62,1.4-.21,2.8-.43,4.18-.7.11-.02.2-.04.3-.05.68-.13,1.35-.26,2.03-.39.69-.14,1.36-.29,2.04-.44.34-.07.68-.15,1.02-.23.61-.14,1.2-.29,1.8-.44.7-.18,1.38-.36,2.07-.55.46-.12.92-.25,1.37-.39.61-.17,1.21-.35,1.81-.54.66-.21,1.3-.42,1.95-.64.04,0,.08-.02.11-.04.73-.25,1.46-.5,2.18-.77.63-.22,1.26-.46,1.87-.7.29-.12.58-.23.88-.35.51-.21,1.02-.41,1.52-.62.07-.04.13-.06.21-.1.62-.27,1.24-.54,1.85-.82.12-.04.23-.11.35-.16.5-.23,1.01-.47,1.51-.72.13-.07.28-.14.42-.21.36-.18.72-.36,1.07-.54.29-.14.57-.29.85-.45.04-.02.07-.04.11-.05.03,0,.04-.03.07-.04.12-.05.23-.12.35-.18.52-.29,1.04-.58,1.56-.88.7-.41,1.41-.81,2.11-1.22,4.79-2.79,9.59-5.58,14.38-8.35,3.18-1.86,6.19-3.39,9.37-5.24v-7.19c-7.89,4.59-15.79,9.16-23.68,13.76h0Z"/>
      <path class="cls-2" d="M93.68,89.17c.77-.44,1.39-.79,1.82-1.04-.23.13-.88.5-1.82,1.04Z"/>
      <path class="cls-32" d="M331.49,194.34v28.97l-1.57-.79v-27.24l1.57-.94Z"/>
      <path class="cls-32" d="M321.06,200.43v28.99l-1.62-.8v-27.25l1.62-.94Z"/>
      <path class="cls-108" d="M329.92,193.54v.02l-8.86,5.13v-.02l8.86-5.13Z"/>
      <path class="cls-117" d="M329.92,195.28v27.24l-7.27,4.2v-27.25l7.27-4.2Z"/>
      <path class="cls-65" d="M319.44,201.37v27.25l-7.28,4.2v-27.25l7.28-4.2Z"/>
      <path class="cls-16" d="M310.61,204.74v30.7l1.55-.88v-28.98l7.28-4.2,1.62-.94v28.99l1.59-.96v-28.98l7.27-4.2,1.57-.94v28.97l1.53-.88v-30.7l-22.41,13Z"/>
      <path class="cls-94" d="M310.61,204.74v29.01-28.97l8.83-5.14v.02l-8.83,5.09Z"/>
      <path class="cls-108" d="M277.62,223.98h0s-8.84,5.15-8.84,5.15v-.02l8.84-5.13Z"/>
      <path class="cls-108" d="M258.1,235.21v28.97-28.97l9.03-5.14v.02l-9.03,5.12Z"/>
      <path class="cls-131" d="M258.1,233.91l76.65-44.65-.09,32.2-1.63.97v-30.7l-3.1,1.82v-.02l-8.86,5.13v.02l-1.62.96v-.02l-8.83,5.14v28.97-.05,1.73l-2.39,1.51v-30.7l-22.36,13.01v30.7l-2.85,1.56v-30.7l-5.39,3.16h0s-8.84,5.12-8.84,5.12v.02l-8.09,4.7v30.7l-2.56,1.87-.04-32.49Z"/>
      <path class="cls-33" d="M258.1,233.27l.04,33.13-45.35-26.88v-32.41l45.31,26.15Z"/>
      <path class="cls-131" d="M258.1,264.16l-45.31-26.21v-.89l45.31,26.35v.75Z"/>
      <path class="cls-131" d="M258.1,261.92l-45.31-26.21v-.89l45.31,26.35v.75Z"/>
      <path class="cls-131" d="M258.1,259.68l-45.31-26.21v-.89l45.31,26.35v.75Z"/>
      <path class="cls-131" d="M258.1,257.44l-45.31-26.21v-.89l45.31,26.35v.75Z"/>
      <path class="cls-131" d="M258.1,255.21l-45.31-26.21v-.88l45.31,26.35v.75Z"/>
      <path class="cls-131" d="M258.1,252.97l-45.31-26.21v-.89l45.31,26.35v.75Z"/>
      <path class="cls-131" d="M258.1,250.73l-45.31-26.21v-.89l45.31,26.35v.75Z"/>
      <path class="cls-131" d="M258.1,248.64l-45.31-26.29v-.96l45.31,26.35v.9Z"/>
      <path class="cls-131" d="M258.1,246.41l-45.31-26.3v-.96l45.31,26.35v.91Z"/>
      <path class="cls-131" d="M258.1,244.17l-45.31-26.3v-.96l45.31,26.36v.9Z"/>
      <path class="cls-131" d="M258.1,241.92l-45.31-26.29v-.96l45.31,26.35v.9Z"/>
      <path class="cls-131" d="M258.1,239.56l-45.31-26.16v-.96l45.31,26.35v.78Z"/>
      <path class="cls-131" d="M258.1,237.44l-45.31-26.29v-.96l45.31,26.35v.9Z"/>
      <path class="cls-131" d="M258.1,235.21l-45.31-26.29v-.96l45.31,26.35v.91Z"/>
      <path class="cls-32" d="M281.48,223.43v28.97l-1.6-.79v-27.25l1.6-.93Z"/>
      <path class="cls-32" d="M270.99,229.54v28.97l-1.61-.8v-27.24l1.61-.93Z"/>
      <path class="cls-78" d="M272.64,228.56l7.24-4.2v27.25l-7.24,4.2v-27.25Z"/>
      <path class="cls-42" d="M269.39,230.46v27.24l-7.18,4.2v-27.24l7.18-4.2Z"/>
      <path class="cls-16" d="M260.69,233.83v30.7l1.52-.89v-28.97l8.78-5.13v28.97l1.65-.96v-28.98l8.84-5.13v28.97l1.52-.88v-30.7l-22.31,13Z"/>
      <path class="cls-32" d="M306.7,208.85v28.98l-1.59-.8v-27.25l1.59-.93Z"/>
      <path class="cls-32" d="M296.22,214.96v28.97l-1.6-.79v-27.25l1.6-.93Z"/>
      <path class="cls-9" d="M297.86,213.99l7.25-4.2v27.25l-7.25,4.2v-27.25Z"/>
      <path class="cls-73" d="M294.62,215.89v27.25l-7.24,4.19v-27.24l7.24-4.2Z"/>
      <path class="cls-16" d="M285.86,219.26v30.7l1.52-.89v-28.97l8.84-5.13v28.97l1.64-.95v-28.99l8.84-5.13v28.98l1.52-.89v-30.7l-22.36,13.01Z"/>
      <path class="cls-38" d="M258.12,208.16v-6.33s-45.34-25.9-45.34-25.9v31.19l45.31,26.15v-6.32l.03-18.79Z"/>
      <path class="cls-132" d="M334.75,157.74l-.09.15-76.53,44.24-.04,31.78,76.66-44.64v-31.53h0ZM282.37,213.41l-11.19,6.51v-19.01l11.19-6.51v19.01ZM295.47,205.79l-11.19,6.52v-19.01l11.19-6.51v19.01h0ZM308.56,198.18l-11.19,6.52v-19.01l11.19-6.51v19.01h0ZM321.65,190.57l-11.19,6.51v-19.01l11.19-6.51v19.01Z"/>
      <path class="cls-22" d="M310.46,164.9l4.24-2.47v-17.47l-4.24,2.47v17.47Z"/>
      <path class="cls-81" d="M297.84,172.22l4.27-2.47v-17.46l-4.27,2.46v17.47Z"/>
      <path class="cls-43" d="M315.47,161.97l4.25-2.47v-17.46l-4.25,2.47v17.46Z"/>
      <path class="cls-98" d="M285.25,179.54l4.24-2.47v-17.46l-4.24,2.47v17.46Z"/>
      <path class="cls-17" d="M302.89,169.29l4.23-2.47v-17.46l-4.23,2.47v17.46Z"/>
      <path class="cls-3" d="M277.71,183.93l4.25-2.47v-17.47l-4.25,2.47v17.47Z"/>
      <path class="cls-87" d="M272.66,186.86l4.28-2.46v-17.47l-4.28,2.47v17.46Z"/>
      <path class="cls-128" d="M290.31,176.61l4.24-2.47v-17.47l-4.24,2.47v17.47Z"/>
      <path class="cls-21" d="M281.62,195.75l-4.43,2.56v17.21l4.43-2.57v-17.2Z"/>
      <path class="cls-7" d="M276.39,198.8l-4.43,2.57-.05,17.21,4.48-2.57v-17.21Z"/>
      <path class="cls-80" d="M307.8,180.52l-4.43,2.57v17.21l4.43-2.58v-17.2Z"/>
      <path class="cls-92" d="M315.67,175.95l-4.49,2.57v17.2l4.49-2.57v-17.2Z"/>
      <path class="cls-31" d="M320.89,172.9l-4.4,2.57v17.2l4.4-2.57v-17.2Z"/>
      <path class="cls-8" d="M302.58,183.57l-4.45,2.57v17.2l4.45-2.57v-17.2Z"/>
      <path class="cls-15" d="M294.71,188.13l-4.43,2.57v17.21l4.43-2.57v-17.21Z"/>
      <path class="cls-60" d="M289.47,191.18l-4.43,2.57v17.21l4.43-2.58v-17.2Z"/>
      <path class="cls-48" d="M320.14,173.27v16.63l-4.48,2.57v-16.5c-.27.13-.49.32-.77.45v16.54l-3.73,2.21v.9l9.72-5.7v-17.87c-.24.28-.48.54-.75.78Z"/>
      <path class="cls-59" d="M293.96,188.29v16.83l-4.5,2.57v-16.5c-.13.07-.61.35-.76.43v16.56l-3.99,2.31v.9l9.99-5.8v-17.74c-.25.15-.49.3-.75.46h0Z"/>
      <path class="cls-46" d="M307.05,180.72v16.78l-4.48,2.57v-16.64c-.26.17-.49.33-.75.51-.02,0,.02.02,0,.03v16.58l-4.02,2.31v.9l10-5.81v-17.77c-.26.18-.49.37-.75.53h0Z"/>
      <path class="cls-37" d="M280.87,195.99v16.74l-4.48,2.57v-16.67c-.29.13-.5.26-.77.41v16.74l-3.8,2.2c-.04.32-.07.64-.11.96l9.9-5.76v-17.95c-.24.26-.48.51-.75.75Z"/>
      <path class="cls-55" d="M319,142.43l-.04,16.86-4.26,2.47v-17.13c-.12.08-.59.46-.73.57l-.04,17.02-3.46,2.1v.91l9.27-5.45v-17.75c-.24.03-.46.37-.71.39h0Z"/>
      <path class="cls-82" d="M307.12,149.21s-.49.32-.71.47v16.91l-4.28,2.47v-17.01c-.27.15-.5.3-.76.46v17.01l-3.76,2.17v.92l9.51-5.48v-17.92h0Z"/>
      <path class="cls-77" d="M293.81,156.63v17.3l-4.33,2.47v-17.03c-.27.18-.45.36-.71.53v16.97l-3.52,2.05v.92l9.3-5.41v-18.18c-.24.13-.5.26-.74.39h0Z"/>
      <path class="cls-76" d="M281.23,164.39v16.86l-4.29,2.47v-16.79c-.27.13-.73.41-.73.41v16.84l-3.55,2.04v.92l9.3-5.41v-18.02c-.24.23-.48.46-.74.67h0Z"/>
      <path class="cls-107" d="M310.46,197.07l11.19-6.51v-19.01l-11.19,6.51v19.01ZM316.49,175.47l4.4-2.57v17.2l-4.4,2.57v-17.2ZM311.17,178.53l4.49-2.57v17.2l-4.49,2.57v-17.2Z"/>
      <path class="cls-107" d="M297.37,204.7l11.19-6.52v-19.01l-11.19,6.51v19.01h0ZM303.37,183.09l4.42-2.57v17.2l-4.42,2.57v-17.2ZM298.13,186.14l4.45-2.57v17.2l-4.45,2.57v-17.2Z"/>
      <path class="cls-107" d="M284.27,212.31l11.19-6.52v-19.01l-11.19,6.51v19.01h0ZM290.28,190.7l4.42-2.57v17.2l-4.42,2.57v-17.2ZM285.04,193.75l4.43-2.57v17.2l-4.43,2.57v-17.2Z"/>
      <path class="cls-107" d="M271.18,219.92l11.19-6.51v-19.01l-11.19,6.51v19.01ZM277.19,198.31l4.42-2.57v17.2l-4.42,2.57v-17.2ZM271.96,201.37l4.42-2.57v17.2l-4.48,2.57.04-17.2h0Z"/>
      <path class="cls-47" d="M258.02,203.92l-.02,5.21-47.03-26.57v-5.21l47.05,26.57Z"/>
      <path class="cls-13" d="M336.08,158.65l-.02,5.21-78.06,45.27.02-5.21,78.06-45.27Z"/>
      <path class="cls-47" d="M336.08,158.65l-78.06,45.27-47.06-26.57,4.67-2.71,42.53,23.5c3.14,1.81,72.23-42.77,72.23-42.77l5.68,3.28h0Z"/>
      <path class="cls-101" d="M258.13,169.84l-44.93-26.05v32.28l44.93,26.05v-32.28Z"/>
      <path class="cls-132" d="M334.65,157.89l.09-32.59-76.61,44.54v32.28l76.52-44.24ZM309.7,146.95l10.75-6.26v19.3l-10.75,6.26v-19.3ZM297.11,154.27l10.76-6.26v19.3l-10.76,6.26v-19.3ZM284.53,161.59l10.76-6.26v19.3l-10.76,6.26v-19.3ZM271.95,168.91l10.76-6.26v19.3l-10.76,6.26v-19.3Z"/>
      <path class="cls-107" d="M320.46,140.69l-10.75,6.26v19.3l10.75-6.26v-19.3ZM314.7,162.43l-4.24,2.47v-17.47l4.24-2.47v17.47ZM319.73,159.5l-4.25,2.47v-17.47l4.25-2.47v17.47Z"/>
      <path class="cls-107" d="M307.88,148.01l-10.76,6.26v19.3l10.76-6.26v-19.3ZM302.11,169.75l-4.27,2.47v-17.47l4.27-2.47v17.47ZM307.12,166.81l-4.23,2.47v-17.47l4.23-2.47v17.47Z"/>
      <path class="cls-107" d="M295.29,155.33l-10.76,6.26v19.3l10.76-6.26v-19.3ZM289.49,177.07l-4.24,2.47v-17.47l4.24-2.47v17.47ZM294.55,174.14l-4.24,2.47v-17.47l4.24-2.47v17.47Z"/>
      <path class="cls-107" d="M282.7,162.65l-10.76,6.26v19.3l10.76-6.26v-19.3ZM276.94,184.4l-4.28,2.47v-17.47l4.28-2.47v17.47ZM281.97,181.46l-4.24,2.47v-17.47l4.24-2.47v17.47Z"/>
      <path class="cls-13" d="M258.54,166.17v4.79l78.18-44.54v-4.79l-78.18,44.54Z"/>
      <path class="cls-47" d="M291.38,95.43l-78.17,44.54,45.34,26.21,78.18-44.54-45.35-26.21Z"/>
      <path class="cls-2" d="M213.2,139.97v4.8l45.34,26.2v-4.79l-45.34-26.21Z"/>
      <path class="cls-116" d="M344.26,194.82v1.95s-76.74,44.64-76.74,44.64v-1.95l76.74-44.64Z"/>
      <path class="cls-33" d="M267.52,239.45v1.95l-9.51-5.5v-1.95l9.51,5.5Z"/>
      <path class="cls-131" d="M344.26,194.82l-76.74,44.64-9.51-5.5,76.74-44.64,9.51,5.5Z"/>
      <path class="cls-18" d="M285.48,147.13l-1.26-.73v-4.07s1.25.73,1.25.73v4.07Z"/>
      <path class="cls-26" d="M282.67,143.07l-1.26-.73,2.79-1.62,1.26.73-2.79,1.62Z"/>
      <path class="cls-18" d="M285.46,141.46l-1.26-.73v-4.08s1.25.73,1.25.73v4.08Z"/>
      <path class="cls-26" d="M285.46,137.38l-1.26-.73,1.39-.8,1.26.73-1.39.8Z"/>
      <path class="cls-26" d="M281.26,139.81l-1.26-.73,1.4-.81,1.26.73-1.4.81Z"/>
      <path class="cls-18" d="M281.28,149.56l-1.25-.73-.04-9.76,1.26.73.03,9.76Z"/>
      <path class="cls-26" d="M322.54,124.22l-1.26-.73,3.27-1.89,1.26.73-3.27,1.89Z"/>
      <path class="cls-18" d="M321.15,126.63l-1.26-.73-.03-9.8,1.26.73.03,9.8Z"/>
      <path class="cls-26" d="M321.13,116.83l-1.26-.73,1.39-.8,1.26.73-1.39.8Z"/>
      <path class="cls-114" d="M319,127.87l-1.26-.73-.53-1.82,1.26.73.53,1.82Z"/>
      <path class="cls-26" d="M316.37,125.66l-1.26-.73,1.71-.99,1.26.73-1.71.99Z"/>
      <path class="cls-114" d="M318.08,124.67l-1.26-.73-.86-3.03,1.25.73.87,3.03Z"/>
      <path class="cls-26" d="M317.85,118.69l-1.26-.73.13-.07,1.26.73-.13.07Z"/>
      <path class="cls-26" d="M316.45,119.45l-1.26-.73,1.39-.8,1.26.73-1.39.8Z"/>
      <path class="cls-14" d="M314.09,130.67l-1.26-.73,2.36-11.23,1.26.73-2.36,11.23Z"/>
      <path class="cls-18" d="M310.96,132.46l-1.26-.73-.02-8.24,1.26.73.02,8.24Z"/>
      <path class="cls-18" d="M308.36,125.71l-1.26-.73v-1.61l1.26.73v1.61Z"/>
      <path class="cls-26" d="M308.36,124.1l-1.26-.73,6.55-3.78,1.26.73-6.55,3.78Z"/>
      <path class="cls-18" d="M306.15,135.23l-1.26-.73-.03-9.76,1.26.73.03,9.76Z"/>
      <path class="cls-26" d="M306.13,125.48l-1.26-.73,1.4-.81,1.26.73-1.4.81Z"/>
      <path class="cls-26" d="M301.47,132.29l-1.26-.73,1.06-.62,1.26.73-1.06.62Z"/>
      <path class="cls-26" d="M300.06,128.94l-1.26-.73,2.46-1.43,1.25.73-2.45,1.43Z"/>
      <path class="cls-18" d="M300.09,138.7l-1.26-.73-.03-9.76,1.26.73.03,9.76Z"/>
      <path class="cls-62" d="M294.86,141.11l-1.26-.73.51-1.72,1.26.73-.51,1.72Z"/>
      <path class="cls-127" d="M296.77,134.47l-1.26-.72,2.01-.05,1.26.73-2.01.04Z"/>
      <path class="cls-18" d="M293.09,139.05l-1.26-.73v-2.62s1.25.72,1.25.72v2.63Z"/>
      <path class="cls-18" d="M288.16,141.89l-1.26-.73v-2.63s1.25.73,1.25.73v2.63Z"/>
      <path class="cls-97" d="M301.27,130.94l1.26.73c.18-.11.35-.25.49-.42l-1.26-.73c-.15.17-.32.31-.5.42h0Z"/>
      <path class="cls-113" d="M301.77,130.53l1.26.73c.08-.09.15-.18.21-.28l-1.26-.73c-.06.1-.14.2-.21.28Z"/>
      <path class="cls-35" d="M301.98,130.25l1.26.73c.06-.09.12-.19.17-.29l-1.26-.73c-.05.1-.11.19-.17.29Z"/>
      <path class="cls-68" d="M302.15,129.97l1.26.73c.05-.11.1-.21.14-.32l-1.26-.73c-.04.11-.09.21-.14.32Z"/>
      <path class="cls-102" d="M303.55,130.37c.08-.22.12-.46.12-.68,0-.36-.12-.62-.33-.73l-1.26-.73c.2.12.33.37.33.73,0,.21-.04.45-.12.68l1.26.73Z"/>
      <path class="cls-97" d="M303.65,127.17l-1.26-.73c-.34,0-.72.11-1.12.34l1.26.73c.4-.23.79-.34,1.12-.34Z"/>
      <path class="cls-113" d="M304.1,127.26l-1.26-.73c-.14-.05-.29-.08-.45-.08l1.26.73c.16,0,.32.03.45.08Z"/>
      <path class="cls-35" d="M304.28,127.34l-1.26-.73c-.05-.04-.12-.06-.18-.08l1.26.73c.06.03.12.05.18.08Z"/>
      <path class="cls-97" d="M297.31,138.88c.17-.1.36-.26.53-.45l-1.26-.73c-.17.19-.36.35-.53.45-.02,0-.04.03-.06.04l1.26.73s.04-.02.06-.04Z"/>
      <path class="cls-113" d="M298.04,138.16l-1.26-.73c-.06.09-.13.18-.21.27l1.26.73c.07-.08.14-.18.2-.27Z"/>
      <path class="cls-35" d="M298.15,137.97l-1.26-.73c-.04.06-.07.13-.12.2l1.26.73c.05-.06.08-.13.12-.2Z"/>
      <path class="cls-68" d="M298.19,137.9c.03-.05.04-.11.06-.16l-1.26-.73c-.02.05-.04.11-.06.16,0,.03-.02.05-.04.07l1.26.73s.03-.05.04-.07Z"/>
      <path class="cls-102" d="M298.11,136.15l-1.26-.73c.33.19.37.97.14,1.59l1.26.73c.21-.62.19-1.4-.14-1.59Z"/>
      <path class="cls-113" d="M297.53,133.69l1.26.73s.08.02.12.04l-1.26-.73s-.08-.03-.12-.04Z"/>
      <path class="cls-35" d="M297.65,133.73l1.26.73s.09.04.13.06l-1.26-.73s-.09-.04-.13-.06Z"/>
      <path class="cls-97" d="M297.24,138.91l-1.26-.73c-.81.42-1.83.47-1.89.47l1.26.73c.05,0,1.07-.05,1.89-.47Z"/>
      <path class="cls-35" d="M295.35,133.68l1.26.73s.04.03.07.04l-1.26-.73s-.05-.02-.07-.04Z"/>
      <path class="cls-113" d="M295.42,133.72l1.26.73s.06.02.1.03l-1.26-.73s-.06-.02-.1-.03Z"/>
      <path class="cls-97" d="M298.78,130.1l-1.26-.73c-.31,0-.8.06-1.39.4l1.26.73c.59-.34,1.08-.41,1.39-.4Z"/>
      <path class="cls-113" d="M299.14,130.15l-1.26-.73s-.15-.05-.37-.05l1.26.73c.22,0,.36.05.37.05Z"/>
      <path class="cls-102" d="M294.41,135.3l1.26.73c-.7-.41-.91-1.54-.45-2.84l-1.26-.73c-.46,1.29-.25,2.43.45,2.84Z"/>
      <path class="cls-68" d="M295.33,132.89c.05-.12.1-.22.15-.33l-1.26-.73c-.05.11-.11.21-.15.33-.05.11-.08.21-.12.3l1.26.73c.04-.1.07-.21.12-.3Z"/>
      <path class="cls-35" d="M295.79,132.03l-1.26-.73c-.11.17-.21.35-.31.53l1.26.73c.1-.19.2-.37.31-.53Z"/>
      <path class="cls-113" d="M296.22,131.48l-1.26-.73c-.15.17-.3.36-.43.55l1.26.73c.13-.2.28-.38.43-.55Z"/>
      <path class="cls-97" d="M297.24,130.59s.09-.05.13-.08l-1.26-.73s-.09.05-.13.08c-.36.22-.7.52-1.02.88l1.26.73c.32-.36.67-.66,1.03-.88Z"/>
      <path class="cls-35" d="M288.78,141.64l1.26.73s.08.05.13.06l-1.26-.73s-.09-.04-.12-.06h0Z"/>
      <path class="cls-113" d="M288.91,141.71l1.26.73c.11.04.21.06.33.06l-1.26-.73c-.12,0-.23-.02-.33-.06Z"/>
      <path class="cls-97" d="M290.03,141.53c-.29.16-.55.24-.79.24l1.26.73c.24,0,.51-.07.79-.24.27-.15.52-.37.75-.62l-1.26-.73c-.22.26-.48.47-.75.62Z"/>
      <path class="cls-113" d="M290.78,140.89l1.26.73c.12-.13.23-.29.34-.44l-1.26-.73c-.11.15-.21.3-.34.44Z"/>
      <path class="cls-35" d="M291.12,140.46l1.26.73c.1-.14.19-.29.27-.46l-1.26-.73c-.08.16-.17.31-.27.46Z"/>
      <path class="cls-68" d="M291.39,140l1.26.73c.09-.18.17-.36.23-.54l-1.26-.73c-.06.18-.14.37-.23.54Z"/>
      <path class="cls-102" d="M291.62,139.47l1.26.73c.13-.38.21-.78.21-1.15l-1.26-.73c0,.37-.07.76-.21,1.15Z"/>
      <path class="cls-102" d="M291.82,135.69l1.26.73c0-.61-.21-1.04-.55-1.24l-1.26-.73c.34.2.55.63.55,1.24Z"/>
      <path class="cls-102" d="M288.16,141.89l-1.26-.73c0,1.03.37,1.75.94,2.09l1.26.73c-.58-.34-.94-1.06-.94-2.09Z"/>
      <path class="cls-97" d="M290.01,133.04l1.26.73c.5-.29.97-.43,1.4-.42l-1.26-.73c-.42,0-.89.13-1.39.42h0Z"/>
      <path class="cls-113" d="M291.4,132.62l1.26.73c.2,0,.4.04.58.11l-1.26-.73c-.18-.07-.37-.11-.58-.11Z"/>
      <path class="cls-35" d="M291.98,132.73l1.26.73c.08.03.15.06.22.11l-1.26-.73c-.07-.04-.14-.08-.22-.11Z"/>
      <path class="cls-102" d="M286.89,138.53l1.26.73c0-.62.12-1.29.36-1.93l-1.26-.73c-.23.65-.36,1.31-.36,1.93Z"/>
      <path class="cls-68" d="M287.25,136.6l1.26.73c.11-.3.24-.62.39-.91l-1.26-.73c-.15.29-.29.6-.39.91Z"/>
      <path class="cls-35" d="M287.64,135.69l1.26.73c.13-.27.29-.53.45-.78l-1.26-.73c-.17.25-.32.51-.45.78Z"/>
      <path class="cls-113" d="M288.1,134.91l1.26.73c.18-.27.37-.53.58-.76l-1.26-.73c-.2.23-.4.49-.58.76Z"/>
      <path class="cls-97" d="M288.68,134.15l1.26.73c.4-.46.86-.84,1.33-1.12l-1.26-.73c-.47.28-.93.66-1.33,1.12Z"/>
      <path class="cls-61" d="M285.46,137.38v4.08s-2.78,1.62-2.78,1.62l-.02-4.08-1.4.81.03,9.76,1.41-.81-.02-4.07,2.8-1.62v4.07s1.4-.8,1.4-.8l-.03-9.76-1.39.8Z"/>
      <path class="cls-61" d="M325.82,122.33l-3.27,1.89-.03-8.19-1.39.8.03,9.8,4.67-2.7v-1.6Z"/>
      <path class="cls-61" d="M317.85,118.69v-.05l-1.39.8-2.36,11.22,1.39-.8.5-2.38,2.5-1.44.53,1.82,1.39-.8-2.42-8.45-.13.08h0ZM316.37,125.66l.85-4.02.87,3.03-1.71.99h0Z"/>
      <path class="cls-61" d="M314.91,121.93v-1.61s-6.56,3.78-6.56,3.78v1.61l2.59-1.49.02,8.24,1.4-.8-.03-8.24,2.58-1.49Z"/>
      <path class="cls-61" d="M306.13,125.48l.03,9.76,1.4-.81-.03-9.76-1.4.81Z"/>
      <path class="cls-61" d="M302.52,127.51l-2.46,1.42.03,9.76,1.4-.81v-4.07l1.04-.62c1.36-.79,2.47-2.7,2.46-4.27,0-1.56-1.11-2.2-2.48-1.41h0ZM302.53,131.67l-1.06.62v-2.63l1.05-.62c.63-.37,1.15-.07,1.15.65s-.51,1.62-1.14,1.98Z"/>
      <path class="cls-61" d="M298.79,134.42l-2.01.04c-.46-.08-.63-.7-.33-1.38.18-.41.47-.78.81-.97.81-.46,1.37-.37,1.41-.36l.48-1.6s-.76-.22-1.76.36c-.04.03-.09.05-.13.08-.75.47-1.48,1.27-1.92,2.29-.7,1.63-.35,3.1.71,3.28l1.97-.06c.45.11.47,1.1.17,1.79-.18.39-.56.8-.88.98-.02,0-.04.03-.06.04-.81.42-1.84.47-1.89.47l-.51,1.71s.81-.12,1.11-.17c.45-.08.82-.24,1.26-.46.03,0,.04-.03.07-.04.73-.42,1.54-1.29,2-2.28.73-1.62.55-3.48-.49-3.72h0Z"/>
      <path class="cls-61" d="M291.27,133.77c-1.73,1-3.12,3.45-3.11,5.49v2.63c0,2.03,1.41,2.88,3.15,1.88,1.72-1,3.12-3.45,3.11-5.49v-2.63c0-2.03-1.42-2.87-3.15-1.88ZM291.29,142.26c-1,.58-1.81.07-1.81-1.12v-2.63c0-1.2.79-2.63,1.79-3.21.99-.57,1.8-.06,1.8,1.12v2.63c0,1.19-.79,2.63-1.78,3.2h0Z"/>
      <path class="cls-12" d="M268.68,156.92l-1.26-.73-.02-4.11,1.26.73.02,4.11Z"/>
      <path class="cls-83" d="M271.37,148.13l-1.26-.73,3.58-2.06,1.25.73-3.57,2.06Z"/>
      <path class="cls-12" d="M265.1,154.88l-1.26-.73v-3.12s1.25.73,1.25.73v3.11Z"/>
      <path class="cls-83" d="M265.09,151.77l-1.26-.73,3.57-2.06,1.26.73-3.57,2.06Z"/>
      <path class="cls-12" d="M268.65,149.7l-1.26-.73v-4.11s1.25.73,1.25.73v4.11Z"/>
      <path class="cls-83" d="M268.65,145.6l-1.26-.73,2.71-1.57,1.26.73-2.71,1.57Z"/>
      <path class="cls-61" d="M274.93,146.07l-3.57,2.06v-4.11s-2.72,1.57-2.72,1.57v4.11s-3.56,2.06-3.56,2.06v3.11s3.58-2.06,3.58-2.06l.02,4.11,2.7-1.57v-4.11s3.56-2.06,3.56-2.06v-3.11Z"/>
      <path class="cls-20" d="M213.13,243.12v2.19s-16.2,9.42-16.2,9.42v-2.18s16.2-9.43,16.2-9.43Z"/>
      <path class="cls-50" d="M252.93,266.12v2.18s-39.81-22.99-39.81-22.99v-2.19s39.81,23,39.81,23Z"/>
      <path class="cls-36" d="M236.73,275.54v2.19l-39.8-23v-2.18s39.8,22.99,39.8,22.99Z"/>
      <path class="cls-50" d="M237.97,277.24v2.18s-43.96-25.4-43.96-25.4v-2.18s43.96,25.4,43.96,25.4Z"/>
      <path class="cls-122" d="M194.01,251.83l43.96,25.4,17.89-10.41-43.96-25.4-17.89,10.41ZM252.93,266.12l-16.19,9.42-39.8-23,16.19-9.42,39.8,23Z"/>
      <path class="cls-123" d="M252.93,266.12v2.18s-16.2,9.43-16.2,9.43v-2.19l16.2-9.42Z"/>
      <path class="cls-75" d="M252.93,266.12l-16.2,9.42-39.79-22.99,16.19-9.43,39.8,23Z"/>
      <path class="cls-20" d="M255.86,266.83v2.19s-17.9,10.4-17.9,10.4v-2.18s17.9-10.41,17.9-10.41Z"/>
      <path class="cls-88" d="M231.46,170.79s.09-.04.14,0c0,0,.02,0,.03.02.06.05.12.13.13.21l1.13,4.68,1.2-4.85c.02-.08.08-.1.16-.06h0c.08.05.15.15.17.26l1.12,7.18,1.2-7.72c0-.09.09-.13.17-.07h0c.08.04.15.16.17.25l1.19,7.41,1.12-2.73c.03-.05.08-.07.15-.05h.02c.05.04.12.1.15.17l1.28,2.88,1.88,1.09c.52-.91.85-2.04.85-3.45,0-2.85-1.99-6.31-4.46-7.74-1.51-.87-2.84-.79-3.66.04-.8-1.84-2.16-3.53-3.71-4.44-2.48-1.43-4.49-.28-4.49,2.56,0,1.48.3,3.03.8,4.54l1.93,1.12,1.28-1.34v.04Z"/>
      <path class="cls-88" d="M240.79,178.58l-1.14-2.57-1.22,2.96c-.03.06-.1.07-.17.03h0c-.07-.05-.13-.16-.15-.26l-1.12-6.97-1.2,7.74c-.02.09-.09.12-.17.07h0c-.08-.04-.15-.16-.17-.27l-1.16-7.4-1.17,4.68c-.02.07-.09.1-.16.06h0c-.07-.04-.14-.14-.16-.23l-1.21-5.01-1.14,1.18h-.14l-1.85-1.06c2.15,6.04,7.11,11.65,7.11,11.65,0,0,4.99,0,7.2-3.38l-1.79-1.03c-.06-.04-.12-.1-.15-.18Z"/>
      <path class="cls-39" d="M230.26,172.59h.14l1.14-1.18,1.21,5.01c.02.09.09.19.16.23h0c.07.04.14.02.16-.06l1.17-4.68,1.16,7.4c.02.11.09.21.17.26h0c.09.05.15.02.17-.07l1.2-7.74,1.12,6.97c.02.1.08.2.15.25h0c.07.05.14.04.17-.02l1.22-2.96,1.14,2.57c.04.08.09.14.15.18l1.79,1.03,2.8,1.62v-.41l-2.62-1.52-1.88-1.09-1.28-2.88c-.04-.07-.09-.14-.15-.17h-.02c-.07-.03-.12,0-.15.05l-1.12,2.73-1.19-7.41c-.02-.1-.09-.21-.17-.25h0c-.09-.04-.16-.02-.17.07l-1.2,7.72-1.12-7.18c-.02-.1-.09-.21-.17-.26h0c-.07-.05-.14-.02-.16.06l-1.2,4.85-1.13-4.68c-.02-.08-.07-.17-.13-.21,0,0-.02-.02-.03-.02-.05-.04-.11-.03-.14,0l-1.28,1.34-1.93-1.12-1.26-.72v.41l1.43.83,1.85,1.06v-.03Z"/>
    </g>
  </g>
</svg>