<?xml version="1.0" encoding="UTF-8"?>
<svg id="Layer_2" data-name="Layer 2" xmlns="http://www.w3.org/2000/svg" viewBox="0 0 229 199">
  <defs>
    <style>
      .cls-1 {
        fill: #ffdbab;
      }

      .cls-2 {
        fill: #f75c61;
      }

      .cls-3 {
        fill: #1a2733;
      }

      .cls-4 {
        fill: #252d34;
      }

      .cls-5 {
        fill: #e61e2f;
      }

      .cls-6 {
        fill: #fff;
      }

      .cls-7 {
        fill: none;
      }

      .cls-8 {
        fill: #355063;
      }

      .cls-9 {
        fill: #3f9fe8;
      }

      .cls-10 {
        fill: #f2f2f2;
      }

      .cls-11 {
        fill: #a31419;
      }

      .cls-12 {
        fill: #5c91f7;
      }

      .cls-13 {
        fill: #999;
      }

      .cls-14 {
        fill: #d8abff;
      }

      .cls-15 {
        fill: #337fba;
      }

      .cls-16 {
        fill: rgba(255, 255, 255, .75);
      }

      .cls-17 {
        fill: #ccc;
      }

      .cls-18 {
        fill: #b3b3b3;
      }

      .cls-19 {
        fill: gray;
      }

      .cls-20 {
        fill: #ed1c24;
      }

      .cls-21 {
        fill: rgba(255, 255, 255, .2);
      }

      .cls-22 {
        fill: #ffcb3d;
      }

      .cls-23 {
        fill: #e6e6e6;
      }
    </style>
  </defs>
  <g id="Layer_1-2" data-name="Layer 1">
    <g id="telthAmbulance">
      <rect class="cls-7" width="229" height="199"/>
      <path class="cls-23" d="M157.3,3.41c4.72-2.73,8.95-3.06,11.81-1.41.01-.01,55.03,31.76,55.03,31.76l-116.07,61.62-55.31-31.61L157.3,3.41Z"/>
      <path class="cls-8" d="M181.34,105.02l16.99,9.81v-9.03l-16.99-9.81v9.03Z"/>
      <path d="M181.34,133.96l-6.36-3.67c-1.63-.94-2.63-2.96-2.63-5.83,0-5.74,4.03-12.72,9-15.59,2.48-1.43,4.74-1.57,6.36-.63l6.36,3.67-12.73,22.04h0Z"/>
      <path class="cls-3" d="M196.7,117.74c0-5.74-4.03-8.07-9-5.19-4.97,2.87-9,9.85-9,15.59s4.03,8.07,9,5.2c4.97-2.87,9-9.85,9-15.59Z"/>
      <path class="cls-23" d="M193.95,119.33c0-3.99-2.8-5.6-6.25-3.61-3.45,1.99-6.25,6.84-6.25,10.83s2.8,5.6,6.25,3.61c3.45-1.99,6.25-6.84,6.25-10.83Z"/>
      <path class="cls-6" d="M188.24,118.07c-.17.07-.36.16-.54.27-2.2,1.27-3.98,4.36-3.99,6.91,0,.21.01.41.04.6.26,2.1,1.93,2.87,3.95,1.7,2.2-1.28,3.99-4.37,3.99-6.91,0-2.34-1.5-3.4-3.45-2.57Z"/>
      <path class="cls-13" d="M188.24,118.07c-.17.07-.36.16-.54.27-2.2,1.27-3.98,4.36-3.99,6.91,0,.21.01.41.04.6.56.26,1.3.19,2.12-.29,1.76-1.01,3.18-3.48,3.18-5.51,0-.94-.31-1.62-.81-1.97h0Z"/>
      <path class="cls-17" d="M227.95,41.79v49.59c0,3.5-2.84,7.98-6.34,10.01l-23.27,13.44c-1.11-3.98-4.21-5.81-7.29-5.81-1.74,0-3.55.54-5.39,1.6-5.68,3.28-10.15,10.9-10.35,17.51l-67.25,38.83v-71.57l104.25-60.21c8.63-4.98,15.63-2.03,15.63,6.61Z"/>
      <path class="cls-10" d="M108.06,95.39v71.58l67.25-38.83c.19-6.61,4.66-14.23,10.35-17.51,1.83-1.06,3.64-1.6,5.38-1.6,3.08,0,6.18,1.83,7.28,5.82l23.28-13.45c3.51-2.02,6.34-6.5,6.34-10v-49.6c0-8.63-6.99-11.59-15.63-6.6l-6.91,3.99-12.55,7.25-84.8,48.96h0Z"/>
      <path class="cls-5" d="M108.06,132.14v34.82l67.25-38.83c.19-6.61,4.66-14.23,10.35-17.51,1.83-1.06,3.64-1.6,5.38-1.6,3.08,0,6.18,1.83,7.28,5.82l23.28-13.45c3.51-2.02,6.34-6.5,6.34-10v-28.47l-119.88,69.23h0Z"/>
      <path class="cls-6" d="M134.27,147.52l20.65-11.92c1.48-.86,2.68-2.75,2.68-4.23v-48.41c0-1.48-1.2-1.99-2.68-1.13l-20.65,11.92c-1.48.86-2.68,2.75-2.68,4.23v48.41c0,1.48,1.2,1.99,2.68,1.13Z"/>
      <path class="cls-3" d="M154.92,84.29l-.71.41-19.94,11.51c-.11.07-.21.22-.21.33v18.16c0,.12.1.16.21.09l20.65-11.92c.11-.06.2-.21.21-.32v-18.18c0-.11-.1-.15-.21-.09h0Z"/>
      <path class="cls-4" d="M154.21,84.7l-19.94,11.51c-.11.07-.21.22-.21.33v17.31l19.94-11.51c.11-.07.2-.21.21-.32v-17.32h0Z"/>
      <path class="cls-8" d="M155.12,108.15l-4.52,2.61v-2.2l4.52-2.61v2.2Z"/>
      <path class="cls-6" d="M160.34,108.59l64.87-37.46v7.4l-64.87,37.46v-7.4Z"/>
      <path class="cls-6" d="M128.85,126.78v7.41l-18.05,10.42v-7.41l18.05-10.42Z"/>
      <path class="cls-6" d="M55.51,65.36L158.67,5.79c2.32-1.34,4.53-2.05,6.41-2.05,1.03,0,1.93.22,2.66.64l2.29,1.3,44.22,25.54c-1.09.42-2.2.95-3.31,1.6l-105.64,61-49.8-28.46h0Z"/>
      <path class="cls-17" d="M52.76,135.36l55.31,31.6v-71.57l-55.31-31.61v71.57Z"/>
      <path class="cls-8" d="M59.96,169.91l16.99,9.81v-9.03l-16.99-9.81v9.03Z"/>
      <path d="M60.46,198.4l-6.36-3.67c-1.63-.94-2.63-2.96-2.63-5.83,0-5.74,4.03-12.72,9-15.59,2.48-1.43,4.73-1.57,6.36-.63l6.36,3.67-12.72,22.04h0Z"/>
      <path class="cls-3" d="M75.81,182.19c0-5.74-4.03-8.07-9-5.2-4.97,2.87-9,9.85-9,15.59s4.03,8.07,9,5.2c4.97-2.87,9-9.85,9-15.59Z"/>
      <path class="cls-23" d="M73.07,183.77c0-3.99-2.8-5.6-6.25-3.61-3.45,1.99-6.25,6.84-6.25,10.83s2.8,5.6,6.25,3.61c3.45-1.99,6.25-6.84,6.25-10.83Z"/>
      <path class="cls-6" d="M67.36,182.51c-.18.07-.36.16-.54.27-2.2,1.27-3.98,4.36-3.99,6.91,0,.21.01.41.04.6.26,2.1,1.93,2.87,3.95,1.7,2.2-1.28,3.99-4.37,3.99-6.91,0-2.34-1.5-3.4-3.45-2.57Z"/>
      <path class="cls-13" d="M67.36,182.51c-.18.07-.36.16-.54.27-2.2,1.27-3.98,4.36-3.99,6.91,0,.21.01.41.04.6.56.26,1.3.19,2.12-.29,1.76-1.01,3.18-3.48,3.18-5.51,0-.94-.31-1.62-.81-1.97h0Z"/>
      <path class="cls-17" d="M52.76,135.32l55.02,31.77v-51.02l-55.02-31.77v51.02Z"/>
      <path class="cls-6" d="M101.36,119.08c-.3.61,0,44.29,0,44.29l-22.8,13.11-9.24-6.34-1.06-14.67,13.78-25.34,19.32-11.06h0Z"/>
      <path class="cls-6" d="M37.13,171.05l-2.36,16.09-23.96-15.33,1.37-14.15,24.95,13.39Z"/>
      <path class="cls-3" d="M33.22,173.33c.23,0,.45-.13.56-.34.16-.31.04-.68-.27-.85-6.72-3.45-13.06-7.04-18.85-10.65-.3-.18-.68-.09-.86.2-.18.29-.09.68.2.86,5.82,3.63,12.19,7.23,18.94,10.7.09.05.19.07.29.07h0Z"/>
      <path class="cls-3" d="M32.5,176.07c.23,0,.44-.12.56-.34.16-.31.04-.68-.27-.85-6.8-3.55-12.68-6.9-18.43-10.55-.29-.19-.68-.1-.87.19-.19.29-.1.68.19.87,5.79,3.67,11.69,7.04,18.53,10.61.09.05.19.07.29.07h0Z"/>
      <path class="cls-3" d="M32.12,178.7c.23,0,.44-.12.56-.33.16-.31.04-.68-.26-.85-6.89-3.64-12.29-6.77-18.01-10.46-.29-.19-.68-.1-.87.19-.19.29-.1.68.19.87,5.76,3.71,11.19,6.86,18.11,10.51.09.05.19.07.29.07h0Z"/>
      <path class="cls-3" d="M32,181.52c.23,0,.44-.12.55-.33.16-.31.05-.68-.26-.85-6.97-3.72-11.91-6.63-17.6-10.37-.29-.19-.68-.11-.87.18-.19.29-.11.68.18.87,5.72,3.76,10.68,6.68,17.69,10.43.09.05.2.08.29.08h0Z"/>
      <path class="cls-3" d="M21.58,126.03l-1.9-1.97c-.11-.11-.2-.14-.28-.12.19-.08.49-.16.66-.01l2.29,1.9-.47.85c-.08-.28-.19-.53-.3-.65h0Z"/>
      <path class="cls-23" d="M19.67,124.07l1.9,1.97c.11.12.23.37.3.65l-1.89,3.46-.1-.15c-.38-.53-.69-1.63-.7-2.45l-.03-2.82c0-.45.09-.72.24-.76.08-.02.18.01.28.12h0Z"/>
      <path class="cls-17" d="M48.13,182.11c-1.15,5.47-1.09,10.19-.12,14.32-.97-4.14-1.02-8.85.12-14.32Z"/>
      <path class="cls-17" d="M2.49,153.03c-.22.84-.41,1.64-.57,2.43.16-.79.35-1.6.57-2.43Z"/>
      <path class="cls-17" d="M63.92,160.7c-.9,1.05-13.24,15.37-13.28,15.43l4.95,2.02s-4.95-2.02-4.96-2c-13.17-6.18-25.29-12.58-35.75-19.35,10.4,6.72,22.54,13.12,35.81,19.27l13.24-15.37Z"/>
      <path class="cls-23" d="M63.98,160.64c-.06.07-13.29,15.43-13.29,15.43-13.27-6.16-25.41-12.55-35.81-19.27-3.7-2.4-7.2-4.84-10.46-7.33.06-.08,13.36-15.51,13.36-15.51,12.41,9.78,28.28,18.53,46.2,26.68ZM20.65,137.59l-11.58,13.74c1.39.99,2.84,1.99,4.33,2.99l11.65-13.71c-1.52-1.01-2.98-2.02-4.4-3.02ZM14.54,155.08c.94.61,1.89,1.23,2.86,1.84l11.38-13.88c-.9-.57-1.77-1.14-2.65-1.71l-11.6,13.75h0Z"/>
      <path class="cls-23" d="M28.79,143.05l-11.38,13.88c-.97-.62-1.93-1.23-2.86-1.84l11.6-13.75c.87.57,1.75,1.14,2.65,1.71h0Z"/>
      <path class="cls-16" d="M28.79,143.05l-11.38,13.88c-.97-.62-1.93-1.23-2.86-1.84l11.6-13.75c.87.57,1.75,1.14,2.65,1.71h0Z"/>
      <path class="cls-23" d="M9.06,151.33l11.58-13.74c1.42,1,2.89,2.01,4.4,3.02l-11.65,13.71c-1.5-1-2.94-2-4.33-2.99Z"/>
      <path class="cls-16" d="M9.06,151.33l11.58-13.74c1.42,1,2.89,2.01,4.4,3.02l-11.65,13.71c-1.5-1-2.94-2-4.33-2.99Z"/>
      <path class="cls-6" d="M64.31,160.24l-.34.39c-17.92-8.15-33.79-16.91-46.2-26.68l.34-.39,1.87-3.42,1.89-3.46.47-.85,10.01-18.27c13.85,9.79,29.41,18.59,46.21,26.68l-14.25,26.01h0ZM19.56,133.53c3.26,2.45,6.76,4.85,10.46,7.21l-.79-.18c-.14-.03-.26.05-.29.18-.03.13.05.26.18.29l2.11.47c3.71,2.33,7.62,4.63,11.7,6.89-.14-.03-.26.05-.29.18-.03.13.05.26.18.29l1.63.36c6.05,3.31,12.45,6.54,19.13,9.72l13.29-24.25c-16.36-7.61-31.24-15.98-44.03-25.42l-13.29,24.25h0Z"/>
      <path class="cls-4" d="M63.59,158.96c-6.68-3.18-13.09-6.42-19.13-9.72l3.83.86c2.34,1.25,4.75,2.51,7.23,3.77.07.04.15.05.22.05.18,0,.35-.1.43-.27.12-.24.03-.53-.22-.65-4.29-2.18-8.4-4.36-12.21-6.49-.23-.13-.53-.05-.66.19-.13.23-.05.53.19.66,1.11.62,2.26,1.25,3.43,1.88l-3.77-.84c-4.09-2.26-7.99-4.56-11.7-6.89l3.28.73c1.49.91,3.01,1.82,4.57,2.72.08.04.16.07.24.07.17,0,.33-.09.42-.24.14-.23.06-.53-.18-.66-2.87-1.67-5.62-3.34-8.22-5l11.86-21.21c-.81-.52-1.62-1.04-2.42-1.57l-12.18,21.99c.11.08.24.15.35.23.02.13.09.25.21.33,1.31.85,2.67,1.71,4.07,2.57l-3.22-.72c-3.7-2.36-7.2-4.77-10.46-7.21l13.29-24.25c12.79,9.44,27.67,17.82,44.03,25.42l-13.29,24.25ZM34.9,112.33l-12.07,22.05c1.41,1.01,2.87,2.02,4.39,3.04l12.17-21.99c-1.53-1.02-3.02-2.05-4.49-3.09h0Z"/>
      <path class="cls-8" d="M29.03,138.21c-.07.11-.09.23-.07.34-.11-.08-.24-.15-.35-.23l12.18-21.99c.8.52,1.61,1.05,2.42,1.57l-11.86,21.21c-.55-.35-1.11-.7-1.65-1.05-.23-.15-.53-.08-.67.14Z"/>
      <path class="cls-21" d="M29.37,137.97c-.07.1-.09.22-.07.34-.11-.08-.23-.15-.34-.22l11.89-21.47c.78.51,1.57,1.02,2.36,1.53l-11.58,20.71c-.54-.34-1.08-.69-1.61-1.03-.22-.14-.51-.08-.66.14Z"/>
      <path class="cls-8" d="M27.22,137.41c-1.52-1.01-2.98-2.03-4.39-3.04l12.07-22.05c1.46,1.04,2.96,2.07,4.49,3.09l-12.17,22h0Z"/>
      <path class="cls-21" d="M27.22,137.41c-1.52-1.01-2.98-2.03-4.39-3.04l12.07-22.05c1.46,1.04,2.96,2.07,4.49,3.09l-12.17,22h0Z"/>
      <path class="cls-4" d="M1.92,155.46c.16-.79.35-1.6.57-2.43.32-1.21,1-2.48,1.92-3.57,3.25,2.49,6.75,4.94,10.46,7.33,10.45,6.76,22.58,13.17,35.75,19.35-.92,1.09-1.61,2.36-1.93,3.57-.21.81-.4,1.61-.57,2.39-1.14,5.47-1.09,10.19-.13,14.32-18.13-8.01-34.07-16.74-46.2-26.68-.97-4.14-1.07-8.64.12-14.29h0ZM3.58,162.93c0,.46.21.89.57,1.18,1.03.8,2.1,1.6,3.2,2.41.44.32,1.07.03,1.1-.52.03-.39.06-.77.09-1.16.32-3.18.95-6.24,1.39-7.71.09-.29-.03-.6-.28-.77-1.11-.76-2.21-1.53-3.28-2.3-.18-.12-.34-.24-.51-.37-.39-.29-.95-.09-1.08.38-.46,1.71-1.2,5.24-1.22,8.87ZM3.24,164.84c.03.91.14,1.78.32,2.62,1.24,1,2.56,2,3.97,2.98-.15-.85-.25-1.74-.28-2.64-1.41-.96-2.75-1.95-4.01-2.97h0ZM34.9,171.52c-7.9-4.06-14.81-7.98-20.95-11.9-.37-.23-.85-.02-.94.4-.76,3.97-.93,7.56-.52,10.91.05.38.25.71.57.93,5.74,3.91,12.24,7.72,19.72,11.54.47.24,1.03-.09,1.04-.62.1-3.21.58-6.59,1.46-10.19.01-.04.02-.08.03-.12.1-.38-.08-.78-.43-.95h0ZM46.36,176.9c-1.71-.82-3.33-1.61-4.89-2.38-.22-.1-.42-.21-.63-.31-.39-.19-.85,0-.97.42-.54,1.84-1.25,5.45-1.47,8.96-.03.52.24,1.02.72,1.24,1.53.74,3.13,1.47,4.82,2.25.44.2.95-.09.99-.57.03-.31.06-.63.1-.97.3-2.55.89-5.74,1.69-7.75.14-.34-.03-.73-.36-.89h0ZM38.57,185.77c-.02.91.02,1.79.12,2.64,1.58.77,3.23,1.54,4.94,2.31-.13-.87-.19-1.76-.16-2.69-1.67-.75-3.3-1.5-4.89-2.27Z"/>
      <path class="cls-6" d="M5.89,153.68c.17.13.34.25.51.37-.43,1.9-.92,4.76-.94,7.69,0,.46.21.9.57,1.18.81.63,1.66,1.27,2.52,1.91-.03.39-.07.77-.09,1.16-.04.55-.66.84-1.1.52-1.11-.81-2.18-1.61-3.2-2.41-.37-.29-.58-.72-.57-1.18.03-3.63.77-7.15,1.22-8.87.13-.47.68-.67,1.08-.38Z"/>
      <path class="cls-6" d="M41,183.66c1.29.62,2.62,1.24,4.03,1.88-.04.33-.07.66-.1.97-.04.48-.55.77-.99.57-1.7-.77-3.29-1.51-4.82-2.25-.47-.22-.75-.72-.72-1.24.22-3.51.93-7.12,1.47-8.96.12-.41.58-.61.97-.42.21.1.41.21.63.31-.48,1.98-1,4.98-1.19,7.89-.03.52.24,1.02.72,1.24Z"/>
      <path class="cls-22" d="M5.46,161.75c.02-2.93.51-5.8.94-7.69,1.07.77,2.16,1.54,3.28,2.3.25.17.37.48.28.77-.44,1.47-1.08,4.53-1.39,7.71-.87-.64-1.71-1.27-2.52-1.91-.37-.28-.58-.72-.57-1.18Z"/>
      <path class="cls-22" d="M45.03,185.54c-1.41-.65-2.73-1.27-4.03-1.88-.47-.23-.75-.72-.72-1.24.18-2.92.7-5.91,1.19-7.89,1.56.77,3.18,1.56,4.89,2.38.33.16.49.55.36.89-.8,2.01-1.39,5.2-1.69,7.75h0Z"/>
      <path class="cls-5" d="M63.92,160.7c.06-.07.39-.46.39-.46l.24-.44,5.19-3.05v1.03c0,.47.37.86.85.89l1.44.07v10.28c0,.16.09.25.24.24,3.74-.41,6.55,1.47,7.3,5.22.04.18.2.23.41.11l19.55-11.29c.23-.13.42-.43.42-.66v-23.62l3.35-1.97v27.47l-26.36,15.22c-.14-4.85-3.44-7.1-7.94-5.89-1.05.28-2.17.75-3.33,1.42-3.68,2.13-6.94,5.78-9,9.71l-1.1-6.81-4.95-2.02c.05-.06,12.38-14.38,13.28-15.43h0Z"/>
      <path class="cls-10" d="M99.96,122.71c0-.23-.19-.31-.42-.18l-17.85,10.31c-.13.08-.25.2-.33.35l-9.23,16.85c-.06.11-.09.22-.09.32v1.33l-.9-.26c-.28-.08-.59-.04-.84.12-.32.2-.49.56-.48.93-.05.09-.07.2-.07.32v3.96l-5.19,3.05,14-25.56.54-.99c2.94-5.37,7.39-10.08,12.1-12.8l12.1-6.99v23.56l-3.35,1.97v-16.28Z"/>
      <path class="cls-5" d="M48.13,182.11c.16-.78.35-1.58.57-2.39.32-1.21,1.01-2.48,1.93-3.57.01-.02,4.96,2,4.96,2l1.1,6.81c-1.37,2.6-2.21,5.32-2.28,7.79l-1.19.69-5.2,3c-.97-4.13-1.02-8.85.12-14.32h0Z"/>
      <path class="cls-3" d="M97.5,139.6c.23-.13.42-.43.42-.66v-14.22l.36-.21c.23-.13.42-.06.42.18v14.65c0,.23-.19.52-.42.66l-22.26,12.85-.97-.28,22.45-12.96h0Z"/>
      <path class="cls-4" d="M97.5,139.6l-22.45,12.96-1.75-.51v-1.98c0-.09.03-.21.09-.32l8.58-15.66c.08-.15.2-.28.33-.34l15.63-9.03v14.22c0,.23-.19.53-.42.66Z"/>
      <path class="cls-22" d="M7.53,170.44c-1.42-.99-2.73-1.98-3.97-2.98-.18-.85-.29-1.72-.32-2.62,1.27,1.02,2.61,2,4.01,2.97.03.91.12,1.79.28,2.64h0Z"/>
      <path class="cls-22" d="M43.62,190.73c-1.71-.77-3.36-1.54-4.94-2.31-.1-.86-.14-1.74-.12-2.64,1.59.77,3.23,1.53,4.89,2.27-.02.92.04,1.81.16,2.69Z"/>
      <path class="cls-8" d="M98.08,144.87l-4.51,2.61v-2.2l4.51-2.61v2.2Z"/>
      <path class="cls-8" d="M49.24,150.3c.11,0,.21-.08.24-.19.03-.13-.05-.26-.18-.29l-2.6-.58c-1.16-.63-2.31-1.26-3.43-1.88-.23-.13-.32-.43-.19-.66.13-.23.43-.32.66-.19,3.81,2.13,7.91,4.31,12.21,6.49.24.12.34.42.22.65-.09.17-.26.27-.43.27-.08,0-.15-.02-.22-.05-2.48-1.26-4.9-2.52-7.23-3.77l.9.2s.04,0,.05,0h0Z"/>
      <path class="cls-8" d="M35.54,142.47c.11,0,.21-.08.24-.19.03-.13-.05-.26-.18-.29l-2.35-.52c-1.39-.86-2.76-1.72-4.07-2.57-.12-.08-.19-.2-.21-.33-.02-.11,0-.24.07-.34.15-.23.45-.29.67-.14.54.35,1.09.7,1.65,1.05,2.6,1.66,5.36,3.33,8.22,5,.23.14.31.43.18.66-.09.15-.25.24-.42.24-.08,0-.17-.02-.24-.07-1.56-.91-3.08-1.82-4.57-2.72l.97.22s.04,0,.05,0Z"/>
      <path class="cls-3" d="M46.7,149.24l2.6.58c.13.03.21.16.18.29-.03.11-.13.19-.24.19-.05,0-.96-.21-.96-.21l-3.83-.86-1.63-.36c-.13-.03-.22-.16-.18-.29.03-.13.15-.21.29-.18l3.77.84h0Z"/>
      <path class="cls-3" d="M35.59,141.99c.13.03.21.16.18.29-.03.12-.13.19-.24.19-.05,0-1.03-.22-1.03-.22l-3.28-.73-2.11-.47c-.13-.03-.21-.16-.18-.29.03-.13.15-.22.29-.18l.79.18,3.22.72,2.35.52h0Z"/>
      <path class="cls-3" d="M75.05,152.56l.97.28.27.08c.63.18,1.08.8,1.06,1.48l-.06,2.77c-.01.47-.23.86-.57,1.09.15-.22.25-.49.25-.77l.06-2.77c.01-.68-.45-1.28-1.11-1.43l-5.3-1.21c-.34-.08-.66.1-.8.38-.02-.37.16-.73.48-.93.25-.16.56-.2.84-.12l.9.26,1.25.37,1.75.51Z"/>
      <path class="cls-23" d="M70.63,152.09l5.3,1.2c.66.15,1.13.75,1.11,1.43l-.06,2.78c0,.29-.1.56-.25.77-.27.39-.73.65-1.25.62l-3.44-.16-1.44-.07c-.47-.02-.85-.41-.85-.89v-4.98c0-.11.03-.22.07-.32.14-.29.47-.46.8-.38h0Z"/>
      <path class="cls-6" d="M32.36,107.56c13.86,9.79,29.41,18.6,46.21,26.68l.55-.99c.72-1.32,1.53-2.6,2.42-3.82,2.42-3.32,5.38-6.2,8.49-8.23.4-.27.8-.51,1.19-.74l12.1-6.98-1.34-.77-44.86-25.91-12.1,6.99c-3.56,2.05-6.96,5.25-9.7,9.01-.87,1.2-1.69,2.47-2.4,3.78l-.55,1h0Z"/>
      <path class="cls-5" d="M35.3,102.78c13.98,9.72,29.52,18.52,46.22,26.64,2.42-3.32,5.38-6.2,8.49-8.23.39-.27.79-.51,1.19-.74l12.1-6.98-1.34-.77-44.86-25.91-12.1,6.99c-3.56,2.05-6.96,5.25-9.7,9.01h0Z"/>
      <path class="cls-19" d="M160.84,97l19.21-11.09c.18-.1.31-.32.32-.51v-16.79l-19.2,11.09c-.19.11-.32.33-.32.52v16.79ZM179.88,69.44v15.96s-.05.08-.08.1l-18.49,10.68v-15.95s.04-.08.09-.11l18.48-10.67Z"/>
      <path class="cls-13" d="M134.92,22.18l18.98-10.96v7.37l-21.04,12.15v-5.31c.8-1.27,1.25-1.98,2.05-3.24h0Z"/>
      <path class="cls-18" d="M169.32,42.05l18.98-10.96v7.37l-21.04,12.15v-5.31c.8-1.27,1.25-1.98,2.05-3.24h0Z"/>
      <path class="cls-23" d="M132.87,25.43v5.31l34.4,19.87v-5.31l-34.4-19.87Z"/>
      <path class="cls-6" d="M132.87,25.43l2.05-3.24,34.4,19.86-2.05,3.24-34.4-19.87Z"/>
      <path class="cls-17" d="M153.91,11.22l-18.98,10.96,34.4,19.86,18.98-10.96-34.4-19.87Z"/>
      <path class="cls-3" d="M165.98,28.01l11.57,6.69.93-.54-11.57-6.68-.94.54Z"/>
      <path class="cls-3" d="M164.11,29.09l11.58,6.69.94-.54-11.58-6.68-.94.54Z"/>
      <path class="cls-3" d="M162.24,30.18l11.57,6.68.94-.54-11.58-6.69-.93.54Z"/>
      <path class="cls-3" d="M160.37,31.26l11.57,6.68.94-.54-11.57-6.69-.94.54Z"/>
      <path class="cls-3" d="M158.5,32.33l11.58,6.69.93-.54-11.57-6.69-.93.54Z"/>
      <path class="cls-3" d="M147.55,17.55l11.57,6.68.93-.54-11.57-6.69-.94.54Z"/>
      <path class="cls-3" d="M145.68,18.63l11.58,6.68.93-.54-11.57-6.69-.94.54Z"/>
      <path class="cls-3" d="M143.81,19.71l11.58,6.68.94-.54-11.58-6.69-.94.54Z"/>
      <path class="cls-3" d="M141.95,20.79l11.57,6.69.94-.54-11.57-6.68-.93.54Z"/>
      <path class="cls-3" d="M140.07,21.87l11.58,6.69.93-.54-11.57-6.68-.93.54Z"/>
      <path class="cls-18" d="M82.33,65.28l1.95.53,3.87-2.25c2.28-1.32,5.97-1.32,8.26,0l10.29,5.94,3.12.15v1.17c0,.86-.57,1.72-1.7,2.38l-4.12,2.39c-2.28,1.32-5.97,1.32-8.26,0l-11.68-6.74c-1.15-.66-1.72-1.53-1.72-2.41v-1.17h0Z"/>
      <path class="cls-17" d="M108.1,67.25c2.29,1.32,2.3,3.46.03,4.79l-4.12,2.39c-2.28,1.32-5.97,1.32-8.26,0l-11.68-6.75c-2.29-1.32-2.3-3.46-.03-4.79l4.12-2.4c2.28-1.32,5.97-1.32,8.26,0l11.68,6.74h0Z"/>
      <path class="cls-18" d="M99.52,55.01l1.95.53,3.87-2.25c2.28-1.32,5.97-1.32,8.26,0l10.29,5.94,3.12.15v1.17c0,.86-.57,1.72-1.7,2.38l-4.12,2.4c-2.28,1.32-5.97,1.32-8.26,0l-11.68-6.74c-1.15-.66-1.72-1.53-1.72-2.41v-1.17h0Z"/>
      <path class="cls-17" d="M125.29,56.98c2.29,1.32,2.3,3.46.03,4.79l-4.12,2.39c-2.28,1.32-5.97,1.32-8.26,0l-11.68-6.74c-2.29-1.32-2.3-3.46-.03-4.79l4.12-2.4c2.28-1.32,5.97-1.32,8.26,0l11.68,6.74h0Z"/>
      <path class="cls-5" d="M192.86,46.42l22.9,27.76,11.06-9.03-21.4-25.97-12.55,7.25Z"/>
      <path class="cls-9" d="M192.15,77.03l3.6-2.08v-14.49l-3.6,2.08v14.49Z"/>
      <path class="cls-9" d="M186.78,74.95l1.8,2.08,12.54-14.49-1.8-2.08-12.54,14.49Z"/>
      <path class="cls-9" d="M201.13,66.66l-1.8,4.16h-12.54l1.8-4.16h12.54Z"/>
      <path class="cls-5" d="M15.6,144.36c-.32.48-.63.95-.95,1.43.39.25.78.51,1.16.76,1.37-2.09,2.73-4.18,4.1-6.27-.48-.32-.96-.63-1.43-.95-2.21,1.53-4.42,3.06-6.63,4.59.38.26.77.52,1.15.77.49-.36.99-.71,1.48-1.07.37.24.73.49,1.1.73h0ZM15.42,142.88c.44-.33.89-.66,1.33-.99.37-.28,1.01-.78,1.43-1.11-.27.42-.72,1.02-.97,1.4-.3.43-.61.85-.91,1.28-.29-.19-.58-.39-.88-.58h0Z"/>
      <path class="cls-5" d="M20.44,149.5c.37.23.73.46,1.1.68,1.64-1.91,3.28-3.81,4.92-5.72-.43-.27-.86-.54-1.29-.81-.81.56-1.61,1.12-2.42,1.67-.84.58-1.57,1.12-2.26,1.67.47-.7.9-1.41,1.39-2.22.47-.77.95-1.53,1.42-2.31-.43-.27-.85-.55-1.28-.82-1.92,1.73-3.84,3.46-5.76,5.19.35.23.7.45,1.04.67.65-.61,1.3-1.23,1.95-1.84.56-.52,1.27-1.19,1.86-1.77-.46.67-.95,1.46-1.25,1.98-.45.75-.9,1.51-1.35,2.26.29.18.58.37.86.55.81-.54,1.63-1.08,2.44-1.62.53-.35,1.35-.92,2.03-1.43-.56.59-1.2,1.33-1.67,1.87-.58.66-1.16,1.33-1.75,1.99h0Z"/>
      <path class="cls-5" d="M22.46,150.73c.25.21.62.47,1.1.76,1.07.65,1.91.84,2.63.71.57-.09,1.08-.33,1.52-.79.58-.6.69-1.37.13-1.99.9.11,1.65-.18,2.12-.67.37-.38.58-.84.47-1.28-.13-.59-.65-1-1.25-1.37-.54-.33-1.06-.6-1.51-.75-1.74,1.8-3.48,3.59-5.21,5.38ZM26.05,149.06c.09.05.18.11.27.16.48.31.65.85.12,1.4-.54.56-1.22.57-1.72.27-.11-.07-.2-.12-.26-.18.53-.55,1.06-1.1,1.59-1.64ZM28.21,146.82c.1.02.22.08.35.16.51.31.43.75.05,1.15-.43.45-1.09.57-1.53.3-.09-.05-.18-.11-.27-.16.47-.48.94-.96,1.4-1.45h0Z"/>
      <path class="cls-5" d="M32.31,147.99c-1.09,1.13-2.18,2.26-3.28,3.38-1.33,1.37-1.57,2.48-.21,3.26,1.25.73,2.62.32,3.99-1.09,1.09-1.13,2.18-2.25,3.27-3.38-.42-.24-.85-.48-1.27-.72-1.15,1.19-2.3,2.38-3.45,3.56-.8.83-1.28.9-1.64.69-.33-.19-.38-.6.4-1.41,1.15-1.19,2.3-2.38,3.45-3.56-.42-.24-.84-.49-1.25-.74h0Z"/>
      <path class="cls-5" d="M31.86,156.28c.99.56,1.97,1.11,2.97,1.65.29-.3.58-.6.87-.9-.57-.31-1.13-.62-1.69-.94,1.48-1.53,2.96-3.05,4.43-4.58-.43-.24-.85-.48-1.28-.72-1.77,1.83-3.54,3.66-5.31,5.48h0Z"/>
      <path class="cls-5" d="M39.12,158.35c-.31.47-.62.94-.92,1.41.42.22.84.45,1.26.67,1.33-2.06,2.67-4.11,4.01-6.17-.52-.28-1.04-.56-1.55-.83-2.25,1.57-4.5,3.13-6.74,4.7.42.23.83.46,1.25.68.5-.37,1-.73,1.51-1.09.4.22.8.43,1.2.64h0ZM38.85,156.95c.45-.34.9-.67,1.35-1.01.38-.28,1.03-.8,1.45-1.13-.27.41-.7,1.01-.96,1.38-.3.42-.6.84-.89,1.26-.32-.17-.63-.34-.95-.51h0Z"/>
      <path class="cls-5" d="M41.34,161.41c.4-.41.8-.83,1.2-1.24,1.06-1.1,1.83-1.97,2.34-2.54-.31.59-.67,1.44-.9,2.02-.33.87-.66,1.74-.98,2.61.4.2.8.41,1.21.61,1.77-1.83,3.54-3.66,5.31-5.48-.39-.2-.77-.39-1.16-.59-.39.41-.78.81-1.17,1.21-.97,1.01-1.81,2.01-2.33,2.61.25-.58.6-1.46.81-1.98.34-.89.69-1.79,1.04-2.69-.4-.21-.8-.42-1.2-.62-1.77,1.83-3.54,3.66-5.31,5.48.38.2.76.4,1.15.6h0Z"/>
      <path class="cls-5" d="M49.47,164.05c-.2-.04-.5-.12-.72-.23-.81-.4-.94-1.22.33-2.53,1.32-1.36,2.5-1.54,3.25-1.17.29.14.42.28.52.41.36-.26.73-.52,1.09-.79-.06-.14-.32-.37-.78-.6-1.33-.65-3.54-.56-5.54,1.5-1.5,1.55-1.8,3.13-.05,3.99.47.23.9.36,1.16.38.24-.32.49-.64.73-.96h0Z"/>
      <path class="cls-5" d="M55.51,163.54c-.53-.25-1.06-.5-1.58-.75.4-.42.81-.84,1.22-1.26.56.27,1.11.53,1.67.79.3-.31.6-.62.9-.93-1.01-.47-2.01-.95-3.01-1.43-1.77,1.83-3.54,3.66-5.31,5.48,1.04.5,2.08,1,3.13,1.49.3-.31.6-.62.9-.93-.6-.28-1.19-.56-1.79-.85.48-.49.96-.99,1.43-1.48.53.25,1.05.5,1.58.75.29-.29.57-.59.86-.89h0Z"/>
      <path class="cls-17" d="M63.79,73.8l3.36,1.94,11.14,6.44-.66,1.07.41,2.6,2.46,1.28v-6.22l-11.14-6.44-3.36-1.94-11.14-6.44.03,2.56,8.91,5.14Z"/>
      <path class="cls-13" d="M65.85,80.5l3.56-2.05v-3.95l-3.56,2.05v3.95Z"/>
      <path class="cls-17" d="M62.95,74.29l3.36,1.94,11.14,6.43-.66,1.08v4.84l.66.31,2.21-1.27v-6.23l-11.14-6.43-3.36-1.94-11.14-6.43-2.21,1.27,11.14,6.43Z"/>
      <path class="cls-1" d="M53.5,66.88v6.23l-2.21,1.27-.66-.31v-4.84l.66-1.07,2.21-1.28Z"/>
      <path class="cls-20" d="M64.64,73.31v6.22l-2.2,1.28-.66-.31v-4.84l.66-1.07,2.2-1.27Z"/>
      <path class="cls-11" d="M51.29,68.15l2.21-1.28,11.14,6.44-2.2,1.27-11.14-6.43Z"/>
      <path class="cls-2" d="M51.29,68.15l-.66,1.07,11.14,6.43.66-1.07-11.14-6.43Z"/>
      <path class="cls-20" d="M50.64,74.07v-4.84l11.14,6.43v4.84l-11.14-6.43Z"/>
      <path class="cls-14" d="M68,75.25v6.23s-2.2,1.27-2.2,1.27l-.66-.31v-4.84l.66-1.08,2.2-1.27Z"/>
      <path class="cls-12" d="M79.14,81.69v6.22l-2.2,1.28-.66-.31v-4.84l.66-1.07,2.2-1.27Z"/>
      <path class="cls-15" d="M65.8,76.52l2.2-1.27,11.14,6.44-2.2,1.27-11.14-6.44Z"/>
      <path class="cls-12" d="M65.8,76.52l-.66,1.08,11.14,6.43.66-1.07-11.14-6.44Z"/>
      <path class="cls-9" d="M65.13,82.44v-4.84l11.14,6.43v4.84l-11.14-6.43Z"/>
      <path class="cls-1" d="M64.64,73.31v6.22l-2.2,1.28-.66-.31v-4.84l.66-1.07,2.2-1.27Z"/>
      <path class="cls-17" d="M62.43,74.59l3.56-2.05,3.42,1.97-3.56,2.05-3.42-1.97Z"/>
      <path class="cls-6" d="M62.43,74.59l-.66,1.07,3.42,1.98.66-1.08-3.42-1.97Z"/>
      <path class="cls-6" d="M61.77,80.5v-4.84l3.42,1.98v4.84l-3.42-1.98Z"/>
      <path class="cls-17" d="M89.43,88.61l3.36,1.94,11.14,6.43-.66,1.08.41,2.6,2.46,1.28v-6.23l-11.14-6.43-3.36-1.94-11.14-6.43.03,2.56,8.91,5.14Z"/>
      <path class="cls-13" d="M91.49,95.31l3.56-2.05v-3.95l-3.56,2.06v3.94Z"/>
      <path class="cls-17" d="M88.59,89.1l3.36,1.94,11.14,6.44-.66,1.07v4.84l.66.31,2.2-1.27v-6.23l-11.14-6.43-3.36-1.94-11.14-6.43-2.21,1.27,11.14,6.44Z"/>
      <path class="cls-1" d="M79.14,81.69v6.22l-2.2,1.28-.66-.31v-4.84l.66-1.07,2.2-1.27Z"/>
      <path class="cls-20" d="M90.28,88.12v6.23l-2.2,1.27-.66-.31v-4.84l.66-1.08,2.2-1.27Z"/>
      <path class="cls-11" d="M76.94,82.96l2.2-1.27,11.14,6.43-2.2,1.27-11.14-6.43Z"/>
      <path class="cls-2" d="M76.94,82.96l-.66,1.07,11.14,6.44.66-1.08-11.14-6.43Z"/>
      <path class="cls-20" d="M76.27,88.88v-4.84l11.14,6.44v4.84l-11.14-6.44Z"/>
      <path class="cls-14" d="M93.64,90.06v6.22l-2.2,1.28-.66-.31v-4.84l.66-1.07,2.2-1.27Z"/>
      <path class="cls-12" d="M104.78,96.49v6.23l-2.21,1.27-.66-.31v-4.84l.66-1.08,2.21-1.27Z"/>
      <path class="cls-15" d="M91.44,91.33l2.2-1.27,11.14,6.43-2.21,1.27-11.14-6.43Z"/>
      <path class="cls-12" d="M91.44,91.33l-.66,1.07,11.14,6.44.66-1.08-11.14-6.43Z"/>
      <path class="cls-9" d="M90.78,97.25v-4.84l11.14,6.44v4.84l-11.14-6.44Z"/>
      <path class="cls-1" d="M90.28,88.12v6.23l-2.2,1.27-.66-.31v-4.84l.66-1.08,2.2-1.27Z"/>
      <path class="cls-17" d="M88.08,89.39l3.56-2.05,3.42,1.97-3.56,2.06-3.42-1.98Z"/>
      <path class="cls-6" d="M88.08,89.39l-.66,1.08,3.42,1.97.66-1.07-3.42-1.98Z"/>
      <path class="cls-6" d="M87.41,95.31v-4.84l3.42,1.97v4.84l-3.42-1.97Z"/>
    </g>
  </g>
</svg>