<?xml version="1.0" encoding="UTF-8"?>
<svg id="Layer_2" data-name="Layer 2" xmlns="http://www.w3.org/2000/svg" viewBox="0 0 256.86 221">
  <defs>
    <style>
      .cls-1 {
        fill: #244991;
      }

      .cls-2 {
        fill: #7c94c5;
      }

      .cls-3 {
        fill: #c5cedd;
      }

      .cls-4 {
        fill: #396bd1;
      }

      .cls-5 {
        fill: #f9cdd4;
      }

      .cls-6 {
        fill: #2560d6;
      }

      .cls-7 {
        fill: #113e99;
      }

      .cls-8 {
        fill: #ffa039;
      }

      .cls-9 {
        fill: #efa3b2;
      }

      .cls-10 {
        fill: #ffda3e;
      }

      .cls-11 {
        fill: #ed7524;
      }

      .cls-12 {
        fill: rgba(255, 191, 64, .4);
      }

      .cls-13 {
        fill: #ffff40;
      }

      .cls-14 {
        fill: #597ff7;
      }

      .cls-15 {
        fill: #a1c0ff;
      }

      .cls-16 {
        fill: #a3c1e5;
      }

      .cls-17 {
        fill: #f49334;
      }

      .cls-18 {
        fill: #3076e5;
      }

      .cls-19 {
        fill: #ed972f;
      }

      .cls-20 {
        fill: none;
        stroke: #1f899c;
        stroke-miterlimit: 10;
        stroke-width: .05px;
      }

      .cls-21 {
        fill: #ffbf40;
      }

      .cls-22 {
        fill: #134cbf;
      }

      .cls-23 {
        fill: #ce8c99;
      }

      .cls-24 {
        fill: #e9f2ff;
      }

      .cls-25 {
        fill: #cc5b0e;
      }

      .cls-26 {
        fill: #2555cc;
      }

      .cls-27 {
        fill: #4a90f4;
      }

      .cls-28 {
        fill: #e28d27;
      }

      .cls-29 {
        fill: #f2bbc5;
      }

      .cls-30 {
        fill: #1553b7;
      }

      .cls-31 {
        fill: #ffd085;
      }
    </style>
  </defs>
  <g id="Layer_1-2" data-name="Layer 1">
    <g id="telthLife">
      <path class="cls-28" d="M256.86,147.66v1.56l-68.31,39.61v-1.56s68.31-39.6,68.31-39.6Z"/>
      <path class="cls-13" d="M188.56,187.27v1.56S27.26,95.91,27.26,95.91v-1.56s161.3,92.92,161.3,92.92Z"/>
      <path class="cls-17" d="M256.86,147.66l-68.3,39.6L27.27,94.35l68.3-39.61,161.29,92.92Z"/>
      <path class="cls-21" d="M224.47,151.71l-38.48,22.31c-2.96,1.71-6.61,1.72-9.57.01L59.68,106.79c-6.35-3.66-6.37-12.81-.02-16.49l38.48-22.31c2.96-1.71,6.61-1.72,9.57-.01l116.74,67.25c6.35,3.66,6.37,12.81.02,16.49Z"/>
      <path class="cls-12" d="M74.65,92.73c-3.35,2.63-6.68,12.2,4.9,16.29,11.59,4.09,40.5,5.6,49.88,15.59,9.38,9.99,38.69,41.01,54.7,42.39,16.01,1.38,24.56-18.71,15.23-32.19-9.33-13.49-31.99-34.07-38.9-37.3-6.91-3.24-50.49-32.53-85.81-4.79h0Z"/>
      <path class="cls-15" d="M89.59,189.21l-.08,29.6-3.78,2.19.08-29.61,3.78-2.19Z"/>
      <path class="cls-22" d="M85.81,191.4l-.08,29.61-3.8-2.19.08-29.6,3.8,2.19Z"/>
      <path class="cls-20" d="M89.59,189.21l-3.78,2.19-3.8-2.19,3.78-2.19,3.8,2.19Z"/>
      <path class="cls-15" d="M128.74,166.54l-.08,29.6-3.78,2.19.08-29.61,3.78-2.19Z"/>
      <path class="cls-22" d="M124.96,168.72l-.08,29.61-3.8-2.19.09-29.6,3.8,2.19Z"/>
      <path class="cls-20" d="M128.74,166.54l-3.78,2.19-3.8-2.19,3.78-2.19,3.81,2.19Z"/>
      <path class="cls-15" d="M7.68,142.02l-.08,29.6-3.78,2.19.08-29.6,3.78-2.19Z"/>
      <path class="cls-22" d="M3.9,144.21l-.08,29.6L.01,171.63l.08-29.6,3.8,2.19Z"/>
      <path class="cls-20" d="M7.68,142.02l-3.78,2.19-3.8-2.19,3.78-2.19,3.81,2.19Z"/>
      <path class="cls-15" d="M46.82,119.35l-.08,29.6-3.78,2.19.08-29.6,3.78-2.19Z"/>
      <path class="cls-22" d="M43.04,121.54l-.08,29.6-3.8-2.19.08-29.6,3.8,2.19Z"/>
      <path class="cls-20" d="M46.82,119.35l-3.78,2.19-3.8-2.19,3.78-2.19,3.8,2.19Z"/>
      <path class="cls-15" d="M128.66,180.54v4.17s-42.9,24.86-42.9,24.86v-4.17s42.9-24.87,42.9-24.87Z"/>
      <path class="cls-22" d="M85.77,205.41v4.17S0,160.17,0,160.17v-4.17s85.77,49.4,85.77,49.4Z"/>
      <path class="cls-6" d="M128.66,180.54l-42.89,24.87L.01,156.01l42.89-24.86,85.76,49.4Z"/>
      <path class="cls-15" d="M89.59,181.48l-.08,21.74-3.78,2.19.08-21.74,3.78-2.19Z"/>
      <path class="cls-22" d="M85.81,183.67l-.08,21.74-3.8-2.19.08-21.74,3.8,2.19Z"/>
      <path class="cls-20" d="M89.59,181.48l-3.78,2.19-3.8-2.19,3.78-2.19,3.8,2.19Z"/>
      <path class="cls-15" d="M128.74,158.81l-.08,21.74-3.78,2.19.08-21.74,3.78-2.19Z"/>
      <path class="cls-22" d="M124.96,161l-.08,21.74-3.8-2.19.09-21.73,3.8,2.19Z"/>
      <path class="cls-20" d="M128.74,158.81l-3.78,2.19-3.8-2.19,3.78-2.19,3.81,2.19Z"/>
      <path class="cls-15" d="M7.68,134.3l-.08,21.74-3.78,2.19.08-21.74,3.78-2.19Z"/>
      <path class="cls-22" d="M3.9,136.49l-.08,21.74L.01,156.04l.08-21.74,3.8,2.19Z"/>
      <path class="cls-20" d="M7.68,134.3l-3.78,2.19-3.8-2.19,3.78-2.19,3.81,2.19Z"/>
      <path class="cls-15" d="M46.82,111.63l-.08,21.74-3.78,2.19.08-21.74,3.78-2.19Z"/>
      <path class="cls-22" d="M43.04,113.82l-.08,21.74-3.8-2.19.08-21.74,3.8,2.19Z"/>
      <path class="cls-20" d="M46.82,111.63l-3.78,2.19-3.8-2.19,3.78-2.19,3.8,2.19Z"/>
      <path class="cls-15" d="M128.66,156.88v4.17s-42.9,24.86-42.9,24.86v-4.17s42.9-24.86,42.9-24.86Z"/>
      <path class="cls-22" d="M85.77,181.74v4.17S0,136.51,0,136.51v-4.16s85.77,49.4,85.77,49.4Z"/>
      <path class="cls-6" d="M128.66,156.88l-42.89,24.86L.01,132.34l42.89-24.87,85.76,49.4Z"/>
      <path class="cls-18" d="M116.27,158.74l-30.96,17.96c-1.14.66-2.54.66-3.69,0L12.4,136.82c-2.45-1.41-2.45-4.93,0-6.35l30.96-17.96c1.14-.66,2.54-.66,3.69,0l69.23,39.88c2.45,1.41,2.45,4.93,0,6.35Z"/>
      <path class="cls-27" d="M110.45,156.9l-27.8,16.12c-1.02.6-2.28.6-3.31,0l-62.16-35.81c-2.2-1.27-2.2-4.43,0-5.7l27.8-16.12c1.02-.6,2.28-.6,3.31,0l62.16,35.81c2.2,1.27,2.2,4.43,0,5.7Z"/>
      <path class="cls-30" d="M102.39,151.5l-23.55,13.7c-.91.53-2.03.53-2.94,0l-42.22-24.32c-1.95-1.12-1.96-3.93-.01-5.06l23.55-13.7c.91-.53,2.03-.53,2.94,0l42.22,24.33c1.95,1.12,1.96,3.93.01,5.06Z"/>
      <path class="cls-2" d="M99.28,146v1.32s-23.73,13.8-23.73,13.8v-1.32s23.73-13.8,23.73-13.8Z"/>
      <path class="cls-3" d="M75.56,159.8v1.32s-38.81-22.35-38.81-22.35v-1.32s38.81,22.36,38.81,22.36Z"/>
      <path class="cls-24" d="M99.28,146l-23.72,13.8-38.81-22.36,23.72-13.8,38.81,22.36Z"/>
      <path class="cls-16" d="M89.81,144.7l-16.54,9.61-27.05-15.58,16.53-9.61,27.05,15.58Z"/>
      <path class="cls-2" d="M75.51,128.39l1.14-.66-.08,31.85-1.14.66.09-31.85Z"/>
      <path class="cls-24" d="M36.69,106.03l1.14-.66,38.81,22.36-1.14.66-38.81-22.36Z"/>
      <path class="cls-3" d="M75.51,128.39l-.09,31.85-38.81-22.35.08-31.86,38.81,22.36Z"/>
      <path class="cls-26" d="M144.74,82.39l-18.78,3.01s-.76,12.02,3.58,16.25l25.05,2.42,4.34,19.23s15.35,3.73,22.51,0c0,0,2.71-14.98,1.36-20.87l-35.36-17.76-2.69-2.28h0Z"/>
      <path class="cls-7" d="M129.53,101.66l25.05,2.42,4.34,19.23s15.35,3.73,22.51,0c0,0,2.71-14.98,1.36-20.87l-5.07-2.55-2.31,6.54s.11,1.53,0,3.6c-.11,2.08-.11,6.6-1.57,8.37-1.46,1.76-9.32,1.9-12.09,1.81-2.76-.09-2.67-11.86-3.58-13.95-.9-2.09-3.52-5.44-4.64-5.55-1.11-.11-2.23,0-6.1-.58-3.87-.58-2.05-1.76-4.72-1.57-2.68.19-12.32-1.57-12.32-1.57l-3.41-.23c.54,1.95,1.35,3.73,2.56,4.9h-.01Z"/>
      <path class="cls-5" d="M104.48,96.99c23.26-2.15,46.67,13.86,48.32,12.91,4.6-1.47,8.07-2.19,8.95-1.03.88,1.15,6.18,3.99,8.95,4.34.49.06.93.23,1.3.46,1.95,1.18,2.17,3.94.54,5.53-.96.94-2.23,1.87-3.64,2.04-2.95.36-10.46-4.07-16.86-4.12-6.4-.05-43.75-1.93-52.93-6.18-9.18-4.26-7.16-12.17-7.16-14.15"/>
      <path class="cls-9" d="M172.96,118.01c-.96.94-2.23,1.87-3.64,2.04-2.95.36-10.46-4.07-16.86-4.12-6.4-.05-43.75-1.93-52.93-6.18-7.87-3.65-7.51-9.97-7.24-12.95h-.33c0,1.97-2.02,9.88,7.16,14.14,9.18,4.26,46.53,6.13,52.93,6.18,6.4.05,13.91,4.48,16.86,4.12,1.4-.17,2.68-1.11,3.64-2.04.57-.56.91-1.26,1.03-1.99-.16.29-.36.56-.61.81h0Z"/>
      <path class="cls-5" d="M91.44,98.56c-.4-5.01,9.73-14.09,34.52-13.15l7.06,13.1-3.49,3.15s-20.22,10.01-26.11,9.28c-5.9-.73-11.11-1.32-11.98-12.37Z"/>
      <path class="cls-9" d="M172.54,119.2c-.22.22-.46.43-.7.63.63-1.54.17-3.41-1.35-4.33-.37-.23-.81-.39-1.3-.46-2.77-.35-8.07-3.19-8.95-4.34-.88-1.15-4.35-.44-8.95,1.03-1.65.95-46.81-14.75-46.81-14.75,23.32,3.99,46.67,13.86,48.32,12.91,4.6-1.47,8.07-2.19,8.95-1.03.88,1.15,6.18,3.99,8.95,4.34.49.06.93.23,1.3.46,1.95,1.18,2.17,3.94.54,5.53Z"/>
      <path class="cls-5" d="M162.51,121.73l-2.81,1.23c-5.79-5.83-12.68-12.19-14.55-19.28-1.35-3.67-3.1-4.09-6.67-3.6-3.58.49-3.58-2.12-6.31-3.03-2.73-.91-8-.76-10.7-.05-2.05.81-4.46,6.73-.88,7.76,3.58,1.03,14.31,3.61,16.1,6.95,1.68,3.15,5.88,28.27,25.81,36.55h0c1.09.69,2.29,1.1,3.53,1.24.15.04.29.09.45.13v-.09c3.9.22,8.06-2.3,10.24-8.05,2.97-7.83,4.72-19.05,4.72-19.05l-18.93-.7Z"/>
      <path class="cls-9" d="M167.42,147.4v.09c-.16-.04-.31-.09-.46-.13-1.24-.14-2.44-.55-3.53-1.23h0c-19.93-8.29-24.13-33.4-25.81-36.55-1.79-3.35-12.53-5.93-16.1-6.95-1.82-.52-2.09-2.31-1.64-4.05-1.3,2.07-1.88,5.43.73,6.18,3.58,1.03,14.31,3.61,16.1,6.95,1.68,3.15,5.88,28.27,25.81,36.55h0c1.09.69,2.29,1.1,3.53,1.24.15.04.29.09.45.13v-.09c3.9.22,8.06-2.3,10.24-8.05.05-.15.11-.29.16-.44-2.3,4.56-6,6.56-9.48,6.36h0Z"/>
      <path class="cls-5" d="M152.8,30.52s-12.94-4.36-16.1,9.28c-.92,5.68-7.94,15.8-8.44,27.09-6.35.47-16.71,12.41-26.5,14.69-1.01-.11-2.72-.71-4.43-.73-1.71-.02-3.51-.19-3.58.39-.07.58.52,2.13,1.79,1.86,3.04-.64,2.64.91,1.79,1.95-.7.85-9.85,2.19-9.83,4.75,0,1.42,3.04,6.03,6.26,4.98,3.22-1.06,8.06-2.47,8.67-3.37.61-.91,2.42-2.37,4.44-3.17s28.91-10.12,29.85-12.08c1.04-1.11,6.19-18.56,6.9-20.88.7-2.31,7.06-21.27,7.06-21.27l2.14-3.47h0Z"/>
      <path class="cls-9" d="M95.01,83.1c-.29-.42-.42-.94-.39-1.23.07-.58,1.87-.42,3.58-.39,1.71.02,3.42.62,4.43.73,9.79-2.27,20.16-14.22,26.5-14.69.51-11.3,7.52-21.41,8.44-27.09,2.61-11.21,11.82-10.26,15.01-9.57l.21-.34s-12.94-4.36-16.1,9.28c-.92,5.68-7.94,15.8-8.44,27.09-6.35.47-16.71,12.41-26.5,14.69-1.01-.11-2.72-.71-4.43-.73-1.71-.02-3.51-.19-3.58.39-.06.49.36,1.68,1.27,1.86Z"/>
      <path class="cls-9" d="M88.38,90.43c-.01-2.57,9.13-3.9,9.83-4.75.67-.81,1.05-1.93-.28-2.07.06.43-.22.99-.6,1.44-.7.85-9.85,2.19-9.83,4.75,0,.97,1.43,3.44,3.36,4.56-1.46-1.24-2.47-3.11-2.48-3.93Z"/>
      <path class="cls-9" d="M148.66,35.13s-6.13.08-7.25,12.37c-1.11,12.29-3.67,17.31-4.06,18.56-.4,1.24-.67,5.28-2.21,6.95-1.53,1.67-9.89,3.35-12.12,5.43-2.23,2.08-4.04,4.44-8.64,5.55-4.59,1.11-6.3-.14-9.91,3.06-3.61,3.2-10.84,4.39-10.99,6.85-.02.33.06.62.25.87,3.21-1.06,8.06-2.47,8.66-3.37.6-.9,2.42-2.37,4.44-3.17s28.91-10.12,29.85-12.08c1.04-1.11,6.19-18.56,6.9-20.88.57-1.87,4.82-14.58,6.44-19.41l-1.37-.72h0Z"/>
      <path class="cls-14" d="M152.8,29.73s-10.74,5.95-10.74,17.77,1.22,21.36,1.79,31.92c.57,10.56,1.79,19.14,7.16,22.23,4.98,2.87,20.55,6.68,31.78.78.6-1.9-1.36-12.25-1.36-23.35,0-9.93,4.8-24.19,3.58-31.53-1.22-7.34-17.57-16.1-23.93-17.7-6.35-1.6-8.29-.13-8.29-.13h0Z"/>
      <path class="cls-4" d="M182.79,102.43c.6-1.9-1.36-12.25-1.36-23.35,0-9.93,4.8-24.19,3.58-31.53-.26-1.59-1.24-3.24-2.67-4.88l-.92.21s-5.92,1.69-5.93,8.57c0,6.88,1.1,19.04,1.5,27.03.4,7.98-2.13,18.05-4.52,20.08-2.72,2.3-19.09,5.52-26.81-5.05,1.05,3.77,2.69,6.63,5.33,8.15,4.98,2.87,20.55,6.68,31.78.78h0Z"/>
      <path class="cls-5" d="M181.44,42.89c3.07-1.83,10.93,5.8,11.39,18.56,1.13,9.28-.28,18.39-.66,27.83,1.53,5.01-8.03,33.47-9.79,41.78,0,2.85,1.44,7.41.15,9.28-1.99,1.46-2.56-4.13-2.89-5.53,0,0-2.11,10.68-3.58,11.17-1.47.49-8.29-.46-8.95-4.12-.66-3.66,5.6-8.75,6.84-12.37,2.09-6.2,4.37-37.8,7.71-43.3-.58-3.8-3.81-20.18-3.81-29.35,0-3.24-2.58-10.28,3.58-13.95h0Z"/>
      <path class="cls-9" d="M168.31,141.86c-.66-3.66,5.6-8.75,6.84-12.37,2.09-6.2,4.37-37.8,7.71-43.3-.58-3.8-3.81-20.18-3.81-29.35,0-3.24-2.58-10.28,3.58-13.95.15-.09.31-.15.49-.19-.64-.14-1.21-.08-1.67.19-6.15,3.67-3.58,10.7-3.58,13.95,0,9.17,3.23,25.55,3.81,29.35-3.34,5.5-5.62,37.1-7.71,43.3-1.23,3.62-7.49,8.71-6.84,12.37.6,3.34,6.32,4.42,8.44,4.22-2.55-.18-6.74-1.39-7.25-4.22Z"/>
      <path class="cls-9" d="M180.83,134.81s-.25,1.24-.63,2.88c.42,1.8,1.11,3.53,2.32,2.64h0c-1.05-.96-1.45-4.46-1.7-5.52h0Z"/>
      <path class="cls-9" d="M179.12,132.15s-2.11,10.68-3.58,11.17c-1.27.42-6.58-.23-8.39-2.81-.1.47-.12.92-.04,1.35.66,3.67,7.48,4.61,8.95,4.12,1.45-.48,3.52-10.85,3.58-11.15-.25-1.09-.4-2.17-.52-2.68h0Z"/>
      <path class="cls-9" d="M192.17,89.28c.38-9.44,1.79-18.56.66-27.83-.08-2.18-.38-4.21-.83-6.06.16,1.09.26,2.22.31,3.4,1.13,9.28-.28,18.39-.66,27.83,1.53,5.01-8.03,33.47-9.79,41.78,0,2.85,1.44,7.41.15,9.28-1.2.88-1.88-.79-2.3-2.57.34,1.74.95,6.62,2.83,5.24,1.29-1.86-.15-6.43-.15-9.28,1.76-8.31,11.32-36.78,9.79-41.78Z"/>
      <path class="cls-9" d="M192.17,89.28c.38-9.44,1.79-18.56.66-27.83-.28-7.59-3.17-13.36-6.12-16.41-.11,6.25,1.06,13.02,1.88,16.41.92,3.78,2.62,9.91,2.29,12.66-.32,2.75-4.23,18.27-4.25,22.29-.01,4.02.39,8.91-.79,15.08-1.19,6.17-4.01,13.97-4.41,16.49-.32,1.98.36,9.27,1.14,12.29,1.2-1.9-.2-6.39-.2-9.19,1.76-8.31,11.32-36.78,9.79-41.78h.01Z"/>
      <path class="cls-5" d="M155.26,35.18v8.41c0,1.69,14.49.46,14.49-5.31v-10.85s-13.38,4.8-13.38,5.18-1.11,2.58-1.11,2.58h0Z"/>
      <path class="cls-9" d="M161,44.02c4.05-.64,8.76-2.45,8.76-5.74v-10.85s-2.88,1.03-5.97,2.18c-1.01,1.93-3.51,6.25-3.51,6.25,0,0,4.03-.43,5.84,0,1.81.43,2.05,1.06,1.73,2.94-.31,1.89-6.86,3.27-6.86,5.22h0Z"/>
      <path class="cls-5" d="M151.01,11.97c-.63.36-1.65,5.12-1.08,11.69.57,6.57,2.07,13.31,5.02,13.26,2.96-.05,14.15-1.57,19.33-11.62,1.7-3.77,1.19-7.91,1.08-10.86s-3.16-12.32-10.42-12.32-13.92,9.85-13.92,9.85h0Z"/>
      <path class="cls-29" d="M172.07,14.36c-1.22-.38-7.27-.61-8.87,0-1.61.61-1.45,2.52-1.07,4.81.39,2.29,3.21,2.59,2.22,4.58-.99,1.99-1.45,1.15-2.6,3.68-1.14,2.53.91,5.25-.69,6.18-1.61.94-6.12,2.19-8.17,2.01.59.82,1.28,1.3,2.07,1.29,2.96-.05,14.15-1.57,19.33-11.62,1.34-2.97,1.3-6.18,1.17-8.85-2.78-3.02-2.32-1.75-3.38-2.09h0Z"/>
      <path class="cls-9" d="M175.45,16.45c-2.15-2.34-2.36-2.11-2.84-2.04.37.31.87.81,1.61,1.6.13,2.67.16,5.88-1.17,8.85-5.18,10.05-16.37,11.56-19.33,11.62h-.03c.39.29.81.45,1.26.44,2.96-.05,14.15-1.57,19.33-11.62,1.34-2.97,1.3-6.18,1.17-8.85h0Z"/>
      <path class="cls-26" d="M149.76,18.47c0-7.48-3.17-12.05,1.25-12.7,6.71-.98,11.76-6.56,14.69-5.68,3.47,1.03,8.8,3.74,11.21,8.23,3.25,1.24,2.05,5.25,1.78,8.3-.51,5.85-6.65,12.08-6.65,12.08,0,0,.46-4.36.43-7.46-.03-3.11-4.41,5.39-5.41-2.04-.48-3.57-8.67-3.85-9.68-4.15-1.01-.31-4.59-7.7-7.63,3.42h0Z"/>
      <path class="cls-7" d="M178.7,16.63c.26-3.05,1.46-7.07-1.78-8.3-.11-.2-.23-.4-.35-.59-.16.58.31,1.75.57,3.04.37,1.85-.8,9.94-1.78,10.46-.98.53-.29-3.7-.71-4.61-.42-.91-3.44,1.18-5.74,1.28-2.29.1-.25-1.9,0-3.89.25-1.98,4.52-4.3,4.52-4.3,0,0-3.92,2.06-7.05,3.27-3.12,1.21-7.15-.11-7.79-1.03-.64-.93-4.19-2.61-6.04-1.57-1.86,1.04-1.19,3.85-1.19,3.85,2.59-4.53,5.19.57,6.02.82,1.01.31,9.2.58,9.68,4.15,1.01,7.42,5.38-1.08,5.41,2.04.03,3.11-.43,7.46-.43,7.46,0,0,6.14-6.23,6.65-12.08Z"/>
      <path class="cls-29" d="M167.18,21.81c3.9-3.67,8.54-3.67,6.15.94-2.39,4.62-3.58,3.82-3.58,3.82"/>
      <path class="cls-9" d="M159.7,122.96c-5.79-5.83-12.68-12.19-14.55-19.28-.67-1.84-1.45-2.86-2.51-3.35h0s-.1-.05-.15-.07c-.04-.02-.07-.03-.12-.04-.08-.03-.17-.06-.25-.09-.02,0-.05-.01-.07-.02-.31-.09-.64-.14-1.01-.17h-.04c-.13,0-.25-.01-.38-.02h0c-.64,0-1.35.05-2.16.16-3.58.49-3.58-2.12-6.31-3.03s-8-.76-10.7-.05c-.74.29-1.52,1.25-2.06,2.4,1.81-.76,5.29-2.06,7.56-1.89,3.2.24,5.75,1.45,6.99,2.64,1.24,1.19,4.44,3.44,6.31,2.55,0,0,.01,0,.02,0,1.28-.62,2.8,0,3.16,1.38.14.55.26,1.06.4,1.49.62,1.94,2.4,6.15,4.73,8.48,2.34,2.34,10.85,11.1,11.37,11.52.52.43,9.65,9.6,9.65,9.6-.96-3.41-9.91-12.19-9.91-12.19h.01Z"/>
      <path class="cls-11" d="M64.96,84.39s0,.1-.01.15c0,.04-.01.08-.02.13,0,.05-.01.1-.02.14,0,.04-.02.08-.02.13-.01.05-.02.1-.04.14-.01.04-.02.08-.04.13-.01.05-.03.1-.05.14-.01.04-.03.08-.05.13-.02.05-.04.1-.06.15-.02.04-.04.08-.06.12-.02.05-.05.1-.08.14-.02.04-.04.08-.07.12-.04.06-.07.11-.11.17-.02.04-.04.07-.07.1-.04.06-.09.13-.14.19-.02.03-.04.05-.06.08-.08.1-.16.2-.25.29-.02.02-.05.05-.07.07-.07.07-.14.14-.22.22-.04.04-.07.07-.11.1-.05.04-.09.08-.14.12-.04.04-.09.07-.13.11-.05.04-.1.08-.15.12-.05.04-.1.07-.14.11-.05.04-.11.08-.16.11-.05.04-.1.07-.16.11-.06.04-.11.07-.17.11-.07.05-.15.09-.23.14-.21.12-.43.23-.66.34-.06.03-.12.05-.18.08-.2.1-.41.19-.63.26-.03.01-.05.02-.08.04-.25.1-.5.18-.75.26-.04.01-.08.02-.12.04-.25.07-.5.14-.75.2-.04.01-.08.02-.12.03-.25.06-.51.11-.78.16-.05.01-.11.02-.16.02-.22.04-.45.07-.67.1-.07,0-.13.02-.2.02-.26.03-.53.05-.79.07-.05,0-.1,0-.15,0-.27.01-.55.02-.82.02h-.08c-.2,0-.41,0-.61-.02-.16,0-.33-.01-.49-.02-.15-.01-.3-.02-.45-.04-.16-.02-.33-.04-.49-.05-.22-.03-.43-.05-.64-.09-.02,0-.03,0-.05,0-.27-.05-.54-.1-.8-.16-.04-.01-.08-.02-.13-.03-.25-.06-.49-.13-.73-.2-.07-.02-.14-.04-.2-.07-.2-.06-.4-.13-.6-.2-.05-.02-.11-.04-.17-.06-.17-.07-.35-.14-.52-.22-.08-.04-.17-.07-.25-.11-.25-.11-.49-.24-.72-.37-.72-.41-1.31-.88-1.76-1.38-.6-.66-.96-1.38-1.08-2.1-.01-.09-.02-.18-.04-.27,0-.09-.01-.18-.01-.27l-.03,11.01c0,1.45.96,2.91,2.88,4.02.23.13.47.26.72.37.08.04.17.07.25.11.14.07.29.13.44.19.02.01.05.02.08.03.05.02.11.04.17.06.19.07.39.14.59.2.07.03.14.04.2.07.05.01.09.03.14.04.2.05.4.11.6.16.04.01.08.02.13.03.1.02.2.05.3.07.17.04.34.07.51.1.02,0,.03,0,.05,0,.14.02.28.05.42.07.08.01.15.02.23.02.16.02.33.04.49.05.08,0,.16.02.23.02.07,0,.14,0,.22.01.16.01.33.02.49.02.08,0,.17.01.25.01h.45c.19,0,.37,0,.55-.01.09,0,.18-.01.27-.01.05,0,.1,0,.15,0,.22-.01.45-.03.67-.05.04,0,.08-.01.13-.02.07,0,.13-.02.2-.02.23-.03.45-.06.67-.1.05,0,.11-.02.16-.02.02,0,.05,0,.08-.01.23-.04.46-.09.7-.14.04-.01.08-.02.12-.03.25-.06.51-.13.75-.2.04-.01.08-.03.12-.04.05-.02.11-.03.16-.05.2-.07.4-.13.59-.21.03-.01.05-.02.08-.04.21-.08.42-.17.63-.26.06-.03.12-.05.18-.08.22-.11.45-.22.66-.34.04-.02.08-.05.12-.07.04-.02.07-.05.11-.07.06-.04.12-.07.17-.11.05-.04.1-.07.16-.11.05-.04.11-.08.16-.11.05-.04.1-.07.14-.11.05-.04.1-.08.15-.12.05-.04.09-.07.13-.11.05-.04.1-.08.14-.12.02-.02.04-.04.06-.05.02-.02.03-.03.05-.05.08-.07.15-.14.22-.22.02-.02.05-.05.07-.07.09-.1.17-.2.25-.29,0,0,0,0,.01-.01.02-.02.03-.05.05-.07.05-.06.1-.13.14-.19.02-.04.05-.07.07-.1.04-.06.07-.11.11-.17.01-.02.02-.03.03-.05.01-.02.02-.05.04-.07.02-.05.05-.1.08-.14.02-.04.04-.08.06-.12.02-.05.04-.1.06-.15,0-.02.02-.04.03-.07,0-.02.01-.04.02-.06.02-.05.03-.1.05-.14.01-.04.02-.08.04-.13.01-.05.02-.1.04-.14,0-.02.01-.05.02-.08,0-.02,0-.04,0-.05,0-.05.02-.1.02-.14,0-.04.01-.08.02-.13,0-.05,0-.1.01-.14,0-.03,0-.06,0-.08v-.08l.03-11.01c0,.06,0,.11,0,.17h0Z"/>
      <path class="cls-25" d="M46.09,86.46c.11.07.22.13.34.19-.52-.61-.83-1.27-.95-1.94-.01-.09-.02-.18-.04-.27,0-.09-.01-.18-.01-.27v1.87c.2.14.42.29.65.42h0Z"/>
      <path class="cls-25" d="M64.96,84.39s0,.1-.01.15c0,.04-.01.08-.02.13,0,.05-.01.1-.02.14,0,.04-.02.08-.02.13-.01.05-.02.1-.04.14-.01.04-.02.08-.04.13-.01.05-.03.1-.05.14-.02.04-.03.08-.05.13-.02.05-.04.1-.06.15-.02.04-.04.08-.06.12-.02.05-.05.1-.08.14-.02.04-.04.08-.07.12-.04.06-.07.11-.11.17-.02.04-.04.07-.07.1-.04.06-.09.13-.14.19-.02.03-.04.05-.06.08-.08.1-.16.2-.25.29-.02.02-.05.05-.07.07-.07.07-.14.14-.22.22-.04.04-.07.07-.11.1-.05.04-.09.08-.14.12-.04.04-.09.07-.13.11-.05.04-.1.08-.15.12-.05.04-.1.07-.14.11-.04.03-.09.07-.14.1l-.02,5.7v.08s0,.06,0,.08c0,.05,0,.1-.01.14,0,.04-.01.08-.02.13,0,.05-.01.1-.02.14,0,.02,0,.04,0,.05,0,.02-.01.05-.02.08-.01.05-.02.1-.04.14-.01.04-.02.08-.04.13-.01.05-.03.1-.05.14,0,.02-.01.04-.02.06,0,.02-.02.04-.03.07-.02.05-.04.1-.06.15-.02.04-.04.08-.06.12-.02.05-.05.1-.08.14-.01.02-.02.05-.04.07,0,.02-.02.03-.03.05-.04.06-.07.11-.11.17-.02.04-.04.07-.07.1-.04.07-.09.13-.14.19-.02.02-.03.05-.05.07,0,0,0,0-.01.01-.08.1-.16.2-.25.29-.02.02-.05.05-.07.07-.07.07-.14.15-.22.22-.02.02-.03.03-.05.05-.02.02-.04.04-.06.05-.05.04-.09.08-.14.12-.04.04-.09.07-.13.11-.05.04-.1.08-.15.12-.05.04-.1.07-.14.11-.05.04-.11.08-.16.11-.05.04-.1.07-.16.11-.06.04-.11.07-.17.11-.04.02-.07.05-.11.07-.04.02-.08.05-.12.07-.21.12-.43.23-.66.34-.06.03-.12.05-.18.08-.2.1-.41.19-.63.26-.03.01-.05.02-.08.04-.19.07-.39.14-.59.21-.05.02-.11.03-.16.05-.04.01-.08.02-.12.04-.25.07-.5.14-.75.2-.04.01-.08.02-.12.03-.23.05-.46.1-.7.14-.02,0-.05,0-.08.01-.05.01-.11.02-.16.02-.22.04-.45.07-.67.1-.07,0-.13.02-.2.02-.04,0-.08.01-.13.01-.22.02-.45.04-.67.05-.05,0-.1,0-.15,0-.09,0-.18.01-.27.01-.19,0-.37,0-.55.01h-.45c-.08,0-.17-.01-.25-.01-.16,0-.33-.01-.49-.02-.07,0-.14,0-.22-.01-.08,0-.16-.02-.23-.02-.16-.02-.33-.04-.49-.05-.08-.01-.15-.01-.23-.02-.14-.02-.28-.04-.42-.07-.02,0-.03,0-.05,0-.17-.03-.34-.06-.51-.1-.1-.02-.2-.04-.3-.07-.04-.01-.08-.02-.13-.03-.2-.05-.4-.1-.6-.16-.05-.01-.09-.03-.14-.04-.07-.02-.14-.04-.2-.07-.2-.06-.4-.13-.59-.2-.05-.02-.11-.04-.17-.06-.02-.01-.05-.02-.08-.03-.15-.06-.3-.13-.44-.19-.08-.04-.17-.07-.25-.11-.13-.06-.25-.13-.38-.19.47.55,1.1,1.08,1.9,1.54.23.13.47.26.72.37.08.04.17.07.25.11.14.07.29.13.44.19.02.01.05.02.08.03.05.02.11.04.17.06.19.07.39.14.59.2.07.02.14.04.2.07.05.01.09.03.14.04.2.05.4.11.6.16.04.01.08.02.13.03.1.02.2.05.3.07.17.04.34.07.51.1.02,0,.03,0,.05,0,.14.02.28.05.42.07.08.01.15.02.23.02.16.02.33.04.49.05.08,0,.16.02.23.02.07,0,.14,0,.22.01.16.01.33.02.49.02.08,0,.17.01.25.01h.45c.19,0,.37,0,.55-.01.09,0,.18,0,.27-.01.05,0,.1,0,.15,0,.22-.01.45-.03.67-.05.04,0,.08-.01.13-.02.07,0,.13-.02.2-.02.23-.03.45-.06.67-.1.05,0,.11-.02.16-.02.02,0,.05,0,.08-.01.23-.04.46-.09.7-.14.04-.01.08-.02.12-.03.25-.06.51-.13.75-.2.04-.01.08-.03.12-.04.05-.02.11-.03.16-.05.2-.07.4-.13.59-.21.03-.01.05-.02.08-.04.21-.08.42-.17.63-.26.06-.03.12-.05.18-.08.22-.11.45-.22.66-.34.04-.02.08-.05.12-.07.04-.02.07-.05.11-.07.06-.04.12-.07.17-.11.05-.04.1-.07.16-.11.05-.04.11-.08.16-.11.05-.04.1-.07.14-.11.05-.04.1-.08.15-.12.05-.04.09-.07.13-.11.05-.04.1-.08.14-.12.02-.02.04-.04.06-.05.02-.02.03-.03.05-.05.08-.07.15-.14.22-.22.02-.02.05-.05.07-.07.09-.1.17-.2.25-.29,0,0,0,0,.01-.01.02-.02.03-.05.05-.07.05-.06.1-.13.14-.19.02-.04.05-.07.07-.1.04-.06.07-.11.11-.17.01-.02.02-.03.03-.05.01-.02.02-.05.04-.07.02-.05.05-.1.08-.14.02-.04.04-.08.06-.12.02-.05.04-.1.06-.15,0-.02.02-.04.03-.07,0-.02.01-.04.02-.06.02-.05.03-.1.05-.14.01-.04.02-.08.04-.13.01-.05.02-.1.04-.14,0-.02.01-.05.02-.08,0-.02,0-.04,0-.05,0-.05.02-.1.02-.14,0-.04.01-.08.02-.13,0-.05,0-.1.01-.14,0-.03,0-.06,0-.08v-.08l.03-11.01c0,.06,0,.11,0,.17h0Z"/>
      <path class="cls-23" d="M62.09,80.2c3.82,2.21,3.85,5.78.04,7.98-3.8,2.21-9.99,2.21-13.81,0-3.82-2.21-3.85-5.77-.04-7.98,3.8-2.21,9.99-2.21,13.81,0Z"/>
      <path class="cls-8" d="M65.87,81.1c0,.05,0,.11-.01.16,0,.05-.01.09-.02.14,0,.05-.02.11-.02.16,0,.05-.02.1-.03.14-.01.05-.02.1-.04.16-.01.05-.02.1-.04.14-.02.05-.03.1-.05.16-.02.05-.04.09-.05.14-.02.05-.04.11-.07.16-.02.04-.04.09-.06.13-.02.05-.05.11-.08.16-.02.04-.05.08-.07.13-.04.07-.08.13-.11.19-.02.04-.05.08-.07.11-.05.07-.1.14-.15.2-.02.03-.04.06-.07.09-.08.11-.18.22-.28.32-.02.03-.05.05-.08.08-.08.08-.16.16-.24.24-.04.04-.08.07-.11.11-.05.04-.1.09-.16.13-.05.04-.1.08-.14.12-.05.04-.11.09-.17.13-.05.04-.1.08-.16.12-.06.04-.12.08-.18.13-.05.04-.11.08-.17.11-.06.04-.13.08-.19.12-.08.05-.16.1-.25.15-.23.13-.48.26-.72.38-.07.03-.13.06-.2.09-.22.1-.45.2-.69.29-.03.01-.06.02-.09.04-.27.1-.54.2-.83.28-.04.01-.08.02-.13.04-.27.08-.54.16-.83.22-.04.01-.08.02-.13.03-.28.07-.56.12-.85.17-.06.01-.12.02-.18.03-.25.04-.49.07-.74.1-.07,0-.14.02-.22.02-.29.03-.58.05-.87.07-.05,0-.11,0-.16,0-.3.02-.6.02-.9.02h-.09c-.22,0-.45-.01-.67-.02-.18,0-.36-.02-.54-.03-.16-.01-.33-.02-.49-.04-.18-.02-.36-.04-.54-.06-.23-.03-.47-.06-.7-.1-.02,0-.04,0-.05,0-.3-.05-.59-.11-.87-.17-.05-.01-.09-.02-.14-.03-.27-.07-.54-.14-.81-.22-.08-.02-.15-.05-.22-.07-.22-.07-.43-.14-.65-.22-.06-.02-.13-.04-.19-.07-.19-.07-.38-.16-.57-.24-.09-.04-.19-.08-.28-.12-.27-.13-.53-.26-.78-.41-2.11-1.21-3.16-2.81-3.15-4.39v3.28c-.01,1.59,1.04,3.18,3.14,4.39.25.14.51.28.78.41.09.04.19.08.28.12.16.07.32.14.48.21.03.01.06.02.08.03.06.02.13.04.19.07.21.08.43.15.65.22.07.02.15.05.22.07.05.01.1.03.15.05.22.06.43.11.66.17.05.01.09.02.14.03.11.02.21.05.32.07.18.04.37.07.55.1.02,0,.04,0,.05,0,.15.02.3.05.45.07.08.01.17.02.25.03.17.02.36.04.54.06.08,0,.17.02.25.03.08,0,.16,0,.24.01.18.01.36.02.54.03.09,0,.18.01.27.01h.49c.2,0,.4,0,.6-.01.1,0,.2-.01.3-.01.05,0,.11,0,.16,0,.24-.01.49-.03.73-.05.05,0,.09-.01.14-.02.07,0,.14-.02.22-.02.25-.03.49-.07.74-.1.06-.01.12-.02.18-.03.03,0,.06,0,.08-.01.26-.05.51-.1.76-.16.04-.01.08-.02.13-.03.28-.07.55-.14.83-.22.04-.01.08-.02.13-.04.06-.02.12-.04.17-.05.22-.07.43-.15.65-.23.03-.01.06-.02.09-.04.23-.09.46-.19.69-.29.07-.03.13-.06.2-.09.25-.12.49-.24.72-.38.04-.02.09-.05.13-.08.04-.02.08-.05.11-.07.07-.04.13-.08.19-.12.06-.04.11-.08.17-.11.06-.04.12-.08.18-.13.05-.04.11-.08.16-.12.05-.04.11-.08.17-.13.05-.04.1-.08.15-.12.05-.04.1-.09.15-.13.02-.02.04-.04.07-.05.02-.02.04-.04.05-.05.08-.08.16-.16.24-.24.02-.03.05-.05.08-.08.1-.11.19-.22.28-.32,0,0,0-.01.01-.01.02-.02.04-.05.05-.08.05-.07.1-.14.15-.2.02-.04.05-.08.07-.11.04-.06.08-.13.11-.19.01-.02.02-.04.03-.05.01-.02.02-.05.04-.08.03-.05.05-.11.08-.16.02-.04.04-.09.06-.13.02-.05.05-.11.07-.16.01-.02.02-.05.03-.07,0-.02.01-.04.02-.07.02-.05.04-.1.05-.16.01-.05.03-.1.04-.14.01-.05.02-.1.04-.16,0-.03.01-.05.02-.08,0-.02,0-.04,0-.05.01-.05.02-.11.02-.16,0-.05.01-.1.02-.14,0-.05,0-.11.01-.16,0-.03,0-.06,0-.1v-3.38c.01.06.01.13,0,.19h0Z"/>
      <path class="cls-10" d="M62.72,76.52c4.19,2.41,4.2,6.32.05,8.73-4.16,2.41-10.92,2.41-15.1,0-4.19-2.41-4.2-6.32-.05-8.73,4.16-2.41,10.92-2.41,15.1,0h0Z"/>
      <path class="cls-11" d="M61.66,77.13c3.6,2.07,3.61,5.43.04,7.5-3.57,2.07-9.38,2.07-12.97,0-3.6-2.07-3.61-5.43-.04-7.5,3.57-2.07,9.38-2.07,12.97,0Z"/>
      <path class="cls-1" d="M61.66,80.66c-3.6-2.07-9.4-2.07-12.97,0-.99.58-1.71,1.25-2.14,1.97.45.73,1.17,1.42,2.19,2,3.6,2.07,9.4,2.07,12.97,0,.99-.58,1.71-1.25,2.14-1.97-.45-.73-1.17-1.42-2.19-2Z"/>
      <path class="cls-31" d="M55.78,77.18c-1.93-3.58-16.72-9.7-13.36-11.87,3.36-2.18-3.05-6.25-.51-7.91s-1.49-4.74,1.26-6.18c2.76-1.44.14-4.63,2.23-5.83,2.09-1.2-1.75-4.66,1.13-6.5,2.88-1.83.63-3.13,3.15-4.03,2.52-.9,3.79-3.99,6.08-3.54v45.85h0Z"/>
      <path class="cls-19" d="M55.78,40.07c-.73,1.82-1.77,4.14-2.63,4.97-1.49,1.43.09,6.27-1.52,7.38-1.61,1.11-.16,6.23-2.82,7.44-2.66,1.21,1.36,4.83-1.31,5.45-2.37.55,6.32,8.71,8.27,10.5v-35.74Z"/>
      <path class="cls-31" d="M55.78,77.18c1.93-3.58,16.72-9.7,13.36-11.87-3.36-2.18,3.05-6.25.51-7.91s1.49-4.74-1.26-6.18c-2.76-1.44-.14-4.63-2.23-5.83-2.09-1.2,1.75-4.66-1.13-6.5-2.88-1.83-.63-3.13-3.15-4.03-2.52-.9-3.79-3.99-6.08-3.54v45.85h0Z"/>
      <path class="cls-25" d="M55.78,40.07c.73,1.82,1.77,4.14,2.63,4.97,1.49,1.43-.09,6.27,1.52,7.38,1.61,1.11.16,6.23,2.82,7.44,2.66,1.21-1.36,4.83,1.31,5.45,2.37.55-6.32,8.71-8.27,10.5v-35.74Z"/>
      <path class="cls-11" d="M55.4,84.46l.26-49.48c0-.07.05-.12.13-.12.07,0,.12.05.12.12l.26,49.48c0,.21-.17.38-.38.38s-.39-.17-.39-.38h0Z"/>
      <path class="cls-11" d="M199.57,162.17s0,.1-.01.15c0,.04-.01.08-.02.13,0,.05-.01.1-.02.14,0,.04-.02.08-.02.13-.01.05-.02.1-.04.15-.01.04-.02.08-.04.13-.01.05-.03.1-.05.14-.01.04-.03.08-.05.13-.02.05-.04.1-.06.15-.02.04-.04.08-.06.12-.02.05-.05.1-.08.14-.03.04-.04.08-.07.12-.04.06-.07.11-.11.17-.02.04-.04.07-.07.1-.04.06-.09.13-.14.19-.02.03-.04.05-.06.08-.08.1-.16.2-.25.29-.02.02-.05.05-.07.07-.07.07-.14.15-.22.22-.04.04-.07.07-.11.1-.05.04-.09.08-.14.12-.04.04-.09.07-.13.11-.05.04-.1.08-.15.12-.05.04-.1.07-.14.11-.05.04-.11.08-.16.11s-.1.07-.16.11c-.06.04-.12.07-.18.11-.07.05-.15.09-.23.14-.21.12-.43.24-.66.34-.06.03-.12.05-.18.08-.21.1-.41.19-.63.26-.03.01-.05.02-.08.04-.25.1-.5.18-.75.26-.04.01-.08.02-.12.04-.25.07-.5.14-.75.2-.04.01-.08.02-.12.03-.25.06-.51.11-.78.16-.05.01-.11.02-.16.02-.22.04-.45.07-.67.1-.07,0-.13.02-.2.02-.26.03-.53.05-.79.07-.05,0-.1,0-.15,0-.27.01-.55.02-.82.02h-.08c-.21,0-.41,0-.61-.02-.16,0-.33-.01-.49-.02-.15-.01-.3-.02-.45-.04-.16-.02-.32-.04-.49-.05-.22-.03-.43-.05-.64-.09-.02,0-.03,0-.05,0-.27-.05-.54-.1-.8-.16-.04-.01-.08-.02-.13-.03-.25-.06-.49-.13-.73-.2-.07-.02-.14-.04-.2-.07-.2-.06-.4-.13-.6-.21-.05-.02-.11-.04-.17-.06-.17-.07-.35-.14-.52-.22-.08-.04-.17-.07-.25-.11-.25-.11-.49-.24-.72-.37-.72-.41-1.31-.88-1.76-1.38-.6-.66-.96-1.38-1.08-2.1-.01-.09-.02-.18-.04-.27-.01-.09-.01-.18-.01-.27l-.03,11.01c0,1.45.96,2.91,2.88,4.02.23.13.47.26.72.37.08.04.17.07.25.11.14.07.29.13.44.19.02.01.05.02.08.03.05.02.12.04.17.06.19.07.39.14.59.2.07.02.14.04.2.07.05.01.09.03.14.04.2.06.4.11.6.16.04.01.08.02.13.03.1.02.2.05.3.07.17.04.34.07.51.1.02,0,.03,0,.05,0,.14.02.28.05.42.07.08.01.15.02.23.02.16.02.33.04.49.05.08,0,.16.02.23.02.07,0,.15,0,.22.01.16.01.33.02.49.02.08,0,.17.01.25.01h.45c.19,0,.37,0,.55-.01.09,0,.18,0,.27-.01.05,0,.1,0,.15,0,.22-.01.45-.03.67-.05.04,0,.08-.01.13-.01.07,0,.13-.02.2-.02.23-.03.45-.06.67-.1.05,0,.11-.02.16-.02.02,0,.05,0,.08-.01.23-.04.47-.09.7-.14.04-.01.08-.02.12-.03.25-.06.51-.13.75-.21.04-.01.08-.02.12-.04.06-.02.11-.03.16-.05.2-.07.4-.13.59-.21.03-.01.05-.02.08-.04.21-.08.42-.17.63-.26.06-.03.12-.06.18-.09.22-.11.45-.22.66-.34.04-.02.08-.05.12-.07.04-.02.07-.05.11-.07.06-.04.12-.07.17-.12.06-.04.1-.07.16-.11.05-.04.11-.08.16-.11.05-.04.1-.07.14-.11.05-.04.1-.08.15-.12.05-.04.09-.07.13-.11.05-.04.1-.08.14-.12.02-.02.04-.04.06-.05l.05-.05c.08-.07.15-.14.22-.22l.07-.07c.09-.1.18-.2.25-.29,0,0,0,0,.01-.01.02-.02.03-.05.05-.07.05-.06.1-.13.14-.19.02-.04.05-.07.07-.1.04-.06.07-.11.11-.17.01-.02.02-.03.03-.05.01-.02.02-.05.04-.07.02-.05.06-.1.08-.14.02-.04.04-.08.06-.12.02-.05.04-.1.06-.15,0-.02.02-.04.03-.07,0-.02.01-.04.02-.06.02-.05.03-.1.05-.14.01-.04.02-.08.04-.13.01-.05.02-.1.04-.14,0-.02.01-.05.02-.08,0-.02,0-.04,0-.05,0-.05.02-.1.02-.14,0-.04.01-.09.02-.13,0-.05,0-.1.01-.14,0-.03,0-.06,0-.08v-.08l.03-11.01c0,.06,0,.11,0,.18h0Z"/>
      <path class="cls-25" d="M180.69,164.24c.11.07.22.13.34.19-.52-.61-.83-1.27-.95-1.94-.01-.09-.02-.18-.04-.27,0-.09-.01-.18-.01-.27v1.88c.2.14.42.29.65.42h0Z"/>
      <path class="cls-25" d="M199.57,162.17s0,.1-.01.15c0,.04-.01.08-.02.13,0,.05-.01.1-.02.14,0,.04-.02.08-.02.13-.01.05-.02.1-.04.15-.01.04-.02.08-.04.13-.01.05-.03.1-.05.14-.01.04-.03.08-.05.13-.02.05-.04.1-.06.15-.02.04-.04.08-.06.12-.02.05-.05.1-.08.14-.03.04-.04.08-.07.12-.04.06-.07.11-.11.17-.02.04-.04.07-.07.1-.04.06-.09.13-.14.19-.02.03-.04.05-.06.08-.08.1-.16.2-.25.29-.02.02-.05.05-.07.07-.07.07-.14.15-.22.22-.04.04-.07.07-.11.1-.05.04-.09.08-.14.12-.04.04-.09.07-.13.11-.05.04-.1.08-.15.12-.05.04-.1.07-.14.11-.04.03-.09.07-.14.1l-.02,5.7v.08s0,.06,0,.08c0,.05,0,.1-.01.14,0,.04-.01.08-.02.13,0,.05-.01.1-.02.14,0,.02,0,.04,0,.05,0,.02-.01.05-.02.08-.01.05-.02.1-.04.15-.01.04-.02.08-.04.13-.01.05-.03.1-.05.14,0,.02-.01.04-.02.06,0,.02-.02.04-.03.07-.02.05-.04.1-.06.15-.02.04-.04.09-.06.12-.02.05-.05.1-.08.14-.01.02-.02.05-.04.07,0,.02-.02.03-.03.05-.04.06-.07.11-.11.17-.02.04-.04.07-.07.1-.04.07-.09.13-.14.19-.02.02-.03.05-.05.07,0,0,0,0-.01.01-.08.1-.16.2-.25.29-.02.02-.05.05-.07.07-.07.07-.14.15-.22.22-.02.02-.03.03-.05.05-.02.02-.04.04-.06.05-.05.04-.09.08-.14.12-.04.04-.09.07-.13.11-.05.04-.1.08-.15.12-.05.04-.1.07-.14.11-.05.04-.11.08-.16.11-.05.04-.1.07-.16.11-.06.04-.11.07-.17.11-.04.02-.07.05-.11.07-.04.02-.08.05-.12.07-.21.12-.43.24-.66.34-.06.03-.12.05-.18.08-.2.1-.41.19-.63.26-.03.01-.05.02-.08.04-.19.07-.39.15-.59.21-.05.02-.11.03-.16.05-.04.01-.08.02-.12.04-.25.07-.5.14-.75.2-.04.01-.08.02-.12.03-.23.05-.46.1-.7.14-.03,0-.06,0-.08.01-.05.01-.11.02-.16.02-.22.04-.45.07-.67.1-.07,0-.13.02-.2.02-.04,0-.08.01-.13.01-.22.02-.45.04-.67.05-.05,0-.1,0-.15,0-.09,0-.18.01-.27.01-.19,0-.37,0-.55.01h-.44c-.09,0-.17-.01-.25-.01-.16,0-.33-.02-.49-.02-.07,0-.14,0-.22-.01-.08,0-.16-.02-.23-.02-.16-.02-.33-.04-.49-.05-.08-.01-.15-.01-.23-.02-.14-.02-.28-.04-.42-.07-.02,0-.03,0-.05,0-.17-.03-.34-.06-.51-.1-.1-.02-.2-.04-.29-.07-.04-.01-.08-.02-.13-.03-.2-.05-.4-.1-.6-.16-.05-.01-.09-.03-.14-.04-.07-.02-.14-.04-.2-.07-.2-.06-.4-.13-.59-.21-.05-.02-.11-.04-.17-.06-.02-.01-.05-.02-.08-.03-.15-.06-.3-.13-.44-.19-.08-.04-.17-.07-.25-.11-.13-.06-.25-.13-.38-.19.47.55,1.1,1.07,1.9,1.54.23.13.47.26.72.37.08.04.17.07.25.11.14.07.29.13.44.19.02.01.05.02.08.03.05.02.12.04.17.06.19.07.39.14.59.2.07.02.14.04.2.07.05.01.09.03.14.04.2.05.4.11.6.16.04.01.08.02.13.03.1.02.2.05.3.07.17.04.34.07.51.1.02,0,.03,0,.05,0,.14.02.28.05.42.07.08.01.15.02.23.02.16.02.33.04.49.05.08,0,.16.02.23.02.07,0,.15,0,.22.01.16.01.33.02.49.02.08,0,.17.01.25.01h.45c.19,0,.37,0,.55-.01.09,0,.18,0,.27-.01.05,0,.1,0,.15,0,.22-.01.45-.03.67-.05.04,0,.08-.01.13-.01.07,0,.13-.02.2-.02.23-.03.45-.06.67-.1.05,0,.11-.02.16-.02.02,0,.05,0,.08-.01.23-.04.47-.09.7-.14.04-.01.08-.02.12-.03.25-.06.51-.13.75-.21.04-.01.08-.02.12-.04.06-.02.11-.03.16-.05.2-.07.4-.13.59-.21.03-.01.05-.02.08-.04.21-.08.42-.17.63-.27.06-.03.12-.05.18-.08.22-.11.45-.22.66-.34.04-.02.08-.05.12-.07.04-.02.07-.05.11-.07.06-.04.12-.07.17-.11.06-.04.1-.07.16-.11.05-.04.11-.08.16-.11.05-.04.1-.07.14-.11.05-.04.1-.08.15-.12.05-.04.09-.07.13-.11.05-.04.1-.08.14-.12.02-.02.04-.04.06-.05.02-.02.03-.03.05-.05.08-.07.15-.14.22-.22l.07-.07c.09-.1.18-.2.25-.29,0,0,0,0,.01-.01.02-.02.03-.05.05-.07.05-.06.1-.13.14-.19.02-.04.05-.07.07-.1.04-.06.07-.11.11-.17.01-.02.02-.03.03-.05.01-.02.02-.05.04-.07.02-.05.06-.1.08-.14.02-.04.04-.08.06-.12.02-.05.04-.1.06-.15,0-.02.02-.04.03-.07,0-.02.01-.04.02-.06.02-.05.03-.1.05-.14.01-.04.02-.08.04-.13.01-.05.02-.1.04-.14,0-.02.01-.05.02-.08,0-.02,0-.04,0-.05,0-.05.02-.1.02-.14,0-.04.01-.08.02-.13,0-.05,0-.1.01-.14,0-.03,0-.06,0-.08v-.08l.03-11.01c0,.06,0,.12,0,.18h0Z"/>
      <path class="cls-23" d="M196.69,157.98c3.82,2.21,3.85,5.78.04,7.98-3.8,2.21-9.99,2.21-13.81,0-3.82-2.21-3.85-5.77-.04-7.98,3.8-2.21,9.99-2.21,13.81,0Z"/>
      <path class="cls-8" d="M200.47,158.89c0,.05,0,.11-.01.16,0,.05-.01.1-.02.14,0,.05-.02.11-.02.16,0,.05-.02.1-.03.14-.01.05-.02.1-.04.16-.01.05-.02.1-.04.14-.02.05-.03.1-.05.16-.02.05-.04.09-.05.14-.02.05-.04.11-.07.16-.02.04-.04.09-.06.13-.02.05-.05.11-.08.16-.02.04-.05.08-.07.13-.04.07-.08.13-.11.19-.03.04-.05.08-.07.11-.05.07-.1.14-.15.2-.02.03-.04.06-.07.09-.08.11-.18.22-.28.32-.02.03-.05.05-.08.08-.08.08-.16.16-.24.24-.04.04-.08.07-.11.11-.05.04-.1.09-.16.13-.05.04-.1.08-.14.12-.06.04-.11.09-.17.13-.05.04-.1.08-.16.12-.06.04-.12.08-.18.13-.05.04-.11.08-.17.12-.06.04-.13.08-.19.12-.08.05-.16.1-.25.15-.23.13-.48.26-.72.38-.07.03-.13.06-.2.09-.22.1-.45.2-.69.29-.03.01-.06.02-.09.04-.27.1-.54.2-.82.28-.04.01-.08.02-.13.04-.27.08-.54.16-.82.22-.04.01-.08.02-.13.03-.28.07-.56.12-.85.17-.06.01-.12.02-.18.03-.25.04-.49.07-.74.1-.07,0-.14.02-.22.02-.29.03-.58.05-.87.07-.05,0-.11,0-.16,0-.3.02-.6.02-.9.02h-.09c-.22,0-.44-.01-.67-.02-.18,0-.36-.02-.54-.03-.16-.01-.33-.02-.49-.04-.18-.02-.36-.04-.54-.06-.23-.03-.47-.06-.7-.1-.02,0-.04,0-.05,0-.29-.05-.59-.11-.87-.17-.05-.01-.09-.02-.14-.03-.27-.07-.54-.14-.81-.22-.08-.02-.15-.05-.22-.07-.22-.07-.43-.15-.65-.22-.06-.02-.13-.04-.19-.07-.19-.07-.38-.16-.57-.24-.09-.04-.19-.08-.28-.12-.27-.13-.53-.26-.78-.41-2.11-1.21-3.15-2.81-3.15-4.39v3.28c-.01,1.59,1.04,3.18,3.14,4.39.25.14.51.28.78.41.09.04.19.08.28.12.16.07.32.14.48.21.03.01.06.02.08.03.06.02.13.05.19.07.21.08.43.15.65.22.07.02.15.05.22.07.05.01.1.03.15.05.22.06.43.11.66.17.05.01.09.02.14.03.11.02.21.05.32.07.18.04.37.07.55.1.02,0,.04,0,.05,0,.15.02.3.05.45.07.08.01.17.02.25.03.17.02.36.04.54.06.08,0,.17.02.25.03.08,0,.16,0,.24.01.18.01.36.02.54.03.09,0,.18.01.27.01h.49c.2,0,.4,0,.6-.01.1,0,.2-.01.3-.01.05,0,.11,0,.16,0,.24-.01.49-.03.73-.06.05,0,.09-.01.14-.02.07,0,.15-.02.22-.02.25-.03.49-.07.74-.1.06-.01.12-.02.18-.03.03,0,.06,0,.08-.01.26-.05.51-.1.76-.16.04-.01.09-.02.13-.03.28-.07.55-.14.82-.22.04-.01.08-.02.13-.04.06-.02.12-.04.17-.05.22-.07.43-.15.65-.23.03-.01.06-.02.09-.04.24-.09.46-.19.69-.29.07-.03.13-.06.2-.09.25-.12.49-.24.72-.38.04-.02.09-.05.13-.08.04-.02.08-.05.11-.07.07-.04.13-.08.19-.12.06-.04.11-.08.17-.11.06-.04.12-.08.18-.13.05-.04.11-.08.16-.12.05-.04.11-.08.17-.13.05-.04.1-.08.15-.12.05-.04.1-.09.15-.13.02-.02.04-.04.07-.05.02-.02.04-.04.05-.05.08-.08.16-.16.24-.24.02-.03.05-.05.08-.08.1-.11.19-.22.28-.32,0,0,0-.01.01-.01.02-.02.04-.05.05-.08.05-.07.1-.14.15-.2.02-.04.05-.08.07-.11.04-.06.08-.13.11-.19.01-.02.02-.04.03-.05.01-.02.02-.05.04-.08.03-.05.05-.11.08-.16.02-.04.04-.09.06-.13.02-.05.05-.11.07-.16.01-.02.02-.05.03-.07s.01-.04.02-.07c.02-.05.04-.1.05-.16.01-.05.03-.1.04-.14.01-.05.02-.1.04-.16,0-.03.01-.05.02-.08,0-.02,0-.04,0-.05.01-.05.02-.11.02-.16s.01-.1.02-.14c0-.05,0-.11.01-.16,0-.03,0-.06,0-.1v-3.38c.01.06.01.13,0,.19h0Z"/>
      <path class="cls-10" d="M197.32,154.3c4.19,2.41,4.2,6.32.05,8.73-4.16,2.41-10.92,2.41-15.1,0-4.19-2.41-4.2-6.32-.05-8.73,4.16-2.41,10.92-2.41,15.1,0h0Z"/>
      <path class="cls-11" d="M196.26,154.92c3.6,2.07,3.61,5.43.04,7.5-3.57,2.07-9.38,2.07-12.97,0-3.6-2.07-3.61-5.43-.04-7.5,3.57-2.07,9.38-2.07,12.97,0Z"/>
      <path class="cls-1" d="M196.26,158.44c-3.59-2.07-9.4-2.07-12.97,0-.99.58-1.71,1.25-2.14,1.97.44.73,1.17,1.42,2.19,2,3.59,2.07,9.4,2.07,12.97,0,.99-.58,1.71-1.25,2.14-1.97-.44-.73-1.17-1.42-2.19-2Z"/>
      <path class="cls-31" d="M190.38,154.96c-1.93-3.58-16.72-9.7-13.36-11.87,3.36-2.18-3.05-6.25-.51-7.91,2.54-1.66-1.49-4.74,1.26-6.18,2.76-1.44.14-4.63,2.23-5.83,2.09-1.2-1.75-4.66,1.13-6.5,2.88-1.83.63-3.13,3.15-4.03,2.52-.89,3.79-3.99,6.08-3.54v45.85h0Z"/>
      <path class="cls-19" d="M190.38,117.85c-.73,1.82-1.77,4.14-2.63,4.97-1.49,1.43.09,6.27-1.52,7.38-1.61,1.1-.16,6.23-2.82,7.44-2.66,1.21,1.36,4.83-1.31,5.45-2.37.55,6.32,8.71,8.27,10.5v-35.74Z"/>
      <path class="cls-31" d="M190.38,154.96c1.93-3.58,16.72-9.7,13.36-11.87-3.36-2.18,3.05-6.25.51-7.91-2.54-1.66,1.49-4.74-1.26-6.18-2.76-1.44-.14-4.63-2.23-5.83-2.09-1.2,1.75-4.66-1.13-6.5-2.88-1.83-.63-3.13-3.15-4.03-2.52-.89-3.79-3.99-6.08-3.54v45.85h0Z"/>
      <path class="cls-25" d="M190.38,117.85c.73,1.82,1.77,4.14,2.63,4.97,1.49,1.43-.09,6.27,1.52,7.38,1.61,1.1.16,6.23,2.82,7.44,2.66,1.21-1.36,4.83,1.31,5.45,2.37.55-6.32,8.71-8.27,10.5v-35.74Z"/>
      <path class="cls-11" d="M190,162.25l.26-49.49c0-.07.05-.12.13-.12.07,0,.12.05.12.12l.26,49.49c0,.21-.17.38-.38.38s-.38-.17-.38-.38h0Z"/>
    </g>
  </g>
</svg>