<?xml version="1.0" encoding="UTF-8"?>
<svg id="Layer_2" data-name="Layer 2" xmlns="http://www.w3.org/2000/svg" xmlns:xlink="http://www.w3.org/1999/xlink" viewBox="0 0 247.67 245">
  <defs>
    <style>
      .cls-1 {
        fill: #e6edf7;
      }

      .cls-1, .cls-2, .cls-3, .cls-4, .cls-5, .cls-6, .cls-7, .cls-8, .cls-9, .cls-10, .cls-11, .cls-12, .cls-13, .cls-14, .cls-15, .cls-16, .cls-17, .cls-18, .cls-19, .cls-20, .cls-21, .cls-22, .cls-23, .cls-24, .cls-25, .cls-26, .cls-27, .cls-28, .cls-29, .cls-30, .cls-31, .cls-32, .cls-33, .cls-34, .cls-35, .cls-36, .cls-37, .cls-38, .cls-39, .cls-40, .cls-41, .cls-42, .cls-43, .cls-44, .cls-45, .cls-46, .cls-47, .cls-48, .cls-49, .cls-50, .cls-51, .cls-52, .cls-53, .cls-54, .cls-55, .cls-56, .cls-57 {
        fill-rule: evenodd;
      }

      .cls-2 {
        fill: #2c2d42;
      }

      .cls-3 {
        fill: #f3b488;
      }

      .cls-4 {
        fill: #ecf0f5;
      }

      .cls-5 {
        fill: #69c3e3;
      }

      .cls-6 {
        fill: #f60;
      }

      .cls-7 {
        fill: #bdeae9;
      }

      .cls-8 {
        fill: #99f;
      }

      .cls-9 {
        fill: rgba(255, 255, 255, .5);
      }

      .cls-10, .cls-58 {
        fill: #7f7f7f;
      }

      .cls-11 {
        fill: #d64b00;
      }

      .cls-12 {
        fill: #999;
      }

      .cls-13 {
        fill: #a9bacb;
      }

      .cls-14 {
        fill: #1ea6c8;
      }

      .cls-15 {
        fill: #f2b387;
      }

      .cls-16 {
        fill: #fff;
      }

      .cls-59, .cls-51 {
        fill: #4c4c4c;
      }

      .cls-17 {
        fill: #54b6d8;
      }

      .cls-18, .cls-60 {
        fill: #647c99;
      }

      .cls-61, .cls-41 {
        fill: #706f6f;
      }

      .cls-19 {
        fill: #77cbe8;
      }

      .cls-62, .cls-23 {
        fill: #a5b7c9;
      }

      .cls-20 {
        fill: #fc0;
      }

      .cls-21 {
        fill: #3c3c3b;
      }

      .cls-22 {
        fill: #5c1c07;
      }

      .cls-24 {
        fill: #68849e;
      }

      .cls-25 {
        fill: #71b8c3;
      }

      .cls-26 {
        fill: #97cdd5;
      }

      .cls-27 {
        fill: #149992;
      }

      .cls-28 {
        fill: #96e5df;
      }

      .cls-29 {
        fill: #8aa6ab;
      }

      .cls-30 {
        fill: #3abdde;
      }

      .cls-31 {
        fill: #9cd7f4;
      }

      .cls-32 {
        fill: #c9c9c9;
      }

      .cls-33 {
        fill: #65afd7;
      }

      .cls-34 {
        fill: #465572;
      }

      .cls-35 {
        fill: #16ada8;
      }

      .cls-36 {
        fill: #66f;
      }

      .cls-37 {
        fill: #7994ad;
      }

      .cls-38 {
        fill: #bd6b31;
      }

      .cls-39 {
        fill: #b6c5d3;
      }

      .cls-40 {
        fill: #23c0bb;
      }

      .cls-42 {
        fill: #211f1e;
      }

      .cls-43 {
        fill: #313a52;
      }

      .cls-44 {
        fill: #ff9;
      }

      .cls-45 {
        fill: #26273c;
      }

      .cls-46 {
        fill: #a34f14;
      }

      .cls-47 {
        fill: #8aa0bd;
      }

      .cls-48 {
        fill: #d9f7f7;
      }

      .cls-49 {
        fill: #96b5ba;
      }

      .cls-50 {
        fill: #b4dee1;
      }

      .cls-52 {
        fill: #db9668;
      }

      .cls-53 {
        fill: #6b86a0;
      }

      .cls-54 {
        fill: #b13305;
      }

      .cls-55 {
        fill: #892604;
      }

      .cls-56 {
        fill: #db9669;
      }

      .cls-57 {
        fill: url(#linear-gradient);
      }
    </style>
    <linearGradient id="linear-gradient" x1="-2075.66" y1="433.02" x2="-2032.02" y2="389.38" gradientTransform="translate(2159.99 617) scale(1.01 -1)" gradientUnits="userSpaceOnUse">
      <stop offset="0" stop-color="#d8d8d8"/>
      <stop offset=".17" stop-color="#fff"/>
      <stop offset=".37" stop-color="#d8d8d8"/>
      <stop offset=".55" stop-color="#9d9d9c"/>
      <stop offset=".78" stop-color="#dadada"/>
      <stop offset="1" stop-color="#878787"/>
    </linearGradient>
  </defs>
  <g id="Layer_1-2" data-name="Layer 1">
    <g id="telthU">
      <path class="cls-27" d="M227.01,116.89c-1.16,4.89-1.43,10.81-1.82,15.8-.55,6.94-4.48,11.58-3.8,15.88-.81,6.61-10.83,10.55-12.79-.3.2-2.29,1.18-17.83,1.19-22.24,0-3.62.17-5.86.37-9.84,0,0-.28-8.71,8.39-7.16,8.68,1.53,8.64,7.17,8.46,7.86h0Z"/>
      <path class="cls-27" d="M242.88,121.5c1.42,16.25-.94,24.64-.69,37.01-.57,1.76-.87,3.61-6.39,3.68-2.77.04-6.76-.08-7.67-7.29-.02-2.3-1.97-14.83-2.79-19.17-.66-3.56-1.3-13.37-1.1-18.71,0,0-1.1-4.04,7.7-4.67,7.33-.52,10.97,8.43,10.93,9.15Z"/>
      <path class="cls-35" d="M229.24,53.25c2.31,1.41,6.73,3.26,10.12,7.61,2.48,3.21,4.25,9.22,4.15,10.17-.62,6.15-.32,46.36,1.63,54.83-8.34,9.84-38.81-1.83-36.36-11.08,1.07-6.16,1.13-32.61.48-36-.65-3.41-4.06-19.99.45-26.22,1.04-1.44,11.38-1.58,12.99-1.39,5.73.65,3.18-.06,6.55,2.09h0Z"/>
      <path class="cls-40" d="M245.23,75.66c2.93,11.37,2.13,22.23,2.13,22.23.48,1.28-9.95,3.28-10.34-.01-1.45-8.45-5.33-15.02-6.3-21.4-3.99-7.45,1.31-12.93,4.93-13.48,3.63-.55,8.02,2.45,9.58,12.66h0Z"/>
      <path class="cls-3" d="M238.97,124.33c-.49-1.08-3.98-2.36-4.24-.72-.52,1.35-2.46,6.59-2.52,6.98-.12.65-.15,1.08-.18,1.76-.06.94.08,1.3.58,2.12.37.7,1.39,2.77,1.78,3.38.81,1.02,1.73,2.48,2.67,3.23.23-.13.62-.48.63-.81.35.31.83.98,1.08.75.7-.63.26-1.56.26-1.56l.32.42c.86-.55.79-1.32.65-1.83-.13-.49-.89-2.01-1.04-2.52-.37-1.22-1.22-4.04-.13-1.23.46,1.23,1.39,2.85,1.77,2.23.65-1.07-.29-1.69-.63-2.96-.29-1.12-.62-3.66-.35-4.89.58-2.65.04-2.84-.63-4.34h-.02Z"/>
      <path class="cls-40" d="M240.95,126.89c-.12,1.37-9.3-.75-8.24-3.88,2.32-8.26,2.43-18.96,4.29-25.14-.4-8.43,8.22-5.65,10.34,0,2.07,7.01-6.4,29.02-6.4,29.02h0Z"/>
      <path class="cls-51" d="M220.56,37.17l-10.16,2.34c-.34.6-.5,1.26-.39,1.91l10.55-4.25h0Z"/>
      <path class="cls-56" d="M230.97,44.84s-2.54,7.71-1.18,11.85c-5.81,5.87-16.46,4.34-12.62-2.94,2.46-1.68,4.74-1.99,2.25-8.78-.48-2.13,11.55-.13,11.55-.13h0Z"/>
      <path class="cls-15" d="M212.26,32.88c-.01,1.76-.66,3.39-1.09,5.08-.81,1.92,1.64,2.57-.25,5.26-.32,1.98.45,5.5.95,7.45.39,1.53.89,3.74,2.23,4.69,3.35,2.38,7.08-.84,10.57-1.93,3.47-1.07,3.26-5.14,4.42-7.93,2.08-5.03.91-12.21-4.69-14.61-2.5-1.07-6.65-1.69-9.27-.79-.93.31-2.08,1.05-2.9,2.79h0Z"/>
      <path class="cls-46" d="M216.07,28.42c-2.61,1.71-3.95,2.59-2.65,6.96,1.43-.89,3.53-1.74,7.26-.81,3.14,1.33-.27,4.94,2.77,6.32,1.16.53,3.26,2.06,2.39,3.28,4.32-1.59,3.95,1.42,3.83,5.03.41-1.9,1.36-3.95,3.04-6.37,2.43-3.51,2.9-10.12-.13-13.39-3.28-3.53-9.28-5.76-16.51-1.03h0Z"/>
      <path class="cls-38" d="M220.84,34.65c2.88,1.38-.37,4.89,2.62,6.26,1.16.53,3.26,2.06,2.39,3.28,4.32-1.59,3.95,1.42,3.83,5.03.41-1.9,1.36-3.95,3.04-6.37,1.76-2.54,2.49-6.72,1.61-10.07-1.73.84-3.93,2.15-6.72,2.49-2.13.25-4.66-.53-6.76-.62Z"/>
      <path class="cls-28" d="M211.13,42.92c.62.08,1.29.01,1.88.23,2.31.83,2.68,2.98,5.87,3.37,2.87.35,6.98-2.33,9.09-3.38-2.16,1.99-4.48,7.75-.09,5.81-1.25,1.95-2.59,3.56-5.49,5.42-2.79,1.3-5.65,2.87-8.28,1-1.34-.96-1.85-3.17-2.23-4.69-.51-1.95-1.27-5.47-.95-7.45.07-.1.14-.2.2-.31h0Z"/>
      <path class="cls-51" d="M229.7,42.62l-10.23,2.38v1.76l10.23-4.14Z"/>
      <path class="cls-15" d="M230.21,46.25c-.78,1.81-2.06,3-2.86,2.66-.8-.34-1.62-2.11-.84-3.92.77-1.81,2.86-2.98,3.66-2.63.81.33.82,2.08.04,3.88Z"/>
      <path class="cls-10" d="M213.47,41.85c.41.29,1.52.96,1.97,1.19-.32.68-.51,1.34-.22,1.82-.36-.47-1.37-1.14-1.87-1.09.48-.51.09-1.28.12-1.9h0Z"/>
      <path class="cls-58" d="M214.74,42.68c1.54.84,3.27,1.34,4.79,2.24l.05.03v.47c.02,1.13.05,2.39-1.15,2.54h-.06c-1.02-.58-2.26-1.09-2.88-1.78-.38-.43-.29-1.17-.75-1.56h0v-.26c.09.06.17.12.24.17.5.41.27,1.06.67,1.51.6.68,1.83,1.16,2.79,1.72.98-.15.95-1.3.93-2.34h0v-.36c-1.46-.85-3.14-.98-4.63-1.7v-.68h0ZM210.46,39.55c1.43.84,2.53,2.11,3.96,2.95h0c.11.06.21.13.32.18v.68c-.15-.08-.31-.16-.46-.25h0c-1.4-.83-2.46-2.5-3.84-3.34-.29.37-.39,1.02-.31,1.73.08.73.36,1.51.81,2.06.49.26,1.22.75,1.71.69.53-.06.57-.78,1.13-.47.28.15.67.39.96.59v.25c-.29-.24-.51-.36-.89-.56-.49-.28-.68.34-1.17.4-.53.06-1.3-.42-1.85-.72h-.01v-.02c-.51-.59-.8-1.41-.89-2.18-.09-.8.04-1.56.42-1.96l.06-.06.07.04Z"/>
      <path class="cls-40" d="M211.38,33.74c.71,5.24,6.48,4.62,11.3,7.33,3.82,2.15,7.13,5.43,6.94,9.63,10.29,2.13,8.4-13.16,5.51-18.25-3.37-5.94-8.15-8.25-15.27-6.12-6.95,2.08-8.99,3.67-8.48,7.41h0Z"/>
      <path class="cls-28" d="M211.36,31.94c1.63.33,3.68-.36,3.68,2.39,0,2.35.75.01,2.41-1.04.55-.35-.05,1.6-.06,1.95-.06,1.51,1.56-.26,3.06-.26s.45.9,1.11,1.42c.62.5,2.35-.24,3.19.32.69.46.39,1.3.39,2.07,0,.61,2.85.01,2.86.13.14,1.23-.43,2.69-.78,3.82-.22.7,2.18-2.36,2.22-1.95.07.89-.03,2.2-.26,3.05-.06.23,1.99-4.11,1.76.2-.16,2.97-.78,2.41,1.89.26.97-.78.87,1.6,1.57,1.69.55.07,1.88-.95,2.96-1.94.38-4.15-.79-9.1-2.21-11.59-3.37-5.94-8.15-8.25-15.27-6.12-5.71,1.71-8.11,3.09-8.5,5.61h-.01Z"/>
      <path class="cls-61" d="M185.03,198.9c0,4.97-6.53,8.99-14.58,8.99s-14.58-4.03-14.58-8.99,6.53-8.99,14.58-8.99,14.58,4.03,14.58,8.99Z"/>
      <path class="cls-32" d="M170.45,206.6c-8.03,0-14.58-4.04-14.58-8.99s6.55-8.99,14.58-8.99,14.58,4.04,14.58,8.99-6.55,8.99-14.58,8.99Z"/>
      <path class="cls-41" d="M170.45,162.57c1.98,0,3.84.29,5.5.81h6.69v33.23-.03.16c0,4.15-5.46,7.52-12.2,7.52s-12.2-3.37-12.2-7.52v-.12h0c-.23-2.13,0-.23.01-.34v-32.91h6.68c1.65-.52,3.52-.81,5.5-.81Z"/>
      <path class="cls-32" d="M170.45,171.23c-6.72,0-12.2-3.38-12.2-7.52s5.47-7.52,12.2-7.52,12.2,3.38,12.2,7.52-5.48,7.52-12.2,7.52Z"/>
      <path class="cls-34" d="M174.49,166.48v-46.3l2.7-1.6v47.75c0,1.56-2.71,1.56-2.7.15Z"/>
      <path class="cls-34" d="M169.16,163.51v-46.3l2.7-1.6v47.75c-.01,1.56-2.71,1.56-2.7.15Z"/>
      <path class="cls-34" d="M163.82,160.55v-46.3l2.7-1.6v47.75c0,1.56-2.71,1.56-2.7.15Z"/>
      <path class="cls-23" d="M236.65,189.6c.35,3.32-3.81,5.22-1.8,6.61,3.27,5.42,11.97-.05,11.49-1.76-1.27-3.38-1.66-3.68-1.92-5.58l-7.77.72Z"/>
      <path class="cls-26" d="M211.52,70.29c-8.81,8.65-17.1,11.89-21.14,12.77-2.72.59-4.34-5.32-1.73-9.35,6.91-4.71,10.99-10.13,14.82-15.34,8.29-11.27,11.92-5.45,14.13-2.54,2.21,2.91,2.22,8.23-6.07,14.47Z"/>
      <path class="cls-42" d="M233.4,40.73l-.11.27.11-.27Z"/>
      <path class="cls-23" d="M223.9,201.68s-1.87,1.29.37,3.1c.72.57,4.2,1.71,8.29.28,6.04-1.92,7.08-3.9,8.56-4.13,1.48-.22,5.56-2.14,6.17-3.65.31-.81-.79-3.61-.79-3.61-7.64,4.15-14.47,6.24-22.6,8.02h0Z"/>
      <path class="cls-16" d="M235.14,193.65c-3.11,2.17-3.74,3.14-6.17,4.62-.89.51-5.3,2.88-5.47,3.81-.35,1.92,6.51,2.72,9.32,1.5,2.67-1.16,5-4.18,7.49-4.58,3.97-.63,6.55-2.87,6.65-3.79.2-1.81-1.12-3.7-2.15-4.32.03,2-1.14,3.66-2.98,4.07-2.32.5-6.04-.38-6.7-1.3h0Z"/>
      <path class="cls-23" d="M235.54,196.5c-1.7-2.24-2.96-1.19-2.96-1.19v-.03l.26-.46c.24-.43.58-.72,1-.85.43-.13.83-.07,1.19.17.3.22.63.51.96.92.96,1.19.91,3.23-.46,1.43h0Z"/>
      <path class="cls-23" d="M234.39,197.63c-1.7-2.24-2.96-1.19-2.96-1.19v-.03l.27-.46c.24-.43.57-.72,1-.85.43-.13.83-.07,1.19.18.3.22.62.51.96.92.96,1.18.91,3.22-.46,1.43h0Z"/>
      <path class="cls-23" d="M233.1,198.78c-1.44-2.46-2.79-1.57-2.79-1.57v-.03l.31-.43c.28-.4.64-.65,1.07-.73.43-.08.82.04,1.14.33.27.25.56.59.85,1.05.82,1.32.56,3.35-.6,1.37h0Z"/>
      <path class="cls-50" d="M164.68,82.61c-5.12-1.16-4.73-9.66-1.42-9.34,4.44.43,9.64.15,14.52-.13,4.56-.26,8.84-.52,11.96-.21,3.45.63,6.3,6.78,1.11,9.9-6.8,2.73-26.18-.23-26.18-.23h0Z"/>
      <path class="cls-25" d="M163.9,73.77c1.58,0,3.04,1.85,3.26,4.13.22,2.28-.88,4.13-2.46,4.13s-3.04-1.85-3.26-4.13c-.22-2.28.88-4.13,2.46-4.13Z"/>
      <path class="cls-3" d="M162.76,80.06c1.16.27,3.89-2.08,2.48-3.97-.77-1.23-3.12-4.87-3.39-5.17-.46-.49-.77-.77-1.3-1.21-.72-.62-1.1-.72-2.05-.83-.79-.13-3.06-.58-3.78-.64-.38,0-.79,0-1.22-.01-1.04-.02-2.15-.04-2.98.16-.04.26,0,.78.27.98-.46.1-1.28.07-1.26.4.08.94,1.1,1.15,1.1,1.15h-.53c-.08,1.01.58,1.42,1.07,1.63.48.2,2.15.52,2.65.7,1.2.45,3.97,1.48,1.07.64-1.26-.38-3.12-.63-2.86.04.46,1.16,1.53.8,2.75,1.3,1.08.45,3.31,1.73,4.13,2.69,1.77,2.07,2.25,1.76,3.85,2.13h0Z"/>
      <path class="cls-52" d="M160.89,71.16c-.95-.24-1.71-.97-2.66-1.21-1.23-.31-1.99-.19-3.21-.5-.14,1,.73,2.12,3.03,2.46,1.25.82,1.67,4.62,3.68,2.61.95-1.32.51-2.29-.84-3.37h0Z"/>
      <path class="cls-23" d="M213.68,178.24c-.36,1.9-4.37,4.84-5.76,5.62-5.14,2.91,13.15,6.54,13.7-.45.14-1.74-.36-2.45-.21-4.07-.03-.25-.06-.21-.07-.47l-7.66-.63h0Z"/>
      <path class="cls-23" d="M199.67,188.07s-1.98,1.13.11,3.12c.67.64,4.04,2.06,8.24.98,6.18-1.4,7.4-3.29,8.88-3.39,1.49-.09,5.73-1.66,6.46-3.12.38-.78-.48-3.67-.48-3.67-7.97,3.49-14.95,4.99-23.21,6.08Z"/>
      <path class="cls-16" d="M211.56,181.02c-3.28,1.9-4,2.81-6.54,4.07-.93.43-5.52,2.42-5.77,3.33-.52,1.88,6.25,3.26,9.16,2.28,2.75-.93,5.35-3.74,7.85-3.92,4.01-.29,6.77-2.3,6.95-3.21.35-1.79-.8-3.79-1.77-4.49-.14,1.99-1.45,3.55-3.32,3.79-2.35.31-5.99-.89-6.56-1.86h0Z"/>
      <path class="cls-23" d="M211.71,183.89c-1.5-2.38-2.84-1.44-2.84-1.44v-.03l.3-.43c.27-.41.63-.66,1.07-.76.44-.1.84,0,1.17.27.28.24.57.56.88,1,.86,1.26.63,3.29-.58,1.38h0Z"/>
      <path class="cls-23" d="M210.46,184.92c-1.5-2.38-2.84-1.44-2.84-1.44v-.03l.3-.43c.27-.41.64-.66,1.07-.76.44-.1.84,0,1.17.27.28.24.57.57.88,1,.86,1.26.63,3.29-.58,1.38h0Z"/>
      <path class="cls-23" d="M209.08,185.96c-1.22-2.58-2.64-1.8-2.64-1.8v-.03l.34-.4c.31-.38.69-.58,1.14-.63.44-.04.82.11,1.12.43.25.27.51.63.76,1.12.7,1.38.27,3.39-.71,1.32h0Z"/>
      <path class="cls-27" d="M221.39,148.58c-1.61-2.8-.7-3.49-1.98-6.63-.94-2.31-11.22.53-9.38,10.48,2.4,10.01,2.26,15.85,1.85,25.71,2.34,2.47,6.72,3.01,10.41,1.86.1-5.45,1.74-26.72-.91-31.42h0Z"/>
      <path class="cls-27" d="M241.87,157.96c-3.85-5.19-15.61-9.79-11.93,2.06,3.56,9.65,4.29,21,5.04,30.84,2.61,2.18,8.36,3.38,11.52.29-.54-5.43-1.46-28.84-4.63-33.2Z"/>
      <path class="cls-31" d="M223.51,147.88l.02-8.14c-.93,2.59-1.93,4.83-2.17,6.93l2.15,1.21h0ZM209.16,139.78c.31-5.2.62-11.24.63-13.74,0-2.52.08-4.37.2-6.62-1.13-1.54-1.62-3.13-1.21-4.65,1.07-6.16,1.13-32.61.48-36-.18-.96-.58-2.98-.97-5.51-7.55,6.44-14.36,9.03-17.89,9.79-.08.01-.16.03-.24.03-2.15.67-5.22.91-8.49.91-7.91,0-16.98-1.39-16.98-1.39-1.63-.37-2.71-1.49-3.31-2.83-.72-.17-1.32-.52-2.46-1.85-.82-.96-3.05-2.24-4.13-2.69-1.22-.51-2.29-.14-2.75-1.3-.12-.31.2-.42.69-.42.6,0,1.47.17,2.16.38.8.23,1.17.32,1.26.32.24,0-1.46-.63-2.33-.96-.5-.19-2.17-.51-2.65-.7-.49-.2-1.15-.62-1.07-1.62h.53s-1.01-.22-1.1-1.15c-.03-.33.8-.3,1.26-.4-.26-.2-.31-.72-.27-.98.58-.15,1.28-.17,2.01-.17.32,0,.65,0,.97.01.32,0,.63.01.93.01h.29c.72.06,2.99.5,3.78.64.95.1,1.33.21,2.05.83.52.44.84.72,1.3,1.21.14.15.86,1.22,1.61,2.38,1.59.15,3.28.2,5.02.2,3.05,0,6.25-.17,9.31-.36,3.07-.17,6.01-.36,8.55-.36,1.23,0,2.39.04,3.4.15h0c6.25-4.52,10.1-9.64,13.73-14.57,3.01-4.1,5.41-5.93,7.35-6.48L121.49,1.42l-.15,88.73,42.57,24.05,2.62-1.55v3.03l2.67,1.51,2.67-1.57v3.08l2.64,1.49h0l2.7-1.6v3.13l31.96,18.06h0Z"/>
      <path class="cls-33" d="M177.2,121.72v-3.14l-2.7,1.6h0s2.7,1.54,2.7,1.54Z"/>
      <path class="cls-33" d="M171.86,118.7v-3.08l-2.66,1.57,2.66,1.51Z"/>
      <path class="cls-33" d="M166.52,115.68v-3.03l-2.62,1.55,2.62,1.48Z"/>
      <path class="cls-14" d="M221.36,146.67c.24-2.1,1.24-4.34,2.17-6.93l.03-12.05c-5.87-1.9-11.17-4.98-13.57-8.26-.11,2.24-.2,4.1-.2,6.62,0,2.5-.32,8.53-.63,13.74l4.74,2.68c1.34-.85,2.75-1.26,3.82-1.26.86,0,1.49.26,1.69.75.81,1.99.74,2.99.99,4.18l.96.54h0Z"/>
      <path class="cls-5" d="M190.14,83.09c.08,0,.16-.02.24-.03,3.54-.77,10.34-3.35,17.89-9.79-.98-6.44-1.82-16.24,1.42-20.72.18-.24.6-.44,1.2-.61l-.08-.05c-1.94.54-4.34,2.38-7.35,6.48-3.62,4.93-7.47,10.05-13.73,14.57,3.45.63,6.3,6.78,1.11,9.9-.23.09-.46.17-.71.25h0Z"/>
      <path class="cls-30" d="M223.56,127.69l.16-68.49-12.82-7.26c-.6.17-1.03.38-1.2.61-3.23,4.47-2.39,14.28-1.42,20.72.39,2.53.79,4.55.97,5.51.65,3.4.59,29.85-.48,36-.4,1.52.08,3.1,1.21,4.65,2.4,3.28,7.7,6.37,13.57,8.26h0Z"/>
      <path class="cls-19" d="M181.66,84c3.27,0,6.34-.24,8.49-.91.25-.08.49-.16.71-.25,5.19-3.12,2.34-9.27-1.11-9.9h0c-1.02-.1-2.17-.15-3.4-.15-2.55,0-5.49.17-8.55.36-3.07.17-6.26.36-9.31.36-1.73,0-3.43-.06-5.02-.2.1.16.2.32.31.47h.13c1.58,0,3.04,1.85,3.26,4.13.22,2.28-.88,4.13-2.46,4.13-1.07,0-2.09-.86-2.7-2.12-.22-.04-.43-.08-.63-.13.6,1.35,1.67,2.46,3.31,2.83,0,0,9.07,1.39,16.98,1.39h-.01Z"/>
      <path class="cls-17" d="M164.71,82.02c1.58,0,2.68-1.85,2.46-4.13-.22-2.28-1.68-4.13-3.26-4.13h-.13c.59.91,1.16,1.81,1.47,2.31,1.34,1.79-1.03,3.99-2.27,3.99-.07,0-.13,0-.2-.02-.29-.07-.53-.11-.76-.15.61,1.26,1.63,2.12,2.7,2.12h0Z"/>
      <path class="cls-49" d="M162.97,80.08c.97,0,2.63-1.35,2.67-2.79v-.1c0-.37-.13-.75-.39-1.12-.32-.5-.88-1.39-1.47-2.31-.11-.16-.2-.32-.31-.47-.75-1.16-1.47-2.23-1.61-2.38-.46-.49-.77-.77-1.3-1.21-.69-.59-1.06-.71-1.93-.82v1.19c.77.31,1.45.87,2.27,1.07,1.35,1.09,1.79,2.06.84,3.37-.41.41-.76.58-1.05.58-.92,0-1.4-1.58-2.06-2.56v5.09c.11.1.2.2.29.29,1.14,1.33,1.75,1.67,2.46,1.85.2.05.4.08.63.13.23.04.48.08.76.15.06.01.13.02.2.02h0ZM158.62,68.89h-.12c-.79-.15-3.06-.59-3.78-.66h-.29c-.29,0-.61,0-.93-.01-.32,0-.65-.01-.97-.01-.72,0-1.44.03-2.01.17-.04.26,0,.78.27.98-.46.1-1.28.07-1.26.4.08.94,1.1,1.15,1.1,1.15h-.53c-.08,1.01.58,1.42,1.07,1.63.48.2,2.15.52,2.65.7.87.33,2.57.96,2.33.96-.09,0-.46-.09-1.26-.32-.69-.21-1.56-.38-2.16-.38-.5,0-.81.12-.69.42.46,1.16,1.53.8,2.75,1.3.97.4,2.87,1.48,3.84,2.39v-5.09c-.18-.26-.36-.49-.57-.63-2.3-.33-3.17-1.46-3.03-2.46,1.23.31,1.99.19,3.21.5.13.03.27.08.39.13v-1.19h0Z"/>
      <path class="cls-29" d="M160.68,75.11c.3,0,.65-.17,1.05-.58.95-1.32.51-2.29-.84-3.37-.95-.24-1.71-.97-2.66-1.21-1.23-.31-1.99-.19-3.21-.49-.14,1,.73,2.12,3.03,2.46,1,.65,1.46,3.19,2.62,3.19h0Z"/>
      <path class="cls-14" d="M220.4,146.13c-.25-1.18-.18-2.19-.99-4.18-.2-.5-.83-.75-1.69-.75-1.07,0-2.48.4-3.82,1.26l6.5,3.67Z"/>
      <path class="cls-4" d="M223.57,147.9l2.74-1.43-102.24-57.75-2.74,1.42,102.23,57.76Z"/>
      <path class="cls-47" d="M124.32,88.59L124.29.01l-2.74,1.43-.21,88.71h0s0,0,0,0l2.98-1.56Z"/>
      <path class="cls-4" d="M223.72,59.18l2.74-1.43L124.22,0l-2.73,1.42,102.23,57.76Z"/>
      <path class="cls-23" d="M226.48,146.32V57.75h-.01l-2.74,1.43q-88.67-50.1,0,0l-.22,88.7h0,0l2.98-1.56Z"/>
      <path class="cls-16" d="M157.65,30l.06-1.3-27.16-15.34-.03.85,27.14,15.33-.02.47h0Z"/>
      <path class="cls-16" d="M157.65,32.37l.06-1.3-27.16-15.34-.03.85,27.14,15.33-.02.47h0Z"/>
      <path class="cls-16" d="M157.65,34.74l.06-1.31-27.16-15.34-.03.84,27.14,15.34-.02.47h0Z"/>
      <path class="cls-16" d="M157.65,37.11l.06-1.31-27.16-15.34-.03.84,27.14,15.34-.02.47h0Z"/>
      <path class="cls-16" d="M157.65,39.48l.06-1.31-27.16-15.34-.03.84,27.14,15.34-.02.46h0Z"/>
      <path class="cls-16" d="M157.65,41.84l.06-1.3-27.16-15.34-.03.84,27.14,15.34-.02.46h0Z"/>
      <path class="cls-16" d="M157.65,44.21l.06-1.3-27.16-15.34-.03.85,27.14,15.33-.02.47h0Z"/>
      <path class="cls-16" d="M157.65,46.58l.06-1.3-27.16-15.34-.03.85,27.14,15.33-.02.47h0Z"/>
      <path class="cls-16" d="M157.65,48.96l.06-1.3-27.16-15.34-.03.85,27.14,15.33-.02.47h0Z"/>
      <path class="cls-16" d="M157.65,51.33l.06-1.3-17.36-9.73-.03.84,17.35,9.72-.02.47h0Z"/>
      <path class="cls-16" d="M157.65,53.7l.06-1.31-27.16-15.34-.03.84,27.14,15.34-.02.47h0Z"/>
      <path class="cls-16" d="M157.65,56.07l.06-1.31-27.16-15.34-.03.84,27.14,15.34-.02.47h0Z"/>
      <path class="cls-16" d="M157.65,58.44l.06-1.31-27.16-15.34-.03.84,27.14,15.34-.02.46h0Z"/>
      <path class="cls-16" d="M157.65,60.81l.06-1.31-27.16-15.34-.03.85,27.14,15.33-.02.47h0Z"/>
      <path class="cls-16" d="M157.65,63.17l.06-1.3-27.16-15.34-.03.85,27.14,15.33-.02.47h0Z"/>
      <path class="cls-16" d="M157.65,65.54l.06-1.3-27.16-15.34-.03.85,27.14,15.33-.02.47h0Z"/>
      <path class="cls-16" d="M157.65,67.91l.06-1.3-10.32-5.69-.03.85,10.31,5.67-.02.47h0Z"/>
      <path class="cls-16" d="M198.13,71.11v.17c-.03.3,0,.61.1.95l-6.43-3.65v.58l7.43,4.22-.32-.7c-.22-.49-.32-.96-.3-1.37l.04-.27.04-.18-6.89-3.91v.57l6.33,3.59h0ZM191.81,68.58l-6.43-3.65c.1-.17.17-.36.21-.57l.43-.13,5.78,3.28v-.57l-5.7-3.23-.1.02c-.25.06-.5.13-.72.21l-.15.05v.15c-.05.29-.14.53-.3.7l-.22.23,7.2,4.09v-.58h0Z"/>
      <path class="cls-16" d="M200.19,77.3c-.04.15-.07.31-.08.48,0,.17,0,.36.03.55l-8.32-4.72v.57l9.13,5.18-.19-.61c-.11-.34-.15-.66-.14-.95,0-.2.05-.37.11-.52l.09-.2-.2-.11-8.8-4.99v.57l8.37,4.75h0ZM191.82,73.6l-8.37-4.75c.06-.18.11-.38.11-.6v-.4s8.25,4.69,8.25,4.69v-.57l-9.02-5.12.16.58c.08.28.11.55.1.79-.01.24-.06.44-.15.61l-.12.22,9.03,5.12v-.57h0Z"/>
      <path class="cls-16" d="M198.49,81.42c-.12.23-.19.5-.2.81v.13l-6.51-3.69v.57l7.14,4.05-.09-.52c-.03-.18-.04-.36-.03-.52.01-.31.1-.57.26-.76l.19-.23-7.46-4.23v.58l6.72,3.81h0ZM191.76,78.68l-6.04-3.43c-.22-.31-.42-.62-.62-.93,0-.17-.02-.34-.06-.52l6.72,3.81v-.58l-7.59-4.31.24.64c.13.36.2.7.2,1.02v.08l.04.06c.22.35.46.7.7,1.05l.08.08,6.34,3.6v-.57h0Z"/>
      <path class="cls-16" d="M197.18,93.7c0,.2.04.4.08.62l-6.37-3.61v.57l7.31,4.15-.27-.67c-.17-.42-.25-.83-.25-1.19v-.05l.06-.35-.39-.1c-.12-.17-.24-.34-.36-.51l-.08-.07-6.01-3.41v.57l5.71,3.24c.2.27.39.54.57.81h0ZM190.89,90.7l-6.37-3.61c.07-.15.12-.31.15-.5h.01v-.24s.01-.22.01-.22l6.2,3.51v-.57l-6.86-3.89.11.54c.03.19.06.37.06.54v.08c-.01.28-.09.53-.22.71l-.15.22,7.07,4.02v-.57h0Z"/>
      <path class="cls-16" d="M199.24,99.58l-.06.42c0,.2,0,.41.04.63l-8.34-4.73v.57l9.18,5.21-.22-.63c-.13-.37-.18-.72-.17-1.03,0-.17.04-.33.09-.47l.08-.2-8.97-5.09v.57l8.36,4.74h0ZM190.88,95.9l-8.36-4.74c.06-.18.11-.38.11-.6v-.4l8.24,4.69v-.57l-8.99-5.1.15.58c.07.28.11.54.09.79-.01.24-.06.44-.15.61l-.11.22.21.12,8.8,4.99v-.57h0Z"/>
      <path class="cls-16" d="M197.34,104.35c-.16.06-.33.11-.5.15l-6.06-3.44v.57l5.99,3.4.1-.02c.16-.04.32-.09.48-.14l.08.45.03.11.59.29-.13-.52c-.06-.26-.09-.5-.08-.73.01-.25.07-.47.18-.65l.13-.22-7.36-4.18v.58l6.69,3.79c-.07.17-.11.35-.13.54h-.01ZM190.79,101.07l-6.69-3.79c.04-.15.07-.31.08-.48,0-.18,0-.36-.03-.55l6.64,3.76v-.58l-7.44-4.22.19.61c.11.33.15.66.14.95-.01.2-.05.38-.11.52l-.09.2,7.31,4.15v-.57Z"/>
      <path class="cls-16" d="M201.44,55.63c-.06.18-.11.38-.11.6v.4s-8.41-4.78-8.41-4.78v.57l9.16,5.2-.15-.58c-.08-.29-.11-.55-.1-.79.01-.24.06-.44.15-.61l.12-.22-.21-.12-8.98-5.09v.57l8.53,4.84h0ZM192.91,51.85l-8.53-4.84c.06-.18.1-.38.11-.6v-.4l8.41,4.78v-.57l-9.16-5.2.15.58c.07.28.11.54.09.79-.01.24-.06.44-.15.61l-.12.22.21.12,8.98,5.09v-.57h0Z"/>
      <path class="cls-16" d="M198.35,59.79h0l-5.67-3.21v.57l5.58,3.17h.09s.31-.07.31-.07h0l.22-.04-.02-.44c.01-.34.11-.61.29-.8l.21-.23-6.68-3.79v.57l5.92,3.35c-.15.24-.22.54-.24.86v.05h-.01ZM192.68,56.58l-5.82-3.3v-.17c.03-.29,0-.61-.09-.94l5.92,3.35v-.57l-6.92-3.93.32.7c.22.48.32.96.3,1.37l-.04.27-.04.18,6.39,3.62v-.57h0Z"/>
      <path class="cls-16" d="M196.09,115.8v.19c-.03.29,0,.59.09.91l-6.27-3.56v.58l7.26,4.11-.3-.69c-.21-.47-.31-.93-.29-1.33l.04-.29.04-.18-6.74-3.83v.57l6.18,3.51h-.01ZM189.9,113.35l-6.27-3.56c.11-.2.19-.44.22-.7l.3-.07,5.75,3.26v-.57l-5.67-3.21-.09.02c-.21.04-.41.08-.6.14l-.18.05-.02.3c-.03.29-.12.53-.27.7l-.2.23,7.02,3.99v-.58h0Z"/>
      <path class="cls-16" d="M198.18,121.84c-.07.18-.11.38-.11.6v.4s-8.31-4.73-8.31-4.73v.57l9.07,5.15-.15-.58c-.08-.29-.11-.55-.1-.79.01-.24.06-.44.15-.61l.12-.22-9.09-5.16v.57l8.43,4.78h0ZM189.75,118.11l-8.43-4.78c.09-.2.14-.44.15-.7v-.26l8.28,4.7v-.57l-8.96-5.08.12.55c.05.22.07.45.06.65-.01.27-.08.51-.2.68l-.15.22.23.13,8.89,5.05v-.57h0Z"/>
      <path class="cls-16" d="M204.76,60.51c-.28.58-.66,1.07-1.13,1.49-.06-.45-.22-.93-.46-1.39v2.33l.37-.24c.82-.59,1.43-1.37,1.82-2.32l.15-.36h-.39c-.37.01-.75-.1-1.14-.32-.28-.16-.56-.37-.81-.61v.66c.18.15.37.27.56.38.35.2.69.33,1.02.38h0ZM203.17,105.21v-1.42h.04l.38-.1-.08.38c-.08.4-.2.78-.34,1.14h0ZM203.17,100.5v-1.67c.13.44.23.88.32,1.3l.18.98-.49-.61h0ZM203.17,60.61c-.35-.67-.87-1.29-1.49-1.75v.65c.89.79,1.51,1.99,1.46,2.94l-.03.52.05-.03v-2.33h0ZM201.69,58.67v-.91l.03-.05.23-.47.22.48c.25.52.6,1,1,1.39v.66c-.48-.38-.91-.88-1.23-1.42-.08.12-.16.23-.25.34h0ZM203.17,98.83v1.67l-.13-.16c-.36-.45-.79-.82-1.23-1.07-.04-.02-.08-.05-.13-.07v-.55c.13.05.25.11.37.18.25.15.5.32.74.53-.18-.67-.41-1.36-.69-2.06-.11.14-.25.25-.41.33v-.63c.09-.1.16-.22.2-.35l.21-.61.26.59c.33.75.6,1.48.81,2.2h0ZM203.17,103.78v1.42c-.18.46-.41.88-.7,1.25l-.31.4-.13-.5c-.08-.29-.2-.56-.34-.84v-.93c.27.36.5.75.66,1.15.26-.42.46-.91.59-1.44h0c-.39,0-.81-.12-1.24-.34v-.58s.1.06.15.08c.48.27.96.39,1.34.31h0ZM201.69,63.63v-.08l.1.05-.1.03ZM201.69,58.87l-.11-.08s.07-.08.11-.12v-.91c-.17.34-.39.64-.67.89l-.25.22.29.17c.22.13.43.29.63.47v-.65h0ZM201.69,63.55v.08l-.56.14c-.33.08-.68.15-1.06.21v-.5c.11-.02.22-.03.34-.06-.11-.08-.22-.17-.34-.26v-.69c.29.3.61.56.96.75l.16.08.51.25h0ZM201.69,97v.63c-.43.22-1.01.23-1.62,0v-.54c.67.31,1.28.27,1.62-.09h0ZM201.69,98.64v.55c-.63-.32-1.21-.36-1.59-.1l-.04.03v-.84c.02.08.04.15.06.23.44-.17.99-.12,1.56.12h0ZM201.69,103.38v.58l-.11-.06c-.57-.32-1.1-.81-1.52-1.39h0v-.94l.14.24c.37.64.9,1.2,1.48,1.57h0ZM201.69,104.6c-.41-.54-.91-1-1.47-1.31l-.16-.08v.57c.65.4,1.24,1.05,1.62,1.75v-.93h0ZM200.06,108.24v-.27l.27.17-.27.1h0ZM200.06,92.86v-.31l.31.45-.31-.14ZM200.06,62.46v.69c-.36-.31-.69-.69-.96-1.09v-1.07c.21.52.55,1.04.96,1.47h0ZM200.06,63.47v.5c-.2.03-.42.06-.65.08-.1.01-.2.02-.31.03v-.5l.25-.03c.25-.03.48-.06.71-.09h0ZM200.06,92.55v.31l-.51-.23c-.15-.07-.31-.13-.46-.16v-1.3c.26.36.52.72.77,1.09l.19.28h0ZM200.06,97.09v.54c-.08-.03-.17-.07-.25-.11.1.26.18.52.25.77v.84l-.27.19-.08-.37c-.13-.59-.34-1.21-.61-1.85v-.63l.35.26.39.25c.08.04.15.08.22.12h0ZM200.06,101.58v.94c-.08.19-.17.38-.27.56l.27.13v.57l-.09-.06c-.22-.12-.44-.22-.64-.27l-.23-.06v-.19l.1-.13c.25-.34.43-.73.54-1.19l.15-.59.17.29h0ZM200.06,107.97v.27l-.2.08c-.24.09-.49.18-.76.24v-.52l.12-.03s-.08-.06-.12-.09v-.68c.25.24.51.46.8.63l.16.1h0ZM199.1,60.99v1.07c-.37-.56-.62-1.18-.72-1.76-.23.04-.47.07-.73.1-.27.03-.56.06-.87.07v-.5c.29-.01.56-.04.81-.07.35-.03.66-.08.96-.15l.29-.06v.29c.03.32.11.67.25,1h0ZM199.1,63.59v.5c-.64.06-1.34.08-2.13.08h-.18v-.49h.18c.79,0,1.49-.03,2.13-.08h0ZM199.1,91.18v1.3c-.13-.03-.26-.05-.39-.05-.63,0-1,.4-1.03,1.09l-.04.87-.43-.63c-.14-.21-.29-.41-.43-.62v-.85c.17.22.33.45.49.68.21-.64.73-1.03,1.44-1.03l.33.03c-.73-1.02-1.51-2.03-2.26-2.94v-.79c.75.91,1.55,1.91,2.31,2.96h0ZM199.1,96.46v.63l-.03-.08-.37-.85.4.29h0ZM199.1,103.19v.19l-.12-.03.12-.16h0ZM199.1,107.24v.68c-.95-.79-1.64-1.97-1.75-3.04-.18.06-.36.11-.56.16v-.52c.25-.06.49-.14.71-.22l.35-.13v.37c-.03.88.49,1.93,1.26,2.71h0ZM199.1,108.05v.52c-.68.19-1.45.31-2.31.39v-.5c.88-.08,1.65-.22,2.31-.41h0ZM196.78,59.96v.5c-.41.02-.85.03-1.33.03-.76,0-1.56-.03-2.29-.06l.35.38c.84.93,1.7,1.88,2.54,2.84.24,0,.48,0,.72.01v.49c-.28,0-.56,0-.85-.01h-.11l-.07-.08c-.87-.99-1.75-1.97-2.61-2.92l-.65-.72v-.53h.1c.88.05,1.9.1,2.86.1.48,0,.92,0,1.33-.03h0ZM196.78,88.23v.79c-.74-.91-1.46-1.74-2.06-2.42-.74-.02-1.49-.06-2.24-.1v-.5c.78.04,1.57.08,2.36.1h.11l.07.08c.51.58,1.11,1.28,1.75,2.04h0ZM196.78,92.28c-1.26-1.69-2.74-3.4-4.29-5.15v.75c1.58,1.78,3.07,3.53,4.29,5.25v-.85h0ZM196.78,104.52v.52c-.93.22-2.08.33-3.52.33-.25,0-.51,0-.76,0v-.5c.26,0,.51,0,.76,0,1.47,0,2.62-.11,3.52-.34h0ZM196.78,108.45v.5c-.64.06-1.34.08-2.11.08-.32,0-.63,0-.95-.01h-.11l-.07-.08c-.35-.4-.7-.8-1.05-1.19v-.75c.45.5.9,1.01,1.36,1.53.27,0,.55,0,.83,0,.77,0,1.47-.03,2.11-.08h0ZM192.49,64l.5.03-.5-.56v.53ZM192.49,59.9v.53l-.5-.56.5.03h0ZM192.49,63.47v.53h-.1c-.68-.04-1.4-.07-2.11-.09v-.49c.51.01,1.03.03,1.54.06l-.53-.58c-.34-.37-.67-.75-1.02-1.12v-.75c.46.52.93,1.03,1.39,1.54l.82.91h0ZM192.49,86v.49l-.41-.02h-.18l.6.66v.75c-.45-.51-.9-1.02-1.37-1.53l-.4-.45,1.38.07.39.02h0ZM192.49,104.85v.5c-.51,0-1.03-.03-1.54-.06l.35.39c.39.43.79.87,1.19,1.32v.75c-.52-.59-1.04-1.17-1.56-1.74l-.66-.72v-.53h.1c.69.04,1.4.08,2.11.09h0ZM190.28,108.87v-.53l.5.56-.5-.03h0ZM190.28,82.78v-.5l.43.02h.19s-.62-.67-.62-.67v-.75c.46.52.93,1.03,1.4,1.55l.41.45-1.4-.08-.4-.02h0ZM190.28,61.01v.75c-.45-.5-.91-1.01-1.35-1.53-.31,0-.62-.01-.92-.01h-.14v-.49h.14c.34,0,.69,0,1.05.01h.11l.07.08c.35.4.7.79,1.05,1.19h0ZM190.28,63.41v.49c-.25,0-.5,0-.75,0-.62,0-1.17.02-1.67.06v-.5c.51-.03,1.06-.06,1.67-.06.25,0,.5,0,.75,0h0ZM190.28,80.87v.75c-.84-.94-1.65-1.87-2.41-2.79v-.79c.76.93,1.57,1.87,2.41,2.82h0ZM190.28,82.28v.5c-.77-.04-1.56-.08-2.34-.1h-.08v-.73l.2.23c.74.02,1.48.06,2.22.09h0ZM190.28,104.76v.53l-.5-.55.5.03h0ZM190.28,108.34v.53h-.1c-.75-.04-1.54-.08-2.31-.09v-.5c.58,0,1.17.03,1.75.06l-.64-.7-1.11-1.23v-.75c.49.55.99,1.1,1.48,1.65l.94,1.04h0ZM187.86,59.73v.49c-1.14,0-2.1.07-2.93.2-.34.06-.67.13-.98.2v-.52c.29-.07.59-.13.9-.18.86-.13,1.84-.2,3-.21h0ZM187.86,63.46v.5c-.39.03-.74.07-1.07.12-.5.08-.95.19-1.35.33l-.38.13.05-.4v-.1c.05-.84-.42-1.87-1.15-2.65v-.7c.95.84,1.62,2.08,1.66,3.14.34-.1.7-.17,1.09-.24.35-.06.74-.1,1.15-.13h0ZM187.86,78.06v.79c-1.07-1.28-2.04-2.54-2.87-3.77-.18.5-.55.83-1.04.95v-.51c.39-.14.62-.49.65-1.02v-.93s.46.7.46.7c.78,1.23,1.73,2.5,2.79,3.79h0ZM187.86,81.95c-1.21-1.38-2.62-3.05-3.9-4.83v.84c1.28,1.72,2.65,3.33,3.8,4.63l.07.08h.04v-.73h0ZM187.86,105.66v.75c-.39-.43-.76-.86-1.15-1.3-.27,0-.54,0-.81,0-.71,0-1.35.02-1.94.07v-.5c.59-.05,1.23-.07,1.94-.07.31,0,.62,0,.93.01h.1l.07.08c.28.32.56.64.84.96h.01ZM187.86,108.28v.5h-.55c-1.4,0-2.48.1-3.35.31v-.51c.9-.19,1.98-.29,3.35-.29h.55ZM183.96,65.23v-.08h.05s-.05.07-.05.07h0ZM183.96,60.12v.52h-.05s.05.06.05.06v.7c-.22-.24-.47-.45-.74-.63l-.25-.17v-.17l.32-.1c.22-.07.43-.13.67-.19h0ZM183.96,65.16v.08l-.21.24c-.29.32-.49.7-.64,1.14l-.13.42v-1.34c.05-.09.11-.17.17-.26l-.17-.08v-.56h0c.22.13.43.22.64.28l.33.09h0ZM183.96,75.5v.51c-.23.06-.48.06-.76.02.25.36.5.73.76,1.09v.84c-.34-.45-.67-.91-.98-1.37v-1.13c.2.07.41.1.59.1.15,0,.27-.02.39-.06h0ZM183.96,104.67v.5c-.34.03-.67.06-.98.11v-.5c.31-.04.64-.08.98-.11h0ZM183.96,108.56v.51c-.1.02-.19.04-.27.07l-.33.09v-.34c.03-.47-.11-1.01-.37-1.52v-.96c.5.68.82,1.45.88,2.17l.1-.02h0ZM182.97,71.39v-2.06.02c.1.59.27,1.22.52,1.86l.36.93-.76-.66s-.08-.07-.12-.1h0ZM182.97,60.41v.17l-.17-.12.17-.06h0ZM182.97,64.79v.56l-.24-.12c-.53-.3-1.03-.75-1.43-1.26v-.91c.4.71,1,1.35,1.67,1.73h0ZM182.97,65.69c-.05.09-.1.18-.15.27-.41-.62-.94-1.16-1.52-1.52v.61c.54.4,1.02.97,1.34,1.6l.27.53.05-.15v-1.34h0ZM182.97,69.33v2.06c-.18-.14-.35-.26-.53-.36-.41-.23-.81-.33-1.14-.33v-.5c.43,0,.91.12,1.39.39l.07.04c-.09-.3-.17-.59-.22-.89-.36.12-.79.1-1.23-.04v-.53c.51.2.97.2,1.29,0l.32-.2.06.35h0ZM182.97,75.46v1.13c-.2-.29-.4-.59-.59-.88l-.47-.72.79.36c.09.04.18.08.27.11h0ZM182.97,104.77v.5c-.32.05-.63.1-.93.17.35.28.66.61.93.98v.96c-.36-.72-.95-1.39-1.64-1.83h-.03v-.43l.09-.03c.48-.14,1-.24,1.58-.32h0ZM181.31,110.67v-.95l.25.12.34.14-.25.26c-.13.13-.24.27-.34.43h0ZM181.31,63.06v.91c-.13-.16-.25-.33-.35-.51v-1.21c.08.27.2.54.35.81h0ZM181.31,64.44v.61c-.11-.08-.23-.16-.35-.23v-.56c.06.03.13.06.2.1.05.03.1.06.15.09h0ZM181.31,69.17v.53c-.11-.03-.23-.08-.35-.13v-.56c.12.06.23.12.35.17h0ZM181.31,70.2v.5c-.13,0-.25.03-.35.06v-.52c.11-.02.22-.03.35-.04h0ZM181.31,105.12v.41l-.35-.22v-.09l.35-.1h0ZM181.31,109.72v.95c-.09.14-.18.28-.25.43l-.11.22v-1.02l.11-.15-.08-.04h-.02v-.61c.09.06.18.12.27.17l.08.04h0ZM180.96,62.25v1.21c-.14-.22-.25-.46-.35-.7-.25.36-.45.75-.6,1.19.3.03.63.13.95.29v.56l-.05-.03c-.44-.24-.86-.36-1.23-.33l-.37.03.11-.36c.23-.79.6-1.49,1.09-2.06l.31-.36.13.45.02.08h0ZM180.96,69.01v.56c-.09-.04-.19-.09-.28-.15-.29-.16-.57-.37-.83-.61.12.56.28,1.14.48,1.74.18-.15.39-.26.62-.31v.52c-.21.08-.38.21-.49.41l-.26.48-.2-.52c-.4-1.06-.67-2.1-.81-3.09l-.13-.92.58.74c.36.47.81.86,1.27,1.12l.03.02h0ZM180.96,105.22v.09l-.1-.06.1-.03h0ZM180.96,109.51v.59c-1.05-.61-1.92-1.74-2.25-2.87-.29.33-.53.7-.72,1.11.34.04.72.18,1.08.38.69.39,1.32,1.02,1.77,1.76l.13-.18v1.03l-.12.25-.23-.47c-.4-.82-1.07-1.55-1.79-1.95-.39-.22-.76-.33-1.1-.33l-.48.03.14-.36c.29-.76.73-1.42,1.3-1.94l.35-.33.07.47c.15,1.03.91,2.17,1.86,2.82h0Z"/>
      <path class="cls-16" d="M202.52,123.53v-.17l.04.22-.04-.05h0ZM202.52,83.13v-.87c.32.4.59.84.77,1.3.29-.43.53-.93.69-1.48-.46.03-.96-.11-1.47-.4v-.59c.08.06.16.1.25.15.55.31,1.09.42,1.48.28l.43-.15-.1.44c-.22.95-.62,1.76-1.17,2.43l-.31.36-.13-.46c-.09-.35-.25-.69-.44-1.02h0ZM202.52,76.93v-.54c.15.06.32.13.48.22.36.2.7.47,1.02.79-.18-.83-.45-1.67-.82-2.56-.15.28-.39.49-.67.61v-.57c.21-.17.34-.44.38-.79l.09-.93.39.85c.69,1.51,1.12,2.9,1.3,4.27l.15,1.07-.6-.9c-.4-.59-.92-1.09-1.47-1.4-.08-.04-.16-.08-.23-.11h0ZM202.52,74.88v.57c-.41.17-.93.17-1.49-.03.09.28.18.56.24.82.37-.08.81-.03,1.26.14v.54c-.51-.24-.99-.29-1.33-.13l-.26.11v-2.08c.33.17.65.25.94.25.26,0,.48-.07.65-.21h0ZM202.52,81.09v.59h0c-.55-.31-1.06-.77-1.47-1.32-.03.08-.08.15-.12.22v-1.32l.27.44c.35.56.81,1.05,1.31,1.39h0ZM202.52,82.26c-.39-.49-.86-.91-1.36-1.19l-.23-.11v.56c.62.36,1.2.95,1.59,1.61v-.87h0ZM202.52,123.36v.17l-.59-.73c-.29-.38-.65-.69-1-.93v-.58h.02c.26.15.51.33.74.54-.17-.66-.4-1.35-.69-2.04-.02.03-.05.06-.08.09v-1.21l.06-.19.27.61c.53,1.21.91,2.39,1.12,3.51l.14.77h0ZM200.93,85.91v-.18l.18.13-.18.06h0ZM200.93,70.66v-.88c.13.18.25.37.37.55l.68,1.02-1.02-.68h-.03v-.02ZM200.93,69.77v.88l-.18-.1c-.28-.16-.55-.26-.81-.31v-.51c.13.02.27.05.41.1-.13-.2-.27-.39-.41-.58v-.84c.34.45.67.91.98,1.37h0ZM200.93,74.84v2.08h-.03s-.06-.29-.06-.29c-.1-.5-.27-1.04-.48-1.6l-.25-.66.67.38s.11.06.16.08h0ZM200.93,79.26v1.32c-.06.1-.12.2-.18.29l.18.09v.56h-.02c-.22-.13-.43-.23-.64-.29l-.32-.08v-.08l.2-.23c.27-.31.47-.67.61-1.07l.18-.5h0ZM200.93,85.72v.18l-.3.1c-.22.07-.45.14-.68.2v-.52h.06s-.06-.06-.06-.06v-.7c.22.24.48.46.74.64l.24.16h0ZM200.93,118.65v1.21c-.25.26-.59.41-.98.44v-.5c.41-.04.72-.27.84-.68l.14-.46h0ZM200.93,121.26v.59c-.08-.05-.16-.1-.23-.15-.26-.15-.51-.24-.75-.29v-.51c.32.05.65.17.98.36h0ZM199.95,68.4v.84c-2.04-2.82-4.55-5.61-6.81-8.11l-.44-.49v-.75l.82.91c2.11,2.34,4.46,4.94,6.43,7.59h0ZM199.95,69.74c-.1-.01-.2-.02-.29-.02-.6,0-1.07.27-1.32.75-1.56-2.19-3.59-4.5-5.63-6.76v.75c2.08,2.31,4.01,4.53,5.5,6.69l.34.49.11-.58c.11-.54.46-.84,1-.84.09,0,.19.01.29.03v-.51h0ZM199.95,81.06v.08h-.06s.06-.08.06-.08h0ZM199.95,84.92v.7c-.95-.83-1.61-2.06-1.67-3.12-1,.29-2.25.43-3.92.43-.54,0-1.09-.01-1.66-.03v-.5c.57.02,1.12.03,1.66.03,1.8,0,3.1-.16,4.08-.52l.36-.13-.03.47c-.04.84.44,1.88,1.17,2.66h0ZM199.95,85.69v.52c-1.12.28-2.46.4-4.15.4-1.02,0-2.06-.04-3.1-.1v-.5c1.02.06,2.08.1,3.1.1,1.71,0,3.05-.13,4.15-.43h0ZM199.95,119.79v.5c-.37.03-.79-.06-1.21-.25.11.31.21.63.29.93.27-.11.59-.12.93-.07v.51c-.37-.08-.71-.04-.95.13l-.31.22-.08-.36c-.13-.58-.33-1.2-.6-1.83l-.34-.82.72.52.34.22c.44.25.87.36,1.22.32h0ZM192.7,111.83v-.77c1.28,1.48,2.47,2.93,3.48,4.35.22-.61.74-.98,1.42-.98l.39.03c-1.57-2.22-3.42-4.38-5.29-6.48v-.75c2.19,2.45,4.36,4.96,6.13,7.57l.53.77-.84-.41c-.32-.15-.64-.24-.91-.24-.62,0-1,.4-1.03,1.09l-.02.82-.44-.65c-.97-1.42-2.13-2.87-3.41-4.36ZM183.13,48.79h-.03v.52c.33-.01.72.1,1.13.32l.31.2.76.54-.38-.84c-.35-.78-.6-1.53-.75-2.23l-.1-.49-.33.38c-.15.17-.36.27-.62.3v.5c.25-.01.47-.08.66-.2.11.4.24.82.41,1.25-.36-.16-.71-.24-1.04-.24h0ZM192.7,59.91v.75c-2.2-2.44-4.27-4.76-5.91-7.03-.23.74-.9,1.14-1.75,1.02,2.01,2.79,4.46,5.49,6.81,8.11l.85.94v.75l-1.22-1.36c-2.54-2.81-5.16-5.72-7.27-8.74l-.51-.74.82.37c.29.13.58.2.83.2.62,0,1-.4,1.03-1.09v-.91l.46.66c1.58,2.28,3.64,4.62,5.86,7.08h0ZM192.7,82.4v.5c-.67-.03-1.35-.06-2.02-.1-1.21-.06-2.46-.13-3.67-.13-1.59,0-2.85.11-3.92.36v-.51c1.07-.24,2.34-.35,3.92-.35,1.23,0,2.48.07,3.7.13.68.03,1.34.07,1.99.1h0ZM192.7,86.01v.5l-.62-.03c-1.22-.06-2.48-.13-3.64-.13-1.71,0-2.96.15-3.94.46l-.39.13.07-.4.02-.2v-.08c.01-.79-.43-1.76-1.09-2.51v-.71c.95.87,1.6,2.13,1.6,3.19.97-.26,2.17-.38,3.74-.38,1.17,0,2.44.07,3.68.13l.58.03h0ZM192.7,107.23v.75c-.59-.66-1.18-1.31-1.76-1.96-2.65-2.93-5.16-5.71-6.97-8.4-.18.34-.49.58-.87.68v-.52c.29-.13.48-.39.55-.76l.12-.61.34.52c1.81,2.79,4.43,5.69,7.2,8.76.46.51.93,1.03,1.39,1.55h0ZM192.7,111.06c-.98-1.12-2.01-2.27-3.06-3.44-2.26-2.51-4.59-5.08-6.54-7.73v.84c1.87,2.48,4.05,4.88,6.17,7.23,1.19,1.32,2.35,2.61,3.43,3.87v-.77h0ZM183.1,87.48h0s.01-.01.01-.01h-.01ZM183.1,48.79c-.15,0-.29.02-.43.06v.54c.13-.06.27-.08.43-.09v-.51h0ZM182.67,47.96c.15.02.29.03.43.01v-.5c-.13.01-.27,0-.43-.02v.51h0ZM183.1,82.52v.51h0,0v.72c-.13-.15-.27-.29-.43-.42v-.71c.14-.03.28-.07.43-.1h0ZM183.1,87.47h0s-.29.31-.29.31c-.04.04-.09.09-.13.14v-.56h.02l.4.12h0ZM183.1,97.78v.52c-.13.03-.27.06-.43.06v-.5c.16,0,.3-.03.43-.08h0ZM183.1,99.9v.84c-.15-.19-.29-.38-.43-.57v-.86c.14.2.28.39.43.59h0ZM182.67,48.85c-.22.06-.42.17-.58.32v1.06l.06-.22c.08-.3.27-.5.52-.61v-.54h0ZM182.09,47.81c.2.08.39.13.58.15v-.51c-.18-.03-.39-.1-.58-.19v.54h0ZM182.67,82.62v.71c-.09-.08-.18-.15-.27-.22l-.32-.23v-.1l.39-.11.19-.05h0ZM182.67,87.36v.56c-.23.26-.41.55-.55.89l-.03.06v-1.02s.07-.09.1-.13l-.1-.05v-.55c.2.11.39.2.58.24h0ZM182.67,97.86v.49c-.18,0-.38-.02-.58-.07v-.52c.2.06.39.09.55.09h.03ZM182.67,99.31v.86c-.2-.27-.39-.54-.58-.81v-.89c.19.28.39.56.58.84h0ZM182.09,93.7v-.96c.05.17.1.34.16.52l.25.73-.41-.29ZM182.09,49.17c-.06.06-.11.12-.17.18-.3-.7-.55-1.39-.74-2.05l.43.28c.16.09.32.17.48.23v-.54c-.08-.03-.15-.08-.22-.12-.32-.19-.65-.43-.94-.74l-.62-.64.19.87c.24,1.09.64,2.24,1.19,3.41l.29.61.12-.42v-1.06h0ZM182.09,82.78v.1l-.1-.08.1-.03h0ZM182.09,87.1v.55l-.27-.13c-.65-.37-1.25-.96-1.69-1.63v-1.09c.36.93,1.09,1.81,1.94,2.29h.03ZM182.09,87.84c-.08.11-.15.23-.23.35-.43-.64-1.01-1.19-1.63-1.54l-.1-.06v.58c.6.38,1.16.98,1.54,1.66l.25.45.18-.4v-1.02h0ZM182.09,92.74v.96l-.22-.16-.34-.22c-.52-.29-1.02-.38-1.4-.29v-.52c.1-.01.2-.03.3-.03.36,0,.76.1,1.16.3-.06-.24-.11-.47-.16-.69-.39.08-.84,0-1.3-.19v-.55c.53.27,1.03.34,1.4.2l.29-.12.05.31c.05.33.13.66.22,1h0ZM182.09,97.77v.52s-.1-.03-.15-.04l.15.22v.89c-.37-.52-.72-1.05-1.05-1.57l-.57-.91.92.57.15.09c.18.1.37.19.54.24h0ZM180.12,84.8v1.09c-.19-.29-.34-.59-.46-.9-.29.37-.53.79-.71,1.25.37.01.77.13,1.17.34v.58s-.09-.06-.14-.08c-.48-.27-.96-.38-1.35-.31l-.41.08.13-.4c.26-.83.67-1.54,1.23-2.13l.31-.33.12.43c.04.13.07.25.12.37h0ZM180.12,91.35v.55c-.13-.06-.25-.12-.37-.19-.39-.22-.76-.52-1.09-.86.12.7.32,1.43.57,2.17.22-.27.52-.45.88-.52v.52c-.33.08-.58.31-.68.68l-.2.73-.27-.71c-.5-1.29-.81-2.54-.93-3.74l-.09-1,.55.84c.4.61.93,1.12,1.5,1.44.04.02.08.04.12.06h0Z"/>
      <path class="cls-16" d="M182.97,60.59c1.24.71,2.2,2.25,2.15,3.44-.04.7-.41,1.09-1.03,1.09-.33,0-.72-.12-1.1-.33h-.01v.56c.39.18.76.28,1.11.28h0c.88,0,1.49-.61,1.54-1.57.07-1.39-.99-3.1-2.41-3.9-.08-.04-.16-.08-.24-.13v.56h0ZM181.86,60.25c.33,0,.71.12,1.1.33h0v-.56c-.39-.18-.76-.28-1.11-.28-.88,0-1.49.61-1.54,1.57-.07,1.37,1.01,3.12,2.41,3.91.08.04.16.08.24.13v-.56c-1.24-.71-2.2-2.25-2.15-3.44.04-.7.41-1.09,1.03-1.09h0Z"/>
      <path class="cls-16" d="M180.92,64.79c1.24.71,2.2,2.25,2.15,3.44-.04.7-.41,1.09-1.03,1.09-.33,0-.71-.12-1.1-.33h0v.56c.39.18.76.28,1.11.28h0c.88,0,1.49-.61,1.54-1.57.06-1.39-.99-3.1-2.41-3.9-.08-.04-.16-.08-.24-.13v.56h0ZM179.81,64.45c.33,0,.72.12,1.1.33h.01v-.56c-.39-.18-.76-.28-1.11-.28-.88,0-1.49.61-1.54,1.57-.07,1.37,1.01,3.12,2.41,3.9.08.05.16.09.24.13v-.56c-1.24-.71-2.2-2.25-2.15-3.44.04-.7.41-1.09,1.03-1.09h0Z"/>
      <path class="cls-16" d="M182.46,71.03c1.24.71,2.2,2.25,2.15,3.44-.04.7-.41,1.09-1.03,1.09-.33,0-.72-.12-1.1-.33h0v.56c.39.18.76.28,1.11.28.88,0,1.49-.61,1.54-1.57.07-1.39-.99-3.1-2.41-3.91-.08-.04-.16-.08-.24-.13v.56h0ZM181.34,70.69c.33,0,.71.12,1.1.33h0v-.56c-.39-.18-.76-.28-1.11-.28-.88,0-1.49.61-1.54,1.57-.07,1.37,1.01,3.12,2.41,3.91.08.05.16.09.24.13v-.56c-1.24-.71-2.2-2.25-2.15-3.44.04-.7.41-1.09,1.03-1.09h0Z"/>
      <path class="cls-16" d="M184.2,86.27v.06c-.04.7-.41,1.09-1.04,1.09-.33,0-.71-.12-1.1-.33h0v.56c.38.18.76.28,1.11.28h0c.81,0,1.38-.52,1.51-1.33h.01v-.24c.08-1.39-.98-3.1-2.39-3.9-.08-.04-.15-.08-.24-.12v.56c1.21.7,2.16,2.19,2.15,3.37h0ZM182.05,87.08c-1.24-.71-2.2-2.25-2.15-3.44.03-.7.41-1.09,1.03-1.09.33,0,.71.12,1.1.33h.01v-.56c-.39-.18-.76-.28-1.11-.28-.88,0-1.49.61-1.54,1.57-.07,1.37,1.01,3.12,2.41,3.9.08.05.16.09.24.13v-.56h0Z"/>
      <path class="cls-16" d="M179.99,87.08c1.24.71,2.2,2.25,2.15,3.44-.04.7-.41,1.09-1.03,1.09-.33,0-.72-.12-1.1-.33h-.01v.56c.39.18.76.28,1.11.28h0c.88,0,1.49-.61,1.54-1.57.07-1.39-.99-3.1-2.41-3.91-.08-.04-.16-.08-.24-.13v.56ZM178.88,86.74c.33,0,.71.12,1.1.33h0v-.56c-.39-.18-.76-.28-1.11-.28-.89,0-1.49.61-1.54,1.57-.07,1.36,1.01,3.12,2.41,3.91.08.04.16.08.24.13v-.56c-1.24-.71-2.2-2.25-2.15-3.44.04-.7.41-1.09,1.04-1.09Z"/>
      <path class="cls-16" d="M181.53,93.32c1.24.7,2.2,2.25,2.15,3.44-.03.7-.41,1.09-1.04,1.09-.33,0-.71-.12-1.1-.33h0v.56c.39.18.76.28,1.11.28h0c.88,0,1.49-.61,1.54-1.57.06-1.39-.99-3.1-2.41-3.9-.08-.04-.16-.08-.24-.13v.56h0ZM180.42,92.98c.33,0,.71.12,1.1.33h0v-.56c-.39-.18-.76-.28-1.11-.28-.88,0-1.49.61-1.54,1.57-.07,1.37,1.01,3.12,2.41,3.91.08.04.16.08.24.13v-.56c-1.24-.71-2.2-2.25-2.15-3.44.04-.7.41-1.09,1.03-1.09h0Z"/>
      <path class="cls-16" d="M181.22,105.47c1.24.71,2.2,2.25,2.15,3.44-.04.7-.41,1.1-1.03,1.1-.33,0-.72-.12-1.1-.33h-.01v.56c.39.18.76.28,1.11.28h0c.88,0,1.49-.61,1.54-1.57.07-1.39-.99-3.1-2.41-3.9-.08-.05-.16-.08-.24-.13v.56ZM180.11,105.13c.34,0,.72.12,1.1.33h0v-.56c-.39-.18-.76-.28-1.11-.28-.88,0-1.49.61-1.54,1.57-.07,1.37,1.01,3.12,2.41,3.91.08.05.16.09.24.13v-.57c-1.24-.71-2.2-2.25-2.15-3.44.04-.7.41-1.09,1.03-1.09h0Z"/>
      <path class="cls-16" d="M178.82,109.16c1.24.71,2.2,2.25,2.15,3.44-.04.7-.41,1.1-1.03,1.1-.33,0-.72-.12-1.1-.34h-.01v.56c.39.18.76.28,1.11.28.88,0,1.49-.61,1.54-1.57.07-1.39-.99-3.1-2.41-3.9-.08-.04-.16-.08-.24-.13v.56h0ZM177.71,108.82c.33,0,.71.12,1.1.33h0v-.56c-.39-.18-.76-.28-1.11-.28-.88,0-1.49.61-1.54,1.57-.07,1.37,1.01,3.12,2.41,3.91.08.05.16.08.24.13v-.57c-1.24-.71-2.2-2.25-2.15-3.44.04-.7.41-1.1,1.03-1.1h0Z"/>
      <path class="cls-16" d="M184.23,49.63c1.24.71,2.2,2.25,2.15,3.44-.04.7-.41,1.09-1.03,1.09-.33,0-.71-.12-1.1-.33h0v.56c.39.18.76.28,1.11.28h0c.89,0,1.49-.61,1.54-1.57.07-1.39-.99-3.1-2.41-3.9-.08-.04-.16-.08-.24-.13v.56h0ZM183.13,49.29c.33,0,.71.12,1.1.33h0v-.56c-.39-.18-.76-.28-1.11-.28-.88,0-1.49.61-1.54,1.57-.07,1.37,1.01,3.12,2.41,3.9.08.04.16.09.24.13v-.56c-1.24-.71-2.2-2.25-2.15-3.44.04-.7.41-1.09,1.03-1.09h0Z"/>
      <path class="cls-16" d="M181.85,42.95c1.24.71,2.2,2.25,2.15,3.44-.04.7-.41,1.09-1.04,1.09-.33,0-.71-.12-1.1-.33h0v.56c.39.18.76.28,1.11.28h0c.89,0,1.49-.61,1.54-1.57.07-1.39-.99-3.1-2.41-3.9-.08-.04-.16-.08-.24-.13v.56h0ZM180.74,42.6c.33,0,.71.12,1.1.33h.01v-.56c-.39-.18-.76-.28-1.11-.28-.88,0-1.49.61-1.54,1.57-.07,1.37,1.01,3.12,2.41,3.91.08.05.16.09.24.13v-.56c-1.24-.71-2.2-2.25-2.15-3.44.04-.7.41-1.09,1.03-1.09Z"/>
      <path class="cls-16" d="M201.01,59.02c1.24.71,2.2,2.25,2.15,3.44-.04.7-.41,1.09-1.04,1.09-.33,0-.71-.12-1.1-.33h0v.56c.39.18.76.28,1.11.28h0c.88,0,1.49-.61,1.54-1.57.07-1.39-.99-3.1-2.41-3.9-.08-.04-.16-.08-.24-.13v.56h0ZM199.89,58.67c.33,0,.72.12,1.1.33h.01v-.56c-.39-.18-.76-.28-1.11-.28-.88,0-1.49.61-1.53,1.57-.07,1.37,1.01,3.12,2.41,3.9.08.05.16.09.24.13v-.56c-1.24-.71-2.2-2.25-2.15-3.44.04-.7.41-1.09,1.03-1.09h0Z"/>
      <path class="cls-16" d="M203.97,55.5c1.24.71,2.2,2.25,2.15,3.44-.04.7-.41,1.09-1.03,1.09-.33,0-.72-.12-1.1-.33h0v.56c.39.18.76.28,1.11.28.88,0,1.49-.61,1.54-1.57.06-1.39-.99-3.1-2.41-3.91-.08-.04-.16-.08-.24-.13v.56h0ZM202.86,55.16c.33,0,.71.12,1.1.33h.01v-.56c-.39-.18-.76-.28-1.11-.28-.88,0-1.49.61-1.54,1.57-.07,1.37,1.01,3.12,2.41,3.9.08.05.16.09.24.13v-.56c-1.24-.71-2.2-2.25-2.15-3.44.04-.7.41-1.09,1.03-1.09h0Z"/>
      <path class="cls-16" d="M200.77,70.55c1.24.71,2.2,2.25,2.15,3.44-.04.7-.41,1.09-1.04,1.09-.33,0-.71-.12-1.1-.33h0v.56c.38.18.76.28,1.11.28h0c.89,0,1.49-.61,1.54-1.57.06-1.39-.99-3.1-2.41-3.9-.08-.05-.16-.08-.24-.13v.56h0ZM199.65,70.21c.33,0,.72.12,1.1.33h0v-.56c-.39-.18-.76-.28-1.11-.28-.88,0-1.49.61-1.53,1.57-.07,1.36,1.01,3.12,2.41,3.91.08.05.16.09.24.13v-.56c-1.24-.71-2.2-2.25-2.15-3.44.04-.7.41-1.09,1.03-1.09Z"/>
      <path class="cls-16" d="M202.76,77.05c1.24.71,2.2,2.25,2.15,3.44-.04.7-.41,1.09-1.03,1.09-.33,0-.71-.12-1.1-.33h0v.56c.39.18.76.28,1.11.28.88,0,1.49-.61,1.54-1.57.07-1.39-.99-3.1-2.41-3.9-.08-.04-.16-.08-.24-.13v.56h0ZM201.65,76.71c.33,0,.71.12,1.1.33h.01v-.56c-.39-.18-.76-.28-1.11-.28-.88,0-1.49.61-1.53,1.57-.07,1.37,1.01,3.12,2.41,3.9.08.05.16.09.24.13v-.56c-1.24-.71-2.2-2.25-2.15-3.44.04-.7.41-1.09,1.03-1.09h0Z"/>
      <path class="cls-16" d="M200.92,81.51c1.24.71,2.2,2.25,2.15,3.44-.04.7-.41,1.09-1.03,1.09-.33,0-.72-.12-1.1-.33h0v.56c.39.18.76.28,1.11.28.88,0,1.49-.61,1.54-1.57.06-1.36-1.01-3.12-2.41-3.9-.08-.04-.16-.08-.24-.13v.56h0ZM199.81,81.16c.33,0,.71.12,1.1.33h.01v-.56c-.39-.18-.76-.28-1.11-.28-.88,0-1.49.61-1.54,1.57-.07,1.36,1.01,3.12,2.41,3.9.08.05.16.09.24.13v-.56c-1.24-.71-2.2-2.25-2.15-3.44.03-.7.41-1.09,1.03-1.09h0Z"/>
      <path class="cls-16" d="M199.83,92.77c1.24.71,2.2,2.25,2.15,3.44-.04.7-.41,1.09-1.03,1.09h0c-.33,0-.71-.12-1.1-.33h0v.56c.39.18.76.28,1.11.28h0c.88,0,1.49-.61,1.54-1.57.07-1.39-.99-3.1-2.41-3.9-.08-.04-.16-.08-.24-.13v.56h0ZM198.72,92.43c.33,0,.71.12,1.1.33h.01v-.56c-.39-.18-.76-.28-1.11-.28-.89,0-1.49.61-1.54,1.57-.07,1.37,1.01,3.12,2.41,3.91.08.05.16.09.24.13v-.56c-1.24-.71-2.2-2.25-2.15-3.44.04-.7.41-1.09,1.03-1.09Z"/>
      <path class="cls-16" d="M201.82,99.27c1.24.71,2.2,2.25,2.14,3.44-.04.7-.41,1.1-1.03,1.1-.33,0-.72-.12-1.1-.33h0v.56c.39.18.76.28,1.11.28h0c.88,0,1.49-.61,1.54-1.57.07-1.39-.99-3.1-2.41-3.9-.08-.04-.16-.08-.24-.13v.56h0ZM200.71,98.93c.33,0,.71.12,1.1.33h0v-.56c-.39-.18-.76-.28-1.11-.28-.89,0-1.49.61-1.54,1.57-.07,1.36,1.01,3.12,2.41,3.91.08.05.16.09.24.13v-.56c-1.24-.71-2.2-2.25-2.14-3.44.04-.7.41-1.09,1.03-1.09Z"/>
      <path class="cls-16" d="M199.98,103.72c1.24.71,2.2,2.25,2.15,3.44-.04.7-.41,1.1-1.04,1.1-.33,0-.71-.12-1.1-.33h0v.56c.39.18.76.28,1.11.28.88,0,1.49-.61,1.54-1.57.06-1.39-.99-3.1-2.41-3.91-.08-.04-.16-.08-.24-.13v.56ZM198.87,103.38c.33,0,.72.12,1.1.33h0v-.56c-.39-.18-.76-.28-1.11-.28-.88,0-1.49.61-1.54,1.57-.06,1.37,1.01,3.12,2.41,3.91.08.05.16.09.24.13v-.57c-1.24-.71-2.2-2.25-2.15-3.44.04-.7.41-1.09,1.03-1.09h0Z"/>
      <path class="cls-16" d="M198.71,115.27c1.24.71,2.2,2.25,2.15,3.44-.04.7-.41,1.1-1.04,1.1-.33,0-.71-.12-1.1-.33h0v.56c.39.18.76.28,1.11.28.89,0,1.49-.61,1.54-1.57.07-1.39-.99-3.1-2.41-3.91-.08-.04-.16-.08-.24-.13v.56ZM197.6,114.93c.33,0,.71.12,1.1.33h.01v-.56c-.39-.18-.76-.28-1.11-.28-.88,0-1.49.61-1.54,1.57-.07,1.37,1.01,3.12,2.41,3.91.08.05.16.09.24.13v-.56c-1.24-.71-2.2-2.25-2.15-3.44.04-.7.41-1.09,1.03-1.09Z"/>
      <path class="cls-16" d="M200.71,121.71c1.24.71,2.2,2.25,2.15,3.44-.04.7-.41,1.1-1.03,1.1-.33,0-.71-.12-1.1-.33h-.01v.56c.39.18.76.28,1.11.28h0c.88,0,1.49-.61,1.54-1.57.07-1.39-.99-3.1-2.41-3.9-.08-.04-.16-.08-.24-.13v.57h0ZM199.6,121.37c.33,0,.72.12,1.1.33h0v-.56c-.39-.18-.76-.28-1.11-.28-.88,0-1.49.61-1.54,1.57-.06,1.37,1.01,3.12,2.41,3.91.08.04.16.09.24.13v-.57c-1.24-.71-2.2-2.25-2.15-3.44.04-.7.41-1.09,1.03-1.09h0Z"/>
      <path class="cls-16" d="M157.65,84.53l.06-1.31-27.16-15.34-.03.85,27.14,15.33-.02.47h0Z"/>
      <path class="cls-16" d="M157.65,86.9l.06-1.3-27.16-15.34-.03.85,27.14,15.33-.02.47h0Z"/>
      <path class="cls-16" d="M157.65,89.27l.06-1.3-27.16-15.34-.03.85,27.14,15.33-.02.47h0Z"/>
      <path class="cls-16" d="M157.65,91.64l.06-1.31-22.09-12.48-.03.85,22.08,12.47-.02.47h0Z"/>
      <path class="cls-16" d="M157.65,94.01l.06-1.31-27.16-15.34-.03.84,27.14,15.34-.02.47h0Z"/>
      <path class="cls-16" d="M157.65,96.38l.06-1.31-27.16-15.34-.03.84,27.14,15.34-.02.46h0Z"/>
      <path class="cls-16" d="M157.65,98.75l.06-1.31-27.16-15.34-.03.85,27.14,15.34-.02.46h0Z"/>
      <path class="cls-16" d="M157.65,101.11l.06-1.3-27.16-15.34-.03.85,27.14,15.33-.02.47h0Z"/>
      <path class="cls-16" d="M157.65,103.48l.06-1.3-15.48-8.75-.03.85,15.47,8.74-.02.47h0Z"/>
      <path class="cls-16" d="M177.9,64.03l.28-.09-2.88-8.59-.05-.03-14.73-8.53-.16.25,14.69,8.51,2.84,8.48Z"/>
      <path class="cls-16" d="M179.34,104.03l.27-.09-2.88-8.59-.05-.03-14.73-8.53-.15.25,14.68,8.51,2.85,8.48Z"/>
      <path class="cls-16" d="M221.21,99.03l.15-.25-12.29-7.12-5.73,2.86.13.26,5.58-2.78,12.16,7.04Z"/>
      <path class="cls-16" d="M220.6,75.15l.15-.25-12.29-7.13-5.72,2.86.13.26,5.58-2.79,12.15,7.05Z"/>
      <path class="cls-16" d="M220.5,120.86l.15-.25-14.6-8.43-5.73,2.86.13.26,5.58-2.78,14.46,8.35Z"/>
      <path class="cls-16" d="M179.16,81.26l.28-.1-2.88-8.59-.04-.03-14.74-8.53-.15.25,14.68,8.51,2.85,8.49Z"/>
      <path class="cls-6" d="M162.14,47.88c-.03.64-.59.86-1.26.48-.66-.38-1.17-1.2-1.14-1.84.03-.64.6-.86,1.26-.48.66.38,1.17,1.2,1.14,1.84h0Z"/>
      <path class="cls-16" d="M162.85,64.82c-.03.64-.6.86-1.26.48-.66-.38-1.17-1.2-1.14-1.84.04-.64.6-.86,1.26-.48.66.38,1.17,1.2,1.14,1.84h0Z"/>
      <path class="cls-16" d="M163.09,87.63c-.03.64-.59.86-1.26.48-.66-.38-1.17-1.2-1.14-1.84.03-.64.59-.86,1.26-.48.66.38,1.17,1.2,1.14,1.84Z"/>
      <path class="cls-16" d="M221.87,75.71c-.03.64-.59.86-1.26.48-.66-.38-1.17-1.2-1.14-1.84.03-.64.6-.86,1.26-.48.66.38,1.17,1.2,1.14,1.84h0Z"/>
      <path class="cls-16" d="M221.87,99.18c-.03.64-.59.86-1.26.48-.66-.38-1.17-1.2-1.14-1.84s.6-.86,1.26-.48c.66.38,1.17,1.2,1.14,1.84h0Z"/>
      <path class="cls-16" d="M221.3,121.22c-.04.64-.59.86-1.26.48-.66-.38-1.17-1.2-1.14-1.84.03-.64.59-.86,1.26-.48.66.38,1.17,1.2,1.14,1.84Z"/>
      <path class="cls-35" d="M79.22,97.97c3.47,4.6,1.59,8.87-3.23,9.88-.25,0-13.45,7.39-24.61,7.01-5.63.65-2.28-6.04-.15-7.54,1.66-1.16,9.39-6.35,14.77-8.73,6.15-5.51,10.86-7.57,13.22-.63h0Z"/>
      <path class="cls-62" d="M108.22,121.3h4.6v24.78h-4.6v-24.78Z"/>
      <path class="cls-60" d="M107,120.94h4.6v24.78h-4.6v-24.78Z"/>
      <path class="cls-23" d="M107.83,101.44c-.18-.08-.34-.17-.51-.25l-.06-.03c-.19-.09-.38-.17-.57-.24l-.11-.05c-.18-.07-.36-.14-.54-.2l-.06-.02c-.18-.06-.34-.11-.52-.16l-.08-.02c-.13-.03-.27-.07-.41-.1l-.18-.04c-.19-.04-.37-.08-.57-.1h-.02c-.17-.03-.34-.05-.51-.07h-.17c-.12-.02-.24-.03-.36-.03h-.65c-.16.01-.32.03-.47.05h-.1c-.13.04-.25.06-.37.08l-.13.02c-.14.03-.28.06-.41.11h-.03c-.14.05-.28.1-.42.15l-.11.04c-.12.05-.22.09-.34.15l-.08.03c-.14.07-.28.14-.42.22l3.66-2.12.07-.04c.11-.06.22-.13.34-.18l.09-.03.2-.09.13-.05.11-.04c.14-.05.28-.1.42-.14h.04c.13-.05.27-.08.41-.11l.13-.03.13-.03.25-.03h.1c.13-.03.28-.04.42-.06h.18c.13,0,.25,0,.37,0h.52s.17.03.17.03c.17.01.34.03.51.06h.02c.19.03.38.06.57.1l.18.04c.12.03.24.05.36.08h.05s.08.03.08.03c.17.05.34.1.51.16l.06.02c.18.06.36.13.55.2l.11.05.11.04c.15.06.3.13.46.2l.06.03c.18.08.34.16.51.25l.15.08c.19.1.39.2.58.32l1.11.63c.2.11.41.23.6.36l.19.13c.13.09.27.18.41.27l.22.15c.13.09.25.18.37.27l.22.17c.12.09.25.19.37.29l.21.17c.13.11.27.23.41.34l.15.13c.18.16.37.33.55.5l.12.11c.13.12.25.22.37.34l.06.06c.22.22.43.43.64.66l.03.03c.2.22.4.43.6.65l.06.06.23.26c.08.09.16.19.23.28.1.12.19.23.29.35.08.1.16.19.23.29l.04.06.06.09c.24.31.47.62.7.94l.07.1.03.04c.22.31.43.62.64.95l.06.08.08.14c.16.26.33.53.49.79l.07.13.03.05c.18.31.35.61.52.93l.04.08.08.15c.13.25.25.5.39.75l.08.15.04.1c.15.32.3.63.43.96v.04s.06.1.06.1c.13.29.25.58.36.87l.06.14.08.22.08.22c.07.19.15.4.21.59l.04.11v.03c.08.22.16.45.22.68l.06.19c.04.13.08.26.11.39l.04.13c.03.1.06.22.08.33.04.14.08.28.11.43.03.11.05.22.08.33l.06.23.03.16c.04.17.07.33.09.49.02.11.04.22.06.33.03.17.06.33.08.5l.04.24v.1s.04.23.04.23c.01.16.04.32.05.48l.02.24c.01.16.02.32.03.49v.22c.02.23.03.46.03.69l-.05,16.03c0,1.34-.48,2.28-1.25,2.73l-3.66,2.12c.77-.45,1.24-1.39,1.25-2.73l.04-16.04c0-.23,0-.46,0-.68v-.22c-.02-.17-.04-.32-.04-.49l-.02-.24c-.01-.16-.04-.31-.05-.48l-.02-.23c-.01-.11-.04-.22-.05-.33-.03-.17-.05-.33-.08-.5-.01-.11-.04-.23-.06-.34-.04-.16-.06-.32-.1-.48-.03-.13-.06-.26-.08-.4-.02-.11-.05-.22-.07-.33-.03-.14-.07-.29-.11-.43-.03-.1-.06-.22-.08-.32-.05-.17-.09-.34-.15-.52l-.06-.19c-.08-.24-.15-.48-.23-.72l-.04-.11c-.07-.19-.13-.39-.21-.58l-.08-.22c-.04-.13-.09-.24-.14-.36-.11-.29-.24-.59-.36-.87l-.06-.13c-.14-.32-.29-.64-.44-.96l-.12-.25c-.13-.25-.25-.5-.39-.75l-.12-.23c-.17-.31-.34-.62-.52-.92l-.1-.17c-.16-.26-.32-.53-.49-.79l-.14-.22c-.21-.32-.42-.64-.63-.95l-.1-.14c-.23-.32-.46-.63-.7-.93l-.11-.15c-.08-.1-.15-.19-.22-.28-.1-.12-.19-.24-.29-.35-.08-.09-.15-.18-.24-.28-.1-.11-.19-.22-.28-.33-.2-.22-.39-.44-.59-.65l-.04-.03c-.21-.22-.42-.44-.64-.65-.14-.13-.28-.26-.41-.4l-.12-.11c-.18-.17-.37-.33-.55-.5l-.15-.13c-.13-.12-.27-.23-.41-.35l-.21-.17c-.12-.1-.25-.19-.36-.28l-.23-.17c-.13-.09-.25-.18-.37-.26l-.22-.15c-.13-.09-.27-.18-.41-.27l-.19-.12c-.2-.13-.4-.24-.6-.36l-1.11-.63c-.19-.11-.39-.22-.58-.31l-.15-.08h-.04Z"/>
      <path class="cls-6" d="M110.8,100.55c-7.88-4.09-14.8.5-14.82,8.41l-.04,16.04c0,2.69,1.89,5.97,4.25,7.33l17.66,10.12c2.36,1.35,6.53-1.01,6.53-3.71l.04-16.04c.02-7.91-5.57-17.55-12.5-21.52l-1.11-.63h0Z"/>
      <path class="cls-11" d="M99.1,101.32c-1.94,1.42-3.12,4.04-3.13,7.65l-.04,16.04c0,2.69,1.89,5.97,4.25,7.33l17.66,10.12c.6.34,1.17.53,1.69.57.33-.5.52-1.19.52-2.02l.04-16.04c.02-7.91-5.57-17.55-12.5-21.52l-1.11-.63c-2.75-1.58-5.3-2.02-7.38-1.49Z"/>
      <path class="cls-40" d="M90.68,94.71c.65-.02,9.16,1.97,13.13,4.24,2.76,1.9,3.43,9.48,3.59,10.24,2.14,3.3,5.03,31.03.82,34.63-4.12,5.4-20.36,1.84-24.12-5.57-.22-7.15-5.87-13.29-9.07-24.73-.77-2.75-3.48-12.42-.21-17.11.84-1.2,2.83-2.33,4.15-2.58,4.67-.9,10.89.9,11.7.87h0Z"/>
      <path class="cls-28" d="M101.81,98.78c5.18.55,7.24,7.45,6.82,12.34-.08.26,3.66,12.54.9,21.47-1.96,4.5-9.42,1.08-9.92-3.77-2.64-6.27-2.69-13.48-3.3-15.46-1.02-3.31-.57-13.59,5.5-14.58h0Z"/>
      <path class="cls-56" d="M84.01,88.19s3.5,7.18,7.32,9.18c-.08,8.1-8.67,14.25-10.95,6.49.59-2.86,1.99-4.63-4.45-7.74-1.81-1.19,8.08-7.93,8.08-7.93h0Z"/>
      <path class="cls-15" d="M62.54,92.44c1.2,1.25,1.87,2.84,2.72,4.34.75,1.9,2.93.7,3.45,3.89,1.14,1.62,4.1,3.59,5.8,4.62,1.33.81,3.2,2.03,4.81,1.81,4.01-.59,4.43-5.4,6.15-8.55,1.71-3.12-1.23-5.85-2.32-8.61-1.99-4.98-7.77-9.26-13.37-7.16-2.51.93-5.87,3.32-7.11,5.73-.44.85-.75,2.15-.13,3.94h0Z"/>
      <path class="cls-28" d="M68.64,100.31c.95,1.36,5.75,3.16,9.49-.12,2.13-1.87,4.17-4.59,4.01-10.67-.17,2.87.73,8.02,2.51,3.67.46,2.23,1.55,3.1.77,6.38-1.09,2.82-2.95,7.06-6.1,7.52-1.61.24-3.49-.99-4.81-1.81-1.69-1.03-4.66-3.01-5.8-4.62-.02-.12-.04-.24-.07-.35h0Z"/>
      <path class="cls-15" d="M84.44,89.71c.69,1.81.61,3.53-.19,3.83-.8.31-2.6-.39-3.29-2.2-.69-1.81-.02-4.04.78-4.34.8-.31,2.01.91,2.7,2.72Z"/>
      <path class="cls-40" d="M62.51,93.65c4.1,3.22,8.88,4.57,14.15,3.22,4.18-1.07,7.07-3.26,10.43-3.6,8.75-5.48-3.11-15.01-8.66-16.66-6.47-1.92-11.44-.31-15.02,6.04-3.48,6.18-3.84,8.7-.91,11Z"/>
      <path class="cls-28" d="M61.26,92.39c1.38-.88,2.62-1.5,4.51.45,1.61,1.66.54-.5.99-2.37.15-.61,1.07,1.17,1.29,1.42,1,1.12,1.12,1,2.19-.02,1.02-.98.94.33,1.76.26.79-.07,1.5-1.76,2.48-1.94.8-.15,1.38,1.58,1.9,2.13.41.43,1.89-4.04,1.99-3.97.95.77,2.05,1.96,2.58,2.99.33.64-.08-3.15.23-2.88.66.59,1.49,1.58,1.91,2.33.11.21-1.42-4.26,1.38-1.06,1.93,2.21.08.17.48-3.17.15-1.21,2.58,1.66,3.13,1.25.44-.33-.19-3.07-.11-4.5-2.58-3.19-6.82-5.9-9.54-6.71-6.47-1.92-11.44-.31-15.02,6.04-2.87,5.09-3.61,7.69-2.15,9.74h0Z"/>
      <path class="cls-41" d="M9.29,185.27c-1.64,0-2.99-.91-2.99-2.01s1.34-2.02,2.99-2.02,2.99.91,2.99,2.02-1.34,2.01-2.99,2.01Z"/>
      <path class="cls-21" d="M9.29,184.41c-1.64,0-2.99-.91-2.99-2.01s1.34-2.01,2.99-2.01,2.99.91,2.99,2.01-1.34,2.01-2.99,2.01Z"/>
      <path class="cls-18" d="M12.55,128.45h0c-.22-2.71-6.3-2.71-6.5,0h0v52.58h0c.2,2.7,6.27,2.71,6.5,0h0v-52.58Z"/>
      <path class="cls-41" d="M38.45,169.18c-1.64,0-2.99-.91-2.99-2.01s1.34-2.01,2.99-2.01,2.99.91,2.99,2.01-1.34,2.01-2.99,2.01Z"/>
      <path class="cls-21" d="M38.45,168.32c-1.64,0-2.99-.91-2.99-2.01s1.34-2.01,2.99-2.01,2.99.91,2.99,2.01-1.34,2.01-2.99,2.01Z"/>
      <path class="cls-18" d="M41.7,112.36h0c-.22-2.71-6.3-2.71-6.5,0h0v52.58h0c.2,2.7,6.27,2.71,6.5,0h0v-52.58Z"/>
      <path class="cls-43" d="M76.42,171.04l27.98,15.89v58.07l-27.98-16.52v-57.45Z"/>
      <path class="cls-2" d="M142.25,165.2l-37.88,21.42v58.38l37.88-21.42v-58.38Z"/>
      <path class="cls-39" d="M65.55,192.08c2.14-1.11,2.84-9.54,2.05-11.94,3.33,1.03,4.41.89,7.75,1.91-.27,4.15-.34,5.32.8,8.99-4,1.69-7.27,5.01-10.6,1.02h0Z"/>
      <path class="cls-23" d="M55.48,199.82s-1.73,1.48,1.06,2.87c.89.45,4.62,1.94,8.69.01,6.06-2.65,6.75-4.67,8.29-5.08,1.54-.41,5.5-2.79,5.82-4.3.16-.81-1.62-3.3-1.62-3.3-7.29,4.98-13.91,6.99-22.24,9.8h0Z"/>
      <path class="cls-16" d="M66.45,190.62c-2.86,2.48-4.23,4.46-6.51,6.18-.85.61-4.83,2.16-4.81,3.07.03,1.86,6.21,3.4,8.96,1.86,2.6-1.46,5.57-5.09,8.15-5.81,4.11-1.15,6.4-3.61,6.31-4.5-.18-1.73-1.99-3.34-3.22-3.78.46,1.88-.44,3.62-2.32,4.25-2.37.79-5.66-.49-6.55-1.27Z"/>
      <path class="cls-23" d="M66.59,194.23c-2.29-1.88-3.42-.71-3.42-.71v-.03c.06-.16.12-.31.18-.47.16-.44.46-.76.9-.94.44-.18.87-.18,1.31,0,.37.16.78.4,1.22.74,1.28.99,1.66,2.91-.18,1.41h0Z"/>
      <path class="cls-23" d="M65.6,195.45c-2.29-1.88-3.42-.71-3.42-.71v-.03c.06-.16.12-.31.18-.47.16-.44.46-.76.9-.94.44-.18.87-.18,1.31,0,.37.16.78.4,1.22.74,1.28.99,1.66,2.91-.18,1.41h0Z"/>
      <path class="cls-23" d="M64.47,196.71c-2.06-2.13-3.32-1.1-3.32-1.1v-.03c.08-.15.16-.3.23-.45.21-.42.55-.7,1-.83.45-.13.89-.08,1.3.15.35.2.73.48,1.13.87,1.16,1.13,1.32,3.09-.34,1.38h0Z"/>
      <path class="cls-35" d="M78.76,164.44c-.32-3.02-3.47-9.16-3.37-12.49.08-2.46-10.81-4.27-11.34,1.67,0,0,.67,4.75,1.4,9.14,1.26,7.55,1.29,18.58,1.41,23.26,1.49,2.27,6.72,2.24,10.97-.02,1.27-8.16,1.78-13.25.93-21.57h0Z"/>
      <path class="cls-39" d="M51.78,184.46c2.15-.87,3.58-8.86,3.04-11.22,3.09,1.28,4.14,1.24,7.24,2.52-.63,3.95-.81,5.05-.05,8.67-3.98,1.26-7.4,4.15-10.22.03h0Z"/>
      <path class="cls-23" d="M41.46,190.98s-1.79,1.26.76,2.84c.81.5,4.24,2.27,8.31.79,6.03-1.99,6.88-3.86,8.38-4.12,1.5-.25,5.51-2.18,5.96-3.59.22-.76-1.25-3.3-1.25-3.3-7.42,4.11-13.93,5.44-22.15,7.39h0Z"/>
      <path class="cls-16" d="M52.78,183.15c-2.96,2.11-4.45,3.88-6.79,5.33-.86.5-4.81,1.64-4.88,2.5-.14,1.78,5.63,3.81,8.4,2.57,2.62-1.16,5.79-4.37,8.32-4.82,4.03-.73,6.45-2.89,6.43-3.74-.01-1.67-1.6-3.37-2.74-3.9.27,1.84-.75,3.42-2.6,3.85-2.34.55-5.37-.98-6.15-1.8h0Z"/>
      <path class="cls-23" d="M52.58,186.6c-2.03-2-3.21-.99-3.21-.99v-.03c.07-.15.15-.29.22-.43.2-.4.51-.68.94-.82.43-.14.85-.1,1.25.12.34.19.71.45,1.1.82,1.14,1.06,1.33,2.93-.3,1.33h0Z"/>
      <path class="cls-23" d="M51.53,187.7c-2.03-2-3.21-.99-3.21-.99v-.03c.07-.15.15-.29.22-.43.2-.4.51-.68.94-.82.43-.14.85-.1,1.25.12.34.19.71.45,1.1.82,1.14,1.06,1.33,2.94-.3,1.33h0Z"/>
      <path class="cls-23" d="M50.33,188.8c-1.78-2.22-3.07-1.35-3.07-1.35v-.03c.09-.13.18-.27.27-.4.24-.38.59-.62,1.03-.7.44-.09.86,0,1.22.26.32.22.65.52,1,.93,1,1.18.98,3.07-.45,1.29Z"/>
      <path class="cls-35" d="M65.51,159.07c-.32-3.02-3.47-9.16-3.37-12.49.08-2.46-10.68-3.41-11.21,2.53,0,0,.55,3.9,1.28,8.29,1.26,7.55.99,18.28,1.41,23.26,2.41,1.86,6.01,1.83,10.67-.73,1.27-8.16,2.08-12.55,1.23-20.86h0Z"/>
      <path class="cls-57" d="M73.86,167.26l31.67,17.81v53.36l-31.67-18.02v-53.15Z"/>
      <path class="cls-41" d="M145.33,162.25l-39.8,22.81v53.36l39.8-22.81v-53.36Z"/>
      <path class="cls-43" d="M0,126.12l105.53,59.8,39.74-23.01v-2.36l-87.66-46.99L0,123.75v2.37Z"/>
      <path class="cls-34" d="M0,123.75l105.53,59.8,39.74-23.01-105.59-59.74L0,123.75Z"/>
      <path class="cls-2" d="M145.27,160.54l-39.74,23.01v2.36l39.84-22.85-.1-2.52Z"/>
      <path class="cls-43" d="M100.91,135.44c-6.74,3.81-16.28,5.9-26.31,5.22-17.42-1.17-29.7-10.25-27.42-20.27.93-4.06,4.11-7.65,8.71-10.42l45.01,25.46h0Z"/>
      <path class="cls-40" d="M47.06,111.06c-3.59,4.56-4.38,8.51-1.66,12.39,1.13,1.62,9.26,1.91,9.1-2.1.11-5.75,3.7-7.89,1.85-11.12-1.49-2.62-3.87-6.05-9.28.84h0Z"/>
      <path class="cls-35" d="M53.34,119.63c1.3,1.57.77,1.78.48,2.71-1.18,2-7.23,2.66-8.19.52-.41-2.49,6.41-4.8,7.71-3.23Z"/>
      <path class="cls-36" d="M53.17,120.82c1.25.62,3.02,2.45,3.6,3.14.76.87.95,1.45,1.71,2.32-.84.2-1.13.68-2.34-.98-1.22-.84-6.74-2.42-5.73-4.11.81-.83,1.25-1.25,2.76-.37h0Z"/>
      <path class="cls-8" d="M49.91,120.01c.52-.35,2.24-.18,2.67.12,1.99,1.44,2,2.48,2.98,4.59.59,1.29.6,3.41.32,4.74-.34,1.06-.91,3.4-1.18,3.44-.22-.03-.38-.13-.48-.39-.19.35-.08.98-.35.87-.76-.3-.69-1.18-.69-1.18-.05.22.02.7-.15.66-.86-.15-.69-1.15-.74-1.6-.05-.44.05-1.69.01-2.13-.08-1.09-.62-2.06-.62.14.01,1.12-.12,2.86-.61,2.48-.53-.61-.29-1.53-.34-2.66-.15-3.86-.52-3.83-1.33-5.39-.89-1.71-.76-2.86.49-3.7h0Z"/>
      <path class="cls-28" d="M106.42,135.48c-5.75.94-22.31-4.19-25.5-6.25-1.66-1.07.03-9.44,3.82-8.06,5.81,1.29,19.32,1.02,22.31,5.07,1.79,2.43,4.87,8.33-.63,9.23h0Z"/>
      <path class="cls-35" d="M85.52,122.29c-.88-1.37-2.83-1.69-4.36-.72-1.52.97-2.01,5.64-1.13,7.01.88,1.37,2.54,1.03,4.06.06,1.52-.97,2.31-4.99,1.42-6.35h0Z"/>
      <path class="cls-43" d="M40.51,131.17c3.75.25,6.39,2.2,5.9,4.36-.49,2.15-3.93,3.7-7.68,3.45-3.75-.25-6.39-2.2-5.9-4.36.49-2.15,3.93-3.7,7.68-3.45Z"/>
      <path class="cls-13" d="M50.1,140.12l3.7,2.33c1.57.99,20.67-3.62,22.33-4.55l4.16-2.32c.22-.13.34-.34.35-.59v-2.93l-30.88,5v2.14c-.01.24.06.77.34.93h0Z"/>
      <path class="cls-37" d="M53.87,136.38v6.09s-.04-.02-.06-.03l-3.7-2.33c-.27-.16-.35-.69-.35-.93v-2.14s4.11-.66,4.11-.66Z"/>
      <path class="cls-1" d="M50.1,137.57l3.69,2.31c1.72,1.07,20.89-3.98,22.34-4.79l4.16-2.32c.22-.12.34-.33.35-.58,0-.25-.12-.47-.34-.59l-7.36-4.27-3.38-1.99h-.02s-4.32-2.5-4.32-2.5c-.22-.13-.46-.13-.68,0l-5.07,2.82c-1.42.8-9.63,8.18-9.7,11.34,0,.25.12.46.34.59h0Z"/>
      <path class="cls-13" d="M51.06,134.02l9.13,5.24,9.92-5.52-9.16-5.24-9.89,5.52Z"/>
      <path class="cls-24" d="M54.49,127.9l4.36,2.47v6.74l-4.36-2.48v-6.73Z"/>
      <path class="cls-37" d="M64.94,127l-6.08,3.39v6.72l6.09-3.42v-6.69Z"/>
      <path class="cls-1" d="M64.94,126.98l-6.08,3.41-4.37-2.47,6.09-3.41,4.36,2.47Z"/>
      <path class="cls-24" d="M69.24,131.17l-5.18-2.93,1.42-12.02,5.08-2.87c0,6.76-.47,11.5-1.32,17.83h0Z"/>
      <path class="cls-13" d="M74.49,116.34c-.48-4.16-3.34-5.03-9.73-1.97v3.17c2.53-.75,5.4-1.74,5.21,1.35l-.73,12.29,5.24-2.97v-11.87Z"/>
      <path class="cls-45" d="M56.26,134.24c.44.74,1.12,1.07,1.52.75.39-.33.35-1.19-.09-1.92-.44-.74-1.12-1.07-1.52-.75-.39.33-.35,1.19.09,1.92h0Z"/>
      <path class="cls-34" d="M54.5,135.15c.55.91,1.39,1.32,1.87.92.48-.4.44-1.46-.11-2.37-.55-.91-1.39-1.32-1.87-.92-.48.4-.44,1.46.11,2.37Z"/>
      <path class="cls-43" d="M54.66,132.65l1.01-.51h0c1.26-.74,2.96,2.43,1.88,3.32-.04.04-.09.06-.14.09l-1.02.52c.44-.44.36-1.46-.17-2.35-.44-.73-1.07-1.14-1.56-1.07h0Z"/>
      <path class="cls-6" d="M54.8,134.92c.38.63.94.91,1.26.64.32-.27.28-1-.1-1.62-.38-.63-.94-.91-1.26-.64-.32.27-.28,1,.1,1.62Z"/>
      <path class="cls-43" d="M54.78,134.93c.38.63.95.91,1.29.64h0c-.34.19-.87-.1-1.22-.68-.37-.62-.41-1.35-.09-1.62-.02.01-.04.03-.06.04-.34.28-.3,1.01.08,1.64h0Z"/>
      <path class="cls-43" d="M60.19,133.84v.77l9.92-5.52v-.77l-9.92,5.52Z"/>
      <path class="cls-45" d="M60.19,134.6l-9.13-5.24v-.77l9.13,5.24v.77Z"/>
      <path class="cls-34" d="M51.06,128.6l9.13,5.24,9.92-5.51-9.16-5.25-9.89,5.53Z"/>
      <path class="cls-22" d="M60.19,128.06c-.49.04-.84.29-.78.57.06.29.52.49,1.01.45.49-.04.84-.29.78-.57-.06-.29-.52-.49-1.01-.45Z"/>
      <path class="cls-55" d="M60.21,128.17c-.39.03-.67.23-.62.45.05.22.41.39.8.36.39-.03.67-.23.62-.45-.05-.22-.41-.39-.8-.36Z"/>
      <path class="cls-54" d="M60.21,128.17c-.14,0-.27.04-.36.09v.63c.15.07.34.11.55.1.14,0,.27-.04.37-.09v-.63c-.15-.08-.34-.11-.55-.1h0Z"/>
      <path class="cls-34" d="M60.17,127.95c-.55.03-.93.32-.86.63s.58.54,1.12.5c.55-.04.93-.32.86-.63-.07-.31-.58-.54-1.12-.5Z"/>
      <path class="cls-45" d="M60.2,128.09c-.43.03-.74.24-.68.49.06.24.45.41.88.38.43-.03.74-.24.68-.49-.06-.24-.45-.41-.88-.38h0Z"/>
      <path class="cls-24" d="M73.14,121.4c-.81,1.35-2.06,1.96-2.77,1.36-.72-.59-.65-2.17.17-3.51.81-1.35,2.06-1.96,2.77-1.36.72.59.65,2.17-.17,3.51Z"/>
      <path class="cls-45" d="M72.59,120.1c-.56.93-1.42,1.35-1.92.94-.5-.41-.44-1.5.12-2.43.56-.93,1.42-1.35,1.92-.94.5.41.44,1.5-.12,2.43Z"/>
      <path class="cls-34" d="M74.8,121.26c-.69,1.14-1.75,1.66-2.36,1.16-.61-.51-.55-1.84.15-2.99.69-1.14,1.75-1.66,2.36-1.16.61.51.55,1.84-.14,2.98h0Z"/>
      <path class="cls-43" d="M74.61,118.1l-1.27-.64h0c-1.59-.93-3.73,3.06-2.36,4.19.06.05.11.08.18.11l1.29.65c-.55-.55-.46-1.85.21-2.96.55-.93,1.35-1.44,1.96-1.35h0Z"/>
      <path class="cls-6" d="M74.44,120.96c-.47.79-1.19,1.15-1.59.81-.41-.34-.35-1.25.12-2.04s1.19-1.15,1.59-.81c.41.34.35,1.25-.12,2.04Z"/>
      <path class="cls-43" d="M74.46,120.97c-.48.79-1.2,1.14-1.62.79h-.01c.43.24,1.09-.13,1.54-.86.47-.78.52-1.69.11-2.05.03.01.06.04.08.06.42.35.38,1.27-.1,2.06h0Z"/>
      <path class="cls-24" d="M72.94,125.66c-.49.82-1.24,1.19-1.68.82-.44-.36-.39-1.31.11-2.13.49-.81,1.24-1.18,1.68-.82.44.36.39,1.31-.11,2.13Z"/>
      <path class="cls-45" d="M72.61,124.87c-.34.56-.86.82-1.16.57-.3-.25-.27-.91.07-1.47.34-.57.86-.82,1.16-.57.3.25.27.91-.07,1.47h0Z"/>
      <path class="cls-34" d="M73.94,125.57c-.42.69-1.06,1-1.42.7-.37-.31-.33-1.12.08-1.81s1.05-1,1.42-.7.33,1.11-.08,1.81Z"/>
      <path class="cls-43" d="M73.83,123.65l-.76-.39h0c-.96-.57-2.26,1.85-1.43,2.54.04.03.07.05.11.07l.78.4c-.33-.33-.28-1.12.13-1.79.34-.56.82-.87,1.19-.82h0Z"/>
      <path class="cls-6" d="M73.72,125.39c-.29.47-.72.7-.97.49-.25-.21-.21-.76.08-1.24.29-.47.72-.7.96-.49.25.21.21.76-.07,1.24Z"/>
      <path class="cls-43" d="M73.74,125.39c-.29.47-.73.69-.98.48h0c.26.14.67-.08.93-.52.29-.47.32-1.03.07-1.24.01,0,.04.02.05.03.25.21.22.77-.06,1.25Z"/>
      <path class="cls-8" d="M81.91,120.68c-1.05-.91-3.44-1.83-4.29-2.11-1.1-.36-1.71-.31-2.81-.68.13.85-.2,1.3,1.8,1.77,1.25.8,4.83,5.26,6.01,3.68.46-1.07.69-1.63-.72-2.68h0Z"/>
      <path class="cls-36" d="M74.72,121.99h-4.13c-.98,0-1-1.18-.04-1.3l4.21-.52c.96-.12.92,1.78-.05,1.82Z"/>
      <path class="cls-8" d="M84.24,125.46c.41-.56.91-3.62-.46-4-1.89-.93-3.59-1.07-3.9-1.11-.53-.08-3.56-.27-4.6-.26-1.42,0-2.34,1.17-1.35,1.85-.3.34-.39,1.04.11,1.42-.04.53-.22.91.21,1.49.04.38-.55.75.22,1.23.96.91,4.9.79,6.89.71,1.91-.07,1.94-.03,2.89-1.34h0Z"/>
      <path class="cls-40" d="M65.44,127.38v1.44c.01.13.01.26,0,.38v.14h-.02v.02h0v.02h0v.02c-.39,1.73-3.15,2.96-6.15,2.76-2.53-.17-4.43-1.31-4.73-2.7h0v-.02h0v-.02h0v-.03h0v-.02h0c-.02-.16-.02-.31,0-.47v-1.48h10.95l-.04-.04Z"/>
      <path class="cls-28" d="M65.74,126.46v1.51c.01.13.01.27,0,.4v.15h-.02v.02h0v.02h0v.02c-.41,1.82-3.32,3.12-6.48,2.91-2.67-.18-4.67-1.38-4.98-2.84h0v-.02h0v-.02h0v-.02h0v-.04h0c-.02-.17-.02-.33,0-.5v-1.57h11.53l-.04-.02Z"/>
      <path class="cls-28" d="M60.71,123.26c3.16.22,5.4,1.86,4.98,3.68-.41,1.82-3.32,3.12-6.48,2.91-3.16-.22-5.4-1.86-4.98-3.68.41-1.82,3.32-3.12,6.48-2.91Z"/>
      <path class="cls-7" d="M65.56,127.34c-.71,1.61-3.42,2.71-6.35,2.52-2.41-.16-4.28-1.16-4.85-2.43.71-1.61,3.42-2.71,6.35-2.52,2.41.16,4.28,1.16,4.85,2.43Z"/>
      <path class="cls-48" d="M54.8,128.08c.38.43.91.8,1.56,1.1v1.67c-.66-.3-1.19-.68-1.56-1.1v-1.67h0ZM57.83,129.66c-.25-.06-.48-.12-.7-.19v1.67c.22.07.46.13.7.19v-1.67Z"/>
      <path class="cls-48" d="M63.2,129.28v1.67c.94-.37,1.69-.9,2.13-1.53v-1.67c-.36.51-.92.96-1.62,1.3h0c-.11.06-.21.1-.32.15h0s-.07.03-.1.04h0l-.06.03h-.02Z"/>
      <path class="cls-9" d="M60.67,123.48c2.96.2,5.05,1.74,4.66,3.44-.39,1.7-3.1,2.92-6.06,2.73-2.96-.2-5.05-1.74-4.66-3.44.39-1.7,3.1-2.92,6.06-2.72h0Z"/>
      <path class="cls-1" d="M68.4,110.58l4.4,2.44c-3.19.57-4.27,1.67-7.3,3.38-.42-3.06-2.69-2.78-5.21-2.03v-2.48c4.05-1.95,6.43-2.27,8.11-1.31h0Z"/>
      <path class="cls-34" d="M60.42,124.38c.42.03.66.11.9.24l.73.42-.25.67c-.18.49-.93.87-1.81.81-.77-.05-1.24-.43-1.4-.84l-.24-.63.76-.44c.34-.17.87-.26,1.28-.24h.01Z"/>
      <path class="cls-43" d="M60.45,121.53c.48.04.76.12,1.03.27h.58v3.24h0v.02c-.31.49-1.16.8-2.09.74-.74-.05-1.34-.33-1.59-.71,0-.01,0-.03,0-.05h0c0-.06,0-.11,0-.16v-3.07h.61c.39-.2,1-.31,1.48-.27h-.01Z"/>
      <path class="cls-34" d="M64.49,118.5v2.5h0c.2,3.22-7.84,3.37-8.53.33-.03-.13-.04-.24-.04-.36v-2.55c.91,2.73,7.63,2.85,8.57.07Z"/>
      <path class="cls-12" d="M59.5,110.59c-3.26.22-5.55,1.92-5.12,3.79.43,1.88,3.41,3.21,6.67,2.99,3.26-.22,5.55-1.92,5.12-3.79-.43-1.87-3.41-3.21-6.67-2.99Z"/>
      <path class="cls-37" d="M66.17,113.7v3.84h0c.12,1.92-2.33,3.6-5.72,3.83-3.6.24-6.9-1.24-7.38-3.31-.04-.19-.06-.38-.06-.56v-3.9c.66,1.99,3.92,3.39,7.45,3.15,2.94-.19,5.18-1.46,5.71-3.04h0Z"/>
      <path class="cls-1" d="M58.31,107.15c-3.99.98-6.79,3.56-6.27,5.75.52,2.2,4.18,3.19,8.17,2.22,3.99-.98,6.79-3.56,6.27-5.75s-4.18-3.19-8.16-2.22h0Z"/>
      <path class="cls-13" d="M66.47,110.58v5.08h0c.34,5.43-13.21,3.65-14.37-1.47-.05-.21-.06-.41-.06-.61v-.66c.53,2.2,4.18,3.19,8.17,2.21,3.05-.75,5.4-2.43,6.11-4.16.06-.13.11-.25.15-.38h0Z"/>
      <path class="cls-43" d="M64.62,99.47l1.21-1.53c.84-1.07,3.66,1.11,2.86,2.13l-1.28,1.63c.2-.54-.31-1.44-1.03-1.94-.72-.51-1.38-.53-1.76-.29h0Z"/>
      <path class="cls-34" d="M63.76,100.11l1.41-1.78c.98-1.24,4.27,1.29,3.33,2.48l-1.49,1.9c.24-.62-.36-1.67-1.2-2.26-.84-.59-1.61-.62-2.06-.33h0Z"/>
      <path class="cls-43" d="M64.82,102.53c.93.66,1.94.7,2.24.1.3-.6-.21-1.62-1.14-2.28-.93-.66-1.94-.7-2.24-.1-.3.6.21,1.62,1.14,2.28Z"/>
      <path class="cls-34" d="M57.81,108.23l6.43-7.75c.91-.28,2.39.93,2.27,1.89l-6.43,7.77c-.76-.65-1.51-1.28-2.26-1.92h0Z"/>
      <path class="cls-43" d="M58.59,106.35l2.45-2.91h0c.36-.49,1.28-.42,2.15.19.93.65,1.43,1.67,1.14,2.26-.03.06-.06.1-.1.15l-2.46,2.93c.24-.61-.35-1.65-1.19-2.24-.83-.59-1.55-.66-2-.38h0Z"/>
      <path class="cls-43" d="M68.35,101.68l1.21-1.53c.84-1.07,3.66,1.11,2.86,2.13l-1.28,1.63c.2-.54-.31-1.44-1.03-1.94-.72-.51-1.38-.53-1.76-.29Z"/>
      <path class="cls-34" d="M67.49,102.32l1.41-1.79c.98-1.24,4.27,1.29,3.33,2.48l-1.49,1.9c.24-.62-.36-1.67-1.2-2.26-.84-.59-1.61-.62-2.06-.33h0Z"/>
      <path class="cls-43" d="M68.54,104.74c.93.65,1.94.7,2.24.1.3-.6-.21-1.62-1.14-2.28-.93-.66-1.94-.7-2.24-.1-.3.6.21,1.62,1.14,2.28Z"/>
      <path class="cls-34" d="M61.2,110.67l6.77-7.98c.91-.28,2.39.93,2.27,1.89l-6.77,8.01c-.76-.65-1.5-1.28-2.26-1.92h0Z"/>
      <path class="cls-43" d="M62.31,108.55l2.45-2.91h0c.36-.49,1.28-.42,2.15.2.93.65,1.43,1.67,1.14,2.26-.03.06-.06.11-.1.15l-2.46,2.93c.24-.61-.35-1.65-1.19-2.24-.83-.59-1.55-.66-2-.38h0Z"/>
      <path class="cls-37" d="M60.93,113.96v-.75l-6.7-3.76v.75c3.09,1.84,1.8,1.15,6.7,3.76Z"/>
      <path class="cls-1" d="M60.92,113.21l-6.7-3.76,5.73-5.35,6.45,3.74-5.47,5.37Z"/>
      <path class="cls-13" d="M60.92,113.21v.73s5.47-3.17,5.47-3.17v-2.93l-5.47,5.37Z"/>
      <path class="cls-13" d="M53.71,111.04c-.86.03-1.49.47-1.38.97.1.5.88.88,1.75.84.86-.04,1.49-.47,1.38-.97-.1-.5-.88-.88-1.75-.84Z"/>
      <path class="cls-45" d="M54.19,111.64c-.6.03-1.02.32-.95.67.07.34.61.61,1.21.58.6-.02,1.02-.32.95-.67-.07-.34-.61-.61-1.21-.58Z"/>
      <path class="cls-34" d="M54.21,110.29c-.74.03-1.26.4-1.18.82.08.42.75.75,1.48.71.74-.03,1.26-.4,1.18-.82-.08-.43-.75-.75-1.48-.71Z"/>
      <path class="cls-43" d="M55.69,111.21l-.02.77h0c.04,1-2.46.98-2.65.03,0-.03,0-.08,0-.11l.02-.79c.12.4.77.7,1.49.68.6-.03,1.05-.26,1.16-.58Z"/>
      <path class="cls-6" d="M54.26,110.54c-.51.02-.87.26-.81.55.06.29.52.5,1.02.47.51-.02.87-.26.81-.55-.06-.29-.52-.49-1.02-.47Z"/>
      <path class="cls-45" d="M54.26,110.52c-.51.02-.87.27-.81.56h0c0-.26.34-.49.81-.5.5-.02.95.19,1.02.48v-.06c-.06-.29-.52-.51-1.02-.49h0Z"/>
      <path class="cls-13" d="M56.91,112.75c-.86.03-1.49.47-1.38.97.1.5.88.88,1.75.84.86-.04,1.49-.47,1.38-.97-.1-.5-.88-.88-1.75-.84Z"/>
      <path class="cls-45" d="M57.39,113.35c-.6.03-1.02.32-.95.67.07.34.61.61,1.21.58.6-.03,1.02-.32.95-.67-.07-.34-.61-.61-1.21-.58Z"/>
      <path class="cls-34" d="M57.41,111.99c-.74.03-1.26.4-1.18.82.08.43.75.75,1.48.71.74-.03,1.26-.4,1.18-.82-.08-.43-.75-.75-1.48-.71Z"/>
      <path class="cls-43" d="M58.89,112.91l-.02.77h0c.04,1-2.46.98-2.65.04,0-.04,0-.08,0-.11l.02-.79c.13.4.77.7,1.49.68.6-.03,1.05-.27,1.16-.58Z"/>
      <path class="cls-6" d="M57.46,112.24c-.51.02-.87.26-.81.55.06.29.52.5,1.02.47.51-.02.87-.26.81-.55-.06-.29-.52-.5-1.02-.47Z"/>
      <path class="cls-45" d="M57.46,112.22c-.51.02-.87.27-.81.56h0c0-.26.34-.49.81-.5.5-.02.95.2,1.02.48v-.06c-.06-.29-.52-.51-1.02-.49Z"/>
      <path class="cls-40" d="M44.62,133.05v1.37c.01.12.01.24,0,.36v.13h-.02v.04h0v.02c-.37,1.64-2.98,2.81-5.83,2.62-2.4-.16-4.2-1.24-4.48-2.56h0v-.02h0v-.03h0v-.03h0c-.02-.15-.02-.3,0-.45v-1.41h10.37l-.04-.04Z"/>
      <path class="cls-28" d="M44.9,132.19v1.44c.01.12.01.26,0,.38v.14h-.02v.02h0v.02h0v.02c-.39,1.72-3.14,2.96-6.15,2.76-2.53-.17-4.43-1.31-4.72-2.7h0v-.02h0v-.02h0v-.03h0v-.02h0c-.02-.16-.02-.31,0-.47v-1.49h10.93l-.04-.03Z"/>
      <path class="cls-40" d="M40.14,129.16c3,.2,5.12,1.76,4.72,3.49-.39,1.72-3.14,2.96-6.15,2.76-3-.2-5.12-1.76-4.72-3.49.39-1.72,3.14-2.96,6.15-2.76Z"/>
      <path class="cls-7" d="M34.35,132.71c.91-1.3,3.26-2.16,5.8-1.99,2.03.14,3.66.9,4.37,1.91-.37,1.61-2.94,2.77-5.75,2.58-2.35-.16-4.12-1.21-4.41-2.5h0Z"/>
      <path class="cls-48" d="M34.53,133.72c.36.4.86.76,1.49,1.05v1.58c-.62-.28-1.13-.64-1.49-1.05v-1.58h0ZM37.42,135.22c-.23-.05-.46-.11-.67-.17v1.58c.21.07.44.12.67.17v-1.58Z"/>
      <path class="cls-48" d="M42.5,134.87v1.58c.89-.35,1.61-.85,2.02-1.45v-1.58c-.34.48-.87.91-1.54,1.23h0c-.1.05-.2.1-.3.14h0s-.06.03-.1.04h0l-.06.03h-.02Z"/>
      <path class="cls-9" d="M40.1,129.36c2.81.19,4.79,1.65,4.41,3.26-.36,1.62-2.94,2.77-5.75,2.58-2.81-.19-4.79-1.65-4.41-3.26.36-1.61,2.94-2.77,5.75-2.58Z"/>
      <path class="cls-16" d="M36.16,133.47c-.65-.31-1.17-.38-1.17-.16s.53.67,1.17.98c.65.31,1.17.38,1.17.16s-.53-.67-1.17-.98Z"/>
      <path class="cls-43" d="M80.67,166.07l11.45,6.44c.91.52,1.95.52,2.86,0l11.3-6.18c.31-.17.49-.48.49-.83s-.18-.66-.48-.84l-11.38-6.39c-.91-.52-1.95-.52-2.86,0l-11.37,6.13c-.32.17-.49.48-.49.83s.18.66.48.84Z"/>
      <path class="cls-24" d="M81.19,165.33l11.03,6.21c.88.49,1.87.5,2.76,0l10.88-5.95c.3-.17.47-.46.47-.8s-.17-.63-.47-.8l-10.96-6.15c-.88-.5-1.88-.5-2.76,0l-10.95,5.9c-.3.16-.47.46-.47.8s.17.63.47.8h0Z"/>
      <path class="cls-1" d="M81.15,165.05l11.03,6.21c.88.49,1.87.5,2.76,0l10.88-5.95c.3-.17.47-.46.47-.8s-.17-.63-.47-.8l-10.96-6.15c-.88-.49-1.88-.5-2.76,0l-10.95,5.9c-.3.16-.47.46-.47.8s.17.63.47.8h0Z"/>
      <path class="cls-23" d="M84.61,163.47c-.95.06-1.61.52-1.49,1.02.13.51,1,.87,1.94.81.95-.06,1.61-.52,1.49-1.02-.13-.51-.99-.87-1.94-.81Z"/>
      <path class="cls-40" d="M83.06,155.64v6.87c0,2.32,3.54,2.32,3.54,0v-6.9c-.25.49-1.09.83-2.01.77-.74-.05-1.33-.35-1.53-.74Z"/>
      <path class="cls-28" d="M83.33,155.94v6.56c0,1.97,3,1.97,3,0v-6.59c-.39.31-1.05.5-1.75.45-.53-.03-.98-.19-1.26-.43h0Z"/>
      <path class="cls-48" d="M83.55,156.09v6.25c0,1.69,2.57,1.69,2.57,0v-6.27c-.39.22-.95.34-1.53.31-.41-.03-.77-.13-1.05-.28h0Z"/>
      <path class="cls-36" d="M83.55,156.09v6.25c0,1.69,2.57,1.69,2.57,0v-6.27c-.39.22-.95.34-1.53.31-.41-.03-.77-.13-1.05-.28h0Z"/>
      <path class="cls-9" d="M83.72,156.17v6.13c0,.28.23.62.51.76h0c.28.14.51.02.51-.26v-6.43h-.15c-.33-.02-.62-.09-.87-.2h0Z"/>
      <path class="cls-23" d="M93.45,163.56c-.95.06-1.61.52-1.49,1.02.13.51,1,.87,1.94.81.95-.06,1.61-.52,1.49-1.02-.13-.51-.99-.87-1.94-.81Z"/>
      <path class="cls-40" d="M91.91,155.71v6.87c0,2.32,3.54,2.32,3.54,0v-6.9c-.25.5-1.09.83-2.01.77-.74-.05-1.33-.35-1.53-.73h0Z"/>
      <path class="cls-28" d="M92.18,156.02v6.56c0,1.97,3,1.97,3,0v-6.59c-.39.31-1.05.5-1.75.45-.53-.04-.98-.2-1.26-.43h0Z"/>
      <path class="cls-48" d="M92.39,156.17v6.25c0,1.69,2.57,1.69,2.57,0v-6.27c-.39.22-.95.34-1.53.31-.41-.03-.77-.13-1.05-.28h0Z"/>
      <path class="cls-20" d="M92.39,159.74v2.68c0,1.69,2.57,1.69,2.57,0v-2.71c-.39.22-1.03.33-1.53.31-.5-.04-.77-.13-1.05-.28h0Z"/>
      <path class="cls-16" d="M92.57,156.25v6.13c0,.28.23.62.51.76h0c.28.14.51.02.51-.26v-6.43h-.15c-.33-.02-.62-.09-.87-.19h0Z"/>
      <path class="cls-23" d="M89.03,165.97c-.95.06-1.61.52-1.49,1.02.13.51,1,.87,1.94.81.95-.06,1.61-.52,1.49-1.03-.13-.51-.99-.87-1.94-.81Z"/>
      <path class="cls-23" d="M97.87,166.06c-.95.06-1.61.52-1.49,1.02.13.51,1,.87,1.94.81.95-.06,1.61-.52,1.49-1.03-.13-.51-.99-.87-1.94-.81Z"/>
      <path class="cls-23" d="M93.45,168.48c-.95.06-1.61.52-1.49,1.03.13.51,1,.87,1.94.81.95-.06,1.61-.52,1.49-1.02-.13-.51-.99-.87-1.94-.81Z"/>
      <path class="cls-40" d="M87.49,158.12v6.87c0,2.32,3.54,2.32,3.54,0v-6.9c-.25.5-1.09.83-2.01.77-.74-.05-1.33-.35-1.53-.74Z"/>
      <path class="cls-28" d="M87.76,158.44v6.56c0,1.97,3,1.97,3,0v-6.59c-.39.31-1.05.5-1.75.45-.53-.04-.98-.19-1.26-.43h0Z"/>
      <path class="cls-48" d="M87.97,158.58v6.25c0,1.69,2.57,1.69,2.57,0v-6.27c-.39.22-.95.34-1.53.31-.41-.03-.77-.13-1.05-.28h0Z"/>
      <path class="cls-20" d="M87.97,159.14v5.7c0,1.69,2.57,1.69,2.57,0v-5.72c-.39.22-1.03.33-1.53.31-.5-.03-.77-.13-1.05-.28h0Z"/>
      <path class="cls-9" d="M88.14,158.66v6.13c0,.28.23.62.51.76h0c.28.14.51.02.51-.26v-6.43h-.15c-.33-.02-.62-.09-.87-.19h0Z"/>
      <path class="cls-40" d="M96.34,158.2v6.87c0,2.32,3.54,2.32,3.54,0v-6.9c-.25.49-1.09.83-2.01.77-.74-.05-1.33-.35-1.53-.74Z"/>
      <path class="cls-28" d="M96.6,158.52v6.56c0,1.97,3,1.97,3,0v-6.59c-.38.31-1.05.5-1.75.45-.53-.03-.98-.19-1.26-.42h0Z"/>
      <path class="cls-48" d="M96.82,158.65v6.25c0,1.69,2.57,1.69,2.57,0v-6.27c-.39.22-.95.34-1.53.31-.41-.03-.77-.13-1.05-.28h0Z"/>
      <path class="cls-20" d="M96.82,158.65v6.25c0,1.69,2.57,1.69,2.57,0v-6.27c-.39.22-.95.34-1.53.31-.41-.03-.77-.13-1.05-.28h0Z"/>
      <path class="cls-9" d="M96.99,158.74v6.13c0,.28.23.62.51.76h0c.28.14.51.02.51-.26v-6.44h-.15c-.33-.02-.62-.09-.87-.19h0Z"/>
      <path class="cls-40" d="M91.91,160.62v6.87c0,2.32,3.54,2.32,3.54,0v-6.9c-.25.49-1.09.83-2.01.77-.74-.05-1.33-.35-1.53-.74Z"/>
      <path class="cls-28" d="M92.18,160.93v6.56c0,1.97,3,1.97,3,0v-6.59c-.39.31-1.05.5-1.75.45-.53-.04-.98-.19-1.26-.43h0Z"/>
      <path class="cls-48" d="M92.39,161.07v6.25c0,1.69,2.57,1.69,2.57,0v-6.28c-.39.22-.95.34-1.53.31-.41-.03-.77-.13-1.05-.28h0Z"/>
      <path class="cls-11" d="M92.39,161.07v6.25c0,1.69,2.57,1.69,2.57,0v-6.28c-.39.22-.95.34-1.53.31-.41-.03-.77-.13-1.05-.28h0Z"/>
      <path class="cls-9" d="M92.57,161.16v6.13c0,.28.23.62.51.76h0c.28.14.51.02.51-.26v-6.43h-.15c-.33-.02-.62-.09-.87-.2h0Z"/>
      <path class="cls-23" d="M102.3,163.64c-.95.06-1.61.52-1.49,1.02.13.51,1,.87,1.94.81.95-.06,1.61-.52,1.49-1.02-.13-.51-.99-.87-1.94-.81Z"/>
      <path class="cls-40" d="M100.76,155.78v6.87c0,2.32,3.54,2.32,3.54,0v-6.9c-.25.49-1.09.83-2.01.77-.74-.05-1.33-.35-1.53-.74Z"/>
      <path class="cls-28" d="M101.03,156.1v6.56c0,1.97,3,1.97,3,0v-6.59c-.39.31-1.05.5-1.75.45-.53-.04-.98-.2-1.26-.43h0Z"/>
      <path class="cls-48" d="M101.24,156.24v6.25c0,1.69,2.57,1.69,2.57,0v-6.28c-.39.22-.95.34-1.53.31-.41-.03-.77-.13-1.05-.28h0Z"/>
      <path class="cls-36" d="M101.24,156.24v6.25c0,1.69,2.57,1.69,2.57,0v-6.28c-.39.22-.95.34-1.53.31-.41-.03-.77-.13-1.05-.28h0Z"/>
      <path class="cls-9" d="M101.41,156.32v6.13c0,.28.23.62.51.76h0c.28.14.51.02.51-.26v-6.43h-.15c-.33-.02-.63-.09-.87-.2h0Z"/>
      <path class="cls-59" d="M81.97,164.68c.17,0,.3-.13.3-.3v-9.04c0-.16-.13-.3-.3-.3s-.3.13-.3.3v9.04c0,.16.13.3.3.3Z"/>
      <path class="cls-59" d="M93.59,171.34c.17,0,.3-.13.3-.3v-9.04c0-.16-.13-.3-.3-.3s-.3.13-.3.3v9.04c0,.16.13.3.3.3Z"/>
      <path class="cls-59" d="M105.47,164.92c.17,0,.3-.13.3-.3v-9.04c0-.16-.13-.3-.3-.3s-.3.13-.3.3v9.04c0,.16.13.3.3.3Z"/>
      <path class="cls-24" d="M81.19,156.44l11.03,6.21c.88.49,1.87.5,2.76,0l10.88-5.95c.3-.17.47-.46.47-.8s-.17-.63-.47-.8l-10.96-6.15c-.88-.49-1.88-.5-2.76,0l-10.95,5.9c-.3.16-.47.46-.47.8s.17.63.47.8h0Z"/>
      <path class="cls-1" d="M81.15,156.15l11.03,6.21c.88.5,1.87.5,2.76,0l10.88-5.95c.3-.17.47-.46.47-.8s-.17-.63-.47-.8l-10.96-6.15c-.88-.5-1.88-.5-2.76,0l-10.95,5.9c-.3.16-.47.46-.47.8s.17.63.47.8h0Z"/>
      <path class="cls-59" d="M81.97,155.64c.17,0,.3-.13.3-.3v-6.92c0-.53.27-.98.73-1.23l9.73-5.29c.18-.09.37-.09.55.01.18.1.27.27.27.47v6.56c0,.16.13.3.3.3s.3-.13.3-.3v-6.56c0-.42-.2-.77-.57-.98-.36-.22-.78-.22-1.14-.02l-9.73,5.29c-.66.36-1.05,1-1.05,1.75v6.92c0,.16.13.3.3.3h0Z"/>
      <path class="cls-23" d="M93.46,158.63c-.95.06-1.61.52-1.49,1.02.13.51,1,.87,1.94.81.95-.06,1.61-.52,1.49-1.03-.13-.51-.99-.87-1.94-.81Z"/>
      <path class="cls-40" d="M91.91,150.8v6.87c0,2.32,3.54,2.32,3.54,0v-6.9c-.25.49-1.09.83-2.01.77-.74-.05-1.33-.35-1.53-.73h0Z"/>
      <path class="cls-28" d="M92.18,151.11v6.56c0,1.97,3,1.97,3,0v-6.59c-.39.31-1.05.5-1.75.45-.53-.04-.98-.2-1.26-.43h0Z"/>
      <path class="cls-48" d="M92.39,151.26v6.25c0,1.69,2.57,1.69,2.57,0v-6.27c-.39.22-.95.34-1.53.31-.41-.03-.77-.13-1.05-.28h0Z"/>
      <path class="cls-36" d="M92.39,151.26v6.25c0,1.69,2.57,1.69,2.57,0v-6.27c-.39.22-.95.34-1.53.31-.41-.03-.77-.13-1.05-.28h0Z"/>
      <path class="cls-16" d="M92.57,151.34v6.14c0,.28.23.62.51.76h0c.28.14.51.02.51-.26v-6.43h-.15c-.33-.02-.62-.09-.87-.2h0Z"/>
      <path class="cls-44" d="M98.27,156.59c.7.04,1.2.38,1.11.76-.09.38-.74.65-1.44.6-.7-.04-1.2-.38-1.11-.76.09-.38.74-.65,1.44-.6Z"/>
      <path class="cls-53" d="M98.36,151.84c1.08.07,1.85.63,1.71,1.26-.14.62-1.14,1.07-2.22,1-1.08-.07-1.85-.63-1.71-1.26.14-.62,1.14-1.07,2.22-1Z"/>
      <path class="cls-40" d="M96.34,149.77v3.52c.2.38.79.68,1.53.74.91.06,1.76-.27,2.01-.77v-3.49c0-2.32-3.54-2.32-3.54,0Z"/>
      <path class="cls-28" d="M96.6,149.71v3.9c.29.23.73.39,1.26.43.7.05,1.36-.14,1.75-.45v-3.87c0-1.97-3-1.97-3,0h0Z"/>
      <path class="cls-48" d="M96.82,150.09v3.66c.27.15.63.25,1.05.28.58.04,1.14-.08,1.53-.31v-3.64c0-1.69-2.57-1.69-2.57,0h0Z"/>
      <path class="cls-28" d="M98.39,148.27c.81.05,1.47.34,1.74.72h.14v.43h0s0,.09-.02.14c-.15.63-1.24,1.09-2.43,1.01-1.1-.07-1.91-.57-1.88-1.16h0v-.43h.17c.36-.47,1.29-.78,2.28-.72h0Z"/>
      <path class="cls-40" d="M98.39,147.85c1.19.08,2.02.65,1.87,1.28-.15.63-1.24,1.09-2.43,1.01-1.19-.08-2.02-.65-1.87-1.28.15-.63,1.24-1.09,2.43-1.01Z"/>
      <path class="cls-16" d="M98.36,147.95c1.09.07,1.85.59,1.71,1.18-.14.58-1.14,1-2.22.93-1.09-.07-1.85-.59-1.71-1.18.14-.58,1.14-1,2.22-.93Z"/>
      <path class="cls-28" d="M98.29,148.25c.77.05,1.31.42,1.21.84-.1.41-.81.7-1.58.65-.77-.05-1.31-.42-1.21-.84.1-.41.81-.7,1.58-.66h0Z"/>
      <path class="cls-48" d="M98.29,148.66c.58.04,1.02.25,1.17.53-.19.35-.84.59-1.54.55-.58-.03-1.02-.25-1.17-.53.19-.35.83-.59,1.54-.55Z"/>
      <path class="cls-9" d="M96.99,151.06v2.77c.25.1.54.17.87.2h.15v-2.78c0-.38-1.02-.79-1.02-.2h0Z"/>
      <path class="cls-16" d="M98.02,151.08c.05.22-.14.4-.43.4-.29,0-.55-.18-.6-.4-.05-.22.14-.4.43-.4.29,0,.55.18.6.4Z"/>
      <path class="cls-53" d="M102.78,154.33c1.08.07,1.84.63,1.71,1.26-.14.62-1.14,1.07-2.22,1-1.08-.07-1.85-.63-1.71-1.26.14-.62,1.14-1.07,2.22-1Z"/>
      <path class="cls-40" d="M100.76,152.27v3.52c.2.38.79.68,1.53.74.91.06,1.76-.27,2.01-.77v-3.49c0-2.32-3.54-2.32-3.54,0Z"/>
      <path class="cls-28" d="M101.03,152.2v3.9c.29.23.73.39,1.26.43.7.05,1.36-.14,1.75-.45v-3.87c0-1.97-3-1.97-3,0h0Z"/>
      <path class="cls-48" d="M101.24,152.58v3.66c.27.15.63.25,1.05.28.58.04,1.14-.08,1.53-.31v-3.64c0-1.69-2.57-1.69-2.57,0h0Z"/>
      <path class="cls-36" d="M101.24,154.47v1.76c.27.15.63.25,1.05.28.58.04,1.14-.08,1.53-.31v-1.74h-2.57Z"/>
      <path class="cls-28" d="M102.81,150.76c.81.05,1.47.34,1.74.72h.14v.43h0s0,.09-.02.14c-.15.63-1.24,1.09-2.43,1.01-1.1-.07-1.91-.57-1.88-1.16h0v-.43h.17c.36-.47,1.29-.78,2.28-.72h0Z"/>
      <path class="cls-40" d="M102.81,150.34c1.19.08,2.02.65,1.87,1.28-.15.63-1.24,1.09-2.43,1.01-1.19-.08-2.02-.65-1.87-1.28.15-.63,1.24-1.09,2.43-1.01Z"/>
      <path class="cls-16" d="M102.79,150.44c1.09.07,1.85.59,1.71,1.18-.14.58-1.14,1-2.22.93-1.09-.07-1.85-.59-1.71-1.18.14-.58,1.14-1,2.22-.93Z"/>
      <path class="cls-28" d="M102.71,150.74c.77.05,1.31.42,1.21.84-.1.41-.81.7-1.58.65-.77-.05-1.31-.42-1.21-.84.1-.41.81-.71,1.58-.66h0Z"/>
      <path class="cls-8" d="M102.7,153.8c.7.04,1.2.38,1.11.76-.09.38-.74.65-1.44.6-.7-.04-1.2-.38-1.11-.76.09-.38.74-.65,1.44-.6Z"/>
      <path class="cls-48" d="M102.71,151.15c.58.03,1.02.25,1.17.53-.19.36-.83.59-1.54.55-.57-.03-1.02-.25-1.17-.53.19-.35.84-.59,1.54-.55Z"/>
      <path class="cls-9" d="M101.41,153.55v2.77c.25.1.54.17.87.2h.15v-2.78c0-.38-1.02-.79-1.02-.2h0Z"/>
      <path class="cls-16" d="M102.45,153.57c.05.22-.14.4-.43.4-.29,0-.55-.18-.6-.4-.05-.22.14-.4.43-.4.29,0,.55.18.6.4Z"/>
      <path class="cls-53" d="M93.94,149.35c1.08.07,1.85.63,1.71,1.26-.14.62-1.14,1.07-2.22,1-1.08-.07-1.85-.63-1.71-1.26.14-.62,1.14-1.07,2.22-1Z"/>
      <path class="cls-40" d="M91.91,147.28v3.52c.2.38.79.68,1.53.73.91.06,1.76-.27,2.01-.77v-3.49c0-2.32-3.54-2.32-3.54,0h0Z"/>
      <path class="cls-28" d="M92.18,147.21v3.9c.29.23.73.39,1.26.43.7.05,1.36-.14,1.75-.45v-3.87c0-1.97-3-1.97-3,0h0Z"/>
      <path class="cls-48" d="M92.39,147.6v3.66c.27.15.63.25,1.05.28.58.04,1.14-.08,1.53-.31v-3.64c0-1.69-2.57-1.69-2.57,0h0Z"/>
      <path class="cls-36" d="M92.39,150.34v.91c.27.15.63.25,1.05.28.58.04,1.14-.08,1.53-.31v-.89h-2.58Z"/>
      <path class="cls-28" d="M93.96,145.78c.81.05,1.47.34,1.74.72h.14v.43h0s0,.09-.02.14c-.15.63-1.24,1.09-2.43,1.01-1.1-.07-1.91-.57-1.88-1.16h0v-.42h.17c.36-.48,1.29-.78,2.28-.72h0Z"/>
      <path class="cls-40" d="M93.96,145.36c1.19.08,2.02.65,1.87,1.28-.15.63-1.24,1.09-2.43,1.01-1.19-.08-2.02-.65-1.87-1.28.15-.63,1.24-1.09,2.43-1.01Z"/>
      <path class="cls-16" d="M93.94,145.45c1.09.07,1.85.59,1.71,1.18-.14.58-1.14,1-2.22.93-1.09-.07-1.85-.59-1.71-1.18.14-.58,1.14-1,2.22-.93Z"/>
      <path class="cls-28" d="M93.86,145.76c.77.05,1.31.42,1.21.84-.1.41-.81.7-1.58.65-.77-.05-1.31-.42-1.21-.84.1-.41.81-.7,1.58-.66Z"/>
      <path class="cls-8" d="M93.85,149.7c.7.04,1.2.38,1.11.76-.09.38-.74.65-1.44.6-.7-.04-1.2-.38-1.11-.76.09-.38.74-.65,1.44-.6Z"/>
      <path class="cls-48" d="M93.86,146.17c.58.03,1.02.25,1.17.53-.19.35-.83.59-1.54.55-.58-.03-1.02-.25-1.17-.53.19-.36.83-.59,1.54-.55Z"/>
      <path class="cls-9" d="M92.57,148.57v2.77c.25.1.54.17.87.2h.15v-2.78c0-.38-1.02-.79-1.02-.2h0Z"/>
      <path class="cls-16" d="M93.6,148.59c.05.22-.14.4-.43.4-.29,0-.55-.18-.6-.4-.05-.22.14-.4.43-.4.29,0,.55.18.6.4Z"/>
      <path class="cls-44" d="M93.85,159c.7.04,1.2.38,1.11.76-.09.38-.74.65-1.44.6-.7-.04-1.2-.38-1.11-.76.09-.38.74-.65,1.44-.6Z"/>
      <path class="cls-53" d="M93.94,154.26c1.08.07,1.85.63,1.71,1.26-.14.62-1.14,1.07-2.22,1-1.08-.07-1.85-.64-1.71-1.26.14-.62,1.14-1.07,2.22-1Z"/>
      <path class="cls-53" d="M89.51,156.68c1.08.07,1.85.63,1.71,1.26-.14.62-1.14,1.07-2.22,1-1.08-.07-1.85-.63-1.71-1.26.14-.62,1.14-1.07,2.22-1Z"/>
      <path class="cls-40" d="M91.91,152.19v3.52c.2.38.79.68,1.53.73.91.06,1.76-.27,2.01-.77v-3.49c0-2.32-3.54-2.32-3.54,0h0Z"/>
      <path class="cls-28" d="M92.18,152.12v3.9c.29.23.73.39,1.26.43.7.05,1.36-.14,1.75-.45v-3.87c0-1.97-3-1.97-3,0h0Z"/>
      <path class="cls-48" d="M92.39,152.51v3.66c.27.15.63.25,1.05.28.58.04,1.14-.08,1.53-.31v-3.64c0-1.69-2.57-1.69-2.57,0h0Z"/>
      <path class="cls-28" d="M93.96,150.69c.81.05,1.47.34,1.74.72h.14v.43h0s0,.09-.02.14c-.15.64-1.24,1.09-2.43,1.01-1.1-.07-1.91-.57-1.88-1.16h0v-.43h.17c.36-.47,1.29-.78,2.28-.72h0Z"/>
      <path class="cls-40" d="M93.96,150.27c1.19.08,2.02.65,1.87,1.28-.15.63-1.24,1.09-2.43,1.01-1.19-.08-2.02-.65-1.87-1.28.15-.63,1.24-1.09,2.43-1.01Z"/>
      <path class="cls-16" d="M93.94,150.36c1.09.07,1.85.59,1.71,1.18-.14.58-1.14,1-2.22.93-1.09-.07-1.85-.59-1.71-1.18.14-.58,1.14-1,2.22-.93Z"/>
      <path class="cls-28" d="M93.86,150.67c.77.05,1.31.42,1.21.84-.1.41-.81.7-1.58.66-.77-.05-1.31-.42-1.21-.84.1-.41.81-.7,1.58-.66h0Z"/>
      <path class="cls-48" d="M93.86,151.08c.58.04,1.02.25,1.17.53-.19.36-.83.59-1.54.55-.58-.04-1.02-.25-1.17-.53.19-.36.83-.59,1.54-.55Z"/>
      <path class="cls-9" d="M92.57,153.48v2.77c.25.1.54.17.87.2h.15v-2.78c0-.38-1.02-.79-1.02-.19h0Z"/>
      <path class="cls-16" d="M93.6,153.5c.05.22-.14.4-.43.4-.29,0-.55-.18-.6-.4-.05-.22.14-.4.43-.4.29,0,.55.18.6.4Z"/>
      <path class="cls-53" d="M98.36,156.75c1.08.07,1.85.63,1.71,1.26-.14.62-1.14,1.07-2.22,1-1.08-.07-1.85-.63-1.71-1.26.14-.62,1.14-1.07,2.22-1Z"/>
      <path class="cls-53" d="M93.94,159.17c1.08.07,1.85.63,1.71,1.26-.14.62-1.14,1.07-2.22,1-1.08-.07-1.85-.63-1.71-1.26.14-.62,1.14-1.07,2.22-1Z"/>
      <path class="cls-40" d="M91.91,157.1v3.52c.2.38.79.68,1.53.74.91.06,1.76-.27,2.01-.77v-3.49c0-2.32-3.54-2.32-3.54,0Z"/>
      <path class="cls-28" d="M92.18,157.03v3.9c.29.23.73.39,1.26.43.7.05,1.36-.14,1.75-.45v-3.87c0-1.97-3-1.97-3,0h0Z"/>
      <path class="cls-48" d="M92.39,157.41v3.66c.27.15.63.25,1.05.28.58.04,1.14-.08,1.53-.31v-3.64c0-1.69-2.57-1.69-2.57,0h0Z"/>
      <path class="cls-11" d="M92.39,159.3v1.76c.27.15.63.25,1.05.28.58.04,1.14-.08,1.53-.31v-1.74h-2.58Z"/>
      <path class="cls-28" d="M93.96,155.6c.81.05,1.47.34,1.74.72h.14v.43h0s0,.09-.02.14c-.15.63-1.24,1.09-2.43,1.01-1.1-.07-1.91-.57-1.88-1.16h0v-.43h.17c.36-.47,1.29-.78,2.28-.72h0Z"/>
      <path class="cls-40" d="M93.96,155.18c1.19.08,2.02.65,1.87,1.28-.15.63-1.24,1.09-2.43,1.01-1.19-.08-2.02-.65-1.87-1.28.15-.63,1.24-1.09,2.43-1.01Z"/>
      <path class="cls-16" d="M93.94,155.27c1.09.07,1.85.59,1.71,1.18-.14.58-1.14,1-2.22.93-1.09-.07-1.85-.59-1.71-1.18.14-.58,1.14-1,2.22-.93Z"/>
      <path class="cls-28" d="M93.86,155.57c.77.05,1.31.42,1.21.84-.1.41-.81.7-1.58.66-.77-.05-1.31-.42-1.21-.84.1-.41.81-.7,1.58-.66h0Z"/>
      <path class="cls-6" d="M93.85,158.63c.7.04,1.2.38,1.11.76-.09.38-.74.65-1.44.6-.7-.04-1.2-.38-1.11-.76.09-.38.74-.65,1.44-.6Z"/>
      <path class="cls-48" d="M93.86,155.99c.58.04,1.02.25,1.17.53-.19.35-.83.59-1.54.55-.58-.03-1.02-.25-1.17-.53.19-.36.83-.59,1.54-.55Z"/>
      <path class="cls-9" d="M92.57,158.38v2.78c.25.1.54.17.87.19h.15v-2.78c0-.38-1.02-.79-1.02-.19h0Z"/>
      <path class="cls-16" d="M93.6,158.4c.05.22-.14.4-.43.4-.29,0-.55-.18-.6-.4-.05-.22.14-.4.43-.4.29,0,.55.18.6.4Z"/>
      <path class="cls-53" d="M89.51,151.77c1.08.07,1.85.63,1.71,1.26-.14.62-1.14,1.07-2.22,1-1.08-.07-1.85-.63-1.71-1.26.14-.62,1.14-1.07,2.22-1Z"/>
      <path class="cls-53" d="M85.09,154.19c1.08.07,1.85.63,1.71,1.26-.14.62-1.14,1.07-2.22,1-1.08-.07-1.85-.63-1.71-1.26.14-.62,1.14-1.07,2.22-1Z"/>
      <path class="cls-40" d="M87.49,149.7v3.52c.2.38.79.68,1.53.73.91.06,1.76-.27,2.01-.77v-3.49c0-2.32-3.54-2.32-3.54,0h0Z"/>
      <path class="cls-28" d="M87.76,149.63v3.9c.29.23.73.39,1.26.42.7.05,1.36-.14,1.75-.45v-3.87c0-1.97-3-1.97-3,0h0Z"/>
      <path class="cls-48" d="M87.97,150.01v3.66c.27.15.63.25,1.05.28.58.04,1.14-.08,1.53-.31v-3.64c0-1.69-2.57-1.69-2.57,0h0Z"/>
      <path class="cls-11" d="M87.97,151.79v1.88c.27.15.63.25,1.05.28.58.04,1.14-.08,1.53-.31v-1.86h-2.58Z"/>
      <path class="cls-28" d="M89.54,148.19c.81.05,1.47.34,1.74.72h.14v.43h0s0,.09-.02.14c-.15.63-1.24,1.09-2.43,1.01-1.1-.07-1.91-.57-1.88-1.16h0v-.43h.17c.36-.47,1.29-.78,2.28-.72h0Z"/>
      <path class="cls-40" d="M89.54,147.77c1.19.08,2.02.65,1.87,1.28-.15.64-1.24,1.09-2.43,1.01-1.19-.08-2.02-.65-1.87-1.28.15-.63,1.24-1.09,2.43-1.01Z"/>
      <path class="cls-16" d="M89.51,147.87c1.09.07,1.85.59,1.71,1.18-.14.58-1.14,1-2.22.93-1.09-.07-1.85-.59-1.71-1.18.14-.58,1.14-1,2.22-.93Z"/>
      <path class="cls-28" d="M89.44,148.18c.77.05,1.31.42,1.21.84-.1.41-.81.7-1.58.66-.77-.05-1.31-.42-1.21-.84.1-.41.81-.7,1.58-.65Z"/>
      <path class="cls-6" d="M89.43,151.08c.7.04,1.2.38,1.11.76-.09.38-.74.65-1.44.6-.7-.04-1.2-.38-1.11-.76.09-.38.74-.65,1.44-.6Z"/>
      <path class="cls-48" d="M89.44,148.59c.58.04,1.02.25,1.17.53-.19.36-.84.59-1.54.55-.58-.04-1.02-.25-1.17-.53.19-.36.83-.59,1.54-.55Z"/>
      <path class="cls-9" d="M88.14,150.98v2.77c.25.1.54.17.87.2h.15v-2.78c0-.38-1.02-.79-1.02-.2h0Z"/>
      <path class="cls-16" d="M89.17,151c.05.22-.14.4-.43.4-.29,0-.55-.18-.6-.4-.05-.22.14-.4.43-.4.29,0,.55.18.6.4Z"/>
      <path class="cls-40" d="M83.06,152.12v3.52c.2.38.79.68,1.53.74.91.06,1.76-.27,2.01-.77v-3.49c0-2.32-3.54-2.32-3.54,0Z"/>
      <path class="cls-28" d="M83.33,152.05v3.9c.29.23.73.39,1.26.43.7.05,1.36-.14,1.75-.45v-3.87c0-1.97-3-1.97-3,0h0Z"/>
      <path class="cls-48" d="M83.55,152.43v3.66c.27.15.63.25,1.05.28.58.04,1.14-.08,1.53-.31v-3.64c0-1.69-2.57-1.69-2.57,0h0Z"/>
      <path class="cls-36" d="M83.55,155.18v.91c.27.15.63.25,1.05.28.58.04,1.14-.08,1.53-.31v-.89h-2.58Z"/>
      <path class="cls-28" d="M85.11,150.61c.81.05,1.47.34,1.74.72h.14v.43h0s0,.09-.02.14c-.15.63-1.24,1.09-2.43,1.01-1.1-.07-1.91-.57-1.88-1.16h0v-.43h.17c.36-.47,1.29-.78,2.28-.72h0Z"/>
      <path class="cls-40" d="M85.11,150.19c1.19.08,2.02.65,1.87,1.28-.15.63-1.24,1.09-2.43,1.01s-2.02-.65-1.87-1.28c.15-.63,1.24-1.09,2.43-1.01Z"/>
      <path class="cls-16" d="M85.09,150.29c1.09.07,1.85.59,1.71,1.18-.14.58-1.14,1-2.22.93-1.09-.07-1.85-.59-1.71-1.18.14-.58,1.14-1,2.22-.93Z"/>
      <path class="cls-28" d="M85.01,150.6c.77.05,1.31.42,1.21.84-.1.41-.81.7-1.58.66s-1.31-.42-1.21-.84c.1-.41.81-.7,1.58-.66h0Z"/>
      <path class="cls-8" d="M85,154.53c.7.04,1.2.38,1.11.76-.09.38-.74.65-1.44.6-.7-.04-1.2-.38-1.11-.76.09-.38.74-.65,1.44-.6Z"/>
      <path class="cls-48" d="M85.01,151.01c.58.04,1.02.25,1.17.53-.19.36-.84.59-1.54.55-.58-.04-1.02-.25-1.17-.53.19-.36.84-.59,1.54-.55Z"/>
      <path class="cls-9" d="M83.72,153.4v2.78c.25.1.54.18.87.19h.15v-2.78c0-.38-1.02-.79-1.02-.2h0Z"/>
      <path class="cls-16" d="M84.75,153.42c.05.22-.14.4-.43.4-.29,0-.55-.18-.6-.4-.05-.22.14-.4.43-.4.29,0,.55.18.6.4Z"/>
      <path class="cls-40" d="M87.49,154.61v3.52c.2.38.79.68,1.53.74.91.06,1.76-.27,2.01-.77v-3.49c0-2.32-3.54-2.32-3.54,0Z"/>
      <path class="cls-28" d="M87.76,154.54v3.9c.29.23.73.39,1.26.43.7.05,1.36-.14,1.75-.45v-3.87c0-1.97-3-1.97-3,0h0Z"/>
      <path class="cls-48" d="M87.97,154.93v3.66c.27.15.63.25,1.05.28.58.04,1.14-.08,1.53-.31v-3.64c0-1.69-2.57-1.69-2.57,0h0Z"/>
      <path class="cls-20" d="M87.97,156.82v1.76c.27.15.63.25,1.05.28.58.04,1.14-.08,1.53-.31v-1.74h-2.58Z"/>
      <path class="cls-28" d="M89.54,153.1c.81.05,1.47.34,1.74.72h.14v.43h0s0,.09-.02.14c-.15.64-1.24,1.09-2.43,1.01-1.1-.07-1.91-.57-1.88-1.16h0v-.43h.17c.36-.47,1.29-.78,2.28-.72h0Z"/>
      <path class="cls-40" d="M89.54,152.68c1.19.08,2.02.65,1.87,1.28-.15.64-1.24,1.09-2.43,1.01-1.19-.08-2.02-.65-1.87-1.28.15-.63,1.24-1.09,2.43-1.01Z"/>
      <path class="cls-16" d="M89.51,152.78c1.09.07,1.85.59,1.71,1.18-.14.58-1.14,1-2.22.93-1.09-.07-1.85-.59-1.71-1.18.14-.58,1.14-1,2.22-.93Z"/>
      <path class="cls-28" d="M89.44,153.09c.77.05,1.31.42,1.21.84-.1.41-.81.7-1.58.66-.77-.05-1.31-.42-1.21-.84.1-.41.81-.7,1.58-.65Z"/>
      <path class="cls-44" d="M89.43,156.14c.7.04,1.2.38,1.11.76-.09.38-.74.65-1.44.6-.7-.04-1.2-.38-1.11-.76.09-.38.74-.65,1.44-.6Z"/>
      <path class="cls-48" d="M89.44,153.5c.58.04,1.02.25,1.17.53-.19.35-.84.59-1.54.55-.58-.03-1.02-.25-1.17-.53.19-.36.83-.59,1.54-.55Z"/>
      <path class="cls-9" d="M88.14,155.89v2.78c.25.1.54.17.87.19h.15v-2.78c0-.38-1.02-.79-1.02-.2h0Z"/>
      <path class="cls-16" d="M89.17,155.91c.05.22-.14.41-.43.4-.29,0-.55-.18-.6-.4-.05-.22.14-.4.43-.4.29,0,.55.18.6.4Z"/>
      <path class="cls-40" d="M96.34,154.68v3.52c.2.38.79.68,1.53.74.91.06,1.76-.27,2.01-.77v-3.49c0-2.32-3.54-2.32-3.54,0Z"/>
      <path class="cls-28" d="M96.6,154.62v3.9c.29.23.73.39,1.26.42.7.05,1.36-.14,1.75-.45v-3.87c0-1.97-3-1.97-3,0h0Z"/>
      <path class="cls-48" d="M96.82,154.99v3.66c.27.15.63.25,1.05.28.58.04,1.14-.08,1.53-.31v-3.64c0-1.69-2.57-1.69-2.57,0h0Z"/>
      <path class="cls-28" d="M98.39,153.18c.81.05,1.47.34,1.74.72h.14v.43h0s0,.09-.02.14c-.15.64-1.24,1.09-2.43,1.01-1.1-.07-1.91-.57-1.88-1.16h0v-.43h.17c.36-.47,1.29-.78,2.28-.72h0Z"/>
      <path class="cls-40" d="M98.39,152.76c1.19.08,2.02.65,1.87,1.28-.15.63-1.24,1.09-2.43,1.01-1.19-.08-2.02-.65-1.87-1.28.15-.63,1.24-1.09,2.43-1.01Z"/>
      <path class="cls-16" d="M98.36,152.85c1.09.07,1.85.59,1.71,1.18-.14.58-1.14,1-2.22.93-1.09-.07-1.85-.59-1.71-1.18.14-.58,1.14-1,2.22-.93Z"/>
      <path class="cls-28" d="M98.29,153.16c.77.05,1.31.42,1.21.84-.1.41-.81.7-1.58.65-.77-.05-1.31-.42-1.21-.84.1-.41.81-.7,1.58-.66h0Z"/>
      <path class="cls-48" d="M98.29,153.57c.58.04,1.02.25,1.17.53-.19.35-.84.59-1.54.55-.58-.03-1.02-.25-1.17-.53.19-.36.83-.59,1.54-.55Z"/>
      <path class="cls-9" d="M96.99,155.96v2.77c.25.1.54.17.87.2h.15v-2.78c0-.38-1.02-.79-1.02-.19h0Z"/>
      <path class="cls-16" d="M98.02,155.99c.05.22-.14.4-.43.4-.29,0-.55-.18-.6-.4-.05-.22.14-.4.43-.4.29,0,.55.18.6.4Z"/>
      <path class="cls-59" d="M93.59,162.3c.17,0,.3-.13.3-.3v-6.92c0-.53.27-.98.73-1.23l9.73-5.29c.18-.1.37-.09.55,0,.18.1.27.27.27.47v6.56c0,.16.13.3.3.3s.3-.13.3-.3v-6.56c0-.42-.2-.77-.57-.98-.36-.21-.78-.22-1.14-.02l-9.73,5.29c-.66.36-1.05,1-1.05,1.75v6.92c0,.16.13.3.3.3Z"/>
      <path class="cls-43" d="M29.81,115.36c4.52.31,7.7,2.66,7.12,5.26-.59,2.6-4.74,4.46-9.26,4.16-4.52-.31-7.7-2.66-7.12-5.26.59-2.6,4.74-4.46,9.26-4.15h0Z"/>
      <path class="cls-40" d="M28.73,122.9c-4.71,0-8.54-3.88-8.54-8.64s3.84-8.65,8.54-8.65,8.54,3.88,8.54,8.65-3.84,8.64-8.54,8.64Z"/>
      <path class="cls-28" d="M28.73,121.77c-4.4,0-7.99-3.57-7.99-7.94s3.59-7.94,7.99-7.94,7.99,3.57,7.99,7.94-3.59,7.94-7.99,7.94Z"/>
      <path class="cls-48" d="M28.73,121.25c-3.96,0-7.2-3.31-7.2-7.38s3.23-7.38,7.2-7.38,7.2,3.31,7.2,7.38-3.23,7.38-7.2,7.38Z"/>
      <path class="cls-11" d="M21.58,114.85c.38,3.6,3.44,6.41,7.16,6.41s6.79-2.81,7.16-6.41h-14.32,0Z"/>
      <path class="cls-40" d="M31.62,95.67v12.38c-.01,2.17-5.76,2.24-5.76,0v-12.38c-.3-2.49,6.06-2.5,5.76,0Z"/>
      <path class="cls-28" d="M31.13,96.7v12.1c-.01,1.81-4.79,1.86-4.79,0v-12.1c-.25-2.07,5.04-2.08,4.79,0Z"/>
      <path class="cls-48" d="M30.78,96.9v11.48c-.01,1.54-4.08,1.58-4.08,0v-11.48c-.21-1.76,4.29-1.77,4.08,0Z"/>
      <path class="cls-28" d="M29.2,93.82c1.33.08,2.39.55,2.83,1.17h.23v.69h0c0,.08-.01.15-.03.23-.25,1.03-2.02,1.77-3.96,1.65-1.8-.11-3.1-.93-3.07-1.88h0v-.69h.27c.6-.77,2.1-1.27,3.71-1.17h0Z"/>
      <path class="cls-40" d="M29.2,93.14c1.93.12,3.29,1.06,3.04,2.09-.25,1.03-2.02,1.77-3.96,1.65-1.93-.12-3.29-1.06-3.04-2.09.25-1.03,2.02-1.77,3.96-1.65Z"/>
      <path class="cls-16" d="M29.16,93.3c1.77.11,3.02.97,2.79,1.92-.23.95-1.86,1.62-3.63,1.51-1.77-.11-3.02-.97-2.79-1.92.23-.95,1.86-1.62,3.63-1.51Z"/>
      <path class="cls-28" d="M29.04,93.79c1.26.08,2.14.68,1.97,1.36-.16.67-1.31,1.15-2.57,1.07-1.26-.08-2.14-.68-1.97-1.36.16-.67,1.31-1.15,2.57-1.07Z"/>
      <path class="cls-48" d="M29.04,94.46c.93.06,1.66.41,1.91.86-.3.58-1.36.97-2.5.9-.93-.06-1.66-.41-1.91-.86.3-.58,1.36-.97,2.5-.9Z"/>
      <path class="cls-6" d="M29.68,110.71c3.93.26,6.69,2.31,6.18,4.57s-4.12,3.88-8.04,3.61c-3.92-.26-6.69-2.31-6.18-4.57.51-2.26,4.11-3.88,8.04-3.61h0Z"/>
      <path class="cls-9" d="M24.13,110.18c-.95,1.11-1.52,2.55-1.52,4.13,0,3.14,2.27,5.75,5.27,6.3-1.7-1.15-2.81-3.09-2.81-5.28,0-1.42.46-2.72,1.24-3.78l-2.19-1.35h0Z"/>
      <path class="cls-9" d="M33.32,109.55c3.31,3.9,1.21,10.19-4.01,11.15,2.88-1.96,4.05-6.46,1.94-9.31.92-.24,1.73-.95,2.08-1.83h0Z"/>
      <path class="cls-16" d="M26.4,111.34c.02.44-.55.61-1.26.38-.71-.23-1.31-.77-1.32-1.21-.02-.44.55-.61,1.26-.38.71.23,1.31.77,1.32,1.21Z"/>
      <path class="cls-9" d="M26.94,97.72v10.67c.29.33.76.53,1.22.59v-11.04c-.44-.03-.86-.12-1.22-.23h0Z"/>
    </g>
  </g>
</svg>