<?xml version="1.0" encoding="UTF-8"?>
<svg id="Layer_2" data-name="Layer 2" xmlns="http://www.w3.org/2000/svg" viewBox="0 0 138 213.65">
  <defs>
    <style>
      .cls-1 {
        fill: #8d99ce;
      }

      .cls-2 {
        fill: #a5aedf;
      }

      .cls-3 {
        fill: #637391;
      }

      .cls-4 {
        fill: #3a3a3a;
      }

      .cls-5 {
        fill: #5863c5;
      }

      .cls-6 {
        fill: #b8fcff;
      }

      .cls-7 {
        fill: #394363;
      }

      .cls-8 {
        fill: #344292;
      }

      .cls-9 {
        fill: #8a95ad;
      }
    </style>
  </defs>
  <g id="Layer_1-2" data-name="Layer 1">
    <g id="tower">
      <path class="cls-6" d="M69,137.87C30.95,137.87,0,106.94,0,68.93S30.95,0,69,0s69,30.92,69,68.93-30.95,68.93-69,68.93h0ZM69,1.49C31.78,1.49,1.48,31.74,1.48,68.93s30.29,67.45,67.52,67.45,67.52-30.25,67.52-67.45S106.23,1.49,69,1.49Z"/>
      <path class="cls-6" d="M69,129.07c-33.2,0-60.2-26.98-60.2-60.14S35.8,8.79,69,8.79s60.2,26.98,60.2,60.14-27,60.14-60.2,60.14ZM69,10.14c-32.45,0-58.85,26.37-58.85,58.79s26.4,58.79,58.85,58.79,58.85-26.38,58.85-58.79S101.45,10.14,69,10.14Z"/>
      <path class="cls-6" d="M69,120.28c-28.34,0-51.4-23.04-51.4-51.35s23.06-51.35,51.4-51.35,51.4,23.04,51.4,51.35-23.06,51.35-51.4,51.35ZM69,18.8c-27.68,0-50.19,22.49-50.19,50.14s22.51,50.14,50.19,50.14,50.19-22.49,50.19-50.14-22.51-50.14-50.19-50.14Z"/>
      <path class="cls-6" d="M69,111.49c-23.49,0-42.6-19.09-42.6-42.56s19.11-42.56,42.6-42.56,42.6,19.09,42.6,42.56-19.11,42.56-42.6,42.56ZM69,27.45c-22.9,0-41.53,18.61-41.53,41.49s18.63,41.49,41.53,41.49,41.53-18.61,41.53-41.49-18.63-41.49-41.53-41.49Z"/>
      <path class="cls-6" d="M69,102.7c-18.64,0-33.81-15.15-33.81-33.77s15.17-33.77,33.81-33.77,33.81,15.15,33.81,33.77-15.17,33.77-33.81,33.77ZM69,36.1c-18.13,0-32.87,14.73-32.87,32.83s14.74,32.83,32.87,32.83,32.87-14.73,32.87-32.83-14.74-32.83-32.87-32.83Z"/>
      <path class="cls-6" d="M69,93.91c-13.79,0-25.01-11.21-25.01-24.98s11.22-24.98,25.01-24.98,25.01,11.21,25.01,24.98-11.22,24.98-25.01,24.98ZM69,44.76c-13.35,0-24.21,10.85-24.21,24.18s10.86,24.18,24.21,24.18,24.21-10.85,24.21-24.18-10.86-24.18-24.21-24.18Z"/>
      <path class="cls-6" d="M69,85.12c-8.93,0-16.21-7.26-16.21-16.19s7.27-16.19,16.21-16.19,16.21,7.26,16.21,16.19-7.27,16.19-16.21,16.19ZM69,53.41c-8.57,0-15.54,6.96-15.54,15.53s6.97,15.53,15.54,15.53,15.54-6.96,15.54-15.53-6.97-15.53-15.54-15.53Z"/>
      <path class="cls-6" d="M69,76.33c-4.08,0-7.41-3.32-7.41-7.4s3.32-7.4,7.41-7.4,7.41,3.32,7.41,7.4-3.32,7.4-7.41,7.4ZM69,62.06c-3.79,0-6.88,3.08-6.88,6.87s3.09,6.87,6.88,6.87,6.88-3.08,6.88-6.87-3.09-6.87-6.88-6.87Z"/>
      <path class="cls-6" d="M69,70.72c-.99,0-1.78-.8-1.78-1.78s.8-1.78,1.78-1.78,1.78.8,1.78,1.78-.8,1.78-1.78,1.78ZM69,67.54c-.77,0-1.4.62-1.4,1.39s.63,1.39,1.4,1.39,1.39-.62,1.39-1.39-.63-1.39-1.39-1.39Z"/>
      <path class="cls-6" d="M69,79.37c-5.76,0-10.44-4.68-10.44-10.43s4.68-10.43,10.44-10.43,10.44,4.68,10.44,10.43-4.68,10.43-10.44,10.43ZM69,58.75c-5.62,0-10.19,4.57-10.19,10.18s4.57,10.18,10.19,10.18,10.19-4.57,10.19-10.18-4.57-10.18-10.19-10.18Z"/>
      <path class="cls-8" d="M116.09,183.49v2.92s-46.94,27.24-46.94,27.24v-2.92s46.94-27.24,46.94-27.24Z"/>
      <path class="cls-8" d="M69.16,210.73v2.92s-47.24-27.24-47.24-27.24v-2.92s47.24,27.24,47.24,27.24Z"/>
      <path class="cls-5" d="M116.09,183.49l-46.93,27.24-47.23-27.24,46.93-27.24,47.23,27.24Z"/>
      <path class="cls-8" d="M77.46,202.93v.51s-8.28,4.8-8.28,4.8v-.51l8.28-4.8Z"/>
      <path class="cls-8" d="M69.18,207.73v.51l-8.33-4.8v-.51l8.33,4.8Z"/>
      <path class="cls-8" d="M77.46,202.93l-8.28,4.8-8.33-4.8,8.28-4.81,8.33,4.81Z"/>
      <path class="cls-8" d="M46.05,183.61v.51l-8.27,4.8v-.51l8.27-4.8Z"/>
      <path class="cls-8" d="M37.78,188.41v.51l-8.33-4.8v-.51l8.33,4.8Z"/>
      <path class="cls-8" d="M46.05,183.61l-8.27,4.8-8.33-4.8,8.27-4.81,8.33,4.81Z"/>
      <path class="cls-8" d="M109.53,183.91v.51l-8.27,4.8v-.51l8.27-4.8Z"/>
      <path class="cls-8" d="M101.26,188.71v.51l-8.33-4.8v-.51l8.33,4.8Z"/>
      <path class="cls-8" d="M109.53,183.91l-8.27,4.8-8.33-4.8,8.27-4.8,8.32,4.8Z"/>
      <path class="cls-8" d="M78.12,164.59v.51s-8.28,4.8-8.28,4.8v-.51l8.28-4.8Z"/>
      <path class="cls-8" d="M69.84,169.38v.51l-8.33-4.8v-.51l8.33,4.8Z"/>
      <path class="cls-8" d="M78.12,164.59l-8.28,4.8-8.33-4.8,8.28-4.8,8.33,4.8Z"/>
      <path class="cls-2" d="M74.93,33.24c-.08.75-.63,1.48-1.62,2.04-.37.2-.77.38-1.2.5-1.44,2.65-2.42,6.67-2.55,8.47v.24-.19c-.1-1.77-1.09-5.84-2.53-8.52-.47-.14-.91-.34-1.31-.57-.94-.56-1.44-1.27-1.52-2-.09-.87.46-1.75,1.62-2.4,2.13-1.19,5.53-1.16,7.6.07,1.1.66,1.6,1.52,1.52,2.36l-.02-.02Z"/>
      <path class="cls-2" d="M76.5,55.48c-.1.97-.8,1.92-2.1,2.64-1.28.71-2.9,1.1-4.56,1.12h-.61c-1.7-.05-3.38-.45-4.67-1.22-1.21-.73-1.87-1.65-1.96-2.59-.11-1.12.59-2.27,2.1-3.11,2.75-1.55,7.15-1.5,9.83.1,1.42.85,2.07,1.95,1.96,3.04h0Z"/>
      <path class="cls-4" d="M69.54,203.67c-.3,0-.54-.24-.54-.54V59.47l-30.91,124.53c-.07.29-.36.46-.65.39-.29-.07-.47-.36-.39-.65l31.97-128.8c.06-.26.32-.44.59-.4.27.03.47.26.47.53v148.07c0,.3-.24.54-.54.54h0Z"/>
      <path class="cls-4" d="M39.4,177.06c-.29,0-.52-.22-.54-.51-.02-.3.22-.54.51-.56l29.17-1.23-21.41-30.9c-.1-.15-.12-.33-.06-.49.06-.16.19-.29.36-.34l20.89-5.73-16.4-12.15c-.14-.1-.22-.26-.22-.43s.08-.33.22-.43l16.84-12.62-10.42-12.89c-.1-.12-.14-.27-.11-.42.02-.15.1-.28.23-.37l10.31-6.83-6.33-9.01c-.17-.24-.11-.58.13-.75.24-.17.58-.11.75.13l6.65,9.45c.08.12.11.26.09.41-.02.14-.11.26-.23.34l-10.27,6.8,10.39,12.87c.09.11.14.26.11.4-.02.14-.1.27-.21.36l-16.71,12.52,16.71,12.38c.17.12.25.33.21.53-.04.2-.18.36-.38.42l-21.23,5.82,21.53,31.08c.11.16.13.37.04.54-.09.18-.26.29-.46.3l-30.15,1.27h-.02l.02.02Z"/>
      <path class="cls-4" d="M69.54,193.73c-.16,0-.32-.07-.43-.21l-25.99-33.44c-.12-.15-.14-.35-.07-.53.07-.18.23-.3.43-.33l24.94-3.47-19.25-19.79c-.13-.13-.18-.32-.14-.5.04-.18.17-.32.34-.38l19.27-6.98-13.51-16.3c-.1-.11-.14-.26-.12-.41.02-.14.1-.28.22-.37l13.54-9.8-8.45-10.37c-.18-.22-.16-.53.04-.72l8.81-8.68c.21-.21.55-.21.76,0,.21.21.21.55,0,.76l-8.45,8.34,8.49,10.43c.1.11.14.26.11.41-.02.14-.1.28-.22.37l-13.54,9.8,13.63,16.44c.11.14.15.31.1.48-.05.17-.17.31-.34.36l-19.21,6.95,19.41,19.96c.14.14.19.36.12.54-.06.19-.23.33-.43.36l-25.06,3.49,25.42,32.7c.18.23.14.57-.1.75-.1.08-.22.11-.33.11Z"/>
      <path class="cls-4" d="M69.54,203.67c-.3,0-.54-.24-.54-.54V55.07c0-.27.2-.5.47-.53.27-.03.52.14.59.4l31.97,128.8c.07.29-.1.58-.39.65-.29.07-.58-.1-.65-.39l-30.91-124.53v143.67c0,.3-.24.54-.54.54h0Z"/>
      <path class="cls-4" d="M99.69,177.06h-.02l-30.14-1.27c-.19,0-.37-.12-.46-.3-.09-.18-.07-.38.04-.54l21.53-31.08-21.23-5.82c-.2-.06-.34-.22-.38-.42-.04-.2.04-.41.21-.53l16.71-12.38-16.71-12.52c-.12-.09-.19-.22-.21-.36-.02-.14.02-.29.11-.4l10.39-12.87-10.27-6.8c-.12-.08-.2-.21-.23-.34-.02-.14,0-.29.09-.41l6.65-9.45c.17-.24.51-.3.75-.13.24.17.3.5.13.75l-6.33,9.01,10.31,6.83c.13.08.21.22.23.37.02.15-.02.3-.11.42l-10.42,12.89,16.84,12.62c.14.1.22.26.22.43s-.08.33-.22.43l-16.4,12.15,20.89,5.73c.17.05.3.17.36.34.06.16.03.34-.06.49l-21.41,30.9,29.17,1.23c.3.02.53.26.51.56-.02.29-.25.51-.54.51l.02-.02Z"/>
      <path class="cls-4" d="M69.54,193.73c-.11,0-.23-.04-.33-.11-.23-.18-.27-.52-.1-.75l25.42-32.7-25.06-3.49c-.2-.02-.37-.17-.43-.36-.06-.19-.02-.4.12-.54l19.41-19.96-19.2-6.95c-.16-.06-.29-.19-.34-.36-.05-.17,0-.35.1-.48l13.63-16.44-13.54-9.8c-.12-.09-.2-.22-.22-.37-.02-.14.02-.3.11-.41l8.49-10.43-8.45-8.34c-.21-.21-.22-.54,0-.76.21-.21.55-.22.76,0l8.81,8.68c.2.19.22.5.04.72l-8.45,10.37,13.54,9.8c.12.09.2.22.22.37.02.14-.02.3-.12.41l-13.51,16.3,19.27,6.98c.17.06.3.21.34.38.04.18,0,.36-.14.5l-19.25,19.79,24.94,3.47c.19.02.35.15.43.33.07.18.04.38-.07.53l-25.99,33.44c-.1.14-.26.21-.43.21Z"/>
      <path class="cls-4" d="M69.54,28.56c.26,0,.47.21.47.46v27.37c0,.26-.21.46-.47.46h-.03c-.26,0-.47-.21-.47-.46v-27.37c0-.26.21-.46.47-.46h.03Z"/>
      <path class="cls-7" d="M64.16,48.94l.02-15.91c0,.79.51,1.57,1.52,2.18,2.07,1.23,5.47,1.27,7.6.08,1.08-.61,1.63-1.41,1.63-2.22l-.02,15.91c0,.81-.55,1.62-1.63,2.22-2.13,1.19-5.53,1.16-7.6-.08-1.02-.61-1.52-1.39-1.52-2.18Z"/>
      <path class="cls-4" d="M50.15,114.72c-3.2-.29-6.24-2.61-8.41-6.95-4.48-8.94-3.58-23.03,2.02-31.46,2.81-4.23,6.26-6.24,9.58-6.06.54.04,1.26.12,1.79.2.35.06.81.18,1.15.25.54.12,1.24.35,1.75.57.55.22,1.26.56,1.78.83.32.17.72.42,1.03.62.59.36,1.31.95,1.84,1.39.57.48,1.25,1.2,1.74,1.76.43.49.95,1.17,1.3,1.71.55.87.89,1.39,1.46,2.54.18.37.4.87.56,1.25.17.42.38.98.53,1.4.26.78.55,1.82.73,2.62.34,1.5.47,2.74.47,2.75.04.4.1.95.13,1.35.03.4.06.95.06,1.35s.02.95,0,1.35c-.02.41-.03.95-.06,1.35-.02.41-.06.95-.12,1.35-.06.4-.11.95-.18,1.35-.06.4-.17.93-.24,1.33-.07.4-.21.92-.3,1.32-.09.4-.26.95-.38,1.35-.12.4-.3.91-.43,1.29-.14.42-.37.97-.54,1.38-.16.38-.39.87-.57,1.24-.22.43-.52,1-.76,1.43-.21.36-.51.82-.73,1.17.87-1.32.89-3.22-.17-5.4-.02-.04-.04-.08-.06-.12,2.8-4.21,3.26-11.26,1.01-15.73s-6.33-4.67-9.13-.46c-2.8,4.21-3.26,11.26-1.01,15.73,2.24,4.47,6.33,4.67,9.13.46.02.04.04.08.06.12,1.06,2.18,1.04,4.08.17,5.4-.3.45-.73,1.03-1.06,1.46-.24.31-.59.71-.86,1.01-.39.46-.97,1.01-1.42,1.4-.51.46-1.24,1.03-1.81,1.41-.61.41-1.46.87-2.11,1.22-.35.18-.84.39-1.22.52-.67.23-1.58.54-2.28.67-.62.11-1.45.26-2.09.29-.71.04-1.67.02-2.38-.02h.02Z"/>
      <path class="cls-4" d="M56.91,95.14c-.05-.09-.13-.24-.35-.51-.14-.16-.34-.36-.5-.5-.16-.15-.58-.48-1.06-.75-.22-.13-.54-.27-.78-.37-.15-.06-.36-.14-.51-.18-.29-.09-.67-.18-.96-.23-.18-.04-.43-.06-.61-.08.21,0,.48.02.69,0,.22,0,.51-.03.73-.06.76-.1,1.33-.32,1.34-.32.26-.1.62-.25.87-.38.18-.09.42-.24.59-.35.17-.11.37-.28.51-.41.23-.22.34-.36.38-.42-.14.24-.28.66-.35.96-.12.48-.17.83-.21,1.36,0,.07-.02.34-.02.71,0,.25.02.38.05.64,0,0,.02.23.09.51,0,.06.03.13.05.18,0,.04.03.1.04.14,0,.02.02.05.02.06h0Z"/>
      <path class="cls-4" d="M52.14,92.51c4.96.44,8.38,5.66,7.72,11.7-1.46-.28-2.83-1.43-3.84-3.42-2.24-4.47-1.79-11.51,1.01-15.73,1.3-1.95,2.88-2.96,4.42-3.03-.19,6.07-4.33,10.75-9.3,10.48.22,0,.52.02.75,0,.3-.02.69-.06.98-.11.16-.02.38-.07.53-.12.25-.07.58-.18.82-.27.25-.1.76-.34,1.13-.6.17-.12.38-.28.53-.42.07-.06.16-.15.22-.22.05-.06.11-.14.15-.19,0,.02-.08.14-.19.43-.1.26-.16.53-.16.53-.13.54-.18.89-.21,1.35,0,.07-.02.34-.02.71,0,.25.02.37.05.65.02.2.09.61.18.85,0,.02,0,.02.02.04-.06-.11-.14-.26-.35-.51-.13-.15-.32-.34-.47-.48-.21-.2-.68-.54-.94-.69-.21-.11-.48-.26-.7-.36-.14-.07-.34-.15-.51-.2-.33-.1-.78-.22-1.12-.3-.21-.05-.49-.06-.7-.1v.02Z"/>
      <path class="cls-4" d="M52.14,92.51c5,.42,10.79,4.32,13,8.73-1.55,2.33-3.49,3.31-5.29,2.97.67-6.03-2.75-11.26-7.72-11.7h0Z"/>
      <path class="cls-4" d="M61.44,82.02c1.78-.08,3.51,1.09,4.72,3.49,2.24,4.47,1.79,11.51-1.01,15.73-2.21-4.41-8-8.31-13-8.73,4.97.26,9.1-4.41,9.3-10.48h0Z"/>
      <path class="cls-3" d="M65.37,106.75c-.47.66-1.11,1.51-1.62,2.13-.33.4-.81.9-1.19,1.25-.43.41-1.03.94-1.5,1.29-.59.44-1.39,1.01-2.04,1.35-.59.3-1.38.71-2,.95-.67.26-1.58.54-2.28.69-1.15.25-1.92.3-2.48.34-.63.04-1.49,0-2.13-.04,3.39.31,6.96-1.7,9.85-6.04,2.58.22,4.45-.54,5.37-1.92v.02Z"/>
      <path class="cls-9" d="M53.34,70.24c.71.06,1.67.15,2.36.31.52.12,1.21.31,1.72.48.34.11.78.29,1.11.42.51.22,1.16.56,1.64.83.31.18.71.45,1.01.64.51.33,1.12.86,1.59,1.24.55.45,1.2,1.14,1.65,1.68.51.59,1.12,1.43,1.55,2.08.36.55.8,1.32,1.09,1.91.18.37.42.87.58,1.24.19.46.43,1.06.59,1.53.26.78.57,1.82.75,2.61.36,1.59.49,2.81.49,2.86.04.4.1.95.13,1.35.03.4.06.96.06,1.37s.02.95,0,1.35c-.02.41-.03.95-.06,1.35-.02.41-.07.95-.12,1.35-.05.4-.11.94-.18,1.34-.06.4-.17.93-.24,1.33-.07.4-.21.92-.3,1.32-.08.36-.3,1.18-.79,2.61-.22.64-.67,1.75-1.13,2.67-.18.37-.43.85-.63,1.21-.24.43-.59.98-.85,1.39-.92,1.39-2.79,2.14-5.37,1.92,5.6-8.44,6.5-22.52,2.02-31.46-2.24-4.45-5.39-6.79-8.69-6.97l.02.02Z"/>
      <path class="cls-2" d="M52.14,92.51l7.86,16.17c-5.6,8.44-13.78,8.03-18.26-.9-4.48-8.93-3.58-23.03,2.02-31.46,5.6-8.44,13.78-8.03,18.26.91,4.48,8.94,3.58,23.03-2.02,31.46l-7.86-16.17Z"/>
      <path class="cls-1" d="M50.37,93.13l6.46,13.28c-4.6,6.93-11.32,6.6-15.01-.75-3.68-7.35-2.94-18.92,1.66-25.86,4.6-6.93,11.32-6.6,15.01.75,3.68,7.35,2.94,18.92-1.66,25.86l-6.46-13.28Z"/>
      <path class="cls-4" d="M49.13,108.89s-.09-.02-.12-.05l-21.29-19.24s-.06-.1-.06-.15c0-.06.04-.11.1-.14l24.05-12.73c.09-.05.19-.02.24.07.05.09.02.19-.07.24l-23.82,12.61,21.11,19.06c.07.06.08.18.02.26-.03.04-.08.06-.14.06h0Z"/>
      <path class="cls-4" d="M53.34,98.15s-.04,0-.06,0l-25.5-8.49c-.1-.03-.14-.14-.11-.22.03-.1.14-.14.22-.11l25.51,8.49c.1.03.14.14.11.22-.02.07-.1.12-.17.12Z"/>
      <path class="cls-4" d="M29.3,89.56c0,.85-.69,1.53-1.53,1.53s-1.53-.69-1.53-1.53.69-1.53,1.53-1.53,1.53.69,1.53,1.53Z"/>
      <path class="cls-7" d="M62.57,66.54l.03-11.32c0,1.01.65,2.03,1.96,2.81,2.68,1.59,7.08,1.64,9.83.1,1.4-.79,2.1-1.83,2.11-2.88l-.03,11.32c0,1.05-.71,2.09-2.11,2.88-2.75,1.55-7.15,1.5-9.83-.1-1.32-.79-1.97-1.8-1.97-2.81Z"/>
      <path class="cls-4" d="M83.68,72.87c1.89-.04,3.77-1.29,5.22-3.75,2.99-5.08,3.02-13.4.06-18.57-1.48-2.6-3.43-3.91-5.39-3.94-.32,0-.75.02-1.06.05-.21.02-.48.07-.69.1-.32.05-.75.16-1.05.26-.33.11-.76.28-1.08.42-.19.09-.44.22-.63.32-.36.19-.8.5-1.13.75-.35.26-.78.66-1.09.96-.27.26-.61.65-.83.95-.36.49-.58.78-.96,1.43-.12.21-.27.5-.38.71-.12.24-.26.56-.36.8-.18.45-.4,1.05-.54,1.51-.26.87-.38,1.59-.39,1.59-.04.23-.1.55-.13.79-.03.23-.07.55-.09.79-.02.24-.05.55-.06.79,0,.24-.02.56-.02.79s0,.56.02.79c.02.23.03.56.05.8.02.24.06.55.09.79.02.24.09.55.12.79.03.23.11.57.17.81.06.24.14.54.2.78.07.26.18.58.26.83.08.22.19.53.29.75.11.26.26.61.39.87.1.22.26.5.38.71-.47-.81-.39-1.92.31-3.16.02-.02.02-.05.04-.06-1.48-2.59-1.47-6.75.02-9.29,1.49-2.54,3.91-2.5,5.38.1,1.48,2.59,1.47,6.75-.02,9.29-1.49,2.54-3.91,2.5-5.38-.1-.02.02-.02.05-.04.06-.71,1.24-.78,2.36-.31,3.16.16.27.39.63.56.9.13.19.32.44.47.62.21.28.53.63.78.88.28.29.69.65,1.01.9.34.26.83.57,1.2.79.2.12.48.26.7.35.38.16.91.38,1.32.49.36.09.84.21,1.21.26.42.06.98.08,1.4.08l-.02.03Z"/>
      <path class="cls-4" d="M80.48,61.09s.09-.14.22-.29c.09-.09.22-.2.31-.28.1-.08.36-.26.65-.4.14-.06.33-.14.47-.18.09-.03.22-.06.31-.09.17-.04.4-.08.58-.1.1-.02.26-.02.36-.02-.12,0-.29,0-.41-.02-.13-.02-.3-.04-.43-.06-.44-.09-.77-.24-.78-.24-.15-.07-.35-.17-.5-.26-.1-.06-.23-.16-.33-.23-.1-.07-.21-.18-.29-.26-.13-.14-.18-.22-.21-.26.07.15.14.4.17.58.05.29.06.49.07.81,0,.04,0,.2-.02.42-.02.14-.02.22-.05.38,0,0-.02.14-.07.3,0,.03-.02.07-.03.1,0,.02-.02.06-.03.08,0,.02,0,.02-.02.04h0Z"/>
      <path class="cls-4" d="M83.39,59.74c-2.93.06-5.15,3-5,6.57.87-.1,1.72-.72,2.39-1.86,1.49-2.54,1.51-6.7.02-9.29-.69-1.2-1.57-1.85-2.48-1.95-.13,3.57,2.13,6.49,5.05,6.53-.13,0-.3,0-.44-.02-.18-.02-.4-.06-.57-.1-.1-.02-.22-.06-.3-.09-.14-.05-.33-.13-.47-.19-.14-.06-.43-.23-.64-.4-.1-.07-.22-.18-.3-.27-.04-.04-.09-.1-.12-.14-.02-.03-.06-.08-.08-.12,0,0,.04.08.1.26.05.15.07.32.07.32.06.32.06.53.06.81,0,.04,0,.2-.02.42-.02.14-.02.22-.06.38-.02.11-.08.35-.14.5,0,0,0,.02,0,.02.04-.06.1-.14.22-.29.08-.09.2-.19.3-.26.13-.11.43-.3.58-.37.13-.06.3-.14.43-.18.09-.03.21-.07.3-.1.2-.05.47-.1.67-.13.12-.02.29-.02.41-.03h0Z"/>
      <path class="cls-4" d="M83.39,59.74c-2.95.05-6.51,2.11-7.99,4.62.82,1.43,1.92,2.08,2.99,1.96-.16-3.57,2.06-6.51,5-6.57h0Z"/>
      <path class="cls-4" d="M78.34,53.21c-1.04-.12-2.11.5-2.91,1.87-1.49,2.54-1.51,6.7-.02,9.29,1.48-2.51,5.04-4.57,7.99-4.62-2.94-.04-5.18-2.96-5.05-6.53Z"/>
      <path class="cls-3" d="M75.05,67.59c.25.4.59.94.87,1.32.18.25.44.56.65.79.24.26.56.59.83.82.33.28.78.65,1.15.87.34.2.79.47,1.14.63.39.18.91.38,1.31.5.67.19,1.11.26,1.44.3.37.05.87.06,1.25.06-2.01.05-4.03-1.27-5.55-3.94-1.52.02-2.6-.49-3.08-1.34h0Z"/>
      <path class="cls-9" d="M83.56,46.6c-.42,0-.99.02-1.4.1-.31.05-.72.14-1.03.22-.2.05-.47.14-.67.21-.31.1-.71.29-1,.42-.19.09-.43.23-.62.34-.31.17-.69.46-.98.67-.34.24-.75.62-1.03.92-.32.33-.72.79-.99,1.16-.23.31-.52.75-.71,1.08-.12.21-.28.49-.38.71-.13.26-.3.61-.41.87-.18.45-.4,1.05-.55,1.51-.27.92-.4,1.63-.4,1.66-.04.23-.1.55-.13.79-.03.23-.07.56-.1.8-.02.24-.05.55-.06.79,0,.24-.02.56-.02.79s0,.56.02.8c.02.24.03.56.05.79.02.23.06.55.09.79.02.24.09.55.12.79.03.22.13.71.36,1.57.1.38.32,1.05.55,1.61.1.22.22.52.33.74.13.26.3.6.45.85.49.85,1.56,1.37,3.08,1.34-2.96-5.18-2.94-13.49.06-18.57,1.49-2.53,3.43-3.78,5.38-3.76v.02Z"/>
      <path class="cls-2" d="M83.39,59.74l-5.26,9.19c2.96,5.18,7.78,5.26,10.77.18,2.99-5.08,3.02-13.4.06-18.57-2.96-5.18-7.78-5.26-10.77-.18-2.99,5.08-3.02,13.4-.06,18.57l5.26-9.19Z"/>
      <path class="cls-1" d="M84.49,60.04l-4.36,7.63c2.45,4.29,6.46,4.37,8.93.15,2.48-4.21,2.5-11.1.05-15.41-2.45-4.3-6.46-4.37-8.93-.15-2.48,4.21-2.5,11.1-.05,15.41l4.36-7.63Z"/>
      <path class="cls-4" d="M83.8,70.57c-.06,0-.1-.02-.14-.07-.06-.08-.04-.19.03-.25l18.59-13.93-18.54-6.45c-.1-.03-.14-.14-.11-.22.03-.1.14-.14.22-.11l18.86,6.56c.06.02.1.08.12.14.02.06-.02.13-.07.17l-18.86,14.13s-.07.03-.1.03h0Z"/>
      <path class="cls-4" d="M83.39,63.19c-.07,0-.14-.05-.17-.12-.03-.1.02-.19.11-.22l19.27-6.75c.1-.03.19.02.22.11.03.1-.02.19-.11.22l-19.27,6.75s-.04,0-.06,0Z"/>
      <path class="cls-4" d="M104.04,56.33c0,.65-.52,1.17-1.17,1.17s-1.17-.52-1.17-1.17.52-1.17,1.17-1.17,1.17.52,1.17,1.17Z"/>
      <path class="cls-4" d="M86.07,104.3c1.36-.4,2.47-1.68,3.03-3.74,1.15-4.26-.47-10.27-3.63-13.43-1.59-1.59-3.26-2.15-4.68-1.78-.23.06-.53.16-.75.25-.14.06-.34.14-.48.21-.22.1-.51.26-.71.4-.22.14-.5.35-.7.52-.12.1-.27.25-.39.35-.22.21-.48.52-.67.76-.2.26-.43.62-.59.91-.14.25-.31.58-.41.86-.17.42-.26.68-.41,1.23-.05.18-.1.41-.14.59-.04.19-.08.46-.1.65-.04.36-.08.83-.09,1.19-.02.68.04,1.23.04,1.23.02.18.04.42.06.59.02.18.06.42.09.59.03.18.07.41.12.58.05.18.1.41.14.58.05.17.11.4.17.57.06.17.14.4.19.57.06.17.15.39.22.55.06.16.17.38.25.54.08.16.19.39.28.55.09.16.21.37.3.52.1.17.24.38.35.55.1.15.24.35.35.49.13.17.31.39.46.55.12.14.29.31.42.44-.5-.5-.67-1.31-.4-2.35,0-.02,0-.04.02-.06-1.58-1.58-2.4-4.58-1.82-6.71.58-2.13,2.33-2.57,3.91-.99s2.4,4.58,1.82,6.71c-.58,2.13-2.33,2.57-3.91.99,0,.02,0,.04-.02.06-.26,1.03-.1,1.85.4,2.35.17.17.41.39.59.54.14.11.32.26.46.36.21.16.51.35.74.48.26.15.63.34.91.45.3.12.71.25,1.02.34.17.05.4.1.57.12.31.04.73.1,1.04.09.28,0,.65-.02.93-.06.31-.04.72-.14,1.03-.22h0Z"/>
      <path class="cls-4" d="M81.42,96.43s.03-.12.1-.25c.05-.08.11-.18.17-.26.06-.08.21-.26.39-.42.09-.07.21-.16.3-.23.06-.04.14-.09.21-.13.11-.06.27-.14.4-.18.07-.03.18-.06.26-.09-.09.02-.21.05-.3.06-.1.02-.22.03-.32.03-.34.02-.6-.02-.61-.02-.12-.02-.29-.06-.41-.09-.09-.02-.2-.06-.28-.1-.08-.04-.18-.09-.26-.14-.12-.07-.18-.13-.2-.14.08.1.18.26.24.38.1.2.14.34.21.57,0,.03.04.14.07.3.02.11.02.17.04.28,0,0,0,.1,0,.23v.18h0l-.03.02Z"/>
      <path class="cls-4" d="M83.26,94.87c-2.1.62-3.13,3.18-2.31,5.74.61-.25,1.1-.87,1.36-1.82.58-2.13-.24-5.14-1.82-6.71-.73-.73-1.5-1.03-2.17-.92.62,2.61,2.82,4.27,4.94,3.72-.1.02-.22.06-.32.06-.13.02-.3.03-.43.04h-.24c-.11,0-.26-.02-.38-.05-.11-.02-.36-.08-.55-.16-.08-.04-.19-.09-.26-.14-.03-.02-.08-.06-.11-.08-.02-.02-.06-.05-.08-.07,0,0,.05.05.12.17.06.1.11.22.11.22.1.22.15.37.21.57,0,.03.04.14.07.3.02.11.02.16.04.28,0,.09.02.27,0,.38v.02c.02-.06.04-.12.1-.25.04-.08.11-.18.16-.25.07-.1.25-.3.34-.38.08-.06.18-.15.27-.22.06-.04.14-.1.2-.13.14-.07.32-.17.46-.22.09-.04.2-.07.29-.1Z"/>
      <path class="cls-4" d="M83.26,94.87c-2.13.62-4.28,2.81-4.86,4.91.87.87,1.8,1.13,2.55.82-.82-2.55.2-5.11,2.31-5.74h0Z"/>
      <path class="cls-4" d="M78.31,91.15c-.78.12-1.42.78-1.73,1.92-.58,2.13.24,5.14,1.82,6.71.57-2.11,2.73-4.29,4.86-4.91-2.13.55-4.32-1.11-4.94-3.72h0Z"/>
      <path class="cls-3" d="M78.78,102.19c.26.24.61.56.89.78.18.14.43.31.63.44.22.14.52.31.76.42.29.14.69.31.99.4.28.08.66.18.95.23.31.06.73.1,1.04.1.52,0,.86-.04,1.1-.07.28-.04.64-.13.91-.2-1.44.42-3.16-.12-4.79-1.75-1.1.32-1.97.16-2.49-.36h0Z"/>
      <path class="cls-9" d="M80.78,85.35c-.3.09-.71.21-.99.34-.22.1-.5.24-.71.36-.14.08-.31.19-.44.28-.2.14-.46.34-.64.5-.12.1-.26.26-.38.37-.19.18-.41.47-.58.68-.19.24-.42.6-.56.87-.17.3-.36.72-.49,1.03-.1.27-.23.64-.3.92-.05.18-.1.41-.14.58-.04.22-.1.5-.12.71-.04.36-.09.83-.1,1.19-.02.72.03,1.26.04,1.28.02.18.04.42.06.59.02.18.06.42.09.6.03.18.07.41.12.58.05.18.1.41.14.58.05.17.11.4.17.58.06.18.13.4.19.56.06.16.15.39.22.55.06.16.17.38.25.54.06.15.23.49.57,1.06.15.26.44.7.72,1.06.11.14.26.33.38.46.14.16.34.38.49.53.52.52,1.4.68,2.49.36-3.16-3.16-4.79-9.17-3.63-13.43.58-2.12,1.73-3.41,3.14-3.77h0Z"/>
      <path class="cls-2" d="M83.26,94.87l-1.98,7.68c3.16,3.16,6.66,2.27,7.82-2,1.15-4.26-.47-10.27-3.63-13.43s-6.66-2.27-7.82,2c-1.15,4.26.47,10.27,3.63,13.43l1.98-7.68Z"/>
      <path class="cls-1" d="M84.11,94.88l-1.64,6.37c2.62,2.62,5.53,1.88,6.48-1.65.95-3.53-.39-8.52-3.02-11.14-2.62-2.62-5.53-1.88-6.48,1.65-.95,3.53.39,8.52,3.02,11.14l1.64-6.37Z"/>
      <path class="cls-4" d="M85.69,102.62s-.08,0-.12-.02c-.06-.05-.07-.13-.02-.18l10.68-13.74-14.67-1c-.07,0-.13-.07-.13-.14s.07-.13.14-.13l14.93,1.02s.1.03.11.08c.02.05.02.1-.02.14l-10.83,13.93s-.04.04-.07.05h0Z"/>
      <path class="cls-4" d="M83.94,97.36c-.06.02-.11,0-.14-.06-.04-.06-.02-.14.03-.18l12.58-8.69c.06-.04.14-.02.18.03.04.06.02.14-.03.18l-12.58,8.69s-.02.02-.04.02h0Z"/>
      <path class="cls-4" d="M97.54,88.57c0,.48-.39.87-.87.87s-.87-.39-.87-.87.39-.87.87-.87.87.39.87.87Z"/>
    </g>
  </g>
</svg>