<?xml version="1.0" encoding="UTF-8"?>
<svg id="Layer_2" data-name="Layer 2" xmlns="http://www.w3.org/2000/svg" viewBox="0 0 478.4 402.02">
  <defs>
    <style>
      .cls-1 {
        fill: #727373;
      }

      .cls-2 {
        fill: #8d8e93;
      }

      .cls-3 {
        fill: #a9eee6;
      }

      .cls-4 {
        fill: #4d4d4d;
      }

      .cls-5 {
        fill: #fff;
      }

      .cls-6 {
        fill: #a6a6a6;
      }

      .cls-7 {
        fill: #ffd6bf;
      }

      .cls-8 {
        fill: #ffceb3;
      }

      .cls-9 {
        fill: #f2f2f2;
      }

      .cls-10 {
        fill: #bdbdbd;
      }

      .cls-11 {
        fill: #ffc6a6;
      }

      .cls-12 {
        fill: #0b90aa;
      }

      .cls-13 {
        fill: #631ba0;
        fill-rule: evenodd;
      }

      .cls-14 {
        fill: #ffbf87;
      }

      .cls-15 {
        fill: #999;
      }

      .cls-16 {
        fill: #ccc;
      }

      .cls-17 {
        fill: #b3b3b3;
      }

      .cls-18 {
        font-family: CenturyGothic-Italic, 'Century Gothic';
        font-size: 23px;
        font-style: italic;
        isolation: isolate;
      }

      .cls-19 {
        fill: #f5f5f5;
      }

      .cls-20 {
        fill: #239d8e;
      }

      .cls-21 {
        fill: #9d9d9d;
      }

      .cls-22 {
        fill: #e63953;
      }

      .cls-23 {
        fill: #ff4e68;
      }

      .cls-24 {
        fill: #04384a;
      }

      .cls-25 {
        fill: #e6e6e6;
      }
    </style>
  </defs>
  <g id="Layer_1-2" data-name="Layer 1">
    <g id="twbanWithNames">
      <g id="twban">
        <path class="cls-8" d="M279.35,72.49c-.08.89-.58,1.95-.85,2.84-.44,1.43-.8,2.84-1.11,4.31-.13.89-.31,1.78-.44,2.71-.75,4.17-1.06,8.57-.89,12.84.18,4.84,1.24,9.69,1.11,14.52-.04,2.14-.31,4.21-.71,6.35-.44,2.26-1.02,4.52-1.64,6.75-2.48,8.88-5.54,17.55-8.59,26.2-.23.62-.44,1.24-.66,1.87-6.52-1.87-13.2-2.93-19.93-3.2,3.02-13.05,6.02-26.07,9.08-39.12.66-2.84,1.28-5.68,2.13-8.48,1.55-5.37,3.72-10.48,5.85-15.64,2.03-4.88,4.92-8.53,10.06-10.21,2.09-.71,4.43-1.56,6.6-1.74h-.03Z"/>
        <path class="cls-11" d="M276.48,116.06c-.44,2.26-1.02,4.52-1.64,6.75-2.48,8.88-5.54,17.55-8.59,26.2-1.95-.98-3.02-3.28-4.88-4.48-1.86-1.24-4.3-1.16-6.52-1.02-2.34.13-4.7.23-7.1.35-.23-1.33.62-2.71,1.78-3.42,1.2-.71,2.57-.93,3.95-1.12,3.19-.35,6.78-.49,9.35,1.51.44.35,1.02.81,1.55.58.4-.18.58-.62.71-1.06,1.37-4.36,3.02-8.96,3.54-13.55.49-4.57-.08-8.92-.85-13.46-.62-3.55-1.11-7.16-1.2-10.75-.04-1.64,0-3.34.58-4.94.04-.08.08-.23.18-.31.31-.18.66.13.89.4,1.06,1.47,2.09,2.97,3.23,4.4,1.02,1.24,1.55,2.84,2.09,4.36,1.2,3.11,2.13,6.31,2.92,9.54h0Z"/>
        <path class="cls-8" d="M276.79,144.83c-1.16,1.16-2.3,2.35-3.46,3.51-1.02,1.06-2.03,2.14-2.71,3.42-.31.66-.54,1.33-.75,2.04-.18.54-.31,1.12-.44,1.68-.04.23-.08.4-.08.62-.13,1.12-.04,2.18-.08,3.24v.18c-.08,2.49-1.42,4.36-3.85,5.11-2.21.66-5.19.35-7.26-.58-1.55-.66-2.92-1.68-4.39-2.45-1.47-.71-2.88-1.99-4.08-3.11-3.37-3.28-4.34-7.41-3.89-11.99.18-1.78,1.9-3.69,3.23-4.79l.04-.04c1.59-1.24,3.58-1.91,5.63-1.64,2.4.35,4.51,1.64,6.52,3.03,1.2.81,2.4,1.87,3.68,2.49,1.37.66,3.19.81,4.7.66,1.06-.04,2.09-.27,3.06-.5,1.41-.31,2.79-.62,4.16-.89l-.03.02Z"/>
        <path class="cls-11" d="M269.25,159.35v.18c-.08,2.49-1.42,4.35-3.85,5.1-2.21.66-5.19.35-7.26-.58-1.55-.66-2.92-1.68-4.39-2.45-1.47-.71-2.88-1.99-4.08-3.11-3.37-3.28-4.34-7.41-3.89-11.99.18-1.78,1.9-3.69,3.23-4.79l.04-.04-.31.85c-.31,1.99-.62,4.09-.31,6.08.39,2.3,1.68,4.44,3.41,6.04,1.68,1.64,3.81,2.8,6.02,3.59,3.64,1.29,7.57,1.68,11.38,1.12Z"/>
        <path class="cls-24" d="M299.47,352.85c-.18,1.33-.58,2.71-1.11,3.96-.54,1.12-1.16,2.14-2.13,2.84-1.06.85-2.4,1.16-3.68,1.6-2.52.85-4.92,2.22-6.91,4-2.03,1.73-3.33,3.94-5.09,5.87-2.79,2.88-5.59,5.73-8.59,8.4-1.28,1.16-3.1,2.76-4.82,3.2-.66.13-1.33.13-1.99.13-.44,0-.89-.04-1.28-.23-.4-.13-.75-.44-1.06-.75-1.24-1.43-1.9-3.28-2.26-5.06-.04-.18-.08-.35-.08-.58-.54-2.53-.66-5.25-.44-7.82.13-1.6,1.55-2.57,2.65-3.55,1.24-1.16,2.57-2.22,3.85-3.28,2.65-2.14,5.36-4.27,7.84-6.66,2.34-2.35,4.51-4.98,6.02-7.95.89-1.78,1.06-3.96,2.26-5.6,1.47-1.99,3.58-1.24,5.8-1.2,2.13-.58,5.23-1.02,7.04.58l.04.04c1.9,1.78,3.19,4.4,3.77,6.93.35,1.68.44,3.42.18,5.15h0Z"/>
        <path class="cls-15" d="M299.47,352.85c-.18,1.33-.58,2.71-1.11,3.96-.54,1.12-1.16,2.14-2.13,2.84-1.06.85-2.4,1.16-3.68,1.6-2.52.85-4.92,2.22-6.91,4-2.03,1.73-3.33,3.94-5.09,5.87-2.79,2.88-5.59,5.73-8.59,8.4-1.28,1.16-3.1,2.76-4.82,3.2-.66.13-1.33.13-1.99.13-.44,0-.89-.04-1.28-.23-.4-.13-.75-.44-1.06-.75-1.24-1.43-1.9-3.28-2.26-5.06-.04-.18-.08-.35-.08-.58,1.28-.04,2.61-.18,3.89-.31,1.28-.13,2.61-.27,3.85-.75,1.9-.75,3.46-2.18,4.82-3.69,2.17-2.35,4.03-5.02,6.21-7.37,2.17-2.35,4.65-4.44,7.31-6.22,1.51-.98,3.06-1.82,4.3-3.11,1.33-1.37,2.21-3.11,2.88-4.88,1.02-2.88,1.51-6.08,1.78-9.15l.04.04c1.9,1.78,3.19,4.4,3.77,6.93.35,1.68.44,3.42.18,5.15h-.01Z"/>
        <path class="cls-8" d="M306.07,254.26c-.13,6.04.13,12.84-.97,18.74-1.24,6.53-2.09,12.74-2.26,19.41-.18,6.26-.13,12.53-.93,18.73-1.11,8.71-2.57,17.41-5.09,25.85-1.2,3.86-2.71,7.86-5.4,10.7-.49.5-.97.93-1.51,1.33-.66.5-1.37.93-2.17.85-1.06-.04-1.9-.93-2.48-1.82-4.16-6-3.58-13.28-4.3-20.25-.8-8.17-4.78-64.08-5.9-69.23-.44-1.91-.85-3.82-1.28-5.73-1.02-4.48-1.95-8.96-2.61-13.5-.04-.18-.04-.35-.08-.5-.8-5.33-1.28-10.04-.35-15.37.08-.35.23-.81.58-.89.85,2.09,1.51,2.22,3.41,2.4,1.95.23,3.85.89,5.76,1.24,7.22,1.33,14.49,2.66,21.71,4,1.16.23,2.48.54,3.02,1.6.23.44.27.98.31,1.51.13,1.78.23,3.55.27,5.33.31,5.19.4,10.39.31,15.58h-.01Z"/>
        <path class="cls-11" d="M306.07,254.26c-.13,6.04.13,12.84-.97,18.74-1.24,6.53-2.09,12.74-2.26,19.41-.18,6.26-.13,12.53-.93,18.73-1.11,8.71-2.57,17.41-5.09,25.85-1.2,3.86-2.71,7.86-5.4,10.7.44-1.64.93-3.24,1.37-4.89,1.64-6.26,2.21-12.8,2.71-19.23,1.78-21.76,3.06-43.61,3.89-65.41-8.82,1.37-18.07-.58-25.6-5.33-1.02-4.48-1.95-8.96-2.61-13.5-.04-.18-.04-.35-.08-.5.27-.09.58-.18.89-.27,11.03-2.93,23.08-3.86,33.8.09.31,5.19.4,10.39.31,15.58v.03Z"/>
        <path class="cls-12" d="M307.49,249.07c-.08.23-.23.44-.39.62-.89,1.2-2.4,1.78-3.81,2.18-.62.18-1.2.35-1.82.5-7.04,1.64-14.53.98-21.22-1.73-2.92-1.2-7.35-2.93-8.59-6.04-1.47-3.69-1.86-7.41-2.21-11.37-.75-8.3-1.68-16.93-.85-25.31.08-1.06.18-2.14.35-3.2.35-2.45,1.02-4.79,2.03-7.01.93-2.04,2.21-3.46,2.52-5.68,1.42.89,14.3,8.96,14.88,8.21.18-.13.44-.08.62,0,1.95.85,3.85,1.78,5.71,2.76,1.28.71,2.61,1.47,3.5,2.62.75.93,1.2,2.14,1.51,3.28.04.18.08.31.08.5.71,2.84.8,5.81.85,8.75,0,.81,0,1.64-.04,2.53,0,1.33-.04,2.76,0,4.09,0,.81.08,1.6.23,2.35.35,2.4,1.16,4.67,2.03,6.89,1.51,3.69,2.17,7.9,3.89,11.45.66,1.37,1.47,2.05.71,3.65v-.03Z"/>
        <path class="cls-17" d="M307.49,249.07c-.08.23-.23.44-.39.62-.89,1.2-2.4,1.78-3.81,2.18-.62.18-1.2.35-1.82.5-.31-1.87-.71-3.73-1.33-5.56-1.24-3.9-3.27-7.51-4.97-11.18-1.68-3.73-3.06-7.72-2.88-11.81l8.32-3.15c0,1.33-.04,2.76,0,4.09,0,.81.08,1.6.23,2.35.35,2.4,1.16,4.67,2.03,6.89,1.51,3.69,2.17,7.9,3.89,11.45.66,1.37,1.47,2.05.71,3.65h.01Z"/>
        <path class="cls-24" d="M346.92,349.6c-1.2,2.66-3.5,4.48-5.05,6.89-1.68,2.66-2.96,5.6-4.08,8.57-1.02,2.76-1.78,5.37-4.2,7.24-.97.75-2.13,1.24-3.27,1.68-4.78,1.91-13.37,4.98-17.05-.27-.23-.35-.44-.75-.66-1.2-1.72-3.82,2.3-6.97,4.3-10.04,1.68-2.62,3.94-4.84,5.54-7.59,1.51-2.62,2.65-5.46,3.99-8.17,1.51-3.03,2.09-6.39,3.72-9.37,1.47-2.57,3.23-4.04,6.07-4.67,2.4-.54,4.87-.13,6.64,1.56.23.23.44.44.66.71.04.04.08.09.13.13,1.64,2.09,2.96,4.4,3.54,6.97.58,2.57.85,5.02-.27,7.55v.03Z"/>
        <path class="cls-15" d="M346.92,349.6c-1.2,2.66-3.5,4.48-5.05,6.89-1.68,2.66-2.96,5.6-4.08,8.57-1.02,2.76-1.78,5.37-4.2,7.24-.97.75-2.13,1.24-3.27,1.68-4.78,1.91-13.37,4.98-17.05-.27,5.09-.71,10.45-.75,14.44-3.77,4.43-3.34,5.9-9.28,7-14.75,1.37-6.62,3.77-13.28,7.1-19.19.31-.58.66-1.16,1.06-1.78.23.23.44.44.66.71.04.04.08.09.13.13,1.64,2.09,2.96,4.4,3.54,6.97.58,2.57.85,5.02-.27,7.55v.03Z"/>
        <path class="cls-8" d="M348.87,310.52c-1.47,8.96-3.89,17.8-7.31,26.24-1.24,3.07-2.65,6.18-5.05,8.48-.31.27-.66.58-1.06.75-.13.04-.23.08-.35.13-3.85.93-4.97-7.59-5.28-9.9-1.37-9.42-3.64-18.65-5.23-28.07-.8-4.93-1.59-9.86-2.57-14.79-.93-4.71-1.37-9.46-2.3-14.17-.93-4.71-2.26-9.33-3.58-13.9-.54-1.87-1.06-3.69-1.55-5.5-.49-1.78-.89-3.55-1.24-5.29-.89-4.79-1.2-9.5-.44-14.52,6.02.04,12.09.04,18.07-.85,5.98-.85,11.88-2.66,16.93-6-.71,4.31-.93,8.79-1.51,13.19-.27,1.95-.58,3.9-1.02,5.87-.13.58-.23,1.16-.31,1.73-.49,3.24-.35,6.7-.75,9.95-.49,4.21-.89,8.61-.27,12.84.66,5.02,2.75,9.73,4.12,14.61.08.18.13.4.18.62,1.68,6.18,1.51,12.26.54,18.57h-.03Z"/>
        <path class="cls-11" d="M348.87,310.52c-1.47,8.96-3.89,17.8-7.31,26.24-1.24,3.07-2.65,6.18-5.05,8.48-.31.27-.66.58-1.06.75,1.72-6.31,4.34-12.43,5.98-18.79,2.09-8.26,2.61-16.93,2.09-25.41-.23-3.9-.66-7.82-1.86-11.5-1.16-3.46-2.88-6.7-3.64-10.27-.93-4.52-.23-9.42-2.09-13.67-6.56.98-13.39.62-19.8-1.06-.54-1.87-1.06-3.69-1.55-5.5-.49-1.78-.89-3.55-1.24-5.29.18-.18.35-.35.54-.49,2.03-1.43,4.7-1.56,7.18-1.6,7.57-.04,15.15.66,22.68,1.37.44.04.89.08,1.33.13-.49,3.24-.35,6.7-.75,9.95-.49,4.21-.89,8.61-.27,12.84.66,5.02,2.75,9.73,4.12,14.61.08.18.13.4.18.62,1.68,6.18,1.51,12.26.54,18.57h-.01Z"/>
        <path class="cls-12" d="M348.16,229.03c-.4,7.01-.18,13.86-.85,20.87-.31,3.34-.93,7.11-3.58,9.46-1.74,1.51-4.12,2.13-6.42,2.49-.54.04-1.02.13-1.51.18-4.7.54-9.48.93-14.13.13-3.54-.66-7.04-2.09-9.79-4.44-2.34-2.09-3.58-5.1-4.78-8.03-.23-.62-.49-1.24-.75-1.87-.71-1.64-1.51-3.2-2.3-4.79-1.28-2.49-2.4-5.29-3.81-7.68-1.2-1.95-3.41-3.15-4.92-4.88-1.99-2.35-3.02-5.37-3.33-8.48-.04-.23-.08-.5-.08-.71-.23-3.28.23-6.62.71-9.9l7.22-1.99,9.48-2.57c6.33.44,12.71-.27,19-1.02,5.76-.66,12.09-2.26,17.82-1.33.04.18.04.35.08.5,1.37,7.82,2.34,16.2,1.95,24.11v-.04Z"/>
        <path class="cls-17" d="M348.16,229.03c-.4,7.01-.18,13.86-.85,20.87-.31,3.34-.93,7.11-3.58,9.46-1.74,1.51-4.12,2.13-6.42,2.49.75-3.69,1.82-7.32,2.71-10.97,1.64-6.49,2.71-13.46.49-19.77-.44-1.33-1.16-2.71-2.4-3.38-1.11-.58-2.44-.44-3.68-.31-11.26,1.02-22.87.18-33.8-2.72-2.92-.75-5.8-1.68-8.63-2.76-8.59-3.24-16.57-7.9-23.39-14.08.08-1.06.18-2.14.35-3.2.35-2.45,1.02-4.79,2.03-7.01.93-2.04,2.21-3.46,2.52-5.68,1.42.89,14.3,8.96,14.88,8.22.18-.13.44-.09.62,0,1.95.85,3.85,1.78,5.71,2.76,1.28.71,2.61,1.47,3.5,2.62.75.93,1.2,2.14,1.51,3.28.04.18.08.31.08.49l9.48-2.57c6.33.44,12.71-.27,19-1.02,5.76-.66,12.09-2.26,17.82-1.33.04.18.04.35.08.5,1.37,7.82,2.34,16.2,1.95,24.11v.02Z"/>
        <path class="cls-25" d="M358.35,91.59c-2.09,2.57-2.83,5.29-3.1,8.48-.18,1.73-.54,3.51-.89,5.33-.31,1.78-.62,3.55-.62,5.33-1.24,9.06-2.53,18.17-3.77,27.22-2.96,21.01-5.9,42.32-3.1,63.33.62,4.71,1.43,9.86-1.01,13.94-1.68,2.84-4.66,4.62-7.66,5.95-.08.04-.23.09-.31.13-8.73,3.69-18.56,4.44-27.96,2.93-9.48-1.47-18.56-5.1-27.03-9.64-5.8-3.11-11.88-7.47-12.89-13.98-.4-2.53.04-5.1.49-7.68,3.37-19.41,6.29-39.31,3.02-58.75-1.64-9.77-4.78-19.23-6.69-29-1.16-6.08-1.82-12.39-1.24-18.61.23-2.76.18-6.35,1.51-8.88,1.33-2.62,5.8-4.04,8.38-5.06,4.97-1.91,10.06-3.34,15.29-4.31,12.09-2.26,24.67-1.99,36.69.85,2.48.58,4.92,1.29,7.31,2.09,8.86,2.93,16.53,7.99,23.66,13.94.75.62,1.55,1.29,1.78,2.22.39,1.51-.85,2.93-1.82,4.17h-.03Z"/>
        <path class="cls-17" d="M354.35,105.4c-.31,1.78-.62,3.55-.62,5.33-1.24,9.06-2.53,18.17-3.77,27.22-2.96,21.01-5.9,42.32-3.1,63.33.62,4.71,1.43,9.86-1.01,13.94-1.68,2.84-4.66,4.62-7.66,5.95-.08.04-.23.08-.31.13-3.23-18.42-1.55-37.34.13-56.05,1.99-21.68,3.95-43.39,5.94-65.1l10.41,5.25Z"/>
        <path class="cls-24" d="M327.29,81.2c-1.47,3.03-4.08,5.6-7.35,7.32-2.44,1.33-5.36,2.18-8.9,2.71l-.54.08c-1.78.23-3.5.35-5.19.35-3.81,0-7.35-.62-10.49-1.87-1.16-.44-2.26-1.02-3.27-1.78-1.9-1.56-3.19-3.73-3.64-6.22-.44-2.53-.08-5.1.97-7.32l.27-.54c.56-1.09,1-2.22,1.68-3.24.68-1.02,1.62-1.82,2.61-2.53,1-.72,2.41-.68,3.6-.81,1.38-.16,2.76-.28,4.15-.37,2.76-.18,5.56-.24,8.32-.17.56.01,1.13.04,1.69.06,2.82.13,5.64.4,8.44.79,1.4.2,2.79.44,4.18.69,1.31.25,2.51.42,3.41,1.51.25.3.42.65.61.99.71,1.36.75,3.41.72,4.91-.04,1.87-.47,3.72-1.27,5.4h.01Z"/>
        <path class="cls-7" d="M325.3,80.21c-1.33,2.76-3.68,4.93-6.38,6.35-2.52,1.33-5.36,2.04-8.2,2.45-.18.04-.35.04-.54.08-4.88.66-9.97.44-14.57-1.37-.97-.35-1.9-.85-2.75-1.47-1.47-1.2-2.44-2.97-2.79-4.84-.35-1.99-.08-4.13.8-5.95.8-1.6,1.72-3.28,1.95-5.06.18-1.47.04-3.03.4-4.4.85-.04,1.47.23,2.34,0,1.28-.27,2.53-.58,3.72-1.06.66-.27,1.47-.62,2.17-.81,6.6-1.29,12.67-5.29,16.57-10.75.85-1.12,1.55-2.3,2.17-3.55.18,3.65.58,7.28,1.24,10.93.31,1.56.66,3.15,1.37,4.57.8,1.68,2.13,3.15,2.65,4.98.97,3.38,1.42,6.57-.18,9.9h.01Z"/>
        <path class="cls-11" d="M325.3,80.21c-1.33,2.76-3.68,4.93-6.38,6.35-2.52,1.33-5.36,2.04-8.2,2.45,2.96-1.47,5.71-3.69,7-6.74,1.33-3.28.71-7.01.31-10.58-.31-2.93-.49-5.87-.54-8.84l.54-9.46c.85-1.12,1.55-2.3,2.17-3.55.18,3.65.58,7.28,1.24,10.93.31,1.56.66,3.15,1.37,4.57.8,1.68,2.13,3.15,2.65,4.98.97,3.38,1.42,6.57-.18,9.9h.01Z"/>
        <path class="cls-7" d="M327.34,43.1c-.85,2.49-2.65,4.71-5.09,5.73-.23.08-.44.18-.62.35-.13.18-.18.44-.23.66-.27,1.78-.35,3.59-.66,5.37-.93,5.56-4.34,10.52-8.63,14.17-2.34,1.99-5.13,3.73-8.2,4.04-1.16.13-2.21.04-3.27-.23-3.99-.81-7.18-3.96-9.48-7.42-4.26-6.43-5.9-13.98-7.26-21.53-.75-4.21-.85-8.17-.8-12.43,0-2.84.04-5.73,1.2-8.3,1.06-2.4,2.96-3.86,5.4-4.48,2.71-.66,5.13-2.3,8.01-2.93,3.02-.58,6.07-.89,9.13-.81,3.23.04,6.6.54,9.21,2.45,1.02.75,1.86,1.68,2.53,2.71,1.95,2.88,2.84,6.57,3.5,10.08.27,1.41.89,3.15,2.3,3.28,1.02.13,2.13-.62,2.92-.04.44.35.58.93.66,1.51.31,2.62.27,5.33-.62,7.82h.01Z"/>
        <path class="cls-11" d="M327.34,43.1c-.85,2.49-2.65,4.71-5.09,5.73-.23.08-.44.18-.62.35-.13.18-.18.44-.23.66-.27,1.78-.35,3.59-.66,5.37-.93,5.56-4.34,10.52-8.63,14.17-2.34,1.99-5.13,3.73-8.2,4.04-1.16.13-2.21.04-3.27-.23,4.47-.75,8.55-3.46,11.3-7.06,2.96-3.82,4.56-8.57,5.09-13.32.35-3.24.27-6.49.13-9.69-.18-5.6-.49-11.14-1.37-16.66-.35-2.04-1.24-4.52-3.27-4.79l6.07-1.24c1.95,2.88,2.84,6.57,3.5,10.08.27,1.41.89,3.15,2.3,3.28,1.02.13,2.13-.62,2.92-.04.44.35.58.93.66,1.51.31,2.62.27,5.33-.62,7.82Z"/>
        <path class="cls-4" d="M329.25,29.41c0,3.82-.23,7.64-1.33,11.33-.04-.66-.08-1.37-.18-2.04-.04-1.02-.18-2.18-.97-2.76-.35-.27-.75-.35-1.11-.44-2.17-.27-3.72,1.6-4.56,3.34-.66,1.33-.8,2.84-.93,4.26-1.06-2.84-.89-6-.89-9.06,0-3.38-.75-7.47-3.06-10-.85-.93-1.9-1.64-2.96-2.26-.54-.27-1.02-.54-1.55-.81-2.71-1.24-5.63-1.99-8.59-1.95-5.54.04-10.68,2.84-14.49,6.7-1.74,1.73-3.5,3.9-4.34,6.26-.49,1.29-.75,2.66-.89,4.04-.08.75-.62,3.2-.18,3.82l-1.72-2.53c-2.4-4.17-3.27-9.19-2.79-13.98.44-4.79,2.21-9.46,4.7-13.55,1.28-2.14,2.79-4.13,4.74-5.6.89-.71,1.86-1.29,2.88-1.78,5.44-2.8,12.36-3.46,17.59-.31.93.58,1.82,1.24,2.84,1.6,2.61.98,5.67-.18,8.2.93,1.11.49,2.03,1.37,2.84,2.26,2.88,3.11,5.28,6.74,6.07,10.83.04.27.08.54.13.81.62,3.59.58,7.24.58,10.87h.01Z"/>
        <path class="cls-17" d="M329.25,29.41c0,3.82-.23,7.64-1.33,11.33-.04-.66-.08-1.37-.18-2.04-.04-1.02-.18-2.18-.97-2.76-.35-.27-.75-.35-1.11-.44-2.17-.27-3.72,1.6-4.56,3.34-.66,1.33-.8,2.84-.93,4.26-1.06-2.84-.89-6-.89-9.06,0-3.38-.75-7.47-3.06-10-.85-.93-1.9-1.64-2.96-2.26-.54-.27-1.02-.54-1.55-.81l.04-.08c2.65.75,5.44,1.33,8.2,1.24,2.79-.08,5.63-.89,7.76-2.66.35-.27.66-.58.97-.93.62,3.59.58,7.24.58,10.87Z"/>
        <path class="cls-5" d="M255.97,161.95c.66,0,35.69,22.62,35.69,22.62l39.72,10.39-36.67-25.79-38.72-7.23h-.01Z"/>
        <path class="cls-8" d="M370.58,166.24c-1.16,1.6-2.75,2.8-4.43,3.77-2.44,1.51-5.01,2.66-7.66,3.73-.62.23-1.24.5-1.86.71-5.63,2.14-11.47,3.73-17.41,4.84-3.72.71-7.53.93-11.3,1.47-1.51.18-2.96.54-4.43.85-2.34,1.99-1.95,6.22-4.39,8.17-.39.31-.85.58-1.2.93-.93.93-1.06,2.53-2.17,3.24-.8.54-1.86.35-2.84.18-2.61-.44-5.28-.93-7.84-1.64-1.78-.49-3.5-1.06-4.92-2.26-.54-.44-1.02-.98-1.55-1.47-.27-.31-.58-.58-.89-.85-.4-.31-.75-.62-1.06-1.02-.18-.23-.54-1.12-.71-1.24,1.68.93,3.64,1.24,5.59,1.2,1.9-.09,3.81-.5,5.67-.89,1.33-.27,2.79-.62,3.85-1.55.89-.81.85-2.4-.18-3.11-.54-.4-1.28-.44-1.95-.4-1.82.09-3.58.58-5.4.89-1.78.31-3.68.4-5.36-.31-.23-.09-.4-.18-.54-.35-.35-.4-.23-1.06.08-1.51.8-1.24,2.4-1.68,3.77-2.14,2.96-.98,5.59-2.35,8.11-4.13,1.02-.75,2.13-1.43,3.23-2.05,1.2-.62,2.44-1.2,3.77-1.29,1.33-.13,2.61.62,3.95.31,1.16-.31,2.34-.66,3.54-.98,2.96-.71,5.85-1.73,8.59-2.97,3.72-1.68,7.22-3.69,10.68-5.81,1.72-1.06,3.41-2.14,5.13-3.24,1.06-.71,2.61-1.29,3.15-2.57,1.24-3.2-.75-6.66-2.13-9.42-3.95-7.95-2.61-17.41-4.39-26.12-.89-4.31-1.78-8.3-1.82-12.74-.04-2.76-.04-5.56.44-8.3.71-3.9,2.09-8.03,5.18-10.75,2.61-2.3,6.79-3.2,9.66-1.24,1.01.71,1.82,1.29,2.53,1.99.62.62,1.16,1.33,1.68,2.26,3.19,5.91,4.3,12.7,5.32,19.36.44,2.8.89,5.6,1.33,8.4,1.68,10.62,2.96,21.45,3.1,32.24v2.84c-.04,4.09.58,9.54-1.95,12.97h.03Z"/>
        <path class="cls-11" d="M370.58,166.24c-1.16,1.6-2.75,2.8-4.43,3.77-2.44,1.51-5.01,2.66-7.66,3.73-.62.23-1.24.5-1.86.71-5.63,2.14-11.47,3.73-17.41,4.84-3.72.71-7.53.93-11.3,1.47-1.51.18-2.96.54-4.43.85-2.34,1.99-1.95,6.22-4.39,8.17-.39.31-.85.58-1.2.93-.93.93-1.06,2.53-2.17,3.24-.8.54-1.86.35-2.84.18-2.61-.44-5.28-.93-7.84-1.64-1.78-.49-3.5-1.06-4.92-2.26-.54-.44-1.02-.98-1.55-1.47,1.51.4,3.02.85,4.51,1.2,4.03,1.06,8.82,1.37,11.88-1.43,2.61-2.35,3.23-6.31,5.71-8.75,1.99-1.87,4.82-2.57,7.49-3.15,6.38-1.43,12.77-2.84,19.14-4.27,6.56-1.43,13.78-3.38,17.24-9.15,2.4-3.96,2.34-8.84,2.21-13.42-.75-20.56-3.27-41.03-5.8-61.46l.13-.18c.62.62,1.16,1.33,1.68,2.26,3.19,5.91,4.3,12.7,5.32,19.36.44,2.8.89,5.6,1.33,8.4,1.68,10.62,2.96,21.45,3.1,32.24v2.84c-.04,4.09.58,9.54-1.95,12.97v.03Z"/>
        <path d="M279.38,125.42c-.48-.11-1.14.1-1.48.47-.17.18-.23.38-.17.54h0l1.13,3.77,2.07-.73-1.1-3.7h0c-.04-.16-.2-.28-.44-.34h-.01Z"/>
        <path class="cls-21" d="M280.5,129.18c.48.11.61.5.27.86-.34.37-1,.58-1.48.47-.48-.11-.61-.49-.27-.86.34-.37,1-.58,1.48-.47Z"/>
        <path d="M280.24,127.5c-.69-.16-1.64.14-2.12.66-.25.27-.32.54-.24.76h0l1.59,5.37,2.95-1.05-1.57-5.27h0c-.07-.23-.28-.4-.62-.48Z"/>
        <path class="cls-21" d="M281.82,132.84c.69.16.86.71.38,1.23-.48.52-1.42.82-2.12.66-.69-.16-.86-.71-.38-1.23.48-.52,1.42-.82,2.12-.66Z"/>
        <path d="M280.79,129.38c-.69-.16-1.64.14-2.12.66-.25.27-.32.54-.24.76h0l10.89,35.9,2.96-1.05-10.85-35.8h0c-.07-.23-.28-.4-.62-.48h-.03Z"/>
        <path class="cls-20" d="M291.67,165.25c.69.16.86.71.38,1.23-.48.52-1.42.82-2.12.66-.69-.16-.86-.71-.38-1.23.48-.52,1.42-.82,2.12-.66Z"/>
        <path class="cls-10" d="M291.67,165.26s.07.02.1.03c.37.11.56.35.55.64l.61,5.25h0l.1,1.36-.76-1.07-2.86-4.6h0c-.2-.24-.16-.59.16-.93.14-.16.32-.3.54-.4.49-.25,1.1-.38,1.59-.27h-.01Z"/>
        <path class="cls-1" d="M291.77,165.29c.34.1.52.31.54.57v.07l.61,5.25h0l.1,1.36-1.26-7.24h.01Z"/>
        <path class="cls-9" d="M290.09,165.52l2.95,7-.76-1.07s-2.88-4.61-2.88-4.62c-.2-.24-.14-.58.17-.92.14-.16.32-.3.54-.4h-.01Z"/>
        <path class="cls-2" d="M292.8,171.09s.11.04.13.09v.04c.01.1.03.2.04.28l.06.44c.01.16.03.3.06.45v.13s-.01.03-.03.04c-.06.03-.1-.04-.13-.09l-.11-.18c-.08-.13-.17-.27-.24-.4-.07-.11-.14-.21-.2-.32-.03-.04-.06-.09-.08-.14-.04-.06-.04-.14.03-.21.11-.13.34-.18.49-.16v.03Z"/>
        <path class="cls-10" d="M278.83,128.65h0l-.21-.04v.11s-.03.03-.04.04l-.52.57c-.17.18-.24.51-.18.75.52,5.88,2.99,9.77,3.08,9.9l-.06.14.25.06c.08.01.17-.01.25-.11l.52-.57c.17-.18.24-.51.18-.75l-3.08-9.91c-.04-.1-.1-.17-.18-.18h-.01Z"/>
        <path class="cls-19" d="M278.35,128.71l-.52.57c-.17.18-.24.51-.18.76.54,5.98,3.08,9.91,3.08,9.91.08.23.27.25.44.09l.52-.57c.17-.18.24-.51.18-.75l-3.08-9.91c-.08-.23-.27-.25-.44-.07v-.03Z"/>
        <path class="cls-5" d="M280.89,139.3h0s-.06-.1-.08-.14c-.06-.1-.11-.2-.17-.3-.08-.16-.17-.3-.24-.45-.1-.2-.2-.4-.3-.59-.11-.24-.23-.5-.32-.73-.13-.28-.24-.58-.34-.86-.13-.32-.24-.66-.34-.99-.11-.37-.23-.74-.32-1.1-.11-.41-.2-.81-.28-1.22-.08-.44-.17-.88-.23-1.33-.03-.23-.07-.47-.08-.69,0-.11-.03-.24-.04-.35,0-.09,0-.18-.03-.25-.01-.04-.06-.07-.1-.07s-.07.03-.08.07c-.07.1-.07.23-.04.32,0,.06.04.3.04.38.06.45.11.92.2,1.37.07.42.16.85.25,1.27.08.4.2.78.3,1.17.1.35.21.71.32,1.06.11.31.23.64.34.93.11.27.23.55.34.82.1.23.21.45.31.68.08.18.18.37.27.54.07.13.14.27.21.4.06.1.11.21.17.3.04.07.08.18.18.2.07,0,.13-.04.14-.1.03-.1,0-.18-.06-.27v-.06Z"/>
        <path class="cls-8" d="M290.61,156.07c-.13.44-.31.85-.44,1.29-.13.66-.13,1.37-.4,1.95-.35.89-1.33,1.47-2.26,1.41.31.81.58,1.74.35,2.57-.23.89-1.02,1.64-1.9,1.6.18.75-.23,1.55-.89,1.95-.66.35-1.59.23-2.13-.31-.23-.18-.35-.4-.58-.58-.23-.13-.58-.23-.75-.04-.13.09-.18.23-.27.35-.23.23-.58.27-.89.27-4.3.04-8.2-2.3-11.83-4.62-1.06-.66-2.52-1.12-3.23-2.18-.44-.66-.75-1.43-.89-2.18-.23-.81-.27-1.64-.23-2.45.08-1.2.54-2.53,1.59-3.11.23-.13.49-.23.66-.4.27-.27.27-.66.35-1.02.35-1.87,2.21-3.34,4.12-3.24.23-2.14,2.21-3.96,4.34-4-.35.04.93-1.82,1.16-1.95.71-.44,1.51-.4,2.26-.04,1.11.54,2.17,1.12,3.06,1.95.71.71,1.28,1.56,1.95,2.26,1.86,1.91,4.57,2.93,6.02,5.1,0,.04.04.04.04.09,1.02,1.56,1.33,3.55.75,5.29v.03Z"/>
        <path class="cls-11" d="M290.61,156.07c-.13.44-.31.85-.44,1.29-.13.66-.13,1.37-.4,1.95-.35.89-1.33,1.47-2.26,1.41.31.81.58,1.74.35,2.57-.23.89-1.02,1.64-1.9,1.6.18.75-.23,1.55-.89,1.95-.66.35-1.59.23-2.13-.31-.23-.18-.35-.4-.58-.58-.23-.13-.58-.23-.75-.04-.13.09-.18.23-.27.35-.23.23-.58.27-.89.27-4.3.04-8.2-2.3-11.83-4.62-1.06-.66-2.52-1.12-3.23-2.18-.44-.66-.75-1.43-.89-2.18,2.61,2.66,5.85,5.1,9.56,5.33,1.59.08,3.19-.27,4.74.08,1.64.35,3.37,1.47,4.92.75.44-.23.8-.58,1.2-.93.97-.93,2.05-1.99,2.17-3.38.04-.18.04-.4.08-.58.08-.31.35-.54.62-.75,1.33-1.33,1.72-3.28,1.9-5.15.04-.71.08-1.47.13-2.18,1.02,1.56,1.33,3.55.75,5.29v.03Z"/>
        <path class="cls-8" d="M255.56,155.58h0c-.04-.27-.1-.52-.16-.79.06.27.1.52.16.79Z"/>
        <path class="cls-6" d="M385.39,66.67l.28-.03c.1-.17-.3-.16-.28.03Z"/>
        <path class="cls-14" d="M425.84,96.44c-.3-8.87-.34-17.77-1.9-26.51-.38-2.14-.87-4.3-1.95-6.19-1.09-1.88-2.84-3.48-4.97-3.89-2.13-.41-4.58.62-5.39,2.64l-9.17,10.94c.18,0,.04-.35-.14-.28-.18.07-.2.3-.21.48-.14,5.85-.03,11.69.08,17.55.07,3.76.15,7.58,1.17,11.21,1.88,6.6,6.69,11.93,11.58,16.74,4.9,4.81,10.13,9.52,13.25,15.64-.96-12.77-1.92-25.54-2.36-38.33Z"/>
        <path class="cls-7" d="M385.29,115.66c-.54,1.68-1.68,3.07-2.79,4.4-3.06,3.55-6.21,7.06-8.28,11.28-.66,1.29-1.24,2.71-1.78,4.09-.58,1.56-1.2,3.11-1.82,4.67-1.06,2.66-2.4,5.15-3.46,7.86-1.11,2.8-2.13,5.68-3.02,8.57-.75,2.3-1.47,4.71-2.13,7.06-.23.81-.35,1.47-.75,2.09-.04.18-.13.31-.27.49-.62.85-1.24,1.6-1.82,2.45-2.48,3.55-4.56,7.59-4.74,11.99-.08,2.57.54,5.15,1.74,7.47.49.98,1.06,2.09,1.68,2.97.66.89,1.68,1.43,2.03,2.49.18.54.23,1.2.4,1.78.08.4.23.81.13,1.2-.04.4-.31.71-.49,1.02-.4.54-.75,1.12-1.11,1.64-1.95,3.15-3.46,6.57-3.54,10.21-4.3-3.69-7.26-8.71-9.83-13.77-1.06-2.13-2.13-4.27-2.92-6.49-1.51-4.17-2.26-8.65-1.86-13.05.18-2.22.62-4.35,1.37-6.43.31-.85.58-1.73.93-2.53.35-1.33,1.11-2.53,1.86-3.65.89-1.33,7.93-13.05,9.31-15.99,1.28-2.62,2.34-5.29,3.46-7.95,1.86-4.4,3.68-8.84,5.49-13.23.85-2.04,1.68-4.09,3.1-5.77,2.3-2.84,5.76-4.26,9.17-5.25,1.16-.35,2.3-.66,3.5-.93.62-.13,1.24-.23,1.86-.27,1.33-.13,3.02-1.82,4.26-.71.62.58.58,1.56.31,2.3h.03Z"/>
        <path class="cls-11" d="M359.19,168.6c-2.48,3.55-4.56,7.59-4.74,11.99-.08,2.57.54,5.15,1.74,7.47.49.98,1.06,2.09,1.68,2.97.66.89,1.68,1.43,2.03,2.49.18.54.23,1.2.39,1.78.08.4.23.81.13,1.2-.04.4-.31.71-.49,1.02-.4.54-.75,1.12-1.11,1.64-.04-.09-.08-.18-.13-.27-.66-1.24-1.68-2.35-2.53-3.51-1.06-1.43-2.13-2.88-3.02-4.48-1.99-3.59-3.02-7.82-2.83-11.95.04-1.12.18-2.22.39-3.34.58-3.42,1.78-6.75,3.46-9.77.8-1.43,1.11-1.74,2.71-1.82,1.16-.08,2.3-.23,3.5-.31.31.66.58,1.33.89,1.95-.04.18-.13.31-.27.5-.62.85-1.24,1.6-1.82,2.45h.03Z"/>
        <path class="cls-7" d="M423.29,121.92c.04.18-.04.4-.13.58-.35.62-.89,1.12-1.47,1.55-1.42,1.12-2.92,2.04-4.39,3.07-.71.5-1.59,1.02-2.09,1.73-.58.71-.97,1.6-1.51,2.35-1.47,2.04-3.06,3.96-4.61,5.91-3.23,3.94-6.52,7.95-10.18,11.5-2.4,2.35-5.01,4.57-7.8,6.53-1.06.75-2.09,1.16-3.02,2.09-1.11,1.12-2.21,2.14-3.54,2.93-2.34,1.41-5.13,2.14-7.88,1.87-.8-.04-1.59-.18-2.34-.44-1.06-.35-1.99-1.02-3.1-1.37-1.02-.35-2.03-.62-2.92-1.29-1.72-1.24-2.4-3.59-2.4-5.77,0-1.2.18-2.35.49-3.51.35-1.2.89-2.35,1.37-3.51.54-1.2,1.11-2.45,1.64-3.65.18-.44.54-.58.8-.93.31-.44.49-.98.71-1.47.54-1.02,1.06-1.99,1.64-3.03,1.11-1.95,2.26-3.86,3.46-5.77,2.04-3.34,2.92-7.82,5.67-10.66.75-.81,1.68-1.43,2.22-2.4.54-1.02.39-2.18.8-3.24.31-.85.85-1.64,1.24-2.45.66-1.33,1.33-2.66,1.99-4,3.95-1.68,8.11-3.59,11.65-6.04.49-.35.89-.81,1.28-1.29.89-1.06,1.55-2.45,2.26-3.55.93-1.51,1.86-3.03,2.75-4.57.35-.54.66-1.06.97-1.6.23.54.35,1.06.49,1.6.7,3.03.54,6.26.54,9.42.04,2.3.35,4.44.89,6.7.31,1.37.54,2.97,1.51,4.04.97,1.12,2.09,2.04,3.27,2.88,2.88,2.09,6.25,3.65,9.31,5.37.18.09.4.23.44.4Z"/>
        <path class="cls-11" d="M378.91,149.61c-.85-.03-1.64-.37-2.34-.83-.51-.34-1.42-1.57-1.96-1.57.75,1.13,1.79,1.97,2.09,3.38.17.81.06,1.64-.09,2.45-.38,2.21-.96,4.38-1.96,6.39-1,2.01-2.41,3.82-4.26,5.08,1.74-.23,3.5-.1,5.19.37-.56-.93-.66-2.08-.51-3.15.15-1.07.55-2.09.95-3.11.51-1.3,1.01-2.59,1.51-3.89.34-.86.68-1.74,1.21-2.5,1.17-1.68,3.13-2.63,5.06-3.29-1.62-.31-3.23.75-4.89.69Z"/>
        <path class="cls-11" d="M423.29,121.92c.04.18-.04.4-.13.58-.35.62-.89,1.12-1.47,1.55-1.42,1.12-2.92,2.04-4.39,3.07-.71.5-1.59,1.02-2.09,1.73-.58.71-.97,1.6-1.51,2.35-1.47,2.04-3.06,3.96-4.61,5.91-3.23,3.94-6.52,7.95-10.18,11.5-2.4,2.35-5.01,4.57-7.8,6.53-1.06.75-2.09,1.16-3.02,2.09-1.11,1.12-2.21,2.14-3.54,2.93-2.34,1.41-5.13,2.14-7.88,1.87,4.82-3.24,9-7.51,12.81-11.95,3.72-4.21,7.22-8.61,9.75-13.63,2.57-4.98,4.08-10.62,3.64-16.2-.49-5.5-2.84-10.83-2.34-16.35l.35-2.66c.89-1.06,1.55-2.45,2.26-3.55.93-1.51,1.86-3.03,2.75-4.57.49-.04.97-.04,1.47,0,.71,3.03.54,6.26.54,9.42.04,2.3.35,4.44.89,6.7.31,1.37.54,2.97,1.51,4.04.97,1.12,2.09,2.04,3.27,2.88,2.88,2.09,6.25,3.65,9.31,5.37.18.09.39.23.44.4h-.01Z"/>
        <path class="cls-7" d="M408.59,94.56c.09,1.16-.27,2.3-.75,3.42-.8,1.82-2.03,3.46-3.72,4.57-.93.58-1.95.98-2.71,1.73-1.86,1.68-2.03,4.62-3.77,6.49-1.2,1.29-2.96,1.82-4.65,2.3-6.25,1.78-12.77,3.46-19.23,2.66-.35-.04-.75-.13-1.11-.35-1.28-.85-.35-2.93-1.06-4.31-.39-.89-1.47-1.43-1.55-2.4-.04-.31.04-.66-.04-.98-.08-.4-.44-.66-.62-1.02-.66-1.12.23-2.8-.58-3.82-.8-.98-2.57-.62-3.33-1.64-.44-.54-.35-1.33-.08-1.95.31-.66.8-1.16,1.24-1.68.97-1.12,1.82-2.35,2.4-3.73.44-.98.8-2.04.75-3.11-.08-2.88-2.71-5.29-2.61-8.13,0-1.12.39-2.14.8-3.15,1.55-3.86,3.1-7.78,4.66-11.68l12.77-1.12c.04.18.31.27.49.31,4.25.58,8.28,2.66,11.16,5.81,1.82,1.95,3.23,4.35,4.08,6.89.54,1.51.85,3.11.97,4.71.08,1.16.04,2.26.31,3.38.23,1.12.8,2.22,1.78,2.76.85.54,1.9.58,2.75,1.06,1.01.58,1.59,1.78,1.68,2.97v.03Z"/>
        <path class="cls-11" d="M408.59,94.56c.09,1.16-.27,2.3-.75,3.42-.8,1.82-2.03,3.46-3.72,4.57-.93.58-1.95.98-2.71,1.73-1.86,1.68-2.03,4.62-3.77,6.49-1.2,1.29-2.96,1.82-4.65,2.3-6.25,1.78-12.77,3.46-19.23,2.66-.35-.04-.75-.13-1.11-.35,3.41-.5,6.83-1.06,10.24-1.78,2.79-.62,5.63-1.33,7.97-3.03,2.26-1.68,3.89-4.21,4.43-7.01.89-4.57-1.06-9.23-.8-13.86.23-3.78,1.9-7.47,1.33-11.14l5.28,1.12c.54,1.51.85,3.11.97,4.71.08,1.16.04,2.26.31,3.38.23,1.12.8,2.22,1.78,2.76.85.54,1.9.58,2.75,1.06,1.02.58,1.59,1.78,1.68,2.97h.01Z"/>
        <path class="cls-14" d="M414.35,89.36c-.49,1.2-.93,2.35-1.55,3.46-1.37,2.3-3.41,4.09-5.4,5.87.7-1.51.39-3.42-.75-4.58-1.11-1.2-3.02-1.56-4.51-.93-2.05.89-3.02,3.24-3.64,5.42-1.16-1.06-1.68-2.71-1.78-4.31-.08-1.6.18-3.15.35-4.75.18-1.95.18-3.9-.04-5.81-.22-1.95-.66-3.86-1.72-5.46-.08-.18-.18-.35-.31-.49-1.11-1.47-2.71-2.49-4.39-3.34-2.44-1.2-5.09-2.53-7.8-1.95-1.82.44-3.77.58-5.67.44-1.24-.08-2.57-.31-3.58-1.12-2.88-2.09-.85-5.19,1.06-7.15,1.68-1.73,3.72-3.11,5.9-4.21,6.73-3.46,14.98-4.67,22.33-2.88,1.51.35,2.96.85,4.34,1.56,3.33,1.82,5.8,4.84,7.53,8.22.18.35.35.71.49,1.12.49.98.89,1.99,1.2,3.03,1.95,6.12.18,12.12-2.03,17.9h-.03Z"/>
        <path class="cls-17" d="M414.35,89.36c-.49,1.2-.93,2.35-1.55,3.46-1.37,2.3-3.41,4.09-5.4,5.87.7-1.51.39-3.42-.75-4.58-1.11-1.2-3.02-1.56-4.51-.93-2.05.89-3.02,3.24-3.64,5.42-1.16-1.06-1.68-2.71-1.78-4.31-.08-1.6.18-3.15.35-4.75.18-1.95.18-3.9-.04-5.81-.22-1.95-.66-3.86-1.72-5.46,3.99,2.62,9.66,1.64,13.47-1.29,2.83-2.18,4.87-5.25,6.42-8.53.49.98.89,1.99,1.2,3.03,1.95,6.12.18,12.12-2.03,17.9h-.01Z"/>
        <path class="cls-7" d="M432.95,150.47c-.27,2.05-.62,4.13-1.11,6.18-.44,1.73-.97,3.42-1.68,5.02-1.72,3.82-4.08,7.37-6.95,10.39-2.3,2.4-6.29,3.07-9.71,2.93-.66,0-1.33-.08-1.95-.13-1.01-.08-2.09-.31-3.02-.81-.85-.49-1.51-1.2-2.13-1.99-1.51-1.95-2.44-4.35-3.1-6.74-1.95-6.89-1.86-14.3.27-21.14.58-1.87,1.28-3.65,1.99-5.46.85-2.09,1.68-4.17,2.92-6,1.47-2.18,3.41-3.95,5.54-5.46,1.11-.75,2.21-1.43,3.37-2.09.93-.54,1.43-1.33,1.78-2.31.23-.66.49-1.47,1.16-1.64.54-.13,1.06.23,1.47.58,1.82,1.33,3.58,2.66,5.4,4.04.62.44,1.24.93,1.78,1.47,1.82,1.82,3.06,4.13,3.81,6.53.35,1.12.58,2.26.66,3.42.27,4.4.08,8.84-.49,13.23v-.04Z"/>
        <path class="cls-11" d="M431.85,156.65c-.44,1.73-.97,3.42-1.68,5.02-1.72,3.82-4.08,7.37-6.95,10.39-2.3,2.4-6.29,3.07-9.71,2.93.93-10.04,2.17-20.02,3.72-30.02l8.42-10.08c3.27,6.84,4.03,14.52,6.21,21.76h-.01Z"/>
        <path class="cls-3" d="M397.21,377.76c-1.72.89-3.72,1.12-5.63,1.06-4.2-.13-8.2-1.6-12.32.13-4.2,1.82-7.84,4.98-12.31,6.31-2.4.66-4.92.81-7.39.75-.89-.04-1.82.23-2.65.04-.97-.23-1.99-.98-2.75-1.6-.49-.4-.89-.85-1.16-1.41-.75-1.68-.4-3.51.39-5.15.4-.89.93-1.74,1.51-2.49.62-.89,1.37-1.73,2.09-2.57.71-.85,1.28-1.95,2.09-2.72,1.47-1.37,3.95-1.6,5.85-1.87,3.37-.4,6.73-1.02,9.87-2.3,3.14-1.33,6.02-3.42,7.8-6.31l5.59-2.18c2.44-.75,5.09-.71,7.49.13.66.23,1.28.54,1.72,1.06.18.23.31.44.35.66.31.89.23,1.91.23,2.84.13,5.02,5.49,12.22-.75,15.58l-.03.03Z"/>
        <path class="cls-16" d="M397.21,377.76c-1.72.89-3.72,1.12-5.63,1.06-4.2-.13-8.2-1.6-12.32.13-4.2,1.82-7.84,4.98-12.31,6.31-2.4.66-4.92.81-7.39.75-.89-.04-1.82.23-2.65.04-.97-.23-1.99-.98-2.75-1.6-.49-.4-.89-.85-1.16-1.41-.75-1.68-.4-3.51.39-5.15.93,2.62,3.77,4.21,6.56,4.44,2.84.18,5.59-.81,8.15-1.99,2.57-1.24,5.01-2.72,7.7-3.51,3.19-.98,6.6-1.02,9.93-1.43,3.23-.4,6.87-1.51,8.32-4.44.89-1.82.8-3.96.89-5.95.13-2.04.66-4.26,2.3-5.37.18-.09.31-.18.49-.31.31.89.23,1.91.23,2.84.13,5.02,5.49,12.22-.75,15.58h-.01Z"/>
        <path class="cls-22" d="M399.86,345.2c-.31,1.95-.58,3.86-.75,5.81-.08.66-.13,1.29-.18,1.95-.08,1.33-.18,2.66-.23,4-.04,1.87.35,4.44-1.47,5.73-.54.4-1.2.62-1.82.71-.35.13-.66.18-1.01.23-2.34.4-4.74.49-7.14.35-1.64-.08-4.08-.4-5.44-1.51-2.17-1.73-1.28-4-.93-6.39.27-1.99.44-4,.58-6,.04-.81.08-1.64.44-2.4.62-1.29,1.37-1.06,2.44-1.12,1.33-.09,2.57-.35,3.85-.31,1.12.04,2.22.18,3.27.49.97.31,1.99,1.02,3.02,1.02.89,0,1.78-.23,2.57-.54,1.06-.5,2.04-1.2,2.79-2.04h.01Z"/>
        <path class="cls-16" d="M399.86,345.2c-.31,1.95-.58,3.86-.75,5.81-.08.66-.13,1.29-.18,1.95-.08,1.33-.18,2.66-.23,4-.04,1.87.35,4.44-1.47,5.73-.54.4-1.2.62-1.82.71-.08-1.06-.13-2.18-.13-3.24-.04-2.88-.04-5.73-.08-8.57l1.86-4.36c1.06-.5,2.04-1.2,2.79-2.04Z"/>
        <path class="cls-23" d="M402.2,334.77c-.08.66-.22,1.29-.35,1.95-.93,4.44-1.16,9.33-3.85,13.23-.35.5-.75.98-1.24,1.33-.31.23-.66.4-1.01.58-.09.04-.13.04-.23.04-.23.09-.44.18-.66.23-3.89,1.06-11.26,2.14-13.2-2.35-2.88-6.62-5.05-13.67-7.14-20.56-2.22-7.1-4.39-14.21-6.42-21.36-1.02-3.65-8.42-39.35-9.39-49.29-.62-6.35-1.24-12.66-1.51-19-.13-3.07-.18-6.12-.09-9.23.04-1.02.09-2.14.54-3.07.66-1.33,2.13-2.14,3.58-2.35,2.71-.31,4.34-1.73,6.95-2.26.66-.09,1.37-.18,1.99.04.85.35,1.37,1.2,1.82,1.99.04.09.13.18.18.27,3.54,6.22,6.52,12.84,8.94,19.67.97,2.62,1.86,5.33,2.61,7.99.13.35.23.66.31,1.02,3.95,13.81,5.8,28.34,5.85,42.59,1.43-.13,2.83-.18,4.16.35,2.3.89,3.58,3.28,4.51,5.56,2.34,5.81,3.27,12.07,3.81,18.34.35,4.57.54,9.64-.18,14.3h.01Z"/>
        <path class="cls-16" d="M402.2,334.77c-.08.66-.22,1.29-.35,1.95-.93,4.44-1.16,9.33-3.85,13.23-.35.5-.75.98-1.24,1.33-.31.23-.66.4-1.01.58-.09.04-.13.04-.23.04.04-7.68.4-15.33-.54-22.96-.75-6.31-3.89-11.55-6.16-17.41-7.14-18.52-10.06-38.28-9.97-58.09l4.87-.85c.13.35.23.66.31,1.02,3.95,13.81,5.8,28.34,5.85,42.59,1.42-.13,2.84-.18,4.16.35,2.3.89,3.58,3.28,4.51,5.56,2.34,5.81,3.27,12.08,3.81,18.34.35,4.57.54,9.64-.18,14.3h.03Z"/>
        <path class="cls-3" d="M430.38,376.02c.22,4.52-4.08,7.28-6.17,10.83-1.47,2.49-2.3,5.33-3.64,7.9-2.17,4.17-6.11,6.62-10.76,7.15-2.21.23-4.47.04-6.73-.13-3.68-.27-7.93,0-11.07-2.22-.27-.18-.54-.4-.8-.66-.18-.18-.35-.44-.49-.71-.93-2.05.23-3.82,1.68-5.15,3.33-3.03,6.6-6.08,9.93-9.11,2.48-2.26,4.96-4.52,6.79-7.37,1.47-2.26,2.44-4.84,4.12-6.97,1.43-1.82,3.72-3.59,6.16-3.42,1.02.08,1.68.71,2.65.89.49.09,1.02.04,1.55-.04.66-.08,1.37-.31,1.95-.58.44-.18.93-.44,1.37-.31.54.18.75.75.93,1.24.18.62.4,1.24.62,1.87.4,1.2.8,2.4,1.16,3.59.35,1.02.71,2.09.75,3.2v-.02Z"/>
        <path class="cls-16" d="M430.38,376.02c.22,4.52-4.08,7.28-6.17,10.83-1.47,2.49-2.3,5.33-3.64,7.9-2.17,4.17-6.11,6.62-10.76,7.15-2.21.23-4.47.04-6.73-.13-3.68-.27-7.93,0-11.07-2.22-.27-.18-.54-.4-.8-.66,2.3.54,4.65,1.02,7,1.16,3.19.18,6.42-.27,9.52-1.16,2.34-.62,4.7-1.56,6.47-3.24,1.59-1.51,2.61-3.55,3.64-5.5,1.68-3.07,3.54-6,4.82-9.23,1.28-3.24,1.95-6.84,1.06-10.21l-.13-3.69c.66-.08,1.37-.31,1.95-.58.44-.18.93-.44,1.37-.31.54.18.75.75.93,1.24.18.62.4,1.24.62,1.87.4,1.2.8,2.4,1.16,3.59.35,1.02.71,2.09.75,3.2v-.02Z"/>
        <path class="cls-22" d="M428.08,367.33c-.27.66-.66,1.24-1.11,1.73-.75.85-1.64,1.56-2.65,2.04-.97.54-2.04.89-3.14.98-2.22.27-4.51-.31-6.33-1.6-.54-.35-1.02-.85-1.28-1.43-.18-.4-.27-.85-.31-1.24-.31-2.09-.44-4.21-.35-6.31,0,.23,3.95-1.06,4.26-1.16,2.22-.66,4.39-1.47,6.48-2.45.66-.31,1.33-.66,1.9-1.12.31-.18.62-.44.89-.71.35-.31.66-.71.89-1.16-.13.27-.13.81-.09,1.43.09.62.23,1.33.35,1.95.13.62.27,1.2.27,1.55.04,1.64.35,3.24.44,4.88.08.85.08,1.74-.18,2.57v.04Z"/>
        <path class="cls-16" d="M428.08,367.33c-.27.66-.66,1.24-1.11,1.73-.75.85-1.64,1.56-2.65,2.04-.13-2.84-.18-5.68-.23-8.53,0-.09,0-.13-.08-.18l1.51-5.6.27-.93c.18.09.39.13.62.23.27.09.54.18.8.27.08.62.23,1.33.35,1.95.13.62.27,1.2.27,1.55.04,1.64.35,3.24.44,4.88.08.85.08,1.74-.18,2.57v.03Z"/>
        <path class="cls-23" d="M428.17,356.31c-.23,2.04-.62,3.9-2.3,5.33-.44.4-1.02.75-1.72,1.06-3.77,1.78-10.37,2.22-11.88-1.16-1.82-4.04-4.08-8.09-5.05-12.3-.4-1.78-2.48-7.55-5.01-14.48-3.77-10.17-8.59-22.74-11.07-28.73-1.55-3.9-2.61-7.95-3.64-12.03-1.33-5.42-2.65-10.87-3.99-16.3-1.28-5.25-2.57-10.48-3.27-15.85-.4-2.88-.93-6.39-.93-9.69.04-2.09.31-4.04.89-5.77.23-.62.54-1.24.93-1.78.54-.75,1.2-1.37,2.03-1.78.93-.44,1.99-.54,3.02-.62,2.61-.23,5.19-.44,7.8-.62,2.34-.23,4.61-.98,7-1.29,3.27-.5,6.64-.62,9.97-.98,3.1-.35,5.67-2.26,8.51-3.51.8-.31,1.55-.62,2.4-.62.27,0,.54,0,.75.13.4.13.8.31,1.24.49.58.35,1.01.89,1.24,1.56,1.06,2.97,1.78,6.04,2.26,9.15,1.55,10.66-.04,21.36-2.34,31.76-.93,4.04-1.82,8.09-2.88,12.03-2.21,8.03-1.33,16.16,1.2,23.98,1.9,5.81,4.34,11.55,5.23,17.59.18.98.27,1.91.35,2.88.71,7.06.08,14.65-.71,21.53h-.03Z"/>
        <path class="cls-16" d="M428.17,356.31c-.23,2.04-.62,3.9-2.3,5.33-.44.4-1.02.75-1.72,1.06-.64.28.03-7.61.04-8.2.14-3.8-.06-7.66-.38-11.45-.65-7.76-2.12-15.45-4.37-22.92-2.79-9.28-3.84-18.51-2.96-28.14.88-9.77,3.19-19.33,5.49-28.83l2.44-10.08c-1.55,1.41-3.64,2.05-5.68,2.52-11.48,2.64-23.49,1.36-34.67-1.95-1.59-.5-3.19-.98-4.74-1.47-.71-.18-1.37-.4-2.09-.62-7.22-2.22-13.56-6.18-19.23-11.24-.27-.23-.54-.5-.8-.75-.13-3.07-.18-6.12-.09-9.23.04-1.02.09-2.14.54-3.07.66-1.33,2.13-2.14,3.58-2.35,2.71-.31,4.34-1.73,6.95-2.26.66-.09,1.37-.18,1.99.04.85.35,1.37,1.2,1.82,1.99.04.09.13.18.18.27,3.54,6.22,6.52,12.84,8.94,19.67.54-.75,1.2-1.37,2.03-1.78.93-.44,1.99-.54,3.02-.62,2.61-.23,5.19-.44,7.8-.62,2.34-.23,4.61-.98,7-1.29,3.27-.5,6.64-.62,9.97-.98,3.1-.35,5.67-2.26,8.51-3.51.8-.31,1.55-.62,2.4-.62.27,0,.54,0,.75.13.4.13.8.31,1.24.49.58.35,1.02.89,1.24,1.56,1.06,2.97,1.78,6.04,2.26,9.15,1.55,10.66-.04,21.36-2.34,31.76-.93,4.04-1.82,8.09-2.88,12.03-2.22,8.03-1.33,16.16,1.2,23.98,1.9,5.81,4.34,11.55,5.23,17.59.18.98.27,1.91.35,2.88.71,7.06.08,14.65-.71,21.53h-.01Z"/>
        <path class="cls-24" d="M427.59,245.73c-.44.81-1.37,1.2-2.26,1.51-1.78.62-3.54,1.16-5.36,1.6-9.56,2.26-19.72,1.78-29.59.75-2.61-.27-5.23-.58-7.8-1.16-6.29-1.37-12.27-4.4-17.19-8.57-2.48-2.09-4.74-4.48-6.6-7.1-1.68-2.31-1.82-5.15-1.78-7.99.04-3.9.23-7.82.44-11.72.49-7.72,1.28-15.41,2.04-23.09.31-3.15.58-6.35,0-9.5-1.16-6.43-5.9-12.43-4.74-18.88.58-3.38,2.71-6.22,4.74-8.96,1.99-2.62,8.19-14.48,9.97-17.49,1.59-2.71,3.19-5.42,4.92-8.03.93-1.43,1.95-2.76,3.1-4.09,1.11-1.37,2.21-2.76,3.27-4.17.54-.71,1.02-1.43,1.55-2.18.39-.58.66-1.2,1.47-1.29.89-.13,1.74-.35,2.61-.4-.97,1.74-1.95,3.51-2.96,5.2-.97,1.6-2.03,3.11-2.92,4.71-3.46,6.18-6.87,12.34-10.28,18.48-2.21,4-4.47,8.79-2.48,12.88,1.55,3.28,5.54,4.88,9.17,4.62,2.88-.18,6.56-1.43,8.82-3.28,2.13-1.82,4.43-3.51,6.52-5.46,4.43-4.27,8.07-9.23,11.96-13.98,2.48-3.07,5.01-6.12,7.49-9.23,2.3-2.93,4.43-6,7-8.75.13-.13.27-.27.44-.4.18-.09.4-.13.62-.13,1.59-.13,3.02,1.02,4.2,2.09,1.55,1.37,3.19,2.84,3.89,4.84-1.28-.66-2.88-.54-4.26,0-1.95.85-3.46,2.22-4.87,3.77-1.55,1.68-3.1,3.42-4.47,5.33-5.01,6.84-7.89,15.23-8.07,23.71-.08,3.73.54,7.82,3.27,10.26,1.2,1.06,2.71,1.73,4.3,1.99,1.11.27,2.3.31,3.46.23,3.99-.4,7.8-2.49,10.24-5.68-1.78,6.04-4.16,11.95-6.47,17.76-2.17,5.46-5.32,11.45-5.98,17.32-.23,1.82-.18,3.69.27,5.46.4,1.64,1.16,3.2,1.86,4.75,1.68,3.55,3.37,7.16,5.05,10.7,1.37,2.97,2.79,6,3.58,9.19,1.02,4.09,1.72,7.82,2.09,12.03.04.85.13,1.68-.27,2.4v-.08Z"/>
        <path class="cls-15" d="M410.66,196.04c.85-8.17,1.86-16.3,3.1-24.48,1.11.27,2.3.31,3.46.23,3.99-.4,7.8-2.49,10.24-5.68-1.78,6.04-4.16,11.95-6.48,17.76-2.17,5.46-5.32,11.45-5.98,17.32-.22,1.82-.18,3.69.27,5.46.4,1.64,1.16,3.2,1.86,4.75,1.68,3.55,3.37,7.15,5.05,10.7,1.37,2.97,2.79,6,3.58,9.19,1.02,4.09,1.72,7.82,2.09,12.03.04.85.13,1.68-.27,2.4-.44.81-1.37,1.2-2.26,1.51-1.78.62-3.54,1.16-5.36,1.6-.41.1-3.4-10-3.68-10.94-.96-3.28-.93-6.31-4.64-7.69-2.03-.75-4.25-.76-6.39-1.03-2.04-.25-4.05-.78-6.04-1.29-2.3-.59-4.63-1.19-6.66-2.42-1.81-1.09-3.3-2.63-4.6-4.31,2.34-.31,4.7-.71,6.94-1.46,1.97-.66,3.85-1.58,5.73-2.5,2.02-.99,4.02-1.98,6.04-2.97.27-.13.55-.28.69-.55.52-.99,1.64-1.47,2.23-2.42.82-1.3.35-3.13.37-4.6,0-3.56.34-7.11.73-10.66l-.03.04Z"/>
        <path class="cls-7" d="M368.36,206.21c-.14-.33-.52-.61-.86-.78-1.2-.61-2.45-1.12-3.74-1.51-.9-.28-1.83-.51-2.71-.91-.65-.3-1.58-.82-1.83-1.5-.35-.96-.35-2.31-.41-3.31-.04-.61-.04-1.23-.14-1.84-.1-.64-.28-1.27-.39-1.91-.11-.65.15-1.7-.1-2.28-.27-.61-1.24-.35-1.78-.24-1.52.31-2.98,1.16-4.04,2.32-1.52,1.68-2.51,4.45-1.55,6.59,1.03,2.26,1.17,4.79,1.75,7.18.4,1.63,1.24,3.17,2.07,4.62.75,1.32,1.72,2.71,3.12,3.41,1.89.93,3.75,1.53,5.84,1.82,1.09.16,2.2.27,3.24-.06.59-.18,1.5-.52,1.11-1.19-.31-.54-1.11-.85-1.65-1.07-1.4-.57-2.86-.92-4.33-1.29-.83-.21-1.68-.41-2.51-.62.56-.25,1.2-.1,1.79.06,2.27.61,4.54,1.2,6.81,1.81.38.1.78.2,1.17.16.39-.04.79-.25.94-.64.17-.44-.06-.93-.34-1.32-1.04-1.41-2.74-2.21-4.44-2.66-1.71-.44-3.47-.59-5.16-1.05,1.02-.38,2.14-.04,3.17.3,1.4.45,2.78.92,4.18,1.37.65.21,1.33.44,2,.41.65-.01,1.28-.27,1.79-.68.1-.07.18-.17.2-.3,0-.1-.04-.2-.1-.28-.39-.61-1.06-.98-1.72-1.27-2.19-1.03-4.5-1.8-6.87-2.29-.54-.11-1.33-.28-1.51-.86.45-.17,1.03.11,1.47.24,1.54.44,3.15.89,4.71.55.32-.07.66-.2.79-.51.07-.17.06-.34,0-.51h.01Z"/>
        <path class="cls-7" d="M476.64,203.23c-4.35,3.96-9.83,6.97-15.02,9.81-4.74,2.57-9.71,5.5-14.88,7.28-5.09,1.73-10.28,3.11-15.54,4.17-2.65.54-5.36.93-8.07.93-1.24.31-2.21,1.16-3.37,1.51-1.16.4-2.4.75-3.58,1.06-4.43,1.16-8.51-.04-12.85-.98-1.55-.35-3.15-.23-4.74-.54-2.13-.44-4.3-.75-6.33-1.51-1.95-.75-3.77-1.95-4.83-3.73-.22-.4-.44-.85-.44-1.33-.04-.08-.04-.13-.04-.23.04-.54.31-1.12.85-1.29-.85-.85-1.74-1.68-2.57-2.57-.49-.5-.97-.98-1.2-1.6-.27-.66-.13-1.47.39-1.87-.62-.58-1.24-1.2-1.55-1.95-.35-.81-.23-1.87.49-2.3.54-.35,1.2-.35,1.82-.27,4.2.58,8.07,2.97,12.31,3.24.4,0,.93-.08.97-.49.04-.35-.35-.58-.71-.71-3.23-1.2-6.33-2.93-9.04-5.06-.66-.49-1.37-1.2-1.24-1.99.08-.75.8-1.24,1.55-1.33.71-.08,1.43.13,2.09.4,5.36,1.78,10.68,3.55,16.04,5.33.66.23,1.37.44,2.09.35.89-.18,1.11-.75,1.51-1.51.44-.75.89-1.47,1.37-2.22.89-1.47,1.86-2.88,2.88-4.31.04.85-.08,1.64-.08,2.49,0,.75.22,1.6.44,2.35.4,1.6.97,3.15,1.55,4.71.4,1.02.75,2.04,1.41,2.93.97,1.33,1.78,1.06,3.27.85,1.59-.31,2.92-1.12,4.43-1.64,1.47-.5,2.88-1.24,4.3-1.95,3.15-1.51,15.15-7.01,17.76-8.84,1.06-.71,2.61-1.78,2.84-3.19.27-1.73-1.43-4.44-2.13-6-6.79-14.48-19.66-24.65-28-38.01-1.82-2.93-4.08-6.7-3.99-10.27.08-2.97.97-6.97,2.92-9.28.97-1.12,2.17-1.99,3.5-2.66,1.42-.75,2.92-1.33,4.47-1.51.08-.04.13-.04.23-.04,1.64-.13,3.37.23,4.74,1.2,1.06.75,1.82,1.82,2.57,2.88,1.11,1.51,24.11,31.8,27.87,36.28,4.87,5.91,9,11.91,12.19,18.88.97,2.18,2.61,5.6,3.02,8.79.27,2.22-.04,4.31-1.64,5.73h-.01Z"/>
        <path class="cls-11" d="M476.64,203.23c-4.35,3.96-9.83,6.97-15.02,9.81-4.74,2.57-9.71,5.5-14.88,7.28-5.09,1.73-10.28,3.11-15.54,4.17-2.65.54-5.36.93-8.07.93-1.24.31-2.21,1.16-3.37,1.51-1.16.4-2.4.75-3.58,1.06-4.43,1.16-8.51-.04-12.85-.98-1.55-.35-3.15-.23-4.74-.54-2.13-.44-4.3-.75-6.33-1.51-1.95-.75-3.77-1.95-4.83-3.73-.22-.4-.44-.85-.44-1.33l.04-.08c5.59,2.93,12.19,3.15,18.52,2.93,12.89-.44,25.79-2.49,37.97-6.66,6.11-2.09,12.05-4.75,17.63-7.99,4.56-2.62,10.59-5.6,12.27-11.01.27-.75.35-1.56.35-2.35-.04-2.18-.97-4.21-2.03-6.08-3.41-5.77-33.54-44.58-40.85-54.49-1.11-1.47-2.21-3.03-3.19-4.67.08-.04.13-.04.23-.04,1.64-.13,3.37.23,4.74,1.2,1.06.75,1.82,1.82,2.57,2.88,1.11,1.51,24.11,31.8,27.87,36.28,4.87,5.91,9,11.91,12.19,18.88.97,2.18,2.61,5.6,3.02,8.79.27,2.22-.04,4.31-1.64,5.73h-.04Z"/>
        <path class="cls-16" d="M423.95,362.48l.03-.11s-.1.11-.03.11Z"/>
      </g>
      <g>
        <text class="cls-18" transform="translate(157.53 84.01)"><tspan x="0" y="0">ECG</tspan></text>
        <text class="cls-18" transform="translate(181.59 156.01)"><tspan x="0" y="0">BP</tspan></text>
        <text class="cls-18" transform="translate(116.28 229.01)"><tspan x="0" y="0">Glucose</tspan></text>
        <text class="cls-18" transform="translate(0 301.01)"><tspan x="0" y="0">Electromyography</tspan></text>
        <text class="cls-18" transform="translate(75.03 373.01)"><tspan x="0" y="0">Accelerator</tspan></text>
        <path class="cls-13" d="M220.5,76.51c0-4.7,3.58-8.5,8-8.5s8,3.8,8,8.5-3.58,8.5-8,8.5-8-3.81-8-8.5Z"/>
        <path class="cls-13" d="M220.5,148.01c0-4.42,3.58-8,8-8s8,3.58,8,8-3.58,8-8,8-8-3.58-8-8Z"/>
        <path class="cls-13" d="M220.5,221.51c0-4.69,3.58-8.5,8-8.5s8,3.81,8,8.5-3.58,8.5-8,8.5-8-3.81-8-8.5Z"/>
        <path class="cls-13" d="M220.5,295.01c0-4.42,3.58-8,8-8s8,3.58,8,8-3.58,8-8,8-8-3.58-8-8Z"/>
        <path class="cls-13" d="M220.5,366.01c0-4.42,3.58-8,8-8s8,3.58,8,8-3.58,8-8,8-8-3.58-8-8Z"/>
      </g>
    </g>
  </g>
</svg>